<svg id="Capa_1" data-name="Capa 1" xmlns="http://www.w3.org/2000/svg" viewBox="0 0 124 139.97"><defs><style>.cls-1{fill:#7980b1;}.cls-2{fill:#1c1e3f;}.cls-3{opacity:0.4;}.cls-4{fill:#fff;}.cls-5{opacity:0.6;}.cls-6{fill:#181c36;opacity:0.6;}</style></defs><title>Sin título-1</title><path class="cls-1" d="M112.4,49.42h-8.19a43.63,43.63,0,0,0-3.46-8.37l5.79-5.79c3.88-3.88,4.26-9.8.84-13.22L102,16.62c-3.42-3.42-9.34-3-13.22.84L83,23.25a43.63,43.63,0,0,0-8.37-3.46V11.6c0-5.49-3.91-9.94-8.75-9.94H58.17c-4.84,0-8.75,4.45-8.75,9.94v8.19a43.63,43.63,0,0,0-8.37,3.46l-5.79-5.79c-3.88-3.88-9.8-4.26-13.22-.84L16.62,22c-3.42,3.42-3,9.34.85,13.22l5.78,5.79a43.63,43.63,0,0,0-3.46,8.37H11.6c-5.49,0-9.94,3.91-9.94,8.75v7.66c0,4.84,4.45,8.75,9.94,8.75h8.19A43.63,43.63,0,0,0,23.25,83l-5.78,5.79c-3.89,3.88-4.27,9.8-.85,13.22L22,107.38c3.42,3.42,9.34,3,13.22-.84l5.79-5.79a43.63,43.63,0,0,0,8.37,3.46v8.19c0,5.49,3.91,9.94,8.75,9.94h7.66c4.84,0,8.75-4.45,8.75-9.94v-8.19A43.63,43.63,0,0,0,83,100.75l5.79,5.79c3.88,3.88,9.8,4.26,13.22.84l5.42-5.42c3.42-3.42,3-9.34-.84-13.22L100.75,83a43.63,43.63,0,0,0,3.46-8.37h8.19c5.49,0,9.94-3.91,9.94-8.75V58.17C122.34,53.33,117.89,49.42,112.4,49.42ZM62,82.88A20.88,20.88,0,1,1,82.88,62,20.88,20.88,0,0,1,62,82.88Z"/><path class="cls-2" d="M65.83,124H58.17c-5.74,0-10.41-5.2-10.41-11.6v-7a46.07,46.07,0,0,1-6.4-2.65l-4.93,4.93a12.23,12.23,0,0,1-8.55,3.66,9.81,9.81,0,0,1-7-2.82l-5.42-5.42a9.84,9.84,0,0,1-2.8-7.71,12.28,12.28,0,0,1,3.64-7.85l4.93-4.93a46.07,46.07,0,0,1-2.65-6.4h-7C5.2,76.24,0,71.57,0,65.83V58.17c0-5.74,5.2-10.41,11.6-10.41h7a46.07,46.07,0,0,1,2.65-6.4l-4.93-4.93a12.28,12.28,0,0,1-3.64-7.85,9.84,9.84,0,0,1,2.8-7.71l5.42-5.42a9.81,9.81,0,0,1,7-2.82,12.23,12.23,0,0,1,8.55,3.66l4.93,4.93a46.07,46.07,0,0,1,6.4-2.65v-7C47.76,5.2,52.43,0,58.17,0h7.66c5.74,0,10.41,5.2,10.41,11.6v7a46.07,46.07,0,0,1,6.4,2.65l4.93-4.93a12.23,12.23,0,0,1,8.55-3.66,9.81,9.81,0,0,1,7,2.82l5.42,5.42c4.06,4.06,3.68,11-.84,15.56l-4.93,4.93a46.07,46.07,0,0,1,2.65,6.4h7c6.4,0,11.6,4.67,11.6,10.41v7.66c0,5.74-5.2,10.41-11.6,10.41h-7a46.07,46.07,0,0,1-2.65,6.4l4.93,4.93c4.52,4.52,4.9,11.5.84,15.56l-5.42,5.42a9.81,9.81,0,0,1-7,2.82,12.23,12.23,0,0,1-8.55-3.66l-4.93-4.93a46.07,46.07,0,0,1-6.4,2.65v7C76.24,118.8,71.57,124,65.83,124ZM41.05,99.09a1.72,1.72,0,0,1,.79.2,42.5,42.5,0,0,0,8,3.33,1.65,1.65,0,0,1,1.18,1.59v8.19c0,4.57,3.19,8.29,7.1,8.29h7.66c3.91,0,7.1-3.72,7.1-8.29v-8.19a1.65,1.65,0,0,1,1.18-1.59,42.5,42.5,0,0,0,8-3.33,1.65,1.65,0,0,1,2,.29l5.79,5.78a8.94,8.94,0,0,0,6.21,2.7,6.55,6.55,0,0,0,4.67-1.85l5.42-5.42c2.76-2.77,2.38-7.65-.85-10.88l-5.78-5.79a1.65,1.65,0,0,1-.29-2,42.5,42.5,0,0,0,3.33-8,1.65,1.65,0,0,1,1.59-1.18h8.19c4.57,0,8.29-3.19,8.29-7.1V58.17c0-3.91-3.72-7.1-8.29-7.1h-8.19a1.65,1.65,0,0,1-1.59-1.18,42.5,42.5,0,0,0-3.33-8,1.65,1.65,0,0,1,.29-2l5.78-5.79c3.23-3.23,3.61-8.11.85-10.88l-5.42-5.42a6.55,6.55,0,0,0-4.67-1.85,8.94,8.94,0,0,0-6.21,2.7l-5.79,5.78a1.65,1.65,0,0,1-2,.29,42.5,42.5,0,0,0-8-3.33,1.65,1.65,0,0,1-1.18-1.59V11.6c0-4.57-3.19-8.29-7.1-8.29H58.17c-3.91,0-7.1,3.72-7.1,8.29v8.19a1.65,1.65,0,0,1-1.18,1.59,42.5,42.5,0,0,0-8,3.33,1.65,1.65,0,0,1-2-.29l-5.79-5.78a8.94,8.94,0,0,0-6.21-2.7,6.55,6.55,0,0,0-4.67,1.85l-5.42,5.42A6.57,6.57,0,0,0,16,28.37a8.9,8.9,0,0,0,2.68,5.72l5.79,5.79a1.67,1.67,0,0,1,.28,2,42.5,42.5,0,0,0-3.33,8,1.65,1.65,0,0,1-1.59,1.18H11.6c-4.57,0-8.29,3.19-8.29,7.1v7.66c0,3.91,3.72,7.1,8.29,7.1h8.19a1.65,1.65,0,0,1,1.59,1.18,42.5,42.5,0,0,0,3.33,8,1.67,1.67,0,0,1-.28,2l-5.79,5.79A8.9,8.9,0,0,0,16,95.63a6.57,6.57,0,0,0,1.83,5.16l5.42,5.42a6.55,6.55,0,0,0,4.67,1.85,8.94,8.94,0,0,0,6.21-2.7l5.79-5.78A1.65,1.65,0,0,1,41.05,99.09ZM62,84.53A22.53,22.53,0,1,1,84.53,62,22.55,22.55,0,0,1,62,84.53Zm0-41.75A19.22,19.22,0,1,0,81.22,62,19.24,19.24,0,0,0,62,42.78Z"/><g class="cls-3"><path class="cls-4" d="M28.55,65.73a2.07,2.07,0,0,1-2.07-2.08,36.06,36.06,0,0,1,36-36,2.07,2.07,0,0,1,0,4.14A31.91,31.91,0,0,0,30.62,63.65,2.08,2.08,0,0,1,28.55,65.73Z"/></g><g class="cls-5"><path class="cls-4" d="M20.91,34.9a2.51,2.51,0,0,1-1.76-.73A8.2,8.2,0,0,1,17.61,24a2.08,2.08,0,0,1,.37-.46l3.37-3.25a2.49,2.49,0,0,1,3.45,3.58l-3.09,3a3.25,3.25,0,0,0,1,3.81,2.49,2.49,0,0,1-1.76,4.25Z"/></g><g class="cls-5"><path class="cls-4" d="M11.59,72.72a8.21,8.21,0,0,1-8.3-6.11A2.88,2.88,0,0,1,3.23,66l.09-4.67a2.45,2.45,0,0,1,2.53-2.44,2.48,2.48,0,0,1,2.44,2.53l-.08,4.29a3.26,3.26,0,0,0,3.38,2,2.49,2.49,0,0,1,0,5Z"/></g><g class="cls-5"><path class="cls-4" d="M53.46,20.79h0A2.49,2.49,0,0,1,51,18.26l.14-8.49a2.49,2.49,0,1,1,5,.09L56,18.34A2.49,2.49,0,0,1,53.46,20.79Z"/></g><ellipse class="cls-6" cx="62.44" cy="136.97" rx="58.5" ry="3"/></svg>