<svg id="Capa_1" data-name="Capa 1" xmlns="http://www.w3.org/2000/svg" viewBox="0 0 134.64 95.67"><defs><style>.cls-1{fill:#0b7a96;}.cls-2{fill:#053542;}.cls-3,.cls-6{fill:#065c7a;}.cls-3{stroke:#053542;stroke-miterlimit:10;stroke-width:2px;}.cls-4{opacity:0.3;}.cls-5{fill:#fff;}.cls-7{fill:#056b84;}.cls-8{fill:#046a83;}</style></defs><title>cursos</title><polygon class="cls-1" points="132.37 37.94 67.32 66.65 2.27 37.94 67.32 21.42 132.37 37.94"/><path class="cls-2" d="M67.32,68.92a2.3,2.3,0,0,1-.92-.19L1.36,40A2.29,2.29,0,0,1,0,37.74a2.27,2.27,0,0,1,1.71-2l65-16.52a2.36,2.36,0,0,1,1.12,0l65.05,16.52a2.28,2.28,0,0,1,.36,4.29l-65,28.71A2.26,2.26,0,0,1,67.32,68.92ZM9.23,38.52,67.32,64.16l58.1-25.64L67.32,23.76Z"/><path class="cls-3" d="M65.69,41.5a2.26,2.26,0,0,1-2.18-1.64c-.09-.31-9.18-30.75-26.09-30.75H37a2.25,2.25,0,0,1-2.34-2.2,2.27,2.27,0,0,1,2.2-2.34h.6c20.31,0,30,32.63,30.44,34a2.27,2.27,0,0,1-1.54,2.82A2.41,2.41,0,0,1,65.69,41.5Z"/><g class="cls-4"><path class="cls-5" d="M22.87,46.5a1,1,0,0,1-.42-.08L2.93,38.7a1.14,1.14,0,0,1,.13-2.16l23-6a1.14,1.14,0,1,1,.57,2.2L7,37.86l16.28,6.45a1.13,1.13,0,0,1-.41,2.19Z"/></g><path class="cls-6" d="M67.34,74.91,39.79,62.58V86.5c5.89,5.68,15.64,6.9,27.06,6.9s21.82-1.24,27.71-7V63.23Z"/><path class="cls-2" d="M66.85,95.67c-10.3,0-21.76-.89-28.64-7.54a2.29,2.29,0,0,1-.69-1.63V62.58a2.27,2.27,0,0,1,1-1.91,2.25,2.25,0,0,1,2.16-.16L67.36,72.43l26.3-11.29a2.23,2.23,0,0,1,2.15.19,2.26,2.26,0,0,1,1,1.9V86.45a2.29,2.29,0,0,1-.69,1.63C89.26,94.77,77.47,95.67,66.85,95.67ZM42.07,85.49c5.83,5,15.76,5.63,24.78,5.63,8.79,0,19.51-.66,25.43-5.68V66.68L68.24,77a2.28,2.28,0,0,1-1.83,0L42.07,66.09Z"/><g class="cls-4"><path class="cls-5" d="M53.78,93.23h-.17C43.92,91.77,39.2,86.33,39,86.1a1.15,1.15,0,0,1-.27-.77l.47-17.21A1.15,1.15,0,0,1,40.38,67a1.13,1.13,0,0,1,1.1,1.16L41,84.92A23.38,23.38,0,0,0,54,91a1.14,1.14,0,0,1-.17,2.26Z"/></g><g class="cls-4"><path class="cls-5" d="M36.53,52.63a1.17,1.17,0,0,1-.47-.1L25.39,47.67a1.14,1.14,0,0,1-.56-1.51,1.12,1.12,0,0,1,1.5-.56L37,50.46A1.14,1.14,0,0,1,37.57,52,1.13,1.13,0,0,1,36.53,52.63Z"/></g><g class="cls-4"><path class="cls-5" d="M40.71,54.35a1.09,1.09,0,0,1-.46-.1l-1.42-.64a1.13,1.13,0,1,1,.92-2.07l1.43.63a1.14,1.14,0,0,1-.47,2.18Z"/></g><path class="cls-2" d="M34.13,25.56a2.1,2.1,0,0,1-.56-.07l-9.63-2.42a2.28,2.28,0,0,1-1.72-2.35A27.65,27.65,0,0,1,23,16c1.76-7,5.73-11.86,9.66-11.86a5.15,5.15,0,0,1,1.18.14c4.29,1.09,6,7.58,4,15.45a26.93,26.93,0,0,1-1.6,4.54A2.26,2.26,0,0,1,34.13,25.56ZM27,19.14l5.8,1.46a20.28,20.28,0,0,0,.62-2c1.51-6,.08-9.73-.69-9.92h0c-1.16,0-3.91,2.89-5.3,8.41C27.21,17.75,27.07,18.44,27,19.14Z"/><path class="cls-7" d="M35.58,19.15c1.59-6.29.54-12-2.34-12.69s-6.49,3.78-8.07,10.07a24.07,24.07,0,0,0-.68,4.33l9.63,2.43A23.67,23.67,0,0,0,35.58,19.15Z"/><path class="cls-2" d="M33.43,12.86a6.43,6.43,0,1,1,6.43-6.43A6.44,6.44,0,0,1,33.43,12.86Zm0-8.31a1.88,1.88,0,1,0,1.88,1.88A1.88,1.88,0,0,0,33.43,4.55Z"/><g class="cls-4"><path class="cls-5" d="M28.8,5.87a1.31,1.31,0,0,1-.38-.06,1.14,1.14,0,0,1-.69-1.45c.11-.31,1.11-3,3.27-3.7a1.14,1.14,0,1,1,.7,2.16c-.93.3-1.65,1.79-1.83,2.29A1.13,1.13,0,0,1,28.8,5.87Z"/></g><circle class="cls-8" cx="33.43" cy="6.43" r="4.15"/></svg>