<svg id="Capa_1" data-name="Capa 1" xmlns="http://www.w3.org/2000/svg" viewBox="0 0 127.51 140.14"><defs><style>.cls-1{fill:#1f1e17;}.cls-2{fill:#393828;}.cls-3{fill:#87752d;}.cls-4{fill:#f8efa0;}.cls-5{fill:#fcfbee;}.cls-6{fill:#5e5e5d;}.cls-7{fill:#181c36;opacity:0.6;}</style></defs><title>Sin título-1</title><path class="cls-1" d="M104.39,1.15c5.51,0,11,0,16.52,0a5.74,5.74,0,0,1,5.84,5.78c0,.3,0,.59,0,.89q0,54.92,0,109.83a6.29,6.29,0,0,1-2.41,5.42,6,6,0,0,1-3.89,1.06q-21,0-42,0c-14.94,0-29.88-.08-44.82.06a6.12,6.12,0,0,1-6.49-6.5q0-55.07,0-110.13c0-4,2.4-6.41,6.44-6.41l15,0c0,1.2,0,2.4,0,3.6-5,0-9.93-.06-14.89-.06-2.1,0-2.82.74-2.82,2.84q0,55.14,0,110.28c0,2.1.62,2.74,2.7,2.74h86.7c2.08,0,2.7-.63,2.7-2.74V7.53c0-2.06-.71-2.82-2.83-2.83-5.16,0-10.32,0-15.48,0A12.71,12.71,0,0,0,104.39,1.15Z"/><path class="cls-2" d="M0,44.87Q0,27.62,0,10.38c0-4.21,2.71-6.94,6.9-6.9,1.81,0,3.63-.27,5.42.3A5.9,5.9,0,0,1,16.72,9c.4,3.44.79,6.91.11,10.38a8,8,0,0,0,0,1.47q0,28.16,0,56.31a15.8,15.8,0,0,1-1.51,7.51c-2,3.84-3.57,7.86-5.35,11.8C9.68,97.1,9.49,98,8.58,98s-1.12-.83-1.43-1.48q-3.3-7-6.56-14A7.49,7.49,0,0,1,0,79.36Q0,62.11,0,44.87ZM4,6.56l-.29.26a4,4,0,0,0-1.38,3.54c0,.54.12.79.73.79q5.44,0,10.88,0c.57,0,.74-.2.76-.77.07-1.93-1.15-4-3-4.45A12.09,12.09,0,0,0,5,6.06c-.23,0-.47.06-.59.3ZM5.56,17c2.69,0,5.39.05,8.09,0,.36,0,1,.28,1-.48,0-.59-.6-.37-.94-.37-2.7,0-5.4,0-8.09,0a3.21,3.21,0,0,0-.84-.2c-.78,0-1.34-.08-1.32-1.09S4.17,14,4.76,14c2.85,0,5.7,0,8.55,0,.44,0,1,.25,1.32-.34-.29-.63-.86-.37-1.29-.37-2.75,0-5.51-.09-8.25,0-.92,0-2.06-.89-2.57-.08s-.06,1.88,0,2.85c-.26.53-.28.95.48.94S4.69,17,5.56,17Zm.9,73a6.47,6.47,0,0,1,.73,2.49,1,1,0,0,0,.77,1,.68.68,0,0,0,.75-.33.9.9,0,0,0-.2-1.2c-.8-.6-.63-1.34-.51-2.12.58,0,1.17-.09,1.75-.07A1,1,0,0,0,10.88,89c.73-1.7,1.49-3.38,2.25-5.07.26-.58.22-.91-.54-.9-2.54,0-5.09.07-7.63.09-1.29-.36-1.61,0-1,1.25C4.81,86.19,5.62,88.07,6.46,89.94Zm.12-40c0,9.77,0,19.54,0,29.31,0,1.29.41,1.55,1.58,1.5s1.64,0,1.64-1.42Q9.67,50,9.76,20.73c0-1.37-.54-1.43-1.62-1.45s-1.6.22-1.59,1.51C6.6,30.51,6.58,40.24,6.58,50ZM12,49.91c0,9.82,0,19.64,0,29.47,0,1.08.25,1.38,1.36,1.4,1.47,0,1.27-.85,1.27-1.72q0-29.18,0-58.35c0-1-.18-1.44-1.34-1.46S12,19.74,12,20.73C12,30.46,12,40.18,12,49.91Zm-9.7.18h0q0,14.66,0,29.31c0,.74-.15,1.41,1.07,1.38s1-.61,1-1.3c.08-19.78-.16-39.57.13-59.35,0-.58-.18-.89-.83-.94-1.09-.08-1.4.34-1.39,1.44C2.34,30.45,2.32,40.27,2.32,50.09Z"/><path class="cls-2" d="M84.9,1.16c1.94-1.52,2.51-1.52,4.46,0,.09,1.18.19,2.37.29,3.55,0,.57,0,1.14,0,1.71l0,4.63c0,1,0,1.95-.08,2.92-.09,1.65-1.09,2.71-2.49,2.66A2.47,2.47,0,0,1,84.72,14c0-1,0-2-.08-2.92,0-1.54,0-3.08,0-4.63V4.71A15.12,15.12,0,0,1,84.9,1.16Zm1.81,3.45c0-.69,0-1.38,0-2.07a.65.65,0,0,0-.64-.68c-.44-.05-.64.26-.65.63,0,1.37,0,2.75,0,4.12,0,.37.13.7.59.68a.67.67,0,0,0,.7-.77C86.72,5.88,86.71,5.25,86.71,4.61Z"/><path class="cls-2" d="M48.62,4.76c0-1.2,0-2.4,0-3.6,2.23-1.55,2.54-1.55,4.45,0a12.27,12.27,0,0,1,.29,3.57c0,.56,0,1.13,0,1.69l0,4.69c0,1,0,2.05,0,3.08a2.43,2.43,0,0,1-2.39,2.45,2.37,2.37,0,0,1-2.33-2.35c0-1,0-2.06,0-3.08V4.76Zm.58-.17h0c0,.68,0,1.36,0,2.05a.59.59,0,0,0,.61.66.59.59,0,0,0,.65-.63c0-1.37,0-2.73,0-4.09,0-.45-.25-.76-.72-.73s-.59.41-.58.84C49.21,3.33,49.2,4,49.2,4.59Z"/><path class="cls-2" d="M61.9,1.16c1.85-1.47,2.55-1.47,4.45,0,0,1.2,0,2.4,0,3.6,0,.53,0,1.07,0,1.6V11.2c0,1,.06,2,0,2.94a2.32,2.32,0,0,1-2.31,2.5,2.45,2.45,0,0,1-2.37-2.5c0-1,0-2.06-.08-3.09l0-4.63V4.71A15.12,15.12,0,0,1,61.9,1.16Zm1.71,3.46h0c0-.69,0-1.37,0-2.06A.69.69,0,0,0,63,1.85a.7.7,0,0,0-.77.71c0,1.37,0,2.75,0,4.12a.63.63,0,0,0,.68.62.62.62,0,0,0,.68-.62C63.64,6,63.61,5.3,63.61,4.62Z"/><path class="cls-2" d="M104.39,1.15a12.71,12.71,0,0,1,.31,3.58c0,.55,0,1.11,0,1.66,0,1.58,0,3.16,0,4.74,0,1.13.06,2.26,0,3.38a2.41,2.41,0,0,1-2.42,2.12A2.33,2.33,0,0,1,100,14.36c0-1.07,0-2.15,0-3.23.14-1.37-.3-2.78.28-4.11.78.5,1.28.4,1.29-.64s0-2.32,0-3.48c0-.95-.38-1.23-1.25-.89-.34-.2-.32-.53-.34-.86C102.09-.3,102.61-.3,104.39,1.15Z"/><path class="cls-1" d="M66.37,4.76c0-1.2,0-2.4,0-3.6H84.9a15.12,15.12,0,0,0-.29,3.55Z"/><path class="cls-1" d="M100,1.15c0,.33,0,.66.34.86-.05.88-.09,1.76-.14,2.64a.22.22,0,0,0-.16,0l-10.34.07c-.1-1.18-.2-2.37-.29-3.55Z"/><path class="cls-1" d="M61.9,1.16a15.12,15.12,0,0,0-.29,3.55H53.38a12.27,12.27,0,0,0-.29-3.57Z"/><path class="cls-3" d="M104.68,6.39c0-.55,0-1.11,0-1.66,5.16,0,10.32-.05,15.48,0,2.12,0,2.83.77,2.83,2.83V117.82c0,2.11-.62,2.74-2.7,2.74H33.61c-2.08,0-2.7-.64-2.7-2.74q0-55.14,0-110.28c0-2.1.72-2.85,2.82-2.84,5,0,9.92,0,14.89.06,0,.53,0,1.07,0,1.6l-9,.06C35.63,6.43,33,9,33,13v98.89a6.27,6.27,0,0,0,6.6,6.56h74.87a6.19,6.19,0,0,0,2.72-.55c2.94-1.4,4-3.88,4-7V14c0-.3,0-.59,0-.89-.22-4.15-2.89-6.68-7-6.69Z"/><path class="cls-4" d="M6.58,50c0-9.72,0-19.45,0-29.17,0-1.29.42-1.54,1.59-1.51s1.62.08,1.62,1.45Q9.69,50,9.76,79.35c0,1.42-.61,1.38-1.64,1.42s-1.58-.21-1.58-1.5C6.6,69.5,6.58,59.73,6.58,50Z"/><path class="cls-4" d="M12,49.91c0-9.73,0-19.45,0-29.18,0-1,.09-1.49,1.31-1.48s1.34.42,1.34,1.46q0,29.17,0,58.35c0,.87.2,1.76-1.27,1.72-1.11,0-1.37-.32-1.36-1.4C12,69.55,12,59.73,12,49.91Z"/><path class="cls-4" d="M2.32,50.09c0-9.82,0-19.64,0-29.46,0-1.1.3-1.52,1.39-1.44.65,0,.84.36.83.94-.29,19.78,0,39.57-.13,59.35,0,.69.13,1.28-1,1.3s-1.07-.64-1.07-1.38q0-14.66,0-29.31Z"/><path class="cls-4" d="M5,6.06a12.09,12.09,0,0,1,6.77-.14c1.81.42,3,2.52,3,4.45,0,.57-.19.78-.76.77q-5.43,0-10.88,0c-.61,0-.71-.25-.73-.79A4,4,0,0,1,3.69,6.82a.9.9,0,0,0,.14.2,16.61,16.61,0,0,0-.78,2.63c-.08.54-.13,1,.5,1.14s.77-.36.9-.87c.22-.83.27-1.78,1.16-2.24.4-.21.65-.42.55-.88C6,6.17,5.56,6.11,5,6.17Z"/><path class="cls-4" d="M5,83.09c2.54,0,5.09,0,7.63-.09.76,0,.8.32.54.9-.76,1.69-1.52,3.37-2.25,5.07a1,1,0,0,1-1.13.71c-.58,0-1.17,0-1.75.07l-.33-.11Z"/><path class="cls-4" d="M2.48,16.09c0-1-.39-2.16,0-2.85s1.65.13,2.57.08c2.74-.12,5.5-.05,8.25,0,.43,0,1-.26,1.29.37-.32.59-.88.34-1.32.34-2.85,0-5.7,0-8.55,0-.59,0-1.31-.22-1.33.85S4,16,4.75,16a3.21,3.21,0,0,1,.84.2l-.07.07Z"/><path class="cls-5" d="M5,83.09l2.71,6.55c-.32.41-.82.17-1.21.3-.84-1.87-1.65-3.75-2.52-5.6C3.35,83.1,3.67,82.73,5,83.09Z"/><path class="cls-4" d="M5.59,16.16c2.69,0,5.39,0,8.09,0,.34,0,.9-.22.94.37.05.76-.61.48-1,.48-2.7,0-5.4,0-8.09,0,0-.25,0-.5,0-.75Z"/><path class="cls-6" d="M6.46,89.94c.39-.13.89.11,1.21-.3l.33.11c-.12.78-.29,1.52.51,2.12a.9.9,0,0,1,.2,1.2A.68.68,0,0,1,8,93.4a1,1,0,0,1-.77-1A6.47,6.47,0,0,0,6.46,89.94Z"/><path class="cls-5" d="M5.52,16.23c0,.25,0,.5,0,.75C4.69,17,3.83,17,3,17s-.74-.41-.48-.94Z"/><path class="cls-4" d="M4.36,6.36c.12-.24.36-.26.59-.3L5,6.17l-.58.3Z"/><path class="cls-4" d="M3.69,6.82,4,6.56l.15.17L3.83,7A.9.9,0,0,1,3.69,6.82Z"/><path class="cls-4" d="M4,6.56l.38-.2.09.1-.32.27Z"/><path class="cls-4" d="M100,11.13c0,1.08,0,2.16,0,3.23a2.33,2.33,0,0,0,2.25,2.27,2.41,2.41,0,0,0,2.42-2.12c.09-1.12,0-2.25,0-3.38,3.15,0,6.29-.07,9.43-.07,1.72,0,2.37.65,2.37,2.42,0,25.9,0,51.79,0,77.68,0,3.52-.77,4.56-4.57,4.62-4.7.08-9-1.48-13.33-3.18-1-.38-2-.83-2.85.13s-.39,1.78,0,2.72a13,13,0,0,1,1.14,7.15,20.66,20.66,0,0,1-4.65,10,3.12,3.12,0,0,1-2.74,1.29q-24.4-.06-48.79,0c-2.71,0-3.15-.44-3.15-3.15V14.15a8,8,0,0,1,.05-1.47c.17-.9.68-1.6,1.66-1.59,3.13,0,6.28-.21,9.41.11,0,1-.07,2.05,0,3.08a2.37,2.37,0,0,0,2.33,2.35,2.43,2.43,0,0,0,2.39-2.45c0-1,0-2.06,0-3.08l8.29,0c0,1,0,2.06.08,3.09a2.45,2.45,0,0,0,2.37,2.5,2.32,2.32,0,0,0,2.31-2.5c0-1,0-2,0-2.94.58,0,1.16-.14,1.73-.14H84.64c0,1,0,1.94.08,2.92a2.47,2.47,0,0,0,2.33,2.66c1.4.05,2.4-1,2.49-2.66,0-1,0-2,.08-2.92ZM77.11,39.65H102.3a9.7,9.7,0,0,0,1.32,0,1.64,1.64,0,0,0,1.53-1.69,1.66,1.66,0,0,0-1.36-1.83,5.19,5.19,0,0,0-1.31-.09h-51a6.46,6.46,0,0,0-1.32.07,1.81,1.81,0,0,0,.11,3.54,9.66,9.66,0,0,0,1.32,0Zm0,12.42H50.59a1.63,1.63,0,0,0-1.79,1.72,1.69,1.69,0,0,0,1.83,1.86h52a5.7,5.7,0,0,0,1.17,0,1.82,1.82,0,0,0,.39-3.37,4.19,4.19,0,0,0-1.59-.16Zm0,16H51.49a6.65,6.65,0,0,0-1.18,0A1.68,1.68,0,0,0,48.8,70a1.58,1.58,0,0,0,1.67,1.68h53A1.58,1.58,0,0,0,105.15,70a1.67,1.67,0,0,0-1.52-1.85,6.6,6.6,0,0,0-1.18,0Zm0,17.9H61.66c-3.63,0-7.26,0-10.9,0a1.72,1.72,0,0,0-2,1.69c-.11,1,.74,1.82,2,1.89.15,0,.29,0,.44,0h51.56c1.6,0,2.46-.68,2.42-1.89S104.44,86,102.76,86ZM44.26,29.35c0-3.24,0-6.48,0-9.73,0-1.8-.67-2.59-2.09-2.58-1.24,0-2.06,1-2.07,2.54q0,9.8,0,19.61c0,1.62.72,2.36,2.17,2.36s2-.69,2-2.32C44.27,35.94,44.26,32.65,44.26,29.35Zm0,23.49c0-1.57,0-3.14,0-4.71a2.1,2.1,0,0,0-2-2.12,2,2,0,0,0-2.14,2q-.09,4.71,0,9.41a2,2,0,0,0,2.16,2,2,2,0,0,0,2-2.13C44.24,55.78,44.26,54.31,44.26,52.84Z"/><path class="cls-1" d="M84.64,11.05H68.09c-.57,0-1.15.09-1.73.14V6.36l18.26.06C84.63,8,84.64,9.51,84.64,11.05Z"/><path class="cls-1" d="M100,11.13l-10.34-.08,0-4.63,10.41,0,.1,0,.09.59C99.66,8.35,100.1,9.76,100,11.13Z"/><path class="cls-3" d="M84.62,6.42,66.36,6.36c0-.53,0-1.07,0-1.6l18.24,0C84.61,5.28,84.62,5.85,84.62,6.42Z"/><path class="cls-3" d="M100.05,6.45l-10.41,0c0-.57,0-1.14,0-1.71L100,4.64Z"/><path class="cls-5" d="M86.71,4.61c0,.64,0,1.27,0,1.91a.67.67,0,0,1-.7.77c-.46,0-.58-.31-.59-.68,0-1.37,0-2.75,0-4.12,0-.37.21-.68.65-.63a.65.65,0,0,1,.64.68C86.72,3.23,86.71,3.92,86.71,4.61Z"/><path class="cls-1" d="M48.63,11.2c-3.13-.32-6.28-.1-9.41-.11-1,0-1.49.69-1.66,1.59a8,8,0,0,0-.05,1.47V110.7c0,2.71.44,3.15,3.15,3.15q24.39,0,48.79,0a3.12,3.12,0,0,0,2.74-1.29,20.66,20.66,0,0,0,4.65-10,13,13,0,0,0-1.14-7.15c-.42-.94-.85-1.83,0-2.72s1.88-.51,2.85-.13c4.29,1.7,8.63,3.26,13.33,3.18,3.8-.06,4.56-1.1,4.57-4.62.1-25.89,0-51.78,0-77.68,0-1.77-.65-2.42-2.37-2.42-3.14,0-6.28,0-9.43.07,0-1.58,0-3.16,0-4.74l9.43,0c4.14,0,6.81,2.54,7,6.69,0,.3,0,.59,0,.89v97c0,3.08-1,5.56-4,7a6.19,6.19,0,0,1-2.72.55H39.58a6.27,6.27,0,0,1-6.6-6.56V13c0-4,2.65-6.6,6.67-6.61l9-.06Zm54.3,86.91a8.15,8.15,0,0,0-2.65-.85,4.61,4.61,0,0,0,.29,2.11,22.55,22.55,0,0,1-3.85,13.47c2-.7,4.15-1.12,5.87-2.46a27.62,27.62,0,0,0,11-11h-3.29c-2.52,0-4.9-.85-7.36-1.24Zm13.54,3.44a34.76,34.76,0,0,1-12,12.18c3.33.12,6.56.12,9.8.12,1.28,0,2.14-.63,2.17-1.89C116.52,108.65,116.47,105.34,116.47,101.55Z"/><path class="cls-1" d="M61.64,11.05l-8.29,0c0-1.57,0-3.13,0-4.69h8.25Z"/><path class="cls-3" d="M61.62,6.42H53.37c0-.56,0-1.13,0-1.69h8.23C61.61,5.28,61.62,5.85,61.62,6.42Z"/><path class="cls-5" d="M49.35,4.17c0-.63,0-1.26,0-1.9,0-.43.1-.8.69-.84a.71.71,0,0,1,.85.73c0,1.36,0,2.72,0,4.08,0,.37-.26.65-.77.64s-.72-.28-.73-.67c0-.68,0-1.36,0-2Z"/><path class="cls-5" d="M63.61,4.62c0,.68,0,1.37,0,2.06a.62.62,0,0,1-.68.62.63.63,0,0,1-.68-.62c0-1.37,0-2.75,0-4.12A.7.7,0,0,1,63,1.85a.69.69,0,0,1,.62.71c0,.69,0,1.37,0,2.06Z"/><path class="cls-5" d="M100.24,7l-.09-.59V4.65c0-.88.09-1.76.14-2.64.87-.34,1.27-.06,1.25.89,0,1.16,0,2.32,0,3.48S101,7.52,100.24,7Z"/><path class="cls-2" d="M100.15,4.65V6.43l-.1,0L100,4.64A.22.22,0,0,1,100.15,4.65Z"/><path class="cls-5" d="M4.13,6.73l.32-.27L5,6.17c.53-.06,1,0,1.13.63.1.46-.15.67-.55.88-.89.46-.94,1.41-1.16,2.24-.13.51-.26,1-.9.87s-.58-.6-.5-1.14A16.61,16.61,0,0,1,3.83,7Z"/><path class="cls-2" d="M77.11,39.65H51.62a9.66,9.66,0,0,1-1.32,0,1.81,1.81,0,0,1-.11-3.54A6.46,6.46,0,0,1,51.51,36h51a5.19,5.19,0,0,1,1.31.09,1.66,1.66,0,0,1,1.36,1.83,1.64,1.64,0,0,1-1.53,1.69,9.7,9.7,0,0,1-1.32,0Z"/><path class="cls-2" d="M77.11,52.07H102.6a4.19,4.19,0,0,1,1.59.16,1.82,1.82,0,0,1-.39,3.37,5.7,5.7,0,0,1-1.17,0h-52a1.69,1.69,0,0,1-1.83-1.86,1.63,1.63,0,0,1,1.79-1.72H77.11Z"/><path class="cls-2" d="M77.12,68.08h25.33a6.6,6.6,0,0,1,1.18,0A1.67,1.67,0,0,1,105.15,70a1.58,1.58,0,0,1-1.65,1.69h-53A1.58,1.58,0,0,1,48.8,70a1.68,1.68,0,0,1,1.51-1.86,6.65,6.65,0,0,1,1.18,0Z"/><path class="cls-2" d="M77.13,86h25.63c1.68,0,2.36.48,2.41,1.68s-.82,1.89-2.42,1.89H51.19c-.15,0-.29,0-.44,0-1.23-.07-2.08-.84-2-1.89a1.72,1.72,0,0,1,2-1.69c3.64,0,7.27,0,10.9,0Z"/><path class="cls-5" d="M44.26,29.35c0,3.3,0,6.59,0,9.88,0,1.63-.62,2.31-2,2.32s-2.17-.74-2.17-2.36q0-9.81,0-19.61c0-1.56.83-2.52,2.07-2.54,1.42,0,2.08.78,2.09,2.58C44.27,22.87,44.26,26.11,44.26,29.35Z"/><path class="cls-5" d="M44.26,52.84c0,1.47,0,2.94,0,4.41a2,2,0,0,1-2,2.13,2,2,0,0,1-2.16-2q-.1-4.69,0-9.41a2,2,0,0,1,2.14-2,2.1,2.1,0,0,1,2,2.12C44.28,49.7,44.26,51.27,44.26,52.84Z"/><path class="cls-4" d="M116.47,101.55c0,3.79,0,7.1,0,10.41,0,1.26-.89,1.89-2.17,1.89-3.24,0-6.47,0-9.8-.12A34.76,34.76,0,0,0,116.47,101.55Z"/><path class="cls-4" d="M102.91,98.1c2.46.39,4.84,1.23,7.36,1.24h3.29a27.53,27.53,0,0,1-11,11,24.54,24.54,0,0,0,1.78-8.84A3.58,3.58,0,0,0,102.91,98.1Z"/><path class="cls-5" d="M102.91,98.1a3.58,3.58,0,0,1,1.46,3.43,24.54,24.54,0,0,1-1.78,8.84c-1.72,1.35-3.83,1.77-5.87,2.47a22.55,22.55,0,0,0,3.85-13.47,3.64,3.64,0,0,1,2.36-1.26Z"/><path class="cls-4" d="M102.93,98.11a3.64,3.64,0,0,0-2.36,1.26,4.61,4.61,0,0,1-.29-2.11A8.15,8.15,0,0,1,102.93,98.11Z"/><ellipse class="cls-7" cx="77.51" cy="137.14" rx="50" ry="3"/></svg>