<svg id="Capa_1" data-name="Capa 1" xmlns="http://www.w3.org/2000/svg" viewBox="0 0 151 140.03"><defs><style>.cls-1{fill:#052937;}.cls-2{fill:#e3f2f6;}.cls-3{fill:#74a5ad;}.cls-4{fill:#d2eaef;}.cls-5{fill:#89cfe4;}.cls-6{fill:#06080a;}.cls-7{opacity:0.7;}.cls-8{fill:#fff;}.cls-9{opacity:0.5;}.cls-10{fill:#181c36;opacity:0.6;}</style></defs><title>Sin título-1</title><path class="cls-1" d="M2.17,56.55V16.48c0-5.42,2.78-8.2,8.17-8.21,4.54,0,9.08-.09,13.62.05,1.68,0,2.13-.51,1.94-2.05a18.57,18.57,0,0,1,0-2.69A3.54,3.54,0,0,1,29.67,0a3.53,3.53,0,0,1,3.81,3.55c0,1.21.05,2.43,0,3.64,0,.84.31,1.09,1.11,1.09q13.3,0,26.61,0c.95,0,1.17-.4,1.14-1.24-.05-1.11,0-2.22,0-3.33a3.72,3.72,0,0,1,4-3.72A3.54,3.54,0,0,1,70,3.78C70,5.2,69.37,7,70.22,7.92s2.8.32,4.25.33c7.39.05,14.78,0,22.17.06,1.51,0,2-.46,1.8-1.87a19.36,19.36,0,0,1,0-2.85A3.63,3.63,0,0,1,102.24,0,3.53,3.53,0,0,1,106,3.56a22.36,22.36,0,0,1,0,3.17c-.14,1.31.43,1.58,1.62,1.57,6.29-.05,12.57,0,18.85,0A7.64,7.64,0,0,1,132.66,11c1.29,1.57,1.11,3.51,1.15,5.3.12,5.59.21,11.2,0,16.79-.38,10.18,0,20.36-.21,30.55a2.25,2.25,0,0,0,1.23,2.14c8.64,5.66,13.65,13.56,14.62,23.92a31.38,31.38,0,0,1-28.76,34.21,30.73,30.73,0,0,1-22.26-6.73,29.27,29.27,0,0,1-8.79-11,2.38,2.38,0,0,0-2.63-1.6c-25.6,0-51.21,0-76.81.06-2.6,0-4.78-.63-6.44-2.69a8,8,0,0,1-1.6-5.18ZM94,72a36.44,36.44,0,0,1,11.07-8.28c1.52-.53,3-1.09,4.57-1.56a35.52,35.52,0,0,1,12.9-1l6.11,1.53V39.16H7.2V96c0,3.21.51,3.71,3.77,3.71h74.6c.32,0,.64,0,1,0,.6,0,.84-.09.68-.8a32.38,32.38,0,0,1-.55-9.57A47,47,0,0,1,87.92,83q1-2.37,1.91-4.76A56.2,56.2,0,0,1,94,72ZM68.11,34.59h45.28c4.38,0,8.76,0,13.15,0,2.06,0,2.53-.49,2.53-2.49V15.94c0-2.55-.37-2.91-2.93-2.91H108.72c-2.48,0-2.48,0-2.61,2.53,0,.27,0,.53-.07.79a3.83,3.83,0,0,1-7.61-.21,9.19,9.19,0,0,1,0-1.74c.15-1.11-.26-1.41-1.38-1.4-8,.05-16,0-24.07,0-2.87,0-2.87,0-3,2.94a3.62,3.62,0,0,1-3.68,3.71,3.79,3.79,0,0,1-4-3.64,7.59,7.59,0,0,1,0-1.58C62.54,13.25,62,13,60.87,13c-8,.05-15.94,0-23.91,0-1.1,0-2.46-.31-3.22.22s-.17,2-.25,3a3.66,3.66,0,0,1-3.81,3.43,3.63,3.63,0,0,1-3.79-3.44c0-.79,0-1.58,0-2.38,0-.58-.15-.85-.79-.84-5.34,0-10.67,0-16,0-1.2,0-1.95.7-1.93,2.16.07,5.75.06,11.5,0,17.26a1.85,1.85,0,0,0,1.72,2.05,9.16,9.16,0,0,0,1.74,0ZM144.8,94.75c-.58,0-1.15,0-1.72,0A1.55,1.55,0,0,1,141.51,93c.06-1.51,1.07-1.75,2.3-1.7.58,0,1.2.25,1.12-.87a27.06,27.06,0,0,0-23.67-24.53c-1.18-.13-2.06-.33-1.88,1.38.1,1-.56,1.55-1.56,1.61s-1.95-.5-1.88-1.47c.16-2.24-1.3-1.55-2.31-1.37A26.89,26.89,0,0,0,91.34,90c-.09,1.09,0,1.42,1.12,1.33a1.73,1.73,0,1,1,0,3.45c-1.17-.11-1.14.49-1,1.32a24.68,24.68,0,0,0,2.92,9.09c4.48,8,11.23,12.75,20.36,14,.63.09,1.15.24,1.23-.79a1.73,1.73,0,0,1,3.43.09c.05.8.35.93,1.09.86A26.83,26.83,0,0,0,144.8,94.75Z"/><path class="cls-2" d="M89.83,78.28q-.94,2.39-1.91,4.76c-.62,0-1.26,0-1.88,0-2.2.23-3.28,1.46-3.15,3.49q.18,2.77,3.76,2.81a32.38,32.38,0,0,0,.55,9.57c.16.71-.08.83-.68.8-.31,0-.63,0-1,0H11c-3.26,0-3.77-.5-3.77-3.71V39.16H128.68V62.69l-6.11-1.53c-.57-1.33-1.74-1.56-3-1.57-3.47,0-6.95,0-10.43,0-3,0-4.09,1.11-4,4.1A36.44,36.44,0,0,0,94,72c-2.69,0-5.37,0-8,0a3,3,0,0,0-3.08,2.58A2.91,2.91,0,0,0,85.28,78C86.79,78.44,88.32,78.16,89.83,78.28ZM68.68,65.91c2,0,3.91,0,5.86,0a3.15,3.15,0,1,0,0-6.3q-5.7-.06-11.4,0a3.16,3.16,0,1,0,0,6.3C65,65.93,66.84,65.91,68.68,65.91ZM45.62,48.19H40.08c-2.08,0-3.34,1.08-3.43,2.89a3,3,0,0,0,3.14,3.38c3.9.11,7.81.09,11.71,0a3.25,3.25,0,0,0,3.21-3.26,3.16,3.16,0,0,0-3.4-3C49.41,48.16,47.52,48.19,45.62,48.19Zm22.17,0H62.26c-2.1,0-3.35,1.06-3.45,2.87a2.92,2.92,0,0,0,3.1,3.39c4,.13,7.91.11,11.86,0a3.21,3.21,0,0,0,3.08-3.22,3.14,3.14,0,0,0-3.36-3.05C71.59,48.16,69.69,48.19,67.79,48.19ZM45.17,59.59c-1.79,0-3.58,0-5.37,0C37.66,59.6,36,61,36.06,62.8s1.6,3.09,3.7,3.1c3.63,0,7.27,0,10.9,0,2.18,0,3.41-1.13,3.45-3.05s-1.18-3.21-3.4-3.25C48.86,59.56,47,59.59,45.17,59.59Zm69.1-11.4c-2,0-3.9,0-5.85,0s-3.25,1.13-3.35,2.84a3,3,0,0,0,3,3.4c4,.14,8.11.13,12.16,0a3.13,3.13,0,1,0-.39-6.24C118,48.16,116.11,48.19,114.27,48.19Zm-91,41.17c2.06,0,4.11,0,6.16,0a3.07,3.07,0,0,0,3.08-2.82,3,3,0,0,0-2.28-3.2A5.83,5.83,0,0,0,28.34,83c-3.32,0-6.64,0-9.95,0a6.21,6.21,0,0,0-1.71.25,2.82,2.82,0,0,0-2.2,3.47,3,3,0,0,0,3.07,2.58C19.45,89.39,21.35,89.37,23.24,89.36Zm45.89,0c2,0,4,0,6,0a2.91,2.91,0,0,0,3-3.11c0-2-1.24-3.16-3.66-3.19-3.47,0-7,0-10.43,0a5.51,5.51,0,0,0-1.39.21c-1.77.5-2.76,1.82-2.52,3.31a3.08,3.08,0,0,0,3.27,2.78C65.33,89.39,67.23,89.37,69.13,89.37ZM23.48,71.94c-2,0-4,0-6,0a2.9,2.9,0,0,0-3,3.13c0,1.93,1,3,3.38,3.12,3.73.15,7.47,0,11.21,0A3.32,3.32,0,0,0,30,78a3,3,0,0,0,2.52-3.17A3.12,3.12,0,0,0,29.17,72C27.27,71.92,25.38,71.94,23.48,71.94Zm45.82,0c-2,0-3.9,0-5.85,0a3.11,3.11,0,0,0-3.3,2.92C60,76.32,61,77.53,62.67,78a14.73,14.73,0,0,0,4.24.21c2.79,0,5.59.1,8.36-.16,2.28-.21,3.11-1.46,2.89-3.5C78,72.92,76.71,72,74.67,72ZM91.46,59.59h-5.7c-2.05.12-3.2,1.24-3.21,3.14a2.93,2.93,0,0,0,3.17,3.16c3.85,0,7.7.06,11.54,0,2.08,0,3.15-1.29,3.1-3.38,0-1.77-1.24-2.89-3.21-2.91S93.36,59.59,91.46,59.59Zm0-11.4c-1.89,0-3.79,0-5.69,0s-3.14,1.09-3.22,2.75c-.1,2.1.92,3.48,2.93,3.53,4,.1,7.91.09,11.87,0a3.14,3.14,0,0,0-.19-6.28C95.26,48.17,93.36,48.19,91.46,48.19ZM45.6,71.94c-2,0-3.9,0-5.85,0a3.17,3.17,0,0,0-1.93.57A3.2,3.2,0,0,0,40,78.25c3.59,0,7.17,0,10.76,0A5.1,5.1,0,0,0,52.14,78c1.86-.53,2.56-1.71,2.27-3.74A3,3,0,0,0,51.3,72C49.4,71.93,47.5,71.94,45.6,71.94Zm-.09,17.43H51c2,0,3.25-1,3.38-2.56.18-2.19-.73-3.57-3-3.67-4-.17-8-.14-12,0-1.93.06-2.93,1.49-2.84,3.48.08,1.68,1.29,2.75,3.19,2.77S43.61,89.37,45.51,89.37ZM23.05,59.59H17.36c-2.11.11-3.27,1.28-3.23,3.27s1.21,3,3.28,3q5.61.06,11.22,0c2.15,0,3.32-1.2,3.31-3.17s-1.2-3.09-3.36-3.13C26.73,59.56,24.89,59.59,23.05,59.59Z"/><path class="cls-3" d="M68.11,34.59H10.63a9.16,9.16,0,0,1-1.74,0,1.85,1.85,0,0,1-1.72-2.05c.06-5.76.07-11.51,0-17.26,0-1.46.73-2.14,1.93-2.16,5.33-.07,10.66,0,16,0,.64,0,.81.26.79.84,0,.8,0,1.59,0,2.38a3.63,3.63,0,0,0,3.79,3.44,3.66,3.66,0,0,0,3.81-3.43c.08-1-.49-2.48.25-3S35.86,13,37,13c8,0,15.94,0,23.91,0,1.16,0,1.67.25,1.48,1.46a7.59,7.59,0,0,0,0,1.58,3.79,3.79,0,0,0,4,3.64A3.62,3.62,0,0,0,70,16c.12-2.94.12-3,3-2.94,8,0,16.05,0,24.07,0,1.12,0,1.53.29,1.38,1.4a9.19,9.19,0,0,0,0,1.74,3.83,3.83,0,0,0,7.61.21c0-.26.06-.52.07-.79.13-2.53.13-2.53,2.61-2.53h17.42c2.56,0,2.93.36,2.93,2.91V32.09c0,2-.47,2.48-2.53,2.49-4.39,0-8.77,0-13.15,0Z"/><path class="cls-4" d="M144.8,94.75a26.83,26.83,0,0,1-24.33,24.58c-.74.07-1-.06-1.09-.86a1.73,1.73,0,0,0-3.43-.09c-.08,1-.6.88-1.23.79-9.13-1.28-15.88-6-20.36-14a24.68,24.68,0,0,1-2.92-9.09c-.11-.83-.14-1.43,1-1.32a1.73,1.73,0,1,0,0-3.45c-1.09.09-1.21-.24-1.12-1.33A26.89,26.89,0,0,1,113.63,66c1-.18,2.47-.87,2.31,1.37-.07,1,.81,1.54,1.88,1.47s1.66-.65,1.56-1.61c-.18-1.71.7-1.51,1.88-1.38a27.06,27.06,0,0,1,23.67,24.53c.08,1.12-.54.89-1.12.87-1.23-.05-2.24.19-2.3,1.7a1.55,1.55,0,0,0,1.57,1.78C143.65,94.79,144.22,94.75,144.8,94.75Zm-39.25-4.12H97.64c-1.75,0-2.66.71-2.61,2s.89,1.88,2.57,1.89h15.83a2.46,2.46,0,0,1,2,.69A3.78,3.78,0,0,0,120.87,90a2.62,2.62,0,0,1-.67-2c0-3.11,0-6.22,0-9.34a1.79,1.79,0,0,0-2.06-2c-1.3,0-2,.57-2,2,.08,2.95,0,5.91,0,8.86,0,2.24-.84,3.09-3,3.09Z"/><path class="cls-5" d="M89.83,78.28c-1.51-.12-3,.16-4.55-.26a2.91,2.91,0,0,1-2.38-3.49A3,3,0,0,1,86,72c2.68,0,5.36,0,8,0A56.2,56.2,0,0,0,89.83,78.28Z"/><path class="cls-5" d="M105.1,63.69c0-3,1-4.1,4-4.1,3.48,0,7,0,10.43,0,1.26,0,2.43.24,3,1.57a35.52,35.52,0,0,0-12.9,1C108.13,62.6,106.62,63.16,105.1,63.69Z"/><path class="cls-5" d="M86.65,89.37q-3.59,0-3.76-2.81c-.13-2,1-3.26,3.15-3.49.62-.07,1.26,0,1.88,0A47,47,0,0,0,86.65,89.37Z"/><path class="cls-5" d="M68.68,65.91c-1.84,0-3.69,0-5.54,0a3.16,3.16,0,1,1,0-6.3q5.7-.06,11.4,0a3.15,3.15,0,1,1,0,6.3C72.59,65.94,70.64,65.91,68.68,65.91Z"/><path class="cls-5" d="M45.62,48.19c1.9,0,3.79,0,5.69,0a3.16,3.16,0,0,1,3.4,3,3.25,3.25,0,0,1-3.21,3.26c-3.9.08-7.81.1-11.71,0a3,3,0,0,1-3.14-3.38c.09-1.81,1.35-2.88,3.43-2.89Z"/><path class="cls-5" d="M67.79,48.19c1.9,0,3.8,0,5.7,0a3.14,3.14,0,0,1,3.36,3.05,3.21,3.21,0,0,1-3.08,3.22c-4,.1-7.91.12-11.86,0a2.92,2.92,0,0,1-3.1-3.39c.1-1.81,1.35-2.86,3.45-2.87Z"/><path class="cls-5" d="M45.17,59.59c1.85,0,3.69,0,5.54,0,2.22,0,3.44,1.23,3.4,3.25s-1.27,3-3.45,3.05c-3.63,0-7.27,0-10.9,0-2.1,0-3.66-1.35-3.7-3.1s1.6-3.2,3.74-3.21C41.59,59.58,43.38,59.59,45.17,59.59Z"/><path class="cls-5" d="M114.27,48.19c1.84,0,3.69,0,5.53,0a3.13,3.13,0,1,1,.39,6.24c-4,.13-8.11.14-12.16,0a3,3,0,0,1-3-3.4c.1-1.71,1.36-2.8,3.35-2.84S112.32,48.19,114.27,48.19Z"/><path class="cls-5" d="M23.24,89.37c-1.89,0-3.79,0-5.69,0a3,3,0,0,1-3.07-2.58,2.82,2.82,0,0,1,2.2-3.47,6.21,6.21,0,0,1,1.71-.25c3.31,0,6.63,0,10,0a5.83,5.83,0,0,1,1.86.29,3,3,0,0,1,2.28,3.2,3.07,3.07,0,0,1-3.08,2.82C27.35,89.41,25.3,89.36,23.24,89.37Z"/><path class="cls-5" d="M69.13,89.37c-1.9,0-3.8,0-5.69,0a3.08,3.08,0,0,1-3.27-2.78c-.24-1.49.75-2.81,2.52-3.31a5.51,5.51,0,0,1,1.39-.21c3.48,0,7,0,10.43,0,2.42,0,3.67,1.17,3.66,3.19a2.91,2.91,0,0,1-3,3.11C73.13,89.39,71.13,89.37,69.13,89.37Z"/><path class="cls-5" d="M23.48,71.94c1.9,0,3.79,0,5.69,0a3.12,3.12,0,0,1,3.32,2.91A3,3,0,0,1,30,78a3.32,3.32,0,0,1-.92.21c-3.74,0-7.48.11-11.21,0-2.39-.09-3.38-1.19-3.38-3.12a2.9,2.9,0,0,1,3-3.13C19.48,71.91,21.48,71.94,23.48,71.94Z"/><path class="cls-5" d="M69.3,71.94h5.37c2,0,3.31,1,3.49,2.64.22,2-.61,3.29-2.89,3.5-2.77.26-5.57.17-8.36.16A14.73,14.73,0,0,1,62.67,78C61,77.53,60,76.32,60.15,74.87A3.11,3.11,0,0,1,63.45,72C65.4,71.92,67.35,71.94,69.3,71.94Z"/><path class="cls-5" d="M91.46,59.59c1.9,0,3.79,0,5.69,0s3.17,1.14,3.21,2.91c0,2.09-1,3.34-3.1,3.38-3.84.06-7.69,0-11.54,0a2.93,2.93,0,0,1-3.17-3.16c0-1.9,1.16-3,3.21-3.14h5.7Z"/><path class="cls-5" d="M91.46,48.19c1.9,0,3.8,0,5.7,0a3.14,3.14,0,0,1,.19,6.28c-4,.09-7.91.1-11.87,0-2,0-3-1.43-2.93-3.53.08-1.66,1.31-2.73,3.22-2.75S89.57,48.19,91.46,48.19Z"/><path class="cls-5" d="M45.6,71.94c1.9,0,3.8,0,5.7,0a3,3,0,0,1,3.11,2.34c.29,2-.41,3.21-2.27,3.74a5.1,5.1,0,0,1-1.39.22c-3.59,0-7.17,0-10.76,0a3.2,3.2,0,0,1-2.17-5.74,3.17,3.17,0,0,1,1.93-.57C41.7,72,43.65,71.94,45.6,71.94Z"/><path class="cls-5" d="M45.51,89.37c-1.9,0-3.8,0-5.7,0s-3.11-1.09-3.19-2.77c-.09-2,.91-3.42,2.84-3.48,4-.12,8-.15,12,0,2.22.1,3.13,1.48,3,3.67C54.29,88.37,53,89.35,51,89.36Z"/><path class="cls-5" d="M23.05,59.59c1.84,0,3.68,0,5.53,0,2.16,0,3.35,1.18,3.36,3.13s-1.16,3.15-3.31,3.17Q23,66,17.41,65.9c-2.07,0-3.25-1.17-3.28-3s1.12-3.16,3.23-3.27h5.69Z"/><path class="cls-6" d="M105.55,90.63h7.6c2.2,0,3-.85,3-3.09,0-3,0-5.91,0-8.86,0-1.47.69-2,2-2a1.79,1.79,0,0,1,2.06,2c0,3.12,0,6.23,0,9.34a2.62,2.62,0,0,0,.67,2,3.78,3.78,0,0,1-5.47,5.21,2.46,2.46,0,0,0-2-.69H97.6c-1.68,0-2.53-.64-2.57-1.89s.86-2,2.61-2Zm12.54,4.13a2.23,2.23,0,0,0,.06-4.45,2.23,2.23,0,1,0-.06,4.45Z"/><path class="cls-5" d="M118.09,94.76a2.23,2.23,0,1,1,.06-4.45,2.23,2.23,0,0,1-.06,4.45Z"/><g class="cls-7"><path class="cls-8" d="M30.66,14.52c0,1.61-.84,2.92-1.87,2.92h0c-1,0-1.88-1.31-1.88-2.92V4.42c0-1.61.84-2.92,1.88-2.92h0c1,0,1.87,1.31,1.87,2.92Z"/></g><g class="cls-7"><path class="cls-8" d="M67.38,14.52c0,1.61-.84,2.92-1.88,2.92h0c-1,0-1.87-1.31-1.87-2.92V4.42c0-1.61.84-2.92,1.87-2.92h0c1,0,1.88,1.31,1.88,2.92Z"/></g><g class="cls-7"><path class="cls-8" d="M103.59,14.52c0,1.61-.84,2.92-1.87,2.92h0c-1,0-1.88-1.31-1.88-2.92V4.42c0-1.61.84-2.92,1.88-2.92h0c1,0,1.87,1.31,1.87,2.92Z"/></g><g class="cls-9"><path class="cls-8" d="M11,33.56A2.54,2.54,0,0,1,8.43,31V16.57A2.54,2.54,0,0,1,11,14h7.75a2.54,2.54,0,1,1,0,5.07H13.5V31A2.54,2.54,0,0,1,11,33.56Z"/></g><g class="cls-9"><path class="cls-8" d="M58.52,19.23H37.31a2.54,2.54,0,0,1,0-5.07H58.52a2.54,2.54,0,0,1,0,5.07Z"/></g><g class="cls-9"><path class="cls-8" d="M95,19.23H73.77a2.54,2.54,0,1,1,0-5.07H95a2.54,2.54,0,1,1,0,5.07Z"/></g><g class="cls-9"><path class="cls-8" d="M125.73,19.23H110.07a2.54,2.54,0,0,1,0-5.07h15.66a2.54,2.54,0,0,1,0,5.07Z"/></g><path class="cls-8" d="M96.46,87.59a2.55,2.55,0,0,1-2.34-3.53c.27-.62,6.58-15.16,18.32-15.88a2.53,2.53,0,1,1,.31,5c-8.6.54-13.91,12.7-14,12.82A2.54,2.54,0,0,1,96.46,87.59Z"/><g class="cls-9"><path class="cls-8" d="M33.56,81a2.53,2.53,0,0,1-1.69-4.42l33.2-29.68a2.54,2.54,0,0,1,3.38,3.78L35.25,80.34A2.55,2.55,0,0,1,33.56,81Z"/></g><g class="cls-9"><path class="cls-8" d="M43,89.5A2.53,2.53,0,0,1,41.33,85L87.46,46.24a2.54,2.54,0,1,1,3.27,3.88L44.59,88.91A2.5,2.5,0,0,1,43,89.5Z"/></g><g class="cls-9"><path class="cls-8" d="M64.12,86.86a2.54,2.54,0,0,1-1.68-4.44L91.83,56.56a2.54,2.54,0,1,1,3.35,3.81L65.79,86.23A2.54,2.54,0,0,1,64.12,86.86Z"/></g><ellipse class="cls-10" cx="75.5" cy="137.03" rx="75.5" ry="3"/></svg>