<svg id="Capa_1" data-name="Capa 1" xmlns="http://www.w3.org/2000/svg" viewBox="0 0 122.48 135.84"><defs><style>.cls-1{fill:#dc9b28;}.cls-2,.cls-5{fill:#181c36;}.cls-3{fill:#fbbe44;}.cls-4{fill:#fff;}.cls-5{opacity:0.6;}</style></defs><title>Sin título-1</title><circle class="cls-1" cx="59.94" cy="59.94" r="57.25"/><path class="cls-2" d="M59.94,119.87A59.95,59.95,0,0,1,36.61,4.71,60,60,0,0,1,83.27,115.16,59.49,59.49,0,0,1,59.94,119.87Zm0-114.5A54.55,54.55,0,0,0,21.35,98.52,54.58,54.58,0,1,0,59.94,5.37Z"/><path class="cls-3" d="M79.31,97.48a31.19,31.19,0,0,1-12.53-3A79.22,79.22,0,0,1,54.48,87,81.34,81.34,0,0,1,37.41,71.45,100.07,100.07,0,0,1,30.08,61a55.56,55.56,0,0,1-5-9.54,26.69,26.69,0,0,1-2-12.64,20.1,20.1,0,0,1,8-14.5,9.17,9.17,0,0,1,6.75-1.67c.49.06,1,.15,1.46.2a5,5,0,0,1,4.39,3.74c.87,2.61,1.78,5.2,2.68,7.81.74,2.15,1.47,4.31,2.23,6.46a4.66,4.66,0,0,1-.88,4.95c-1.45,1.64-3,3.17-4.59,4.7-1.41,1.37-1.58,2.26-.7,4A52.66,52.66,0,0,0,62.44,75.83c1.2.74,2.41,1.47,3.64,2.17a2.67,2.67,0,0,0,3.68-.56c1.41-1.44,2.83-2.89,4.29-4.3a5.19,5.19,0,0,1,5.82-1.27q6.8,2.44,13.67,4.7a5.4,5.4,0,0,1,4.14,4.86C98,83.74,98,86,96.87,88.1A16,16,0,0,1,93,92.65,21.39,21.39,0,0,1,79.31,97.48Z"/><path class="cls-2" d="M79.31,98.75h0a32.19,32.19,0,0,1-13-3.16A78.76,78.76,0,0,1,54,88.16L53.76,88A82,82,0,0,1,36.42,72.25,100.36,100.36,0,0,1,29,61.66a57.22,57.22,0,0,1-5.11-9.76,27.73,27.73,0,0,1-2-13.24,21.47,21.47,0,0,1,8.53-15.37,10.08,10.08,0,0,1,6.18-2,12.29,12.29,0,0,1,1.47.08l.79.11.68.09A6.19,6.19,0,0,1,45,26.18c.63,1.88,1.29,3.79,1.93,5.64L47.63,34c.21.6.41,1.2.61,1.8.53,1.53,1.07,3.11,1.62,4.65a5.9,5.9,0,0,1-1.13,6.23c-1.5,1.69-3.1,3.25-4.65,4.76-1,1-1.07,1.29-.45,2.52A51.52,51.52,0,0,0,63.11,74.75c1.41.86,2.55,1.55,3.6,2.15a2.18,2.18,0,0,0,1,.33c.22,0,.58-.07,1.17-.68,1.51-1.54,2.88-2.94,4.31-4.32a6.55,6.55,0,0,1,4.63-2,7.43,7.43,0,0,1,2.51.46c4.44,1.6,9,3.17,13.64,4.69a6.71,6.71,0,0,1,5,5.92c.26,2.27.43,4.9-1,7.44a17.24,17.24,0,0,1-4.16,4.9,22.76,22.76,0,0,1-14.48,5.13ZM36.56,23.84a7.51,7.51,0,0,0-4.65,1.48A18.84,18.84,0,0,0,24.38,39a25.27,25.27,0,0,0,1.89,12,54.9,54.9,0,0,0,4.89,9.33A99,99,0,0,0,38.4,70.65,79.42,79.42,0,0,0,55.2,85.94l.19.13a77,77,0,0,0,11.91,7.2,29.78,29.78,0,0,0,12,2.94,20,20,0,0,0,12.89-4.54,14.66,14.66,0,0,0,3.56-4.18c.93-1.7,1-3.52.67-5.91a4.17,4.17,0,0,0-3.27-3.81c-4.64-1.52-9.25-3.1-13.71-4.7a4.91,4.91,0,0,0-1.65-.32,4,4,0,0,0-2.86,1.31c-1.4,1.36-2.76,2.74-4.26,4.27a4.14,4.14,0,0,1-3,1.44,4.43,4.43,0,0,1-2.23-.67c-1.08-.61-2.24-1.31-3.67-2.19A54.13,54.13,0,0,1,41.36,55.08c-1.13-2.23-.87-3.72.94-5.49,1.52-1.48,3.09-3,4.53-4.63a3.4,3.4,0,0,0,.64-3.68c-.56-1.56-1.11-3.15-1.63-4.69-.21-.6-.41-1.19-.61-1.79l-.75-2.15c-.64-1.85-1.3-3.77-1.94-5.67a3.66,3.66,0,0,0-3.31-2.87L38.45,24l-.69-.09A10,10,0,0,0,36.56,23.84Z"/><path class="cls-2" d="M44.71,45.47a8.48,8.48,0,0,1-2.52-.38c-2.52-.81-4.55-2.82-6-6l0-.05C36,38.59,31.79,27.7,33.71,23a.71.71,0,0,1,1.31.53c-1.68,4.15,2.24,14.51,2.44,15,1.3,2.79,3,4.54,5.16,5.22a8.38,8.38,0,0,0,6.05-.67.7.7,0,0,1,.7,1.22A10.21,10.21,0,0,1,44.71,45.47Z"/><path class="cls-2" d="M40.32,52.83c-2.12,0-5.58-.81-7.16-5.72a.7.7,0,1,1,1.34-.43c1.93,6,7,4.66,7.19,4.6a.7.7,0,0,1,.87.49.72.72,0,0,1-.49.87A7.88,7.88,0,0,1,40.32,52.83Z"/><path class="cls-2" d="M90.37,90.15a6.36,6.36,0,0,1-1-.09l-.12,0s-3.87-1.37-7.78-3c-7.3-3.09-8.57-4.51-8.9-5.31a.7.7,0,0,1,.38-.92.71.71,0,0,1,.93.38c.12.32,1.09,1.56,8.14,4.54,3.6,1.53,7.14,2.8,7.64,3a3.88,3.88,0,0,0,3.19-.81c3-2.42,3.23-9,3.23-9a.71.71,0,1,1,1.41,0c0,.29-.29,7.22-3.75,10A5.13,5.13,0,0,1,90.37,90.15Z"/><path class="cls-2" d="M71.2,80A.5.5,0,0,1,71,80a.7.7,0,0,1-.52-.85c0-.13.82-3.24,4.89-7.19a.71.71,0,1,1,1,1c-3.78,3.67-4.5,6.49-4.51,6.51A.68.68,0,0,1,71.2,80Z"/><path class="cls-2" d="M67.2,81.55h-.08a.71.71,0,0,1-.62-.79c.1-.87.39-2.41,1.16-2.87a.71.71,0,0,1,1,.24.73.73,0,0,1-.22,1,4.86,4.86,0,0,0-.51,1.84A.7.7,0,0,1,67.2,81.55Z"/><ellipse class="cls-2" cx="42.72" cy="30.66" rx="0.92" ry="1.5" transform="translate(-7.2 14.13) rotate(-17.35)"/><ellipse class="cls-2" cx="44.07" cy="36.34" rx="0.92" ry="1.5" transform="translate(-8.83 14.8) rotate(-17.35)"/><ellipse class="cls-2" cx="39.72" cy="37.12" rx="1.2" ry="1.5" transform="translate(-9.26 13.53) rotate(-17.35)"/><ellipse class="cls-2" cx="38.26" cy="30.53" rx="1.2" ry="1.5" transform="translate(-7.36 12.8) rotate(-17.35)"/><ellipse class="cls-2" cx="83.82" cy="76.43" rx="0.92" ry="1.5" transform="translate(-18.92 124.51) rotate(-67.44)"/><ellipse class="cls-2" cx="89.04" cy="79.03" rx="0.92" ry="1.5" transform="translate(-18.1 130.94) rotate(-67.44)"/><ellipse class="cls-2" cx="86.57" cy="83.2" rx="1.2" ry="1.5" transform="translate(-23.47 131.23) rotate(-67.44)"/><ellipse class="cls-2" cx="80.22" cy="80.52" rx="1.2" ry="1.5" transform="translate(-24.92 123.71) rotate(-67.44)"/><path class="cls-4" d="M26.53,34.56a.37.37,0,0,1-.18,0,.5.5,0,0,1-.29-.64,18.5,18.5,0,0,1,6.18-8.24.49.49,0,0,1,.76.46,13.12,13.12,0,0,0,.27,4,.49.49,0,1,1-1,.26A12.11,12.11,0,0,1,32,27.11a18.39,18.39,0,0,0-5,7.13A.5.5,0,0,1,26.53,34.56Z"/><path class="cls-4" d="M25.64,37.4h-.05a.49.49,0,0,1-.44-.54,10,10,0,0,1,.49-1.9.51.51,0,0,1,.64-.29.5.5,0,0,1,.29.64A9.88,9.88,0,0,0,26.13,37,.49.49,0,0,1,25.64,37.4Z"/><path class="cls-4" d="M75,76.84a.6.6,0,0,1-.34-.11.56.56,0,0,1-.11-.79,14,14,0,0,1,2.13-2.46,2,2,0,0,1,1.8-.13l2,.67a.56.56,0,1,1-.36,1.07l-2-.67h0a.93.93,0,0,0-.79,0l0,0a18.87,18.87,0,0,0-1.81,2.17A.58.58,0,0,1,75,76.84Z"/><path class="cls-4" d="M45.44,43.54a.49.49,0,0,1-.1-1l.72-.14a2.76,2.76,0,0,0-.35-1.4.5.5,0,0,1,.17-.68.49.49,0,0,1,.68.18,3.89,3.89,0,0,1,.46,2.4.49.49,0,0,1-.39.4l-1.1.21Z"/><path class="cls-4" d="M59.19,78.59a.94.94,0,0,1-.37-.07c-4.23-1.71-8.81-5.64-13.63-11.7a78.87,78.87,0,0,1-5.95-8.54,1,1,0,1,1,1.7-1c.1.16,9.24,15.62,18.62,19.41A1,1,0,0,1,60.1,78,1,1,0,0,1,59.19,78.59Z"/><ellipse class="cls-5" cx="61.98" cy="132.84" rx="60.5" ry="3"/></svg>