<svg id="Capa_1" data-name="Capa 1" xmlns="http://www.w3.org/2000/svg" viewBox="0 0 91.67 139.97"><defs><style>.cls-1{fill:#e63930;}.cls-2,.cls-4{fill:#181c36;}.cls-3{fill:#fff;}.cls-4{opacity:0.6;}</style></defs><title>Sin título-1</title><path class="cls-1" d="M45.77,119.9c-12.62-17.59-25.12-34.64-37.18-52-4.92-7.08-6.46-15.43-6.16-24C3.12,23.64,19,5.69,38.89,2.89,57.75.23,74,8.44,83,23.41c9.22,15.21,8.09,33.85-2.56,48.49C69,87.7,57.59,103.56,45.77,119.9ZM66.36,45.84A20.54,20.54,0,1,0,45.83,66.4,20.57,20.57,0,0,0,66.36,45.84Z"/><path class="cls-2" d="M45.77,124l-1.94-2.7c-3.64-5.07-7.32-10.17-10.88-15.1C24.23,94.13,15.22,81.64,6.62,69.28A36,36,0,0,1,1.22,57,49.9,49.9,0,0,1,0,43.78,45.5,45.5,0,0,1,11.67,15.25,44.54,44.54,0,0,1,38.56.52,51.48,51.48,0,0,1,45.85,0,45,45,0,0,1,85.08,22.17,44.79,44.79,0,0,1,91.6,48a47.5,47.5,0,0,1-9.18,25.31c-8,11-15.74,21.72-24,33.12L47.71,121.31ZM45.85,4.79a48.34,48.34,0,0,0-6.63.47,39.73,39.73,0,0,0-24,13.17A40.71,40.71,0,0,0,4.82,43.94c-.31,9.21,1.56,16.6,5.73,22.6,8.58,12.34,17.18,24.25,26.28,36.86,2.93,4.06,6,8.23,9,12.41l8.79-12.18c8.23-11.4,16-22.17,24-33.14C88.72,56.5,89.66,38.94,81,24.65A40.33,40.33,0,0,0,45.85,4.79Zm0,64h0A22.75,22.75,0,0,1,29.59,62,23,23,0,0,1,45.83,22.76H46A23,23,0,0,1,68.75,45.85,23,23,0,0,1,45.85,68.79Zm0-41.25A18.24,18.24,0,0,0,33,58.65,18,18,0,0,0,45.84,64h0A18.25,18.25,0,0,0,58.72,32.94,18,18,0,0,0,46,27.54Z"/><path class="cls-3" d="M11,30.26a1.43,1.43,0,0,1-.64-.15,1.46,1.46,0,0,1-.67-1.95A41.51,41.51,0,0,1,16.43,19,43.32,43.32,0,0,1,38,6.49a1.46,1.46,0,0,1,.65,2.85A38.87,38.87,0,0,0,26.8,14.25,41.87,41.87,0,0,0,18.62,21a39,39,0,0,0-6.27,8.5A1.47,1.47,0,0,1,11,30.26Z"/><path class="cls-3" d="M8.19,37.64a1.45,1.45,0,0,1-1.46-1.45c0-.25,0-.7,1.4-4.58a1.46,1.46,0,0,1,2.75,1c-.54,1.46-1.15,3.27-1.24,3.7A1.45,1.45,0,0,1,8.19,37.64Z"/><path class="cls-3" d="M46.6,111.59a1.51,1.51,0,0,1-.86-.27,1.47,1.47,0,0,1-.33-2l9.9-13.67a1.46,1.46,0,0,1,2.37,1.71L47.78,111A1.47,1.47,0,0,1,46.6,111.59Z"/><ellipse class="cls-4" cx="46.67" cy="136.97" rx="45" ry="3"/></svg>