<svg id="Capa_1" data-name="Capa 1" xmlns="http://www.w3.org/2000/svg" viewBox="0 0 112.32 112.32"><defs><style>.cls-1{fill:#86acdb;}.cls-2{fill:#181c36;}.cls-3{fill:#a7daeb;}.cls-4{fill:#fff;}.cls-5{opacity:0.3;}</style></defs><title>Sin título-1</title><circle class="cls-1" cx="56.16" cy="56.16" r="53.67"/><path class="cls-2" d="M56.16,112.32a56.16,56.16,0,1,1,56.16-56.16A56.22,56.22,0,0,1,56.16,112.32ZM56.16,5a51.18,51.18,0,1,0,51.18,51.18A51.24,51.24,0,0,0,56.16,5Z"/><ellipse class="cls-3" cx="38.36" cy="80.24" rx="22.73" ry="17.63" transform="translate(-49.94 90.87) rotate(-71.31)"/><path class="cls-2" d="M35.57,103.89h0a15.21,15.21,0,0,1-4.93-.81C20.7,99.72,16.09,86.74,20.35,74.15c3.5-10.33,12-17.55,20.8-17.55a15.58,15.58,0,0,1,4.94.8C51,59.05,54.71,63,56.63,68.56a27.6,27.6,0,0,1-.26,17.78C52.88,96.67,44.32,103.89,35.57,103.89Zm5.58-44.53C33.57,59.36,26.09,65.81,23,75c-3.77,11.15.07,22.55,8.55,25.42a12.59,12.59,0,0,0,4.05.66c7.58,0,15.06-6.44,18.18-15.67a24.83,24.83,0,0,0,.26-16c-1.63-4.72-4.76-8.08-8.81-9.45A12.87,12.87,0,0,0,41.15,59.36Z"/><ellipse class="cls-3" cx="72.62" cy="80.28" rx="17.63" ry="22.73" transform="translate(-21.89 27.5) rotate(-18.69)"/><path class="cls-2" d="M75.42,103.93c-8.76,0-17.31-7.22-20.81-17.56C50.35,73.78,55,60.8,64.9,57.44a15.49,15.49,0,0,1,4.93-.81c8.75,0,17.31,7.22,20.81,17.56,4.26,12.59-.36,25.57-10.29,28.93A15.21,15.21,0,0,1,75.42,103.93ZM69.83,59.4a12.59,12.59,0,0,0-4,.66c-8.48,2.87-12.32,14.28-8.55,25.43,3.12,9.23,10.6,15.67,18.19,15.67a12.53,12.53,0,0,0,4-.66C88,97.63,91.79,86.22,88,75.07,84.89,65.85,77.42,59.4,69.83,59.4Z"/><path class="cls-3" d="M28.47,101.73s3.61-44.56,28.86-42.09,26.85,40.85,26.85,40.85S66.15,117.41,28.47,101.73Z"/><path class="cls-2" d="M58.41,109.78c-9.43,0-19.68-2.28-30.47-6.77l-.93-.39.08-1a93.87,93.87,0,0,1,4.72-21.45c5.52-15.39,14.44-23,25.65-21.91C68.36,59.33,76.68,67,81.53,80.53a74.55,74.55,0,0,1,4,19.91l0,.63-.46.43C84.77,101.84,76.1,109.78,58.41,109.78ZM30,100.84c10.1,4.1,19.67,6.17,28.46,6.17,14.35,0,22.38-5.57,24.35-7.13-.38-5-3.59-36.71-25.57-38.86-.63-.06-1.25-.1-1.86-.1C35.36,60.92,30.66,94.57,30,100.84Z"/><circle class="cls-3" cx="56.13" cy="42.27" r="20.63"/><path class="cls-2" d="M56.13,64.29a22,22,0,1,1,22-22A22,22,0,0,1,56.13,64.29Zm0-41.27A19.25,19.25,0,1,0,75.38,42.27,19.28,19.28,0,0,0,56.13,23Z"/><path class="cls-4" d="M39.12,40.51H39a1.12,1.12,0,0,1-1-1.22c0-.37,1-9.09,9.24-12.83a1.11,1.11,0,0,1,1.47.55,1.1,1.1,0,0,1-.55,1.46c-7.08,3.23-8,11-8,11.05A1.11,1.11,0,0,1,39.12,40.51Z"/><path class="cls-4" d="M23.17,87.62a1.12,1.12,0,0,1-1.1-1A26.66,26.66,0,0,1,34.29,61.42a1.11,1.11,0,1,1,1.08,1.93c-.51.29-12.48,7.17-11.09,23.07a1.1,1.1,0,0,1-1,1.19Z"/><circle class="cls-4" cx="38.71" cy="43.62" r="1.05"/><g class="cls-5"><path class="cls-4" d="M14.94,38.73a2.33,2.33,0,0,1-.73-.12,2.49,2.49,0,0,1-1.65-3.1C12.81,34.69,19,15.33,43,8.66a2.49,2.49,0,0,1,1.33,4.8A40.62,40.62,0,0,0,22.78,27.4,33.77,33.77,0,0,0,17.32,37,2.49,2.49,0,0,1,14.94,38.73Z"/></g></svg>