<svg id="Capa_1" data-name="Capa 1" xmlns="http://www.w3.org/2000/svg" viewBox="0 0 58.55 59.28"><defs><style>.cls-1{fill:#1b9dd9;}.cls-2{fill:#1c213f;}.cls-3{opacity:0.8;}.cls-4,.cls-6{fill:#fff;}.cls-4,.cls-5{opacity:0.4;}.cls-4{isolation:isolate;}</style></defs><title>curso icon</title><g id="_Grupo_" data-name="&lt;Grupo&gt;"><path class="cls-1" d="M27,58.78a2.41,2.41,0,0,1-.84-.16L7.3,51.23a2.29,2.29,0,0,1-1.38-1.56L.56,27.4c0-.06,0-.12,0-.19a2.22,2.22,0,0,1,.36-1.56L14.68,5.14a2.28,2.28,0,0,1,1.53-1L39.52.53a2,2,0,0,1,.35,0,2.28,2.28,0,0,1,1,.24L56.48,8.42a2.23,2.23,0,0,1,1.25,2L58,30.87a2.25,2.25,0,0,1-.18,1.54L48.64,50.25a2.23,2.23,0,0,1-1.22,1.08l-19.59,7.3a2.24,2.24,0,0,1-.81.15Zm1.55-5.21L40,49.31,26.11,44.5Zm-4.91-.75-2.34-8.64-8,4.59Zm20-7-3-15.46-13.1,9.87Zm-34-.13,8.91-5.11L6.37,32.12Zm38-3.32,5.09-9.9-7.55-2.66ZM25,36.48l12.08-9.1L24.88,24.15Zm-4.55,0-.13-11.84L8.06,27.82ZM53.4,28l-.14-11.52-7.54,8.82ZM39.57,23.4,38.09,8,26.91,20.05ZM8,23.21l11.71-3.06-3.62-9ZM43.86,20.5l8-9.35-9.34-4.6ZM23.39,17.21,33.82,6,19.73,8.15Z"/><path class="cls-2" d="M39.87,1a1.84,1.84,0,0,1,.8.18L56.26,8.87a1.71,1.71,0,0,1,1,1.53l.26,20.54v0a1.7,1.7,0,0,1-.13,1.23L48.2,50a1.74,1.74,0,0,1-1,.84l-19.6,7.3a1.68,1.68,0,0,1-.63.12,1.72,1.72,0,0,1-.66-.13L7.48,50.76a1.73,1.73,0,0,1-1.07-1.21L1.05,27.28l0-.14a1.73,1.73,0,0,1,.27-1.21L15.09,5.42a1.77,1.77,0,0,1,1.2-.76L39.59,1l.28,0M23.22,18.13l12-12.9L19,7.75l4.19,10.38m20.26,3.59L52.66,11,41.94,5.7l1.54,16m-3.34,2.34L38.48,6.82,26,20.32l14.16,3.74M6.82,24l13.54-3.54L16.18,10.12,6.82,24m47.09,4.66-.17-13.56L44.86,25.51l9,3.18M24.53,37.47,38.22,27.15,24.38,23.49l.15,14M21,37.41,20.83,24,6.88,27.61,21,37.41m26.4,6.48,6-11.69-8.91-3.14,2.91,14.83m-3.09,2.7-3.35-17.1L26.46,40.4l17.83,6.19m-35-.13,10.17-5.83L5.58,31l3.73,15.5M24.4,53.64,21.63,43.42l-9.47,5.43L24.4,53.64m3.83.59,13.24-4.94L25.38,43.71l2.85,10.52M39.87,0a3.11,3.11,0,0,0-.43,0L16.14,3.67a2.81,2.81,0,0,0-1.88,1.19L.46,25.37A2.72,2.72,0,0,0,0,27.29a1.55,1.55,0,0,0,.05.23L5.44,49.78a2.72,2.72,0,0,0,1.67,1.91L26,59.08a2.76,2.76,0,0,0,1,.2,2.7,2.7,0,0,0,1-.18l19.6-7.3a2.76,2.76,0,0,0,1.49-1.32l9.16-17.84a2.7,2.7,0,0,0,.24-1.83l-.26-20.42A2.73,2.73,0,0,0,56.7,8L41.11.29A2.79,2.79,0,0,0,39.87,0ZM20.43,8.54l12-1.88-8.92,9.63L20.43,8.54ZM44.25,19.28,43.11,7.39l8,3.92-6.82,8Zm-16.41.5L37.7,9.14,39,22.73,27.84,19.78ZM9.12,22.39,16,12.24,19,19.81,9.12,22.39Zm37.45,2.66,6.21-7.25.11,9.47-6.32-2.22ZM25.51,35.49,25.39,24.8,36,27.6,25.51,35.49ZM9.23,28l10.62-2.78L20,35.48,9.23,28ZM47.8,40.87l-2-10.29L52,32.76,47.8,40.87Zm-19.24-.8,11.71-8.82L43,45.07l-14.41-5ZM10,44.93,7.17,33.28l10.44,7.27L10,44.93Zm4.5,3.75L21,44.93,22.92,52l-8.45-3.31Zm14.44,4.23-2.07-7.63,11.68,4-9.61,3.58Z"/></g><g class="cls-3"><path class="cls-4" d="M24.07,3.52l-8.28,1.3a.48.48,0,0,0-.33.21l-3.71,5.53a.49.49,0,0,0,.13.68.56.56,0,0,0,.27.08.52.52,0,0,0,.41-.21l3.16-4.72.37,1.19a.51.51,0,0,0,.47.34l.14,0A.49.49,0,0,0,17,7.29l-.49-1.6,7.69-1.21a.49.49,0,0,0,.41-.56A.49.49,0,0,0,24.07,3.52Z"/><path class="cls-4" d="M10.67,12.09,8.89,14.57a.5.5,0,0,0,.11.68.52.52,0,0,0,.29.09.46.46,0,0,0,.39-.21l1.78-2.48a.49.49,0,0,0-.12-.68A.48.48,0,0,0,10.67,12.09Z"/><path class="cls-4" d="M43.76,2.77,40.08,1.12h0s0,0,0,0a.27.27,0,0,0-.09,0,.34.34,0,0,0-.14,0l-4.14.46a.49.49,0,0,0-.43.54.5.5,0,0,0,.54.43l2.76-.31L35,5.72a.49.49,0,0,0,0,.69.48.48,0,0,0,.68,0l3.76-3.75.38,5.1a.49.49,0,0,0,.49.45h0a.48.48,0,0,0,.45-.52l-.39-5.35,2.93,1.32a.45.45,0,0,0,.2,0A.48.48,0,0,0,44,3.42.5.5,0,0,0,43.76,2.77Z"/><path class="cls-4" d="M17.93,9.82a.47.47,0,0,0-.63-.27.48.48,0,0,0-.27.63L19.33,16a.5.5,0,0,0,.46.31.58.58,0,0,0,.18,0,.48.48,0,0,0,.27-.63Z"/><path class="cls-4" d="M33.93,6.72,32.41,8.33a.49.49,0,0,0,0,.69.5.5,0,0,0,.34.13A.47.47,0,0,0,33.11,9l1.53-1.61a.49.49,0,0,0,0-.69A.5.5,0,0,0,33.93,6.72Z"/><path class="cls-4" d="M9,25a.49.49,0,0,0-.6-.35l-6,1.55L3.84,24a.5.5,0,0,0-.14-.68.5.5,0,0,0-.68.15L.9,26.74a.5.5,0,0,0-.08.2h0a.41.41,0,0,0,0,.19l1.78,6.48a.49.49,0,0,0,.47.35.3.3,0,0,0,.13,0,.48.48,0,0,0,.34-.59L2.1,28.05l6,3.56a.45.45,0,0,0,.25.07.5.5,0,0,0,.42-.24.48.48,0,0,0-.17-.66l-6-3.59,6.08-1.57A.5.5,0,0,0,9,25Z"/><g class="cls-5"><path class="cls-6" d="M39.1,25.14l-.13,0-8.41-2.3a.49.49,0,0,1,.26-.94l8.41,2.31a.48.48,0,0,1-.13.95Z"/></g><g class="cls-5"><path class="cls-6" d="M47.79,27.44a.39.39,0,0,1-.18,0L43.88,26a.47.47,0,0,1-.3-.34.48.48,0,0,1,.12-.44l4.13-4.45a.49.49,0,0,1,.71.67L44.9,25.32,48,26.5a.47.47,0,0,1,.28.62A.48.48,0,0,1,47.79,27.44Z"/></g><g class="cls-5"><path class="cls-6" d="M22.43,42.64a.48.48,0,0,0-.28-.31.45.45,0,0,0-.42,0l-2.38,1.27a.49.49,0,0,0-.2.66.49.49,0,0,0,.66.2l1.84-1,1.21,4.44a.49.49,0,0,0,.47.36l.13,0a.49.49,0,0,0,.34-.6Z"/><path class="cls-6" d="M22.69,40.33a.51.51,0,0,0,.24-.07l4.43-2.45a.49.49,0,0,0,.19-.66.48.48,0,0,0-.66-.19L23.2,39l.09-3.81a.49.49,0,1,0-1,0l-.1,3.91L19.27,37.7a.49.49,0,1,0-.41.88l3.63,1.7A.46.46,0,0,0,22.69,40.33Z"/><path class="cls-6" d="M33.33,44.43l-6.93-2.6a.48.48,0,0,0-.63.28.5.5,0,0,0,.28.63L33,45.34l.17,0a.49.49,0,0,0,.46-.32A.48.48,0,0,0,33.33,44.43Z"/></g><path class="cls-4" d="M12.93,52,7.42,49.56,6.25,44.67a.49.49,0,0,0-.59-.36.48.48,0,0,0-.36.58L6.54,50a.47.47,0,0,0,.27.33l5.73,2.52a.65.65,0,0,0,.19,0,.49.49,0,0,0,.2-.94Z"/></g></svg>