<svg id="Capa_1" data-name="Capa 1" xmlns="http://www.w3.org/2000/svg" viewBox="0 0 921.02 971"><defs><style>.cls-1{fill:#241a60;opacity:0.5;}.cls-2{fill:#86acdb;}.cls-3{fill:#181c36;}.cls-4{fill:#a7daeb;}.cls-5{fill:#fff;}</style></defs><title>proto_sombra</title><ellipse class="cls-1" cx="460.5" cy="911.5" rx="460.5" ry="59.5"/><circle class="cls-2" cx="460.7" cy="460.32" r="439.91"/><path class="cls-3" d="M460.7,920.64C206.87,920.64.38,714.14.38,460.32S206.87,0,460.7,0,921,206.5,921,460.32,714.52,920.64,460.7,920.64Zm0-879.82C229.39,40.82,41.2,229,41.2,460.32s188.19,419.5,419.5,419.5,419.49-188.19,419.49-419.5S692,40.82,460.7,40.82Z"/><ellipse class="cls-4" cx="314.81" cy="657.73" rx="186.29" ry="144.52" transform="translate(-409.11 745.19) rotate(-71.31)"/><path class="cls-3" d="M291.92,851.55h0a125.85,125.85,0,0,1-40.42-6.61C170.08,817.4,132.25,711,167.17,607.79,195.83,523.07,266,463.9,337.71,463.9a125.69,125.69,0,0,1,40.43,6.62c40,13.51,70.64,46,86.4,91.46,15.4,44.44,14.66,96.18-2.09,145.69C433.79,792.38,363.67,851.55,291.92,851.55Zm45.79-365c-62.18,0-123.47,52.83-149.06,128.47-30.91,91.38.54,184.87,70.1,208.4a103.21,103.21,0,0,0,33.16,5.42c62.18,0,123.47-52.82,149.06-128.47,15.14-44.76,15.9-91.29,2.14-131C429.7,530.71,404,503.22,370.87,492A103.21,103.21,0,0,0,337.71,486.58Z"/><ellipse class="cls-4" cx="595.65" cy="658.03" rx="144.52" ry="186.29" transform="translate(-179.44 225.55) rotate(-18.69)"/><path class="cls-3" d="M618.54,851.86C546.79,851.86,476.66,792.69,448,708c-34.91-103.23,2.91-209.61,84.32-237.15a126,126,0,0,1,40.43-6.62c71.75,0,141.88,59.17,170.54,143.89C778.2,711.32,740.38,817.71,659,845.24A125.92,125.92,0,0,1,618.54,851.86Zm-45.79-365a103.44,103.44,0,0,0-33.16,5.42c-69.57,23.53-101,117-70.1,208.41,25.58,75.64,86.88,128.47,149,128.47a103.17,103.17,0,0,0,33.16-5.42c69.57-23.53,101-117,70.1-208.4C696.22,539.71,634.92,486.88,572.75,486.88Z"/><path class="cls-4" d="M233.76,833.85s29.56-365.29,236.52-345S690.37,823.71,690.37,823.71,542.55,962.38,233.76,833.85Z"/><path class="cls-3" d="M479.1,899.8c-77.25,0-161.26-18.67-249.7-55.48l-7.61-3.17.66-8.21c.29-3.6,7.48-89,38.64-175.82C306.34,531,379.5,468.58,471.38,477.57c89.29,8.75,157.49,71.86,197.23,182.49,29.4,81.86,33,159.89,33.1,163.17l.21,5.19L698.13,832C695.18,834.75,624.15,899.8,479.1,899.8ZM245.89,826.58c82.8,33.54,161.22,50.54,233.21,50.54,117.69,0,183.48-45.62,199.59-58.4-3-41.19-29.4-300.92-209.52-318.58-5.15-.51-10.3-.76-15.29-.76C290.21,499.38,251.65,775.13,245.89,826.58Z"/><circle class="cls-4" cx="460.47" cy="346.49" r="169.12"/><path class="cls-3" d="M460.47,527C361,527,280,446,280,346.49S361,166,460.47,166s180.46,81,180.46,180.46S560,527,460.47,527Zm0-338.24c-87,0-157.77,70.78-157.77,157.78s70.78,157.78,157.77,157.78,157.78-70.78,157.78-157.78S547.47,188.71,460.47,188.71Z"/><path class="cls-5" d="M321,332.06c-.31,0-.62,0-.93,0a9.07,9.07,0,0,1-8.1-10c.31-3,8.4-74.51,75.77-105.18a9.08,9.08,0,1,1,7.52,16.52c-58,26.4-65.18,89.88-65.24,90.52A9.08,9.08,0,0,1,321,332.06Z"/><path class="cls-5" d="M190.32,718.18a9.08,9.08,0,0,1-9-8.29c-12.37-142.29,99-205.83,100.16-206.45a9.07,9.07,0,0,1,8.82,15.85c-4.18,2.34-102.23,58.75-90.9,189a9.09,9.09,0,0,1-8.26,9.83C190.85,718.17,190.58,718.18,190.32,718.18Z"/><circle class="cls-5" cx="317.65" cy="357.57" r="8.63"/><path class="cls-5" d="M122.86,317.42a20.19,20.19,0,0,1-6-.91,20.39,20.39,0,0,1-13.52-25.44c2-6.73,52.55-165.45,249.15-220.06a20.41,20.41,0,0,1,10.93,39.33C290.37,130.63,231,169.08,187.06,224.62c-33,41.73-44.58,78.06-44.69,78.42A20.46,20.46,0,0,1,122.86,317.42Z"/></svg>