<svg id="Capa_1" data-name="Capa 1" xmlns="http://www.w3.org/2000/svg" viewBox="0 0 921 985.57"><defs><style>.cls-1{fill:#241a60;opacity:0.5;}.cls-2{fill:#dc9b28;}.cls-3{fill:#181c36;}.cls-4{fill:#fbbe44;}.cls-5{fill:#fff;}</style></defs><title>proto_sombra</title><ellipse class="cls-1" cx="460.5" cy="926.07" rx="460.5" ry="59.5"/><circle class="cls-2" cx="460.5" cy="460" r="442"/><path class="cls-3" d="M460.5,920A460.11,460.11,0,0,1,281.44,36.16,460.11,460.11,0,0,1,639.56,883.84,457.17,457.17,0,0,1,460.5,920Zm0-884a424.12,424.12,0,0,0-165,814.69A424.12,424.12,0,0,0,625.54,69.31,421.46,421.46,0,0,0,460.5,36Z"/><path class="cls-4" d="M597.78,761.81c-34.07-.44-64.85-9.68-94.64-23-33.29-14.93-63.1-35.65-92.93-56.25-48.24-33.32-91.88-71.77-129-117.38-20.35-25-38.34-51.64-55.34-79C211.52,463,197.76,439.57,188.07,414c-11.67-30.78-18.65-62.27-14.83-95.47,5.17-44.87,24.07-82.12,60.66-109.57,15.2-11.39,32.48-14.6,51-12.57,3.71.41,7.38,1.1,11.09,1.51,17.44,1.92,27.72,12.07,33.13,28.23,6.6,19.7,13.47,39.32,20.23,59,5.61,16.29,11.1,32.63,16.91,48.85,5,13.85,2.84,26.66-6.69,37.4-11,12.35-22.83,23.94-34.66,35.48C314.29,417.19,313,424,319.65,437.12c34.53,68.42,85.76,121.18,150.71,161.11,9.09,5.58,18.22,11.09,27.48,16.39,10.82,6.19,19.06,4.72,27.8-4.2,10.7-10.93,21.42-21.84,32.4-32.49,12.59-12.2,26.86-15.79,44-9.62q51.39,18.48,103.3,35.48c18.34,6,29,17.26,31.3,36.76,2,17.41,2.58,34.46-6.18,50.42-7.36,13.42-17.54,24.56-29.19,34.32C671,750.62,635.51,760.94,597.78,761.81Z"/><path class="cls-3" d="M597.83,771.42h-.18c-31.74-.4-63-8-98.44-23.87-33.58-15.07-63.82-35.95-93.07-56.15l-1.39-1c-52.19-36-95-75-131-119.22-18.37-22.58-36.18-48-56-80-13.26-21.36-28.27-46.43-38.63-73.79-14.08-37.15-19-68.92-15.4-100,5.68-49.25,27.36-88.34,64.45-116.15,13.33-10,29-15.07,46.66-15.07a104.49,104.49,0,0,1,11.15.63c2.05.23,4,.52,5.95.81s3.49.52,5.15.7c20.37,2.24,34.23,13.93,41.19,34.73,4.77,14.23,9.77,28.69,14.6,42.66L358.45,282q2.34,6.79,4.66,13.59c3.95,11.55,8,23.5,12.2,35.15,6.25,17.43,3.29,33.69-8.55,47-11.35,12.79-23.44,24.58-35.13,36-7.68,7.48-8.09,9.8-3.4,19.09C360.65,497,410.16,549.94,475.39,590c10.62,6.53,19.27,11.69,27.22,16.24,2.9,1.66,5.37,2.5,7.35,2.5,1.65,0,4.36-.53,8.82-5.08C530.21,592,540.55,581.51,551.36,571c10.46-10.16,22.23-15.3,35-15.3a56.2,56.2,0,0,1,19,3.53c33.55,12.06,68.22,24,103,35.39,22.52,7.38,35.25,22.45,37.85,44.78,2,17.11,3.23,37-7.29,56.15-7.32,13.35-17.61,25.47-31.45,37.06C677.93,757.38,641.1,770.42,598,771.41Zm-323-566c-13.57,0-25.06,3.67-35.13,11.22-33.16,24.87-51.77,58.56-56.88,103-3.22,27.9,1.32,56.8,14.26,91,9.76,25.75,24.22,49.87,37,70.46,19.42,31.3,36.78,56.09,54.63,78,34.78,42.76,76.32,80.55,127,115.54l1.39,1c28.54,19.71,58.05,40.09,90,54.43,32.87,14.75,61.68,21.8,90.65,22.2,39.1-.93,70.95-12.14,97.37-34.28,12-10,20.79-20.36,26.94-31.57,7-12.84,7.15-26.62,5.05-44.69-1.75-15-9.15-23.63-24.74-28.74-35-11.48-69.84-23.45-103.56-35.57a37.1,37.1,0,0,0-12.46-2.4c-7.68,0-14.74,3.24-21.6,9.88-10.64,10.32-20.89,20.74-32.23,32.31C525.35,624.44,518,628,510,628c-5.45,0-11-1.64-16.89-5-8.13-4.65-16.94-9.91-27.74-16.55-68.31-42-120.21-97.49-154.26-165-8.51-16.87-6.58-28.12,7.14-41.5,11.45-11.16,23.29-22.71,34.18-35,7.09-8,8.67-17.07,4.83-27.78-4.22-11.79-8.32-23.8-12.29-35.41q-2.32-6.78-4.65-13.56-2.79-8.1-5.6-16.21c-4.85-14-9.86-28.51-14.66-42.84-4.56-13.62-12.29-20.32-25.07-21.73-2-.22-4-.52-5.88-.8s-3.53-.52-5.21-.71A83.66,83.66,0,0,0,274.8,205.42Z"/><path class="cls-3" d="M336.37,368.84a62.61,62.61,0,0,1-19-2.9c-19.06-6.06-34.36-21.28-45.48-45.26a2.88,2.88,0,0,1-.13-.31c-1.36-3.49-33-85.77-18.48-121.64a5.34,5.34,0,0,1,9.9,4c-12.65,31.33,16.94,109.62,18.47,113.62,9.78,21,22.85,34.26,38.85,39.39,23.34,7.47,45.61-4.93,45.83-5.06a5.34,5.34,0,0,1,5.3,9.27A77.11,77.11,0,0,1,336.37,368.84Z"/><path class="cls-3" d="M303.19,424.48c-16,0-42.13-6.12-54.07-43.21A5.34,5.34,0,1,1,259.28,378c14.52,45.12,52.64,35.17,54.26,34.72A5.34,5.34,0,0,1,316.43,423,55.28,55.28,0,0,1,303.19,424.48Z"/><path class="cls-3" d="M681.39,706.43a47.47,47.47,0,0,1-7.85-.67,5.78,5.78,0,0,1-.91-.23c-.29-.1-29.25-10.37-58.8-22.86-55.13-23.32-64.79-34-67.26-40.09a5.34,5.34,0,1,1,9.88-4c1,2.34,8.23,11.75,61.5,34.28,27.24,11.52,54,21.13,57.79,22.48,9.37,1.44,17.24-.57,24-6.13,22.4-18.34,24.42-67.57,24.43-68.07a5.34,5.34,0,0,1,10.67.38c-.08,2.22-2.25,54.59-28.34,75.95A38.76,38.76,0,0,1,681.39,706.43Z"/><path class="cls-3" d="M536.51,630.07a5.49,5.49,0,0,1-1.26-.15,5.35,5.35,0,0,1-3.93-6.45c.24-1,6.22-24.47,37-54.34a5.34,5.34,0,0,1,7.44,7.66c-28.57,27.74-34,49-34,49.2A5.35,5.35,0,0,1,536.51,630.07Z"/><path class="cls-3" d="M506.3,641.46l-.62,0A5.34,5.34,0,0,1,501,635.5c.77-6.6,2.95-18.2,8.76-21.69a5.34,5.34,0,0,1,5.67,9c-1.3,1.43-3.15,8.1-3.83,13.9A5.34,5.34,0,0,1,506.3,641.46Z"/><ellipse class="cls-3" cx="321.34" cy="256.95" rx="6.94" ry="11.35" transform="translate(-62 107.52) rotate(-17.35)"/><ellipse class="cls-3" cx="331.56" cy="299.85" rx="6.94" ry="11.35" transform="translate(-74.33 112.52) rotate(-17.35)"/><ellipse class="cls-3" cx="298.67" cy="305.74" rx="9.08" ry="11.35" transform="translate(-77.59 102.98) rotate(-17.35)"/><ellipse class="cls-3" cx="287.63" cy="255.93" rx="9.08" ry="11.35" transform="translate(-63.23 97.42) rotate(-17.35)"/><ellipse class="cls-3" cx="631.86" cy="602.74" rx="6.94" ry="11.35" transform="translate(-167.17 955.01) rotate(-67.44)"/><ellipse class="cls-3" cx="671.32" cy="622.43" rx="6.94" ry="11.35" transform="translate(-161.03 1003.59) rotate(-67.44)"/><ellipse class="cls-3" cx="652.69" cy="653.89" rx="9.08" ry="11.35" transform="translate(-201.56 1005.78) rotate(-67.44)"/><ellipse class="cls-3" cx="604.66" cy="633.67" rx="9.08" ry="11.35" transform="translate(-212.5 948.96) rotate(-67.44)"/><path class="cls-5" d="M199,286.39a3.73,3.73,0,0,1-3.48-5.09c16.25-41.68,45.42-61.48,46.65-62.3a3.74,3.74,0,0,1,5.79,3.5c0,.16-1.7,16.92,2,30.43a3.73,3.73,0,0,1-7.2,2c-2.37-8.62-2.78-18.13-2.68-24.76A139.24,139.24,0,0,0,202.48,284,3.74,3.74,0,0,1,199,286.39Z"/><path class="cls-5" d="M192.32,307.87l-.38,0a3.72,3.72,0,0,1-3.34-4.09c.57-5.69,3.6-13.95,3.73-14.3a3.74,3.74,0,1,1,7,2.59c0,.08-2.83,7.72-3.31,12.46A3.73,3.73,0,0,1,192.32,307.87Z"/><path class="cls-5" d="M565.37,605.87A4.26,4.26,0,0,1,562,599c4.53-6,12.54-16.34,16.1-18.57,1.13-.74,6.33-3.72,13.62-1l15.46,5a4.27,4.27,0,1,1-2.66,8.12l-15.55-5.09-.19-.07a7,7,0,0,0-5.9,0,2.82,2.82,0,0,1-.36.24c-1.75,1.22-8.48,9.43-13.69,16.38A4.26,4.26,0,0,1,565.37,605.87Z"/><path class="cls-5" d="M341.88,354.27a3.73,3.73,0,0,1-.71-7.4l5.45-1.06A21,21,0,0,0,344,335.23a3.74,3.74,0,1,1,6.43-3.82c5,8.42,3.52,17.74,3.46,18.13a3.75,3.75,0,0,1-3,3.06l-8.26,1.6A3.51,3.51,0,0,1,341.88,354.27Z"/><path class="cls-5" d="M445.76,619.11a7.46,7.46,0,0,1-2.8-.55c-31.93-12.9-66.56-42.64-103-88.38a611.58,611.58,0,0,1-45-64.52,7.48,7.48,0,1,1,12.9-7.56c.69,1.18,69.8,118,140.62,146.6a7.48,7.48,0,0,1-2.8,14.41Z"/><path class="cls-5" d="M122,321.13a20.4,20.4,0,0,1-19.52-26.34c2-6.73,52.55-165.45,249.15-220.07a20.41,20.41,0,0,1,10.92,39.34C289.53,134.35,230.2,172.8,186.23,228.34c-33,41.72-44.58,78.06-44.69,78.42A20.47,20.47,0,0,1,122,321.13Z"/></svg>