<svg id="Capa_1" data-name="Capa 1" xmlns="http://www.w3.org/2000/svg" viewBox="0 0 1144 991.87"><defs><style>.cls-1{fill:#241a60;opacity:0.5;}.cls-2{fill:#704795;}.cls-3{fill:#5155a0;}.cls-4{fill:#cd2e80;}.cls-5{fill:#844492;}.cls-6{fill:#b3368b;}.cls-7{fill:#97398c;}.cls-8{fill:#da2c74;}.cls-9{fill:#f7ae4e;}.cls-10{fill:#fbc260;}.cls-11{fill:#fcd478;}.cls-12{fill:#ec6c39;}.cls-13{fill:#f18d35;}.cls-14{fill:#e84a4a;}.cls-15{fill:#e13960;}.cls-16{fill:#c44070;}.cls-17{fill:#fcfdfd;}.cls-18{fill:#181c36;}.cls-19{fill:#fffdfd;}</style></defs><title>proto_sombra</title><ellipse class="cls-1" cx="572" cy="922.37" rx="572" ry="69.5"/><path class="cls-2" d="M764.74,10.39h31.2c17.6,1.09,35.24,1.39,52.8,3.43,40.67,4.73,77.31,18.83,108.75,45.51-4.2.14-8.09-1.67-12.3-1.79-6.5-.18-13-1.12-19.48-1.44-5.31-.26-10-2.81-15.08-3.73-16.17-2.92-32.37-2.26-48.61-.79-4.84.43-9.72-.63-14.6.61-5.76,1.46-11.72,1.56-17.63,2.07-6.43.55-13.47.6-17.86,7-.88,1.27-2.48,1.55-4,1.38A13.72,13.72,0,0,0,801,64c-6.06,2.59-12.52,3.93-18.65,6.54C775.69,73.38,768,73.87,760.67,75c-17.42,2.63-34.64,6.36-52.18,8.47-18.67,2.26-37,6.75-55.32,11.12-4.11,1-9.06.79-12.1,3.88a20,20,0,0,1-12.49,6c-13,1.48-25.76,4-38.62,6.12-15.82,2.67-31.58,5-46.13,12.23-3.11,1.54-7.08,1.59-9.07,5.11-24.65.34-49.3.39-73.93,1.09-26.08.74-52.19,1.54-77.87,7-45.45,9.75-82.91,32.09-110.69,69.85-7.69,10.44-13.52,21.92-19.08,33.56-8.34,2-14.78,7.28-21.13,12.59a50.45,50.45,0,0,1-8.48,5.65c-8.31,4.48-16.91,8.58-24.65,13.91-7.37,5.09-14.13,11.1-21.38,16.45-7.6,5.62-14.91,11.68-22.47,17.4-6.46,4.88-12.72,9.9-18.15,16.18s-11.87,12-20.08,14.95c0-43.85-1.31-87.73,1.87-131.52,1-14.26,2.51-28.55,6.69-42.36,2.49,0,4.53-1.31,6.68-2.3,5.65-2.6,11-5.68,17-7.66a191.54,191.54,0,0,1,39.08-8.14c4.12-.45,8.48-.14,12.32-1.41,18.81-6.18,38.8-5.12,57.82-9.89,7.57-1.9,15.43,0,23.05-1.47,10.64-2.07,20.75-6.4,31.56-7.64,7.71-.88,15.17-2.75,22.66-4.59,13.55-3.33,26.58-8.57,40.42-10.84.85-.14,2.15,0,2.41-1.61-2.27.1-4.46.28-6.65.26-1,0-2.57-.36-1.69-1.75,2.07-3.28-.07-3.38-2.36-3.62-.88-.09-2-.17-2.18-1.19-.24-1.42,1.11-1.61,2.05-1.83a41.38,41.38,0,0,0,7.68-2.23c12.53-5.66,25.83-8.77,39.21-11.49,11.92-2.41,24.11-3,36.13-5,13.3-2.15,26.74-3.34,40.12-5,12.51-1.55,25.22-2.55,37.34-5.87,24.35-6.66,49.08-11.62,73.64-17.35q39.69-9.27,79.13-19.46c10.32-2.67,20.42-6.63,31-7.76,17.61-1.88,34.57-7.09,52.07-9.41,2-.26,4.82-.76,5-2.93S765.92,11.73,764.74,10.39Z"/><path class="cls-3" d="M764.74,10.39c1.18,1.34,4.43.08,4.23,2.24s-3,2.67-5,2.93c-17.5,2.32-34.46,7.53-52.07,9.41-10.6,1.13-20.7,5.09-31,7.76Q641.41,43,601.73,52.19c-24.56,5.73-49.29,10.69-73.64,17.35-12.12,3.32-24.83,4.32-37.34,5.87-13.38,1.64-26.82,2.83-40.12,5-12,2-24.21,2.56-36.13,5-13.38,2.72-26.68,5.83-39.21,11.49a41.38,41.38,0,0,1-7.68,2.23c-.94.22-2.29.41-2.05,1.83.18,1,1.3,1.1,2.18,1.19,2.29.24,4.43.34,2.36,3.62-.88,1.39.69,1.75,1.69,1.75,2.19,0,4.38-.16,6.65-.26-.26,1.61-1.56,1.47-2.41,1.61-13.84,2.27-26.87,7.51-40.42,10.84-7.49,1.84-14.95,3.71-22.66,4.59-10.81,1.24-20.92,5.57-31.56,7.64-7.62,1.48-15.48-.43-23.05,1.47-19,4.77-39,3.71-57.82,9.89-3.84,1.27-8.2,1-12.32,1.41a191.54,191.54,0,0,0-39.08,8.14c-6,2-11.38,5.06-17,7.66-2.15,1-4.19,2.29-6.68,2.3a23,23,0,0,1,.37-2.64c9.28-36.21,27-67.56,54.22-93.3C220,29,268.59,13.43,322.66,12.05c4.4-.11,9-.1,13.33-1.66Z"/><path class="cls-4" d="M1028.58,422.2V723.49c-1.5.88-.84,2.39-.95,3.61-1.29,14-3,28-6.18,41.79-9.07,38.9-27.66,72.34-57.19,99.49-2.48-1.55-4-3-.9-5.71,2.44-2.17,2.68-5.48,2.85-8.65.32-6.06.8-12.12,1.14-18.18.79-14.33,2.28-28.61,1.08-43-.34-4-1.29-8.3-.41-12.25a36.93,36.93,0,0,0,.33-12.31c-.35-3.2-2.21-7-.51-9.57,4.58-7,1.36-13.94.2-20.63-2.7-15.6-6.24-31-9.42-46.57,0-.22.23-.51.47-1,2,1.16,1.58,3.39,2.38,5,.61,1.21.56,3.59,2.53,2.93s.67-2.53.24-3.85c-2.37-7.28-5.46-14.41-6-22.13A90.62,90.62,0,0,0,952,645.75c-4.73-12.38-9.76-24.81-8.16-38.65.77-6.7-.65-13.16-2.79-19.63-3.39-10.28-5.11-21-6.75-31.69-1.41-9.15-4.79-17.38-8.78-25.49a20,20,0,0,1-2.18-7.55c-.79-10.35-5.54-18.94-12.31-26.56,0-16-.17-32-.12-48q.14-49.1-.83-98.2a6.89,6.89,0,0,1,4.48,3.44c3.27,6,9.51,10,10.82,17.24.35,1.95,2.07,3.19,3.74,4.24a14.33,14.33,0,0,1,4.93,4.42c1.9,3.06,3,1.84,4.69-.45,3.2-4.23.63-9.21,2-13.16,2.25-6.5-2-12.85.85-19.08.52-1.13-.73-3.2,1.12-3.84,1.7-.58,2.51,1.14,3.49,2.21,4,4.39,6.51,10.32,13.4,11.49,1.94.32,3.64,2.11,4.74,3.89,5.68,9.14,14.52,15.13,22.26,22.17,7.44,6.78,14.92,13.65,21.17,21.42,5.88,7.32,14.31,11.29,20.39,18.09C1028.25,422.17,1028.44,422.16,1028.58,422.2Z"/><path class="cls-5" d="M534.76,128c2-3.52,6-3.57,9.07-5.11,14.55-7.21,30.31-9.56,46.13-12.23,12.86-2.17,25.65-4.64,38.62-6.12a20,20,0,0,0,12.49-6c3-3.09,8-2.89,12.1-3.88,18.3-4.37,36.65-8.86,55.32-11.12C726,81.34,743.25,77.61,760.67,75c7.34-1.11,15-1.6,21.66-4.43,6.13-2.61,12.59-4,18.65-6.54a13.72,13.72,0,0,1,6.9-1.38c1.57.17,3.17-.11,4-1.38,4.39-6.39,11.43-6.44,17.86-7,5.91-.51,11.87-.61,17.63-2.07,4.88-1.24,9.76-.18,14.6-.61,16.24-1.47,32.44-2.13,48.61.79,5.1.92,9.77,3.47,15.08,3.73,6.5.32,13,1.26,19.48,1.44,4.21.12,8.1,1.93,12.3,1.79C964.78,64.94,971,71.6,977.05,78.5a200.3,200.3,0,0,1,23,31.43c14.55,25,22.21,52.18,26,80.69,1,7.36-.15,15,2.53,22.11v26.74c-8-4.42-15.38-9.92-24.54-11.89a5.87,5.87,0,0,1-2.63-1.62,12.35,12.35,0,0,0-8-3.54c-7.62-.63-14.43-4.25-21.69-6.18-5.6-1.49-11.25-4.45-16.56-7.33C945,203.39,933.26,203,922.74,198.7a2.64,2.64,0,0,0-1.75.08c-5.85,2.19-11-.67-16.2-2.43-1.7-.57-3.23-1.58-5.06-.71-2,.94-3.6.12-5.42-.77-8.54-4.14-16.38-9.58-25.13-13.31-5.17-2.2-10.72-3.25-16-4.95-3.08-1-6.23-3.88-10-2a188.51,188.51,0,0,0-27.91-18.91c-28.43-15.48-59.18-22.57-91.15-24.78-31.72-2.19-63.5-2.71-95.29-2.75Q581.76,128.08,534.76,128Z"/><path class="cls-6" d="M843.11,174.58c3.8-1.85,6.95,1,10,2,5.32,1.7,10.87,2.75,16,4.95,8.75,3.73,16.59,9.17,25.13,13.31,1.82.89,3.41,1.71,5.42.77,1.83-.87,3.36.14,5.06.71,5.23,1.76,10.35,4.62,16.2,2.43a2.64,2.64,0,0,1,1.75-.08c10.52,4.32,22.25,4.69,32.44,10.21,5.31,2.88,11,5.84,16.56,7.33,7.26,1.93,14.07,5.55,21.69,6.18a12.35,12.35,0,0,1,8,3.54,5.87,5.87,0,0,0,2.63,1.62c9.16,2,16.58,7.47,24.54,11.89V422.2c-.14,0-.33,0-.42-.13-6.08-6.8-14.51-10.77-20.39-18.09-6.25-7.77-13.73-14.64-21.17-21.42-7.74-7-16.58-13-22.26-22.17-1.1-1.78-2.8-3.57-4.74-3.89-6.89-1.17-9.43-7.1-13.4-11.49-1-1.07-1.79-2.79-3.49-2.21-1.85.64-.6,2.71-1.12,3.84-2.85,6.23,1.4,12.58-.85,19.08-1.36,3.95,1.21,8.93-2,13.16-1.73,2.29-2.79,3.51-4.69.45a14.33,14.33,0,0,0-4.93-4.42c-1.67-1.05-3.39-2.29-3.74-4.24-1.31-7.22-7.55-11.28-10.82-17.24a6.89,6.89,0,0,0-4.48-3.44c-.12-1.18-.28-2.35-.33-3.54-1-21.6-1.73-43.23-6-64.52-6.69-33.44-19.48-64-42.64-89.62C855.47,186,849.14,180.46,843.11,174.58Z"/><path class="cls-7" d="M253.19,239.51c-5.85,15.38-10.69,31-13.49,47.28-3.95,22.87-4.39,46-5.32,69.08l-.6,14.63a9.48,9.48,0,0,0-4.7,2.42c-4.22,3.77-8.45,7.23-14.72,6.68-5-.43-9,3.42-14.2,3.35-4.67-.07-8.23,2.85-11.39,6.58-2.37,2.82-4.27,6.67-8.34,7.64a15,15,0,0,0-6.4,3.76c-8.66,7.42-16.32,16.05-25.8,22.45-7.38,5-14.71,9.92-21.28,16-3,2.75-5.54,6.36-10.09,6.9V336.64c8.21-2.94,14.65-8.69,20.08-14.95s11.69-11.3,18.15-16.18c7.56-5.72,14.87-11.78,22.47-17.4,7.25-5.35,14-11.36,21.38-16.45,7.74-5.33,16.34-9.43,24.65-13.91a50.45,50.45,0,0,0,8.48-5.65C238.41,246.79,244.85,241.52,253.19,239.51Z"/><path class="cls-8" d="M875.23,723.39c16-24.33,25.41-51.17,29.95-79.77,2.42-15.2,3.28-30.56,4-45.93,1.64-33.83,1.54-67.67,1.84-101.51,6.77,7.62,11.52,16.21,12.31,26.56a20,20,0,0,0,2.18,7.55c4,8.11,7.37,16.34,8.78,25.49,1.64,10.66,3.36,21.41,6.75,31.69,2.14,6.47,3.56,12.93,2.79,19.63-1.6,13.84,3.43,26.27,8.16,38.65a90.62,90.62,0,0,1,6.28,26.66c.49,7.72,3.58,14.85,6,22.13.43,1.32,1.69,3.19-.24,3.85s-1.92-1.72-2.53-2.93c-.8-1.6-.38-3.83-2.38-5-.24.49-.51.78-.47,1,3.18,15.52,6.72,31,9.42,46.57,1.16,6.69,4.38,13.59-.2,20.63-1.7,2.62.16,6.37.51,9.57a36.93,36.93,0,0,1-.33,12.31c-.88,4,.07,8.23.41,12.25,1.2,14.43-.29,28.71-1.08,43-.34,6.06-.82,12.12-1.14,18.18-.17,3.17-.41,6.48-2.85,8.65-3.06,2.71-1.58,4.16.9,5.71a167.53,167.53,0,0,1-41.51,29.08c-3.17-5.1-3-11-3.72-16.64-1.53-11.31-2.4-22.75-5-33.83-4.84-20.32-10.55-40.44-15.62-60.71-2.7-10.81-6.28-21.1-12-30.78-2.16-3.64-4.51-7.58-5.6-12C879.05,736.78,877.08,730.1,875.23,723.39Z"/><path class="cls-9" d="M304.47,761.74c10.62,7.37,20.95,15.14,32.78,20.66a242.63,242.63,0,0,0,88.58,21.17c32.89,1.46,65.82,1.86,98.76,1.89q38.5,0,77,.15c1.3,3.34,4.58,3.56,7.31,4.35a130.56,130.56,0,0,1,28.74,11.82c13,7.47,23.25,18.68,35.43,27.33a7.17,7.17,0,0,1,2.33,2.63c3.58,7.64,10.11,13.13,15.55,19,8.84,9.64,17.56,19.16,24.6,30.25,4.59,7.25,9.37,14.37,13.47,21.92l-59.68,0a7.6,7.6,0,0,0-2.17-4.78C659,909,651,899.69,642.47,890.78c-4.58-4.8-9.87-8.95-14.94-13.27-7.55-6.44-14.63-13.64-23.81-17.74-6.73-3-12.58-7.24-18.53-11.4a52.53,52.53,0,0,0-21.93-9.17c-5.88-1-11.83-.63-17.57-1.43-8.14-1.14-17.06,1.35-24.39-4.35-.31-.24-.86-.18-1.3-.22-8.48-.74-16.57-3.27-24.72-5.44-10.48-2.8-21-5.76-31.74-6.84-24.91-2.54-49.63-6.66-74.73-7.75-22.83-1-45.62-2.38-68.33.52-8.1,1-16.39.52-24.28,2.53-11.79,3-23.53,6.41-34.68,11.31-18.3,8-37.64,14-54,26a11.67,11.67,0,0,1-2.45,1.05c-6.85,2.84-13.88,5.35-19.43,10.58a8.24,8.24,0,0,1-4.91,1.9c-16.78-15.49-30.5-33.24-40.05-54.09,2.52-2.43,6-3.24,8.88-5,8.55-5,16.95-10.38,25.87-14.63,10.29-4.9,20.68-9.62,31.05-14.35,10.76-4.9,21.71-9.84,33.09-12.85,16.38-4.33,33.13-7.56,50.39-5.42C294.73,761.38,299.53,763.12,304.47,761.74Z"/><path class="cls-10" d="M180.72,867.09a8.24,8.24,0,0,0,4.91-1.9c5.55-5.23,12.58-7.74,19.43-10.58a11.67,11.67,0,0,0,2.45-1.05c16.37-12.06,35.71-18,54-26,11.15-4.9,22.89-8.32,34.68-11.31,7.89-2,16.18-1.49,24.28-2.53,22.71-2.9,45.5-1.52,68.33-.52,25.1,1.09,49.82,5.21,74.73,7.75,10.69,1.08,21.26,4,31.74,6.84,8.15,2.17,16.24,4.7,24.72,5.44.44,0,1,0,1.3.22,7.33,5.7,16.25,3.21,24.39,4.35,5.74.8,11.69.46,17.57,1.43a52.53,52.53,0,0,1,21.93,9.17c5.95,4.16,11.8,8.38,18.53,11.4,9.18,4.1,16.26,11.3,23.81,17.74,5.07,4.32,10.36,8.47,14.94,13.27C651,899.69,659,909,667.19,918.2a7.6,7.6,0,0,1,2.17,4.78H588.27c-1.82-3.83-5.46-5.78-8.73-8-11.7-7.81-23.94-14.88-35.2-23.28-9.41-7-19.07-13.23-30-17.51-1.77-.69-3.29-2-5-2.85-7.69-3.81-15.24-8.16-24-8.77a116.4,116.4,0,0,1-18.5-2.47c-22.05-5.2-44.63-6.34-67-7.94-22.87-1.63-45.76.39-68.59,4.46-25.17,4.49-49,13-73,21C244.85,882.2,233,890.23,220,895.63A152.33,152.33,0,0,1,180.72,867.09Z"/><path class="cls-11" d="M220,895.63c13-5.4,24.87-13.43,38.25-17.92,24-8.05,47.81-16.55,73-21,22.83-4.07,45.72-6.09,68.59-4.46,22.39,1.6,45,2.74,67,7.94a116.4,116.4,0,0,0,18.5,2.47c8.79.61,16.34,5,24,8.77,1.71.86,3.23,2.16,5,2.85,10.92,4.28,20.58,10.49,30,17.51,11.26,8.4,23.5,15.47,35.2,23.28,3.27,2.18,6.91,4.13,8.73,8-1.33.06-2.66.18-4,.18q-112.49-.07-225-.23c-25.4-.08-50.81-.93-75.89-5.26C261.1,913.83,239.6,907.33,220,895.63Z"/><path class="cls-12" d="M234,567.53c.72,16.14,1.26,32.3,2.21,48.43,1.72,29.34,7.53,57.75,20.16,84.51a37.06,37.06,0,0,1,1.39,4.17c-3.88,1.15-7.19-.33-10.55-2.06-9.35-4.83-19.19-7.24-29.85-6.35-5.9.49-11.7,2.74-17.36,2.61-9.24-.23-17.38,2.82-25.64,5.74-9.17,3.23-17.12,8.72-24.36,15.17-5.73,5.1-13.38,6.88-19.44,11.46-3.35,2.53-6,6.32-10.74,6.73-2.32-18.58-2.67-37.27-2.89-56-.24-21.2,0-42.42,0-63.63,4.28-.52,6.12-4.47,9.19-6.68a432.68,432.68,0,0,1,41-25.85c4.24-2.38,8.32-6.38,14.29-3.71,1.39.63,4-.88,5.78-1.82a13.53,13.53,0,0,1,9.84-1.4c3.15.77,6.44.92,9.65,1.51a8.26,8.26,0,0,0,7.09-1.73c4.68-3.85,10.86-5.29,15.23-9.67C230.17,567.78,232.13,567.49,234,567.53Z"/><path class="cls-13" d="M119.79,737.94c4.72-.41,7.39-4.2,10.74-6.73,6.06-4.58,13.71-6.36,19.44-11.46,7.24-6.45,15.19-11.94,24.36-15.17,8.26-2.92,16.4-6,25.64-5.74,5.66.13,11.46-2.12,17.36-2.61,10.66-.89,20.5,1.52,29.85,6.35,3.36,1.73,6.67,3.21,10.55,2.06,6.85,11.7,13.86,23.27,22.72,33.64,2.7,3.16,5.66,6,8.57,8.93,5,5,9.51,10.53,15.45,14.53-4.94,1.38-9.74-.36-14.52-1-17.26-2.14-34,1.09-50.39,5.42-11.38,3-22.33,7.95-33.09,12.85-10.37,4.73-20.76,9.45-31.05,14.35C166.5,797.65,158.1,803,149.55,808c-2.93,1.73-6.36,2.54-8.88,5-8.88-16.4-14-34.09-17.64-52.24A170.33,170.33,0,0,1,119.79,737.94Z"/><path class="cls-14" d="M741.65,801.09c14.13-2.39,28.19-5,41.84-9.6,18.9-6.32,36.6-14.91,52.56-26.94a20.28,20.28,0,0,0,2.28,7.16c.79,1.63,1.45,3.29.76,5.12-2.51,6.67-.59,13.08,1,19.55,1.47,5.94,4.77,11.25,6.32,17,5.24,19.4,11.32,38.56,14.81,58.5,2.6,14.87,5.94,29.55,6.23,44.71a293.35,293.35,0,0,1-55.46,5.5c.13-2.49-.93-4.62-2.09-6.7-6.9-12.47-9.51-26.83-17.12-39a7.42,7.42,0,0,1-.45-1.25c-.75-1.95-.46-3.53,1.66-4.35,2.9-1.12,2.86-3.29,2.38-5.86s-1.48-4.82-.78-7.42c2.11-7.84,0-13.15-6.94-17.44a11.82,11.82,0,0,1-3.67-3.81c-3.66-5.75-9.07-9.67-14.4-13.63-8.66-6.43-18.13-11.71-26.53-18.52C743,803.28,741.93,802.52,741.65,801.09Z"/><path class="cls-15" d="M867.45,916.61c-.29-15.16-3.63-29.84-6.23-44.71-3.49-19.94-9.57-39.1-14.81-58.5-1.55-5.77-4.85-11.08-6.32-17-1.59-6.47-3.51-12.88-1-19.55.69-1.83,0-3.49-.76-5.12a20.28,20.28,0,0,1-2.28-7.16,193.44,193.44,0,0,0,39.18-41.16c1.85,6.71,3.82,13.39,5.5,20.15,1.09,4.38,3.44,8.32,5.6,12,5.76,9.68,9.34,20,12,30.78,5.07,20.27,10.78,40.39,15.62,60.71,2.64,11.08,3.51,22.52,5,33.83.75,5.61.55,11.54,3.72,16.64-15,8.52-31.22,13.84-48,17.7C872.36,915.72,869.9,916.13,867.45,916.61Z"/><path class="cls-16" d="M233.39,416q0,33,0,66c-13.5-1-24,6.17-34.59,12.9a13.86,13.86,0,0,0-5.12,5.46c-2.08,4.15-4.23,8.05-9.31,9.32-1.22.31-2.42,1.84-3.07,3.09C177.7,519.65,171,523,164.73,526.35a274.32,274.32,0,0,0-37.18,24.26c-3.23,2.5-6.37,5.4-10.66,6.19l0-72.23c7.47-1.84,13.28-7,20.19-10.06,8.71-3.82,16.31-9.54,24.18-14.81,9.64-6.45,20.42-10.53,31.34-14.25,2.09-.71,4-1.94,6.11-2.63,6.33-2.09,11.94-5.12,15.81-10.81C219.32,424.93,224.79,418.59,233.39,416Z"/><path class="cls-13" d="M729,923c-4.1-7.55-8.88-14.67-13.47-21.92-7-11.09-15.76-20.61-24.6-30.25-5.44-5.92-12-11.41-15.55-19a7.17,7.17,0,0,0-2.33-2.63c-12.18-8.65-22.42-19.86-35.43-27.33A130.56,130.56,0,0,0,608.92,810c-2.73-.79-6-1-7.31-4.35l79.3-.8c.16,1.54.63,3.09,2.13,3.67,6.84,2.63,12.87,6.8,19,10.63,9.57,6,20.74,10.71,24,23.32a5.77,5.77,0,0,0,1.19,1.86c2.4,3.16,4.14,6.52,3.35,10.68a3.43,3.43,0,0,0,1.22,3.13,255.05,255.05,0,0,1,19.67,24.48c7.67,10.73,13.71,22.5,21.59,33.09,1.59,2.13,3.08,4.39,3.16,7.22Z"/><path class="cls-12" d="M776.24,922.89c-.08-2.83-1.57-5.09-3.16-7.22-7.88-10.59-13.92-22.36-21.59-33.09a255.05,255.05,0,0,0-19.67-24.48A3.43,3.43,0,0,1,730.6,855c.79-4.16-1-7.52-3.35-10.68a5.77,5.77,0,0,1-1.19-1.86c-3.31-12.61-14.48-17.32-24-23.32-6.1-3.83-12.13-8-19-10.63-1.5-.58-2-2.13-2.13-3.67,20.27-.89,40.55-1.6,60.74-3.72.28,1.43,1.34,2.19,2.4,3,8.4,6.81,17.87,12.09,26.53,18.52,5.33,4,10.74,7.88,14.4,13.63a11.82,11.82,0,0,0,3.67,3.81c6.92,4.29,9.05,9.6,6.94,17.44-.7,2.6.33,5,.78,7.42s.52,4.74-2.38,5.86c-2.12.82-2.41,2.4-1.66,4.35a7.42,7.42,0,0,0,.45,1.25c7.61,12.16,10.22,26.52,17.12,39,1.16,2.08,2.22,4.21,2.09,6.7Q794.14,923.33,776.24,922.89Z"/><path class="cls-14" d="M234,567.53c-1.84,0-3.8.25-5,1.48-4.37,4.38-10.55,5.82-15.23,9.67a8.26,8.26,0,0,1-7.09,1.73c-3.21-.59-6.5-.74-9.65-1.51a13.53,13.53,0,0,0-9.84,1.4c-1.82.94-4.39,2.45-5.78,1.82-6-2.67-10,1.33-14.29,3.71a432.68,432.68,0,0,0-41,25.85c-3.07,2.21-4.91,6.16-9.19,6.68q0-23.22,0-46.44a14.63,14.63,0,0,0,3.21-1.45,153.89,153.89,0,0,1,24-15.16c5.9-3,12.13-5.6,17.46-9.71,5.81-4.48,12.75-6.82,19.1-10.28,7.24-4,15.6-4.51,23.14-7.67,3.74-1.57,5.7-4,5.41-7.67-.51-6.33,2.45-10.41,7.42-13.55,6.15-3.88,10.52-9.94,16.72-13.76Q233.67,530.1,234,567.53Z"/><path class="cls-6" d="M233.39,416c-8.6,2.63-14.07,9-18.89,16.05-3.87,5.69-9.48,8.72-15.81,10.81-2.1.69-4,1.92-6.11,2.63-10.92,3.72-21.7,7.8-31.34,14.25-7.87,5.27-15.47,11-24.18,14.81-6.91,3-12.72,8.22-20.19,10.06v-38.3c4.55-.54,7.11-4.15,10.09-6.9,6.57-6.07,13.9-11,21.28-16,9.48-6.4,17.14-15,25.8-22.45a15,15,0,0,1,6.4-3.76c4.07-1,6-4.82,8.34-7.64,3.16-3.73,6.72-6.65,11.39-6.58,5.18.07,9.21-3.78,14.2-3.35,6.27.55,10.5-2.91,14.72-6.68a9.48,9.48,0,0,1,4.7-2.42Z"/><path class="cls-15" d="M233.35,492.67c-6.2,3.82-10.57,9.88-16.72,13.76-5,3.14-7.93,7.22-7.42,13.55.29,3.64-1.67,6.1-5.41,7.67-7.54,3.16-15.9,3.72-23.14,7.67-6.35,3.46-13.29,5.8-19.1,10.28-5.33,4.11-11.56,6.67-17.46,9.71a153.89,153.89,0,0,0-24,15.16,14.63,14.63,0,0,1-3.21,1.45l0-15.12c4.29-.79,7.43-3.69,10.66-6.19a274.32,274.32,0,0,1,37.18-24.26c6.22-3.37,13-6.7,16.53-13.64.65-1.25,1.85-2.78,3.07-3.09,5.08-1.27,7.23-5.17,9.31-9.32a13.86,13.86,0,0,1,5.12-5.46c10.62-6.73,21.09-13.87,34.59-12.9Z"/><path class="cls-6" d="M690.75,190.58c32.64-.59,64.85,1.95,94.28,17.62,33.5,17.83,51.5,47.15,59,83.61.74,3.62,1.14,7.31,1.7,11-2.16-.19-4.69.66-6.3-1.33s-3.31-2.29-5.47-2.33a5.55,5.55,0,0,1-4.28-2.07,6,6,0,0,0-5.08-2.28,18.24,18.24,0,0,1-7.8-1.57c-7.62-3.27-16.22-3.76-23.4-8.24-1.44-16.36-9-28.69-24.17-35.62-22.72-10.42-50.71,2.27-56.49,29.54-4.7-1.83-9.37-4.34-13.48,1.31-.91,1.24-3,1.12-4.65.79a29.19,29.19,0,0,0-15,1c-6.24,2-12.45,1.74-18.86.72-11.26-1.78-22.56-4.4-34-3.74-11,.63-21.78-1.2-32.7-1-9.77.19-19.59-1.24-29.29.59-10,1.89-20,4.09-29.92,6.43-6.28,1.48-13,1.36-18.82,4.6A29.27,29.27,0,0,1,506,292.9a80.11,80.11,0,0,0-17,4.92c-5.39,2.07-10.31,5.63-16,6.41-10,1.38-18.63,6.95-28.45,8.77a4.35,4.35,0,0,0-2.45,1.77c-1.66,2.48-4.17,3.88-6.67,5.05-9.66,4.5-19.32,9-29.2,13-3.75,1.51-8.37.86-12.12,2.38-10,4-19.71,8.68-29.52,13.12a4,4,0,0,0-1.76,1.33c-2.28,3.82-6.19,4.67-10,6-7.24,2.45-14,6.74-16.45,13.81-2.14,6.23-5.92,10.38-10.23,14.55-2.95,2.85-6.54,3.08-8.13.37-3.28-5.62-8.13-10.26-10.26-16.56-.8-2.36-2.17-2.5-4.11-1.59a18.62,18.62,0,0,1-8.67,1.67c-.32-11.7.51-23.35,1.13-35,3.51-.23,6-2.51,8.47-4.58a177.47,177.47,0,0,1,24.4-17c4.5-2.69,7.12-11.17,5.26-16.33-.84-2.35-1.52-5,.8-6.56,5-3.31,7.64-8.61,11.69-12.63,7.72-7.69,14.65-16.17,23.86-22.43,12.06-8.19,23.75-16.82,37.89-21.25,9.76-3.05,19.58-6.12,29-9.87a213.11,213.11,0,0,1,34.29-10.7c12.24-2.59,24.38-6.19,37.12-6.7,10.64-.43,21-1.67,31.59,1.92a69,69,0,0,0,12.65,3.5c8.08,1.12,16,.29,24-.37,9.19-.76,18.49.23,27.55-1.09,15.4-2.24,31-1.72,46.41-4.22,4.34-.71,9.22-1.44,13.66-.55,8.35,1.67,16.86.65,25.18,2.15,2.3.41,3.84-.54,4.23-2.82A4.92,4.92,0,0,1,697.9,199c2.75-.86,2.3-2.26.17-3.58C695.57,193.92,692.57,193.13,690.75,190.58Z"/><path class="cls-12" d="M335.7,708.16c-16.86-14.92-26.65-34-32.66-55.34-4.56-16.17-6.31-32.74-7-49.42-.42-10.19-1.73-20.37-1-30.6,2-.36,3.44-1.56,5-2.75,5.52-4.27,11.29-8,18.27-9.65,6.25-1.46,13.06-1.47,18.05-6.55a2.55,2.55,0,0,1,2.12-.32c4.18,1.25,7.92-.57,11.66-1.78a34.45,34.45,0,0,1,13.07-2.07c15,1,30,1.8,44.59,6.12,5.77,1.7,11.4,4.25,17.58,4.45C430.84,567,435.11,574.48,441,581c32.18,35.53,71.87,55.55,119.7,59.2a168.32,168.32,0,0,0,43.55-2.48c11-2,21.41-5.73,32-8.88.65,1.77,2.27,2.18,3.79,2.79,3.29,1.33,6.79,2.34,9.79,4.16,10.41,6.29,20.22,13.63,28.39,22.53,9.22,10,18.53,19.93,28.07,29.65a21.53,21.53,0,0,1,4.59,6c1.72,3.87,4.43,6.89,6.87,10.22,2,2.78,5,5.72,4.28,9.82A54.15,54.15,0,0,0,721,724.1a5.09,5.09,0,0,1-2,4.27,15.38,15.38,0,0,0-5.92,14.11c-6.5.39-13,.87-19.49,1.13-36,1.45-72,1.37-108,1.13a23.73,23.73,0,0,0-6.6-10.41c-3.57-3.32-7.58-6.23-10.88-9.79-9.07-9.77-20.25-16-32.46-20.93-10.16-4.11-20-8.93-30.7-11.72a5.09,5.09,0,0,1-2-1c-4.8-4.15-10.72-5.49-16.68-6.79-2.74-.6-5.85-.69-7.94-2.64-4.12-3.83-9.2-4.65-14.36-5.19-16.81-1.77-33.58-3.71-49.91-8.36a13,13,0,0,0-6.6-.2,22.07,22.07,0,0,1-7.07.28q-10-.86-19.92-1.53a8,8,0,0,0-3.93.4c-5.18,2.54-10.78,3.86-16.1,6-.79.32-2.15,1-2.11,1.35.71,5.15-4.07,7.19-6,10.79A64.65,64.65,0,0,1,340,701.65C337.94,703.56,336.3,705.44,335.7,708.16Z"/><path class="cls-4" d="M793.38,285c7.18,4.48,15.78,5,23.4,8.24a18.24,18.24,0,0,0,7.8,1.57,6,6,0,0,1,5.08,2.28,5.55,5.55,0,0,0,4.28,2.07c2.16,0,4,.48,5.47,2.33s4.14,1.14,6.3,1.33c2.46,13.92,2.71,28,3.26,42.07.82,21.33,1.56,42.66,1.12,64-2.6-.29-4,.95-5.08,3.3-2.17,4.87-4.65,9.6-6.92,14.43-.59,1.27-1.14,2.64-2.69,2.59-4.58-.17-5,3-5.63,6.37-.69,4-4.59,7.86-6.78,8.58-4.5,1.47-4.35,4.17-4.76,7.23s-1.45,4.16-4.23,2c-2-1.54-3.85-1.82-5,.88-1.38,3.22-3.36,2.8-5.63,1.13-8.25-6-17.54-10.87-25.12-17.52-6.8-5.95-11.72-14.24-16.62-22-1.94-3.08-3.69-6.32-5.86-9.29-5.63-7.69-9.85-16-10.62-25.7-.26-3.21-2.12-5.47-3.85-7.84-1.53-2.1-2.83.15-4.25.32a4.29,4.29,0,0,1-2-.73c-.93-.46-1.91-.56-2.11.61-.77,4.51-3.36,3.48-6.23,2.29-2.1-.86-4.39-.43-6.61-.46-.61-.83-1.26-1.62-1.84-2.47-32.87-48.61-78.57-75.28-137.08-79.27-26.24-1.79-51.63,3-76,13.09-26.62,11-48.94,28.06-67.36,49.82a167.22,167.22,0,0,0-27.35,46.6c-10.15.84-20.36,2.76-30.45,2.23-11.53-.61-22.85.9-33.92,2.66-17.24,2.73-35,1.26-51.83,6.48-.09-15.43-.33-30.85.66-46.25a18.62,18.62,0,0,0,8.67-1.67c1.94-.91,3.31-.77,4.11,1.59,2.13,6.3,7,10.94,10.26,16.56,1.59,2.71,5.18,2.48,8.13-.37,4.31-4.17,8.09-8.32,10.23-14.55,2.43-7.07,9.21-11.36,16.45-13.81,3.82-1.3,7.73-2.15,10-6a4,4,0,0,1,1.76-1.33c9.81-4.44,19.54-9.09,29.52-13.12,3.75-1.52,8.37-.87,12.12-2.38,9.88-4,19.54-8.51,29.2-13,2.5-1.17,5-2.57,6.67-5.05a4.35,4.35,0,0,1,2.45-1.77c9.82-1.82,18.44-7.39,28.45-8.77,5.72-.78,10.64-4.34,16-6.41a80.11,80.11,0,0,1,17-4.92,29.27,29.27,0,0,0,10.06-3.34c5.85-3.24,12.54-3.12,18.82-4.6,9.93-2.34,19.9-4.54,29.92-6.43,9.7-1.83,19.52-.4,29.29-.59,10.92-.22,21.72,1.61,32.7,1,11.42-.66,22.72,2,34,3.74,6.41,1,12.62,1.31,18.86-.72a29.19,29.19,0,0,1,15-1c1.67.33,3.74.45,4.65-.79,4.11-5.65,8.78-3.14,13.48-1.31-.11.89-.23,1.77-.34,2.65-3.16,25.61,20.07,50.09,47.43,44.67C779.64,322.27,792.22,307.16,793.38,285Z"/><path class="cls-8" d="M720.08,375c2.22,0,4.51-.4,6.61.46,2.87,1.19,5.46,2.22,6.23-2.29.2-1.17,1.18-1.07,2.11-.61a4.29,4.29,0,0,0,2,.73c1.42-.17,2.72-2.42,4.25-.32,1.73,2.37,3.59,4.63,3.85,7.84.77,9.68,5,18,10.62,25.7,2.17,3,3.92,6.21,5.86,9.29,4.9,7.79,9.82,16.08,16.62,22,7.58,6.65,16.87,11.47,25.12,17.52,2.27,1.67,4.25,2.09,5.63-1.13,1.16-2.7,3.06-2.42,5-.88,2.78,2.18,3.82,1.09,4.23-2s.26-5.76,4.76-7.23c2.19-.72,6.09-4.56,6.78-8.58.59-3.41,1.05-6.54,5.63-6.37,1.55.05,2.1-1.32,2.69-2.59,2.27-4.83,4.75-9.56,6.92-14.43,1-2.35,2.48-3.59,5.08-3.3.08,17.08.26,34.16.21,51.24-.12,37.73.81,75.49-1,113.18-.49,10.1-.73,20.27-1.26,30.37-.67,12.78-1.64,25.43-4,38-1.68,8.87-3.92,17.64-7.83,25.86-3.78-3.54-7.45-7.2-12.76-8.51-2.59-.64-4.13-2.64-5.55-4.83-2.35-3.61-3.73-7.8-6.13-11.27-6.79-9.82-13.91-19.45-21.14-28.91-11.75-15.38-24.93-29.62-40.38-41.53-8.77-6.76-17.06-14.13-26.43-20.11.44-.93.83-1.88,1.31-2.79q30.43-57.84,16.52-121.69C737.47,409,729.75,391.58,720.08,375Z"/><path class="cls-13" d="M335.7,708.16c.6-2.72,2.24-4.6,4.29-6.51A64.65,64.65,0,0,0,352.33,685c2-3.6,6.75-5.64,6-10.79,0-.35,1.32-1,2.11-1.35,5.32-2.09,10.92-3.41,16.1-6a8,8,0,0,1,3.93-.4q10,.67,19.92,1.53a22.07,22.07,0,0,0,7.07-.28,13,13,0,0,1,6.6.2c16.33,4.65,33.1,6.59,49.91,8.36,5.16.54,10.24,1.36,14.36,5.19,2.09,1.95,5.2,2,7.94,2.64,6,1.3,11.88,2.64,16.68,6.79a5.09,5.09,0,0,0,2,1c10.67,2.79,20.54,7.61,30.7,11.72,12.21,4.93,23.39,11.16,32.46,20.93,3.3,3.56,7.31,6.47,10.88,9.79a23.73,23.73,0,0,1,6.6,10.41c-39.3.17-78.6.5-117.89-.66-21.78-.65-43.61-.81-65.15-4.59C379,735.37,357,727.55,338.85,711.27,337.76,710.28,336.75,709.2,335.7,708.16Z"/><path class="cls-14" d="M713.08,742.48A15.38,15.38,0,0,1,719,728.37a5.09,5.09,0,0,0,2-4.27A54.15,54.15,0,0,1,722.07,714c.67-4.1-2.24-7-4.28-9.82-2.44-3.33-5.15-6.35-6.87-10.22a21.53,21.53,0,0,0-4.59-6c-9.54-9.72-18.85-19.62-28.07-29.65-8.17-8.9-18-16.24-28.39-22.53-3-1.82-6.5-2.83-9.79-4.16-1.52-.61-3.14-1-3.79-2.79,5.27-2.56,10.58-5.05,15.8-7.7,19.09-9.71,35.34-23.11,50-38.56,4.37,2.05,7.76,5.31,11,8.76a92.62,92.62,0,0,0,8.14,8.08,195.37,195.37,0,0,1,14.79,13.75c4.49,4.52,8.58,9.75,13,14.45,7.52,7.95,14.54,16.35,21.73,24.57,6.65,7.6,11.72,16.59,17.4,25,1.86,2.77,3.81,4.14,7.58,4.12s8.47-1.4,11.29,2.22c3.73,4.8,8.6,8.61,11.78,13.85-14.23,17.41-32,29.28-53.52,36.2A197.32,197.32,0,0,1,713.08,742.48Z"/><path class="cls-7" d="M690.75,190.58c1.82,2.55,4.82,3.34,7.32,4.88,2.13,1.32,2.58,2.72-.17,3.58a4.92,4.92,0,0,0-3.81,4.33c-.39,2.28-1.93,3.23-4.23,2.82-8.32-1.5-16.83-.48-25.18-2.15-4.44-.89-9.32-.16-13.66.55-15.39,2.5-31,2-46.41,4.22-9.06,1.32-18.36.33-27.55,1.09-7.93.66-15.88,1.49-24,.37a69,69,0,0,1-12.65-3.5c-10.56-3.59-21-2.35-31.59-1.92-12.74.51-24.88,4.11-37.12,6.7a213.11,213.11,0,0,0-34.29,10.7c-9.46,3.75-19.28,6.82-29,9.87-14.14,4.43-25.83,13.06-37.89,21.25-9.21,6.26-16.14,14.74-23.86,22.43-4.05,4-6.71,9.32-11.69,12.63-2.32,1.54-1.64,4.21-.8,6.56,1.86,5.16-.76,13.64-5.26,16.33a177.47,177.47,0,0,0-24.4,17c-2.43,2.07-5,4.35-8.47,4.58.81-28.45,4.61-56.38,18.89-81.52,14.17-24.93,35.36-42,62.71-51.07,14-4.67,28.45-6.9,43.18-8.2,56.57-5,113.27-2.94,169.91-3.35,29.25-.21,58.5-.3,87.74.79C682.57,189.66,686.66,190.21,690.75,190.58Z"/><path class="cls-14" d="M425.39,560.25c-6.18-.2-11.81-2.75-17.58-4.45-14.59-4.32-29.6-5.08-44.59-6.12a34.45,34.45,0,0,0-13.07,2.07c-3.74,1.21-7.48,3-11.66,1.78a2.55,2.55,0,0,0-2.12.32c-5,5.08-11.8,5.09-18.05,6.55-7,1.61-12.75,5.38-18.27,9.65-1.54,1.19-3,2.39-5,2.75-1.21-26.72-1-53.46-.79-80.2,5.89.42,11.26-2.24,17-2.79,9.69-.92,19.43-2,28.85-4.51,7.78-2.06,15.41-4.08,23.5-2.07a7.6,7.6,0,0,0,3.51.14c10.48-2.68,21.18-1,31.76-1.64a219.31,219.31,0,0,0,4.4,26.3C407.76,526.67,415.58,543.88,425.39,560.25Z"/><path class="cls-15" d="M818.88,697.39c-3.18-5.24-8-9-11.78-13.85-2.82-3.62-7.57-2.24-11.29-2.22s-5.72-1.35-7.58-4.12c-5.68-8.44-10.75-17.43-17.4-25-7.19-8.22-14.21-16.62-21.73-24.57-4.45-4.7-8.54-9.93-13-14.45a195.37,195.37,0,0,0-14.79-13.75,92.62,92.62,0,0,1-8.14-8.08c-3.27-3.45-6.66-6.71-11-8.76a245,245,0,0,0,21.66-30.26c9.37,6,17.66,13.35,26.43,20.11,15.45,11.91,28.63,26.15,40.38,41.53,7.23,9.46,14.35,19.09,21.14,28.91,2.4,3.47,3.78,7.66,6.13,11.27,1.42,2.19,3,4.19,5.55,4.83,5.31,1.31,9,5,12.76,8.51-3.89,10.39-8.62,20.29-16.43,28.42A6.71,6.71,0,0,0,818.88,697.39Z"/><path class="cls-15" d="M398.92,481.73c-10.58.6-21.28-1-31.76,1.64a7.6,7.6,0,0,1-3.51-.14c-8.09-2-15.72,0-23.5,2.07-9.42,2.49-19.16,3.59-28.85,4.51-5.76.55-11.13,3.21-17,2.79l0-46.29A69.33,69.33,0,0,1,314.61,443c14-.49,27.89-3.22,41.88-4.27,5.65-.43,10.84-3.17,16.55-2.54,3.27.36,6.5-.13,9.73-.11,6.49,0,12.43-2.7,18.8-3C398.28,449.13,397.85,465.39,398.92,481.73Z"/><path class="cls-16" d="M401.57,433c-6.37.31-12.31,3-18.8,3-3.23,0-6.46.47-9.73.11-5.71-.63-10.9,2.11-16.55,2.54-14,1.05-27.89,3.78-41.88,4.27a69.33,69.33,0,0,0-20.35,3.35V414.13c16.87-5.22,34.59-3.75,51.83-6.48,11.07-1.76,22.39-3.27,33.92-2.66,10.09.53,20.3-1.39,30.45-2.23C406.55,412.57,403.93,422.76,401.57,433Z"/><path class="cls-17" d="M793.38,285c-1.16,22.21-13.74,37.32-33.57,41.24-27.36,5.42-50.59-19.06-47.43-44.67.11-.88.23-1.76.34-2.65,5.78-27.27,33.77-40,56.49-29.54C784.33,256.26,791.94,268.59,793.38,285Z"/><path class="cls-18" d="M752.15,333.76a46.51,46.51,0,0,1-34.7-16,47.39,47.39,0,0,1-11.82-37.1l.43-3.22c4.81-22.71,24-38.58,46.57-38.58a46.27,46.27,0,0,1,19.42,4.25c16.69,7.65,26.41,21.91,28.11,41.22l0,.47,0,.48c-1.31,25.2-15.9,43-39,47.56A46.34,46.34,0,0,1,752.15,333.76ZM719.43,280l-.3,2.31a33.87,33.87,0,0,0,8.51,26.43,32.72,32.72,0,0,0,30.85,10.74c16.73-3.31,26.94-15.85,28.07-34.44-1.38-14.3-8-24-20.18-29.57a32.73,32.73,0,0,0-13.75-3C736.6,252.5,723,263.81,719.43,280Z"/><path class="cls-8" d="M463.4,436.4c4.32-17.7,13.28-32.9,25.47-46.22a109.69,109.69,0,0,1,54-32.75c66.7-17.46,131.85,26.32,141.22,93.3,2.44,17.5,2.12,35.55-4.91,52.56-9.58-1.81-20-1.37-27.19-9.78-.08-.1-.28-.11-.39-.2-3.08-2.66-7-4.84-9-8.17a9.89,9.89,0,0,0-5.21-4.75c-15.41-6.07-31-11.8-46.22-18.23-13.55-5.72-27.83-9.25-41.44-14.77A101.79,101.79,0,0,0,529,441.24a66,66,0,0,1-14.51-3.73,17.41,17.41,0,0,0-3.4-1c-7.84-1.46-14.84,1.45-21.75,4.45-1.95.84-3.57,1.83-5.83,1C476.94,439.64,470.33,437.43,463.4,436.4Z"/><path class="cls-14" d="M650,548a15.52,15.52,0,0,1-3.94,4.68c-48.37,41.1-119.54,35.14-160.15-12.71a109.91,109.91,0,0,1-26.68-68.69c3.25.38,6.34,1.46,9.57,2,5.86,1,12.25.17,17.56,2.28,16.45,6.54,34,9,50.56,15.36,20.43,7.81,41.61,13.61,61.46,23,6.27,3,12.76,5.52,19.16,8.25,1.43.61,2.55,1.24,2.23,3.25-1,5.94,1.53,10.56,7.3,12.77C634.79,541.15,642.35,544.61,650,548Z"/><path class="cls-15" d="M650,548c-7.6-3.36-15.16-6.82-22.93-9.78-5.77-2.21-8.26-6.83-7.3-12.77.32-2-.8-2.64-2.23-3.25-6.4-2.73-12.89-5.27-19.16-8.25-19.85-9.42-41-15.22-61.46-23-16.53-6.32-34.11-8.82-50.56-15.36-5.31-2.11-11.7-1.29-17.56-2.28-3.23-.54-6.32-1.62-9.57-2a95.44,95.44,0,0,1,4.22-34.85c6.93,1,13.54,3.24,20.09,5.59,2.26.82,3.88-.17,5.83-1,6.91-3,13.91-5.91,21.75-4.45a17.41,17.41,0,0,1,3.4,1A66,66,0,0,0,529,441.24a101.79,101.79,0,0,1,20.78,6.15c13.61,5.52,27.89,9.05,41.44,14.77,15.26,6.43,30.81,12.16,46.22,18.23a9.89,9.89,0,0,1,5.21,4.75c2,3.33,5.88,5.51,9,8.17.11.09.31.1.39.2,7.22,8.41,17.61,8,27.19,9.78-5.16,16.52-14.35,30.58-26.32,42.93C652.05,547.05,651.36,548.13,650,548Z"/><path class="cls-19" d="M159.75,515.34h-.66a22.69,22.69,0,0,1-22-23.32l8.44-296.33a22.63,22.63,0,0,1,.29-3C154.7,137.63,204.45,33.46,329,33.46h204.1a22.68,22.68,0,0,1,0,45.36H329c-112.15,0-135.59,105.9-138.18,119.79L182.41,493.3A22.69,22.69,0,0,1,159.75,515.34Z"/><circle class="cls-19" cx="159.51" cy="546.59" r="21.48"/><path class="cls-17" d="M401.57,433c2.36-10.27,5-20.46,8.88-30.27a167.22,167.22,0,0,1,27.35-46.6c18.42-21.76,40.74-38.82,67.36-49.82,24.37-10.08,49.76-14.88,76-13.09,58.51,4,104.21,30.66,137.08,79.27.58.85,1.23,1.64,1.84,2.47,9.67,16.59,17.39,34,21.52,52.83q14,63.85-16.52,121.69c-.48.91-.87,1.86-1.31,2.79a245,245,0,0,1-21.66,30.26c-14.68,15.45-30.93,28.85-50,38.56-5.22,2.65-10.53,5.14-15.8,7.7-10.63,3.15-21.09,6.86-32,8.88a168.32,168.32,0,0,1-43.55,2.48c-47.83-3.65-87.52-23.67-119.7-59.2-5.89-6.5-10.16-14-15.61-20.73-9.81-16.37-17.63-33.58-22.07-52.22a219.31,219.31,0,0,1-4.4-26.3C397.85,465.39,398.28,449.13,401.57,433Zm57.61,38.22a109.91,109.91,0,0,0,26.68,68.69c40.61,47.85,111.78,53.81,160.15,12.71A15.52,15.52,0,0,0,650,548c1.41.16,2.1-.92,2.9-1.75,12-12.35,21.16-26.41,26.32-42.93,7-17,7.35-35.06,4.91-52.56-9.37-67-74.52-110.76-141.22-93.3a109.69,109.69,0,0,0-54,32.75c-12.19,13.32-21.15,28.52-25.47,46.22A95.44,95.44,0,0,0,459.18,471.25Z"/><path class="cls-18" d="M572.9,647.44c-4.24,0-8.52-.16-12.71-.48C511.3,643.24,469.5,622.57,436,585.55a124.4,124.4,0,0,1-9.55-12.45c-2.11-3-4.11-5.87-6.29-8.56l-.56-.8c-11.11-18.55-18.59-36.26-22.85-54.13a223.44,223.44,0,0,1-4.54-27.11c-1.27-19.14-.36-35.66,2.74-50.83,2.36-10.23,5.07-21,9.23-31.43a173.8,173.8,0,0,1,28.48-48.47c19.68-23.27,43.22-40.67,69.95-51.72,26.14-10.8,52.76-15.39,79.06-13.59,60.27,4.11,108.13,31.78,142.26,82.24.31.47.65.91,1,1.35l1.09,1.51c11.09,19,18.38,37,22.29,54.8,9.62,43.93,3.85,86.42-17.15,126.32-.25.49-.48,1-.7,1.5l-.81,1.65a253.56,253.56,0,0,1-22.26,31.09c-17.07,18-34,31.05-52.16,40.26-3.62,1.85-7.29,3.61-10.95,5.37l-6,2.79q-3.9,1.17-7.79,2.39a216.26,216.26,0,0,1-25,6.66A179.42,179.42,0,0,1,572.9,647.44ZM431,556.35c2.37,2.95,4.5,6,6.57,8.94A110.59,110.59,0,0,0,446,576.41c31.56,34.84,69.24,53.48,115.18,57A161.93,161.93,0,0,0,603,631a202.1,202.1,0,0,0,23.39-6.28q3.71-1.15,7.43-2.28l4.5-2.17c3.57-1.71,7.14-3.43,10.67-5.23,16.72-8.5,32.48-20.66,48.18-37.18a241,241,0,0,0,20.57-28.75l.23-.52c.35-.76.69-1.52,1.08-2.25,19.46-37,24.81-76.37,15.89-117.08-3.57-16.31-10.29-32.84-20.54-50.5l-.33-.43c-.51-.66-1-1.33-1.48-2-31.65-46.81-76-72.48-131.9-76.28-24.21-1.64-48.74,2.59-72.94,12.59C483.05,322.84,461.26,339,443,360.56a160.08,160.08,0,0,0-26.21,44.71c-3.83,9.6-6.39,19.75-8.58,29.28-2.82,13.8-3.64,29.14-2.49,46.73a212.26,212.26,0,0,0,4.22,25.17C413.84,522.82,420.73,539.15,431,556.35Zm141.14,30.47h0a119.8,119.8,0,0,1-91.45-42.48,117,117,0,0,1-28.29-72.83,101.3,101.3,0,0,1,4.48-37c4.35-17.67,13.43-34.14,27-49a116.54,116.54,0,0,1,57.28-34.74,124.11,124.11,0,0,1,31.36-4.07c60.22,0,110,43.32,118.32,103,3,21.56,1.31,39.83-5.24,55.81C680.35,522.19,671.23,537,657.73,551a12.31,12.31,0,0,1-3.43,2.83,25,25,0,0,1-3.88,4A121.18,121.18,0,0,1,572.12,586.82Zm.37-226.44A110.24,110.24,0,0,0,544.58,364a103.09,103.09,0,0,0-50.69,30.75c-12.23,13.37-20,27.51-23.88,43.25l-.14.5A88.16,88.16,0,0,0,466,470.91,103.69,103.69,0,0,0,491,535.53a106.24,106.24,0,0,0,81.08,37.68,107.53,107.53,0,0,0,69.49-25.75,8.82,8.82,0,0,0,2.29-2.61l2.15-4.18,2.43.28c11.78-12.29,19.7-25.28,24.2-39.69l.2-.57c5.69-13.76,7.15-29.79,4.46-49C669.94,398.78,625.85,360.38,572.49,360.38Z"/><path class="cls-17" d="M843.11,174.58c6,5.88,12.36,11.46,18,17.73,23.16,25.63,36,56.18,42.64,89.62,4.25,21.29,5,42.92,6,64.52,0,1.19.21,2.36.33,3.54q.9,49.1.83,98.2c0,16,.07,32,.12,48-.3,33.84-.2,67.68-1.84,101.51-.74,15.37-1.6,30.73-4,45.93-4.54,28.6-13.95,55.44-29.95,79.77a193.44,193.44,0,0,1-39.18,41.16c-16,12-33.66,20.62-52.56,26.94-13.65,4.56-27.71,7.21-41.84,9.6-20.19,2.12-40.47,2.83-60.74,3.72l-79.3.8q-38.5-.08-77-.15c-32.94,0-65.87-.43-98.76-1.89a242.63,242.63,0,0,1-88.58-21.17c-11.83-5.52-22.16-13.29-32.78-20.66-5.94-4-10.44-9.55-15.45-14.53-2.91-2.9-5.87-5.77-8.57-8.93-8.86-10.37-15.87-21.94-22.72-33.64a37.06,37.06,0,0,0-1.39-4.17C243.71,673.71,237.9,645.3,236.18,616c-1-16.13-1.49-32.29-2.21-48.43q-.32-37.44-.62-74.86V481.94l0-66,.39-45.46.6-14.63c.93-23.09,1.37-46.21,5.32-69.08,2.8-16.25,7.64-31.9,13.49-47.28,5.56-11.64,11.39-23.12,19.08-33.56,27.78-37.76,65.24-60.1,110.69-69.85,25.68-5.51,51.79-6.31,77.87-7,24.63-.7,49.28-.75,73.93-1.09q47,.09,94,.18c31.79,0,63.57.56,95.29,2.75,32,2.21,62.72,9.3,91.15,24.78A188.51,188.51,0,0,1,843.11,174.58ZM294.26,446.31q0,23.15,0,46.29c-.23,26.74-.42,53.48.79,80.2-.75,10.23.56,20.41,1,30.6.68,16.68,2.43,33.25,7,49.42,6,21.34,15.8,40.42,32.66,55.34,1.05,1,2.06,2.12,3.15,3.11,18.19,16.28,40.17,24.1,63.71,28.22,21.54,3.78,43.37,3.94,65.15,4.59,39.29,1.16,78.59.83,117.89.66,36,.24,72,.32,108-1.13,6.5-.26,13-.74,19.49-1.13a197.32,197.32,0,0,0,52.28-8.89c21.5-6.92,39.29-18.79,53.52-36.2a6.71,6.71,0,0,1,.85-1.51c7.81-8.13,12.54-18,16.43-28.42,3.91-8.22,6.15-17,7.83-25.86,2.38-12.53,3.35-25.18,4-38,.53-10.1.77-20.27,1.26-30.37,1.84-37.69.91-75.45,1-113.18.05-17.08-.13-34.16-.21-51.24.44-21.35-.3-42.68-1.12-64-.55-14.06-.8-28.15-3.26-42.06-.56-3.66-1-7.35-1.7-11-7.48-36.46-25.48-65.78-59-83.61-29.43-15.67-61.64-18.21-94.28-17.62-4.09-.37-8.18-.92-12.28-1.07-29.24-1.09-58.49-1-87.74-.79-56.64.41-113.34-1.61-169.91,3.35-14.73,1.3-29.15,3.53-43.18,8.2-27.35,9.1-48.54,26.14-62.71,51.07-14.28,25.14-18.08,53.07-18.89,81.52-.62,11.67-1.45,23.32-1.13,35-1,15.41-.75,30.83-.66,46.26Z"/><path class="cls-18" d="M601.64,812.42l-24.46-.06q-26.29-.06-52.6-.1c-39.6,0-70.15-.61-99.06-1.89a239.42,239.42,0,0,1-37.75-4.64c-20-4.12-37.47-9.73-53.4-17.17-10.51-4.9-19.83-11.44-28.83-17.76l-5-3.46c-4.91-3.32-8.82-7.44-12.6-11.42-1.25-1.31-2.49-2.62-3.77-3.89l-1-1c-2.64-2.61-5.35-5.31-7.92-8.31-9.24-10.81-16.35-22.54-23.43-34.62l-.59-1.33c-.17-.52-.32-1-.47-1.55a12.12,12.12,0,0,0-.6-1.82c-12.07-25.57-18.87-54-20.8-87-.66-11.16-1.12-22.33-1.58-33.5-.21-5-.41-10-.64-15l-.63-85.89.65-116.73.72-18.22c.76-20.1,1.55-40.89,5.08-61.35,2.62-15.18,7-30.61,13.84-48.55l.22-.51c5.17-10.82,11.38-23.31,19.74-34.67,27.73-37.69,66.34-62.08,114.75-72.47,26.57-5.7,53.27-6.46,79.1-7.19,17.13-.49,34.54-.67,51.37-.84q11.32-.1,22.65-.25l30.12.06q32,.06,64,.12c28.14,0,61.52.39,95.74,2.76,36.18,2.51,66.91,10.88,93.94,25.59a194.25,194.25,0,0,1,28.92,19.58l.49.44c1.83,1.78,3.68,3.53,5.54,5.28,4.26,4,8.68,8.22,12.78,12.76,22.2,24.56,36.68,54.93,44.27,92.84,4.15,20.75,5.07,41.9,6,62.35l.14,3.22c0,.66.11,1.32.18,2l.16,1.72c.65,35.17.92,67.34.83,98.35,0,11,0,22.07.07,33.1l.06,14.85-.14,18.91c-.19,27.17-.37,55.26-1.71,82.94-.76,15.81-1.65,31.28-4.1,46.67-4.9,30.9-15.33,58.64-31,82.45a201.2,201.2,0,0,1-40.67,42.77c-15.72,11.86-33.55,21-54.6,28-14.56,4.87-29.76,7.64-42.87,9.85-18.6,2-37.06,2.77-54.91,3.53l-6.66.28ZM264,701.9c6.62,11.28,13.28,22.2,21.63,32,2.2,2.57,4.6,5,7.15,7.49l1,1c1.37,1.36,2.7,2.76,4,4.16,3.43,3.61,6.67,7,10.42,9.55l5.09,3.56c8.91,6.26,17.34,12.17,26.77,16.57,14.95,7,31.44,12.27,50.38,16.18a226.68,226.68,0,0,0,35.62,4.37c28.7,1.27,59.07,1.85,98.46,1.88q26.31,0,52.62.1l24.38,0,85.7-1.09c17.64-.75,35.88-1.53,53.64-3.4,12.18-2.07,26.77-4.73,40.4-9.28,19.64-6.57,36.2-15,50.62-25.93a187.15,187.15,0,0,0,37.71-39.62c14.68-22.33,24.14-47.55,28.8-76.94,2.34-14.72,3.2-29.77,3.95-45.19C903.73,570,903.92,542,904.1,515l.14-18.86-.06-14.75c0-11.07-.1-22.13-.06-33.2.08-30.83-.19-62.81-.83-97.76l-.08-.79c-.11-.95-.21-1.9-.25-2.86l-.14-3.22c-.87-19.94-1.77-40.56-5.72-60.28-7.09-35.44-20.5-63.69-41-86.38-3.76-4.16-7.78-8-12.05-12-1.82-1.73-3.64-3.45-5.44-5.2a182.23,182.23,0,0,0-26.65-18c-25.29-13.76-54.19-21.6-88.38-24-33.81-2.34-66.9-2.7-94.82-2.74l-64-.11-30-.06c-7.46.1-15,.18-22.6.25-16.76.17-34.1.34-51.11.83-25.22.72-51.29,1.46-76.64,6.9-45.69,9.81-80.57,31.8-106.64,67.23-7.59,10.32-13.42,22-18.3,32.21-6.44,17-10.59,31.54-13,45.76-3.38,19.58-4.15,39.9-4.89,59.55l-.93,23.28L240.2,416l0,65.93v10.73l.61,74.8c.22,4.78.43,9.8.63,14.83.46,11.09.92,22.18,1.57,33.27,1.83,31.21,8.22,58,19.52,82a24.87,24.87,0,0,1,1.37,3.85Zm270.56,49.82c-26.37,0-47.67-.27-67-.84l-7.74-.22c-19.13-.52-38.91-1-58.39-4.47-28.61-5-49.92-14.5-67.07-29.86-.85-.76-1.67-1.58-2.47-2.41l-.93-.92c-16-14.19-27.39-33.35-34.42-58.34-4.11-14.58-6.41-30.78-7.24-51-.12-3-.33-6-.53-9.07a161.91,161.91,0,0,1-.47-21.89c-1.14-25.7-1-50.49-.77-80.18l-.07-83.1c-.09-13.63-.19-27.72.69-41.69-.25-10,.3-20,.83-29.63l.31-5.61c.69-24.29,3.58-56,19.77-84.53,14.89-26.22,37.26-44.44,66.48-54.17,12.76-4.25,27-6.95,44.73-8.51,34.58-3,68.85-3.46,100.74-3.46,8.67,0,17.33,0,26,.07,14.58.06,29.16.11,43.73,0q15.33-.1,30.65-.13c22.28,0,40.52.29,57.39.92,2.94.11,5.88.41,8.83.71l3.45.35q3.91-.08,7.82-.07c25.45,0,58.62,2.1,89.4,18.49,33,17.59,54,47.28,62.45,88.25.54,2.61.91,5.26,1.28,7.91.16,1.13.32,2.27.49,3.4,2.23,12.62,2.7,25.51,3.15,38l.18,4.84c.84,21.79,1.56,43.12,1.12,64.41l.1,15.76c.07,11.79.14,23.57.11,35.36,0,10.27,0,20.54.06,30.81.12,27.08.25,55.08-1.09,82.68-.23,4.67-.4,9.35-.57,14-.21,5.46-.41,10.92-.7,16.37-.64,12.32-1.59,25.56-4.12,38.87-1.45,7.61-3.69,17.56-8.25,27.25-3.39,9-8.41,20.46-17.26,29.92l-.32.62-.7,1a119,119,0,0,1-56.71,38.36c-16.64,5.35-34.32,8.37-54.07,9.22l-6,.38c-4.49.28-9,.57-13.46.75-21.59.87-45.08,1.27-73.93,1.27q-17.19,0-34.39-.14l-11.69.05Q554.21,751.7,534.56,751.72ZM521,195.45c-31.58,0-65.49.41-99.55,3.4-16.67,1.47-29.89,4-41.62,7.87-25.93,8.64-45.76,24.78-58.94,48-14.72,25.91-17.36,55.49-18,78.36l-.32,5.81c-.52,9.48-1.07,19.29-.81,28.82V368l0,.31c-.87,13.59-.77,27.54-.68,41l0,37,0,46.29c-.27,29.7-.37,54.39.77,79.9l0,.4,0,.4a146,146,0,0,0,.45,20.39c.21,3.15.42,6.29.55,9.43.78,19.11,2.92,34.32,6.73,47.85,6.31,22.4,16.33,39.44,30.63,52.1l1.32,1.31c.61.62,1.22,1.24,1.86,1.82,15.17,13.58,34.35,22,60.34,26.59,18.49,3.24,37.77,3.76,56.4,4.27l7.79.21c19.23.58,40.41.84,66.64.84q19.62,0,39.24-.12l11.77-.06c11.51.08,22.94.14,34.37.14,28.67,0,52-.4,73.38-1.26,4.38-.17,8.76-.45,13.14-.73l6.22-.39c18.62-.81,35.13-3.61,50.6-8.58,20.29-6.52,36.6-17.46,49.84-33.42a9.46,9.46,0,0,1,1.72-2.54c7.49-7.79,11.76-17.56,14.95-26.07l.23-.54c3.1-6.53,5.35-14,7.29-24.21,2.38-12.51,3.28-25.2,3.9-37.05.29-5.37.49-10.76.69-16.15.17-4.74.34-9.47.58-14.19,1.32-27.24,1.2-55.06,1.07-82,0-10.3-.09-20.61-.06-30.91,0-11.74,0-23.49-.11-35.24l-.09-15.95c.43-21.09-.29-42.19-1.12-63.77l-.18-4.88c-.46-12.56-.89-24.42-3-36.27-.2-1.35-.37-2.54-.54-3.73-.32-2.37-.65-4.73-1.13-7.06-7.65-37.32-25.81-63.15-55.51-79-28.13-15-59.14-16.89-83-16.89q-4,0-8,.07h-.36l-.36,0c-1.34-.12-2.67-.26-4-.4-2.64-.28-5.28-.55-7.92-.65-16.7-.62-34.78-.91-56.89-.91q-15.29,0-30.55.13c-14.62.1-29.26,0-43.88,0C538.25,195.49,529.61,195.45,521,195.45Z"/><path class="cls-18" d="M322.55,934.51h0c-15.81,0-97.66-3.1-156.59-64.42C121.71,824.05,101,757,104.44,670.82l3.26-489.49a13.83,13.83,0,0,1,.12-1.58C124.65,65.69,229.16-1.77,318.78.32H819.32C821.7.11,824.41,0,827.4,0c69.32,0,202.92,43.54,212.36,208.33,0,.21,0,.43,0,.64l.14,514.51c0,.33,0,.66,0,1C1022.84,919.18,860.4,934.31,811,934.31ZM130.37,182.28l-3.26,489.06c-3.18,80.16,15.39,141.61,55.19,183,52.56,54.69,126,57.46,140.24,57.46l488.47-.2c44.47,0,190.65-13.6,206.23-188.64l-.14-513.68c-4-69.23-31.62-120.88-82-153.52C897.46,31.35,853.55,22.68,827.4,22.68c-2.47,0-4.7.09-6.45.26a10.28,10.28,0,0,1-1.1.06H318.52c-1.43,0-2.6-.05-3.79-.05C235.87,23,145.51,82.53,130.37,182.28Z"/></svg>