<svg id="Capa_1" data-name="Capa 1" xmlns="http://www.w3.org/2000/svg" viewBox="0 0 888.78 888.8"><defs><style>.cls-1{fill:#40539f;}.cls-2{fill:#181c36;}.cls-3{fill:#fffdfd;}.cls-4{opacity:0.3;}.cls-5{fill:#fcfdfd;}.cls-6{fill:#fff;}</style></defs><title>prto</title><path class="cls-1" d="M13.51,442.15q0-149.22,0-298.45C13.69,63.29,63.28,13.63,143.69,13.57q300.71-.21,601.4,0c80.41.06,130.07,49.73,130.12,130.14q.21,300.69,0,601.4c-.05,80.4-49.72,130.06-130.13,130.12q-300.71.21-601.4,0c-80.4-.06-130-49.72-130.13-130.13Q13.3,593.62,13.51,442.15ZM547.74,780c14.58,0,26-1.25,37,.26,21.34,2.93,27.74-4.37,27.4-26.48-1.36-88.15-.17-176.34-.92-264.51-.14-16.4,3.82-23.18,21.12-21.6,15.56,1.42,31.36,0,47,.4,8.79.22,14.16-2.4,15.47-11.85,3.29-23.65,6.65-47.29,10.61-70.84,1.7-10.12-1.89-13.09-11.62-12.89-22.41.45-44.84.25-67.25,0-6.24-.05-14.88,2.22-14.8-8.38.18-22.36-2.35-44.87,2.87-67,3-12.91,12.16-18.23,24.57-18.66,17.17-.59,34.39-1.69,51.51-.89,14.08.66,18.23-4.76,17.66-18.19-.88-20.88-.62-41.84-.09-62.75.28-11-2.74-16.37-15-16.16-34.35.58-68.77-1.08-102.95,3.57-51.66,7-82.38,36.34-93.64,88.12-5.3,24.4-5,49.17-3.51,73.62,1.28,21-3.77,28.38-26.38,27.41-45.88-2-45.94-.55-45.94,46.26,0,48.15,0,49.13,49.09,48,19.54-.44,23.32,6.44,23.1,24.31-.9,76.2-.67,152.43-.17,228.64.12,19.12-8.38,43.41,4.16,56C508.68,788.06,532.65,778.22,547.74,780Z"/><path class="cls-2" d="M444.38,888.8q-150.36,0-300.71-.1C55.25,888.63.24,833.62.09,745.12Q-.09,639.48,0,533.81l0-91.66,0-90.3q0-104.1.07-208.18C.24,55.18,55.26.17,143.68.11Q444.4-.11,745.1.11C833.6.17,888.62,55.19,888.68,143.7c.14,199.53.14,401.88,0,601.42-.06,88.5-55.08,143.51-143.59,143.58Q594.75,888.81,444.38,888.8Zm0-861.87Q294,26.93,143.7,27C70.76,27.09,27.14,70.71,27,143.72Q26.84,247.78,27,351.84l0,90.31,0,91.68q0,105.61.07,211.24c.12,73,43.73,116.64,116.67,116.7q300.69.21,601.38,0c73-.06,116.63-43.67,116.68-116.67.14-199.52.14-401.86,0-601.38,0-73-43.66-116.63-116.66-116.68Q594.75,26.94,444.39,26.93Zm70.42,768.72h0c-11.83,0-20.76-3.19-27.32-9.76-13.49-13.52-11.19-33.49-9.34-49.52a138.91,138.91,0,0,0,1.25-15.88c-.45-68.09-.77-148.53.18-228.89.08-6.64-.54-9.1-.85-9.91-.67-.26-2.6-.79-7.05-.79l-1.43,0c-5.89.13-11.08.23-15.66.23-47.21,0-47.21-19.34-47.21-61.71,0-38.84,0-60.24,41.65-60.24,5,0,10.73.2,18.33.53,1.09,0,2.13.07,3.12.07,6.83,0,8.53-1.18,8.55-1.19s1.29-2.27.7-12c-1.41-23.11-2.06-50.36,3.79-77.3,12.54-57.65,47.87-90.83,105-98.6,24.13-3.28,47.19-3.54,74.82-3.54h5.84c8,0,15.92,0,23.87-.15H694c9.06,0,15.84,2.44,20.74,7.46,6.66,6.83,7.22,16.12,7.06,22.51-.48,18.53-.84,40.36.07,61.84.3,6.95-.13,17-7.19,24.4-5.08,5.3-12.19,7.88-21.73,7.88-.9,0-1.84,0-2.82-.07-11.68-.55-26.09-.07-39.46.47-3.65.15-7.3.3-11,.43-9.3.32-10.91,3.94-11.93,8.29-3.48,14.73-3.12,30-2.74,46.22.1,4.21.19,8.42.23,12.62h1.08c12.83.12,25.29.23,37.75.23,10.85,0,20.49-.09,29.47-.27h1.15c3.29,0,13.3,0,19.75,7.63s4.83,17.69,4.28,21c-4.05,24.08-7.43,48-10.55,70.47-1.22,8.76-6.46,23.47-27.82,23.47l-1.33,0c-5.94-.15-11.87,0-17.81.09-4.15.08-8.3.16-12.44.16-6.81,0-12.43-.22-17.68-.7a26.92,26.92,0,0,0-5.8,0,32.63,32.63,0,0,0-.62,8.08c.32,38.17.28,77,.24,114.45,0,49.18-.1,100,.67,150,.16,10.41-.76,23.48-9.36,32.21-5.59,5.68-13.49,8.56-23.46,8.56a72.11,72.11,0,0,1-9.87-.74,81.14,81.14,0,0,0-11-.62c-3.31,0-6.74.11-10.35.21-4.33.13-8.91.27-13.84.27l-1.54-.09c-3.94-.44-9,.26-14.67.95A136.12,136.12,0,0,1,514.81,795.65ZM471.68,454c7.57,0,18.54.9,26.26,8.72s8.69,18.68,8.57,29.23c-.95,80.14-.63,160.43-.18,228.39a160.73,160.73,0,0,1-1.43,19.13c-1.25,10.83-2.66,23.1,1.66,27.43,1.53,1.53,5.33,1.86,8.25,1.86h0a116.92,116.92,0,0,0,13.42-1.16c6.79-.84,14.19-1.65,20.2-1.07,4.38,0,8.47-.14,12.34-.25s7.59-.23,11.16-.23a106.7,106.7,0,0,1,14.6.87,46.19,46.19,0,0,0,6.22.49c3.3,0,4.35-.59,4.36-.59s1.7-2.19,1.54-12.83c-.78-50.16-.72-101.12-.68-150.4,0-37.44.08-76.16-.24-114.2-.08-9.4.85-20,8.34-27.59,5.22-5.26,12.32-7.82,21.71-7.82,1.78,0,3.69.09,5.75.28,4.42.41,9.26.59,15.23.59,4,0,7.93-.08,11.9-.16,6.36-.12,12.71-.25,19-.08h.64c.44,0,.81,0,1.11,0a1.6,1.6,0,0,0,0-.23c3-21.75,6.3-44.91,10.19-68.37-8.47.16-17.54.23-27.61.23-12.54,0-25.08-.11-37.63-.23h0c-.8,0-1.51,0-2.22.07-1.16.05-2.33.1-3.49.1-2.6,0-10.52,0-16.49-6-4-4-6-9.42-5.92-16.1,0-5.64-.09-11.29-.22-16.95-.41-17.18-.82-34.94,3.44-53,4.19-17.77,17.76-28.35,37.22-29,3.59-.12,7.19-.27,10.79-.41,9.24-.38,18.79-.77,28.31-.77,4.82,0,9.24.1,13.5.3a26.9,26.9,0,0,0,3.5-.05,27,27,0,0,0,.08-4.12c-.95-22.29-.58-44.69-.09-63.66,0-1,0-1.74,0-2.34l-.85,0h-.46c-8.1.13-16.21.15-24.32.15h-5.84c-26.6,0-48.73.24-71.19,3.3-46,6.25-72.14,30.92-82.3,77.63-5.16,23.73-4.53,48.67-3.23,69.94.67,11,.23,23.38-8,32.18-8.1,8.61-19.91,9.6-28.09,9.6-1.36,0-2.78,0-4.27-.1-7.25-.31-12.65-.5-17.18-.5-10,0-12.39,1.05-12.88,1.37-1.84,2.74-1.84,17.58-1.84,31.94,0,14.83,0,30.18,2.22,33,.67.5,3.88,1.81,18.06,1.81,4.4,0,9.39-.11,15.05-.23Z"/><path class="cls-3" d="M64.81,456.51a22.44,22.44,0,0,1-22.44-22.44V138.45a24.78,24.78,0,0,1,.14-2.58c3.93-34,28.77-98.29,94.7-98.29H399.64a22.44,22.44,0,0,1,0,44.88H137.21c-39.6,0-48.7,49.11-50,57.51v294.1A22.44,22.44,0,0,1,64.81,456.51Z"/><g class="cls-4"><polygon points="492.54 776.38 524.86 808.7 642.61 808.7 642.61 503.79 710.07 503.79 729.66 394.99 708.16 366.41 583.86 438.51 577.33 645.24 492.54 776.38"/><path d="M642.61,810.94H524.85a2.24,2.24,0,0,1-1.58-.66L491,778a2.25,2.25,0,0,1-.3-2.81l84.46-130.61,6.51-206.11a2.22,2.22,0,0,1,1.11-1.87L707,364.47a2.24,2.24,0,0,1,2.92.59l21.5,28.58a2.23,2.23,0,0,1,.42,1.75l-19.59,108.8a2.24,2.24,0,0,1-2.21,1.85H644.86V808.69A2.25,2.25,0,0,1,642.61,810.94Zm-116.83-4.49H640.37V503.79a2.24,2.24,0,0,1,2.24-2.24h65.58l19.09-106-19.72-26.2-121.5,70.48-6.49,205.48a2.22,2.22,0,0,1-.35,1.15L495.41,776.07Z"/></g><g class="cls-4"><polygon points="638.4 371.05 642.75 299.24 728.89 298.95 729.4 193.27 706.49 176.29 533.94 275.3 570.94 421.1 638.4 371.05"/><path d="M570.94,423.35a2.36,2.36,0,0,1-.75-.13,2.26,2.26,0,0,1-1.43-1.56l-37-145.8a2.23,2.23,0,0,1,1.06-2.5l172.55-99a2.25,2.25,0,0,1,2.45.14l22.91,17a2.25,2.25,0,0,1,.91,1.82L731.14,299a2.25,2.25,0,0,1-2.24,2.23l-84,.29-4.23,69.71a2.17,2.17,0,0,1-.9,1.66l-67.46,50A2.18,2.18,0,0,1,570.94,423.35Zm-34.4-147,35.75,140.9,63.93-47.43,4.29-70.76a2.23,2.23,0,0,1,2.23-2.11l83.92-.29.5-102.31L706.34,179Z"/></g><path class="cls-5" d="M547.74,780c-15.09-1.75-39.06,8.09-50.71-3.59-12.54-12.57-4-36.86-4.16-56-.5-76.21-.73-152.44.17-228.64.22-17.87-3.56-24.75-23.1-24.31-49.07,1.12-49.09.14-49.09-48,0-46.81.06-48.23,45.94-46.26,22.61,1,27.66-6.42,26.38-27.41-1.49-24.45-1.79-49.22,3.51-73.62,11.26-51.78,42-81.09,93.64-88.12,34.18-4.65,68.6-3,102.95-3.57,12.27-.21,15.29,5.13,15,16.16-.53,20.91-.79,41.87.09,62.75.57,13.43-3.58,18.85-17.66,18.19-17.12-.8-34.34.3-51.51.89-12.41.43-21.53,5.75-24.57,18.66-5.22,22.13-2.69,44.64-2.87,67-.08,10.6,8.56,8.33,14.8,8.38,22.41.22,44.84.42,67.25,0,9.73-.2,13.32,2.77,11.62,12.89-4,23.55-7.32,47.19-10.61,70.84-1.31,9.45-6.68,12.07-15.47,11.85-15.68-.4-31.48,1-47-.4-17.3-1.58-21.26,5.2-21.12,21.6.75,88.17-.44,176.36.92,264.51.34,22.11-6.06,29.41-27.4,26.48C573.7,778.72,562.32,780,547.74,780Z"/><path class="cls-2" d="M514.81,788.92c-9.94,0-17.32-2.55-22.55-7.79-11.2-11.22-9.19-28.63-7.42-44a142.42,142.42,0,0,0,1.29-16.69c-.44-68.06-.77-148.46.18-228.76.1-8.21-.75-12.78-2.74-14.8-1.78-1.8-5.78-2.71-11.89-2.71l-1.58,0c-5.83.13-11,.23-15.51.23-15.94,0-28.66-.83-35.23-11.36-5.25-8.39-5.25-20.9-5.25-43.62,0-38.94,0-53.51,34.92-53.51,4.89,0,10.53.21,18.05.53,8.78.37,14.4-.65,16.78-3.17s3.15-7.91,2.59-17.11c-1.38-22.65-2-49.32,3.65-75.46,11.88-54.6,45.29-86,99.32-93.36,23.71-3.22,46.53-3.48,73.91-3.48h5.84c8,0,16,0,24-.15h.8c7.15,0,12.36,1.78,15.92,5.43,4.83,4.95,5.29,12,5.15,17.64-.48,18.64-.84,40.61.08,62.3.26,6.2-.11,14-5.33,19.45-4.14,4.32-10.29,6.15-19.37,5.74-11.94-.56-26.54-.07-40,.48l-10.93.42c-10.51.36-16.13,4.52-18.25,13.47-3.67,15.57-3.3,31.29-2.91,47.93.13,5.86.27,11.73.23,17.58a6.94,6.94,0,0,0,.13,1.62,30,30,0,0,0,4.67.07c1-.05,2-.09,3-.09,12.79.12,25.27.24,37.75.24,10.89,0,20.58-.09,29.61-.27l1,0c4.37,0,10.63.55,14.61,5.25s3.52,11.13,2.78,15.51c-4.06,24.16-7.45,48.15-10.58,70.65-1.63,11.72-8.75,17.66-21.15,17.66h-1.16c-6-.16-12.07,0-18.11.09-4.11.08-8.22.16-12.31.16-6.6,0-12-.21-17.07-.68-5.69-.52-9.67,0-11.28,1.65s-2.55,6.07-2.48,13.2c.32,38.14.28,76.9.24,114.39,0,49.2-.1,100.07.67,150.07.21,13.51-2.08,22-7.43,27.38-4.34,4.41-10.44,6.55-18.66,6.55a65.36,65.36,0,0,1-9-.68,87.78,87.78,0,0,0-11.86-.68c-3.37,0-6.87.1-10.56.22-4.26.12-8.77.26-13.63.26l-.77-.05c-4.57-.54-10.17.21-16.27,1A130.1,130.1,0,0,1,514.81,788.92ZM471.68,460.7c10.25,0,16.88,2.07,21.47,6.72,6,6.08,6.73,15.33,6.63,24.42-1,80.19-.63,160.52-.18,228.52a154.67,154.67,0,0,1-1.39,18.31c-1.56,13.54-3,26.33,3.58,33,2.61,2.62,6.75,3.84,13,3.84a122.19,122.19,0,0,0,14.24-1.21c6.51-.81,13.33-1.61,19.05-1,4.58,0,8.84-.13,12.87-.26,3.83-.11,7.46-.22,11-.22a100,100,0,0,1,13.69.81,53,53,0,0,0,7.13.55c6.57,0,8.45-1.9,9.06-2.53,2.55-2.58,3.71-8.38,3.57-17.73-.77-50.1-.72-101-.67-150.29,0-37.45.08-76.18-.25-114.26-.07-8,.64-17,6.39-22.79,4.7-4.74,11.51-6.53,22.07-5.57,4.62.42,9.66.62,15.84.61,4,0,8-.08,12-.16,6.25-.12,12.5-.24,18.73-.08h.81c6.06,0,7.16-1.37,7.82-6.06,3.13-22.59,6.54-46.68,10.63-71,.54-3.23.23-4.43.15-4.67a18.51,18.51,0,0,0-4.26-.39h-.74c-9.12.18-18.89.27-29.88.27-12.52,0-25-.11-37.57-.23a23.26,23.26,0,0,0-2.59.07c-1.06.05-2.13.09-3.19.09-3.31,0-8.13-.41-11.72-4-2.66-2.69-4-6.49-4-11.3,0-5.72-.09-11.44-.22-17.16-.4-16.76-.8-34.09,3.27-51.34,2.46-10.47,9.83-23.11,30.89-23.84,3.61-.12,7.22-.27,10.84-.42,9.17-.37,18.65-.76,28-.76,4.71,0,9,.1,13.19.29.64,0,1.27.05,1.87.05,2.54,0,5.84-.29,7.15-1.66.87-.91,1.85-3.31,1.59-9.56-.93-22.09-.57-44.35-.08-63.21.13-5.55-.78-7.33-1.33-7.9-.85-.87-3.13-1.36-6.28-1.36h-.57c-8.07.13-16.13.14-24.21.14h-5.84c-26.86,0-49.22.25-72.1,3.36-48.5,6.6-77.28,33.71-88,82.89-5.33,24.52-4.7,50-3.37,71.77.58,9.54.29,20.23-6.23,27.16-6.31,6.7-16.25,7.48-23.18,7.48-1.27,0-2.6,0-4-.09-7.34-.32-12.82-.51-17.47-.51-21.45,0-21.45,0-21.45,40,0,18.89,0,31.37,3.2,36.49,2.32,3.71,8.55,5,23.81,5,4.44,0,9.49-.11,15.2-.23Z"/><circle class="cls-6" cx="65.89" cy="490.14" r="21.55"/></svg>