<svg id="Capa_1" data-name="Capa 1" xmlns="http://www.w3.org/2000/svg" viewBox="0 0 877.73 1187.24"><defs><style>.cls-1{fill:#e63930;}.cls-2{fill:#181c36;}.cls-3{fill:#fff;}</style></defs><title>prto</title><path class="cls-1" d="M438.27,1158.13c-122.61-170.83-244-336.39-361.12-504.9C29.37,584.49,14.48,503.39,17.34,419.67,24,223.29,178.3,49.05,371.42,21.82,554.53-4,711.89,75.68,800.12,221.09c89.61,147.7,78.62,328.72-24.81,470.9C663.74,845.38,553,999.37,438.27,1158.13Zm199.9-719.19C638.46,328.57,550.09,238.8,440.34,238S240.05,326.17,239.27,435.65c-.8,112.17,88.33,202.77,199.58,202.87C548.28,638.61,637.87,548.9,638.17,438.94Z"/><path class="cls-2" d="M438.22,1187.24l-13.77-19.19c-35.35-49.25-71.1-98.78-105.68-146.67C230.24,898.77,146.63,783,63.19,662.94,39.29,628.56,22,589.21,11.71,546,2.6,507.64-1.22,464.94.34,419.09c3.38-99,42.94-196,111.42-273.07C180.38,68.79,271.75,18.7,369,5A503.51,503.51,0,0,1,439,0C595.88,0,732.81,77.37,814.66,212.27c45.6,75.15,67.18,160.66,62.43,247.27-4.72,85.94-35.16,169.78-88,242.46-77.45,106.48-152.9,211-232.78,321.73q-51.7,71.64-104.24,144.37ZM439,34a469.24,469.24,0,0,0-65.18,4.64c-89.31,12.6-173.34,58.75-236.61,130S37.44,329.12,34.34,420.25c-3.1,90.82,15.47,163.85,56.78,223.27,83.26,119.78,166.79,235.47,255.23,358,30.1,41.7,61.1,84.63,92,127.57q45.56-63.06,90.39-125.22C608.6,893.1,684.07,788.52,761.56,682c100.32-137.92,109.52-311.14,24-452.08C710,105.42,583.71,34,439,34Zm.06,621.5h-.2a214.64,214.64,0,0,1-153.27-63.83c-41.24-41.57-63.72-97-63.3-156.16C223.1,317.22,320.26,221,438.85,221h1.62a214.38,214.38,0,0,1,152.17,64.47A216.63,216.63,0,0,1,655.17,439C654.86,558.39,557.89,655.52,439,655.52ZM438.85,255c-100,0-181.87,81.1-182.57,180.78-.36,50,18.62,96.87,53.43,132a180.9,180.9,0,0,0,129.15,53.78H439c100.16,0,181.86-81.92,182.13-182.61A182.88,182.88,0,0,0,568.4,309.31,180.6,180.6,0,0,0,440.22,255Z"/><path class="cls-3" d="M101,287.64a14,14,0,0,1-6.25-1.47,14.17,14.17,0,0,1-6.45-19c.84-1.71,21.14-42.43,65.06-88.79,40.53-42.78,109.74-98.6,209.33-121.58A14.17,14.17,0,0,1,369,84.45C276.33,105.84,211.75,158,173.91,197.9c-41,43.28-60,81.44-60.21,81.82A14.19,14.19,0,0,1,101,287.64Z"/><path class="cls-3" d="M73.26,359.33a14.17,14.17,0,0,1-14.17-14.17c0-2.36,0-6.75,13.63-44.39a14.17,14.17,0,0,1,26.65,9.65c-5.15,14.23-11.09,31.73-12,36A14.17,14.17,0,0,1,73.26,359.33Z"/></svg>