<svg id="Capa_1" data-name="Capa 1" xmlns="http://www.w3.org/2000/svg" viewBox="0 0 675.47 998.62"><defs><style>.cls-1{fill:#4c2531;}.cls-2{fill:#9e8b8f;}.cls-3{fill:#001616;}.cls-4{fill:#bf3d5f;}.cls-5{fill:#d8bfc5;}.cls-6{opacity:0.2;}.cls-7{opacity:0.3;}.cls-8{fill:#f9f9f9;}.cls-9{opacity:0.6;}.cls-10{fill:#020202;}.cls-11,.cls-13{opacity:0.5;}.cls-12,.cls-13{fill:#3f3f3f;}</style></defs><title>prto</title><path class="cls-1" d="M488,208.34a50.09,50.09,0,0,1-13-1.69,46.76,46.76,0,0,1-33.9-36.05c-2.39-11.67-3.65-42.18,36.1-73.33a354,354,0,0,1,51.65-33.75,104.69,104.69,0,0,0-24.78-20.38C482.82,30.34,456,22.68,424.31,20.37c-26.74-1.95-45.57,4.47-57.58,19.62-16.48,20.8-17,54.83-14.55,79.71a286.69,286.69,0,0,0,9.88,50.9,10,10,0,1,1-19.12,6c-1.27-4.07-30.7-100.11,8.08-149C367.23,7.09,392.38-2,425.77.39,460.61,2.93,490.43,11.53,514.41,26a122.35,122.35,0,0,1,32.94,28.44q10.15-4.59,20.31-8.3C596.85,35.49,623.78,31.55,643.5,35c14,2.47,24.58,8.74,30.45,18.15a10,10,0,0,1-17,10.61c-3.51-5.61-11.14-8-16.92-9-22.31-3.92-52.07,3.58-81.64,16.81q1.75,3.47,3.21,7c13.8,33.84,6.13,72.06-20.53,102.23C531,192.25,519.85,200.26,508,204.65A57.8,57.8,0,0,1,488,208.34Zm52.35-128A339.79,339.79,0,0,0,489.56,113c-21.79,17.08-32.3,36.59-28.82,53.54a26.49,26.49,0,0,0,19.43,20.71c14.63,3.91,31.36-3.29,45.88-19.73,21.82-24.7,28-54.36,17-81.39C542.24,84.19,541.34,82.24,540.36,80.33Z"/><polygon class="cls-2" points="76.94 800.72 18.52 938.18 20.7 957.79 55.31 925.8 103.79 814.47 76.94 800.72"/><path class="cls-3" d="M20.7,963.16a5.28,5.28,0,0,1-1.87-.34,5.37,5.37,0,0,1-3.46-4.44l-2.18-19.6a5.42,5.42,0,0,1,.39-2.7L72,798.62a5.37,5.37,0,0,1,7.39-2.68l26.85,13.75a5.37,5.37,0,0,1,2.47,6.92L60.23,927.94a5.41,5.41,0,0,1-1.27,1.8l-34.61,32A5.4,5.4,0,0,1,20.7,963.16ZM24,939l.84,7.64,26-24L96.86,817l-17.23-8.82Z"/><path class="cls-4" d="M256.51,576.42C252,587,238.69,591.55,226.79,586.49l-72.33-30.73c-11.9-5.06-17.89-17.77-13.38-28.39l152.7-359.31c4.51-10.62,17.82-15.13,29.72-10.07l72.33,30.73c11.9,5.06,17.89,17.77,13.37,28.39Z"/><path class="cls-3" d="M236.83,593.94a30.91,30.91,0,0,1-12.14-2.51L152.36,560.7a30.13,30.13,0,0,1-15.6-14.76,25,25,0,0,1-.62-20.67L288.84,166c4-9.37,13.64-15.42,24.61-15.42a31,31,0,0,1,12.15,2.51l72.33,30.73c14.6,6.21,21.88,22.1,16.21,35.43L261.45,578.52C257.47,587.89,247.81,593.94,236.83,593.94Zm76.62-432.66c-6.66,0-12.44,3.48-14.73,8.87L146,529.47a14.44,14.44,0,0,0,.45,11.89,19.43,19.43,0,0,0,10.09,9.46l72.33,30.73a20.07,20.07,0,0,0,7.94,1.65c6.66,0,12.45-3.48,14.74-8.88L404.26,215c3.35-7.88-1.38-17.46-10.53-21.35L321.4,162.93A20.12,20.12,0,0,0,313.45,161.28Z"/><path class="cls-5" d="M148.16,809.93c-4.77,11.24-17.25,16.69-27.87,12.18L59.53,796.29C48.91,791.77,44.17,779,49,767.77l93.28-219.51c4.78-11.24,17.26-16.69,27.88-12.18l60.76,25.82c10.62,4.51,15.35,17.28,10.58,28.52Z"/><path class="cls-3" d="M128.07,829.06a25.22,25.22,0,0,1-9.88-2L57.43,801.23a25.54,25.54,0,0,1-14-14.81A28,28,0,0,1,44,765.67l93.28-219.51a27.39,27.39,0,0,1,25-17,25.19,25.19,0,0,1,9.88,2L233,557a25.56,25.56,0,0,1,14,14.81,28,28,0,0,1-.57,20.75L153.1,812A27.38,27.38,0,0,1,128.07,829.06Zm34.25-289.2a16.69,16.69,0,0,0-15.15,10.5L53.89,769.87a17.28,17.28,0,0,0-.39,12.81,14.86,14.86,0,0,0,8.13,8.67l60.76,25.82a14.43,14.43,0,0,0,5.68,1.16,16.68,16.68,0,0,0,15.15-10.5l93.29-219.51a17.28,17.28,0,0,0,.39-12.81,14.89,14.89,0,0,0-8.13-8.67L168,541A14.44,14.44,0,0,0,162.32,539.86Z"/><circle class="cls-1" cx="190.66" cy="573.65" r="18.12"/><circle class="cls-1" cx="170.82" cy="620.34" r="18.12"/><circle class="cls-1" cx="151.17" cy="666.58" r="18.12"/><circle class="cls-1" cx="129.35" cy="717.92" r="18.12"/><path class="cls-4" d="M290.68,588.63c-5.14,12.08-17.82,18.25-28.32,13.78L118.61,541.33c-10.51-4.47-14.87-17.88-9.74-30h0c5.14-12.08,17.82-18.25,28.32-13.79l143.75,61.09c10.51,4.47,14.87,17.88,9.74,30Z"/><path class="cls-3" d="M269.53,609.24a23.5,23.5,0,0,1-9.27-1.89L116.51,546.27c-13.22-5.62-18.86-22.22-12.58-37,4.71-11.07,15.19-18.51,26.09-18.51a23.67,23.67,0,0,1,9.27,1.88L283,553.73c13.22,5.62,18.86,22.21,12.58,37C290.91,601.8,280.43,609.24,269.53,609.24ZM130,501.5c-6.65,0-13.16,4.81-16.21,12-4,9.33-.87,19.62,6.9,22.92l143.75,61.08a12.87,12.87,0,0,0,5.07,1c6.65,0,13.16-4.81,16.21-12,4-9.34.87-19.62-6.9-22.92L135.1,502.52A13,13,0,0,0,130,501.5Z"/><path class="cls-1" d="M220.14,594.61a18.12,18.12,0,1,0-.76,33.63l10.27-24.18A18,18,0,0,0,220.14,594.61Z"/><path class="cls-1" d="M199.61,642.9a18.12,18.12,0,1,0-.76,33.64l10.28-24.18A18,18,0,0,0,199.61,642.9Z"/><path class="cls-1" d="M178.67,692.18a18.12,18.12,0,1,0-.76,33.64l10.27-24.18A18,18,0,0,0,178.67,692.18Z"/><path class="cls-1" d="M157.1,743a18.12,18.12,0,1,0-.76,33.63l10.27-24.17A18,18,0,0,0,157.1,743Z"/><path class="cls-1" d="M138.47,599.27a18.12,18.12,0,1,0,2-34.06l-11,25.82A18,18,0,0,0,138.47,599.27Z"/><path class="cls-1" d="M118,647.57a18.12,18.12,0,1,0,2-34.07l-11,25.83A18,18,0,0,0,118,647.57Z"/><path class="cls-1" d="M97,696.85a18.12,18.12,0,1,0,2-34.07l-11,25.83A18.07,18.07,0,0,0,97,696.85Z"/><path class="cls-1" d="M75.92,746.47a18.12,18.12,0,1,0,2-34.07L67,738.23A18,18,0,0,0,75.92,746.47Z"/><path class="cls-1" d="M124.94,774.62a18.12,18.12,0,1,0-31.11,3.84l16.58,7A18.11,18.11,0,0,0,124.94,774.62Z"/><path class="cls-1" d="M136.57,791.25a18,18,0,0,0-13.36-.31l22.85,9.72A18,18,0,0,0,136.57,791.25Z"/><path class="cls-1" d="M70.23,761.7A18,18,0,0,0,58.09,761l-.83,1.94,23.08,9.81A18,18,0,0,0,70.23,761.7Z"/><path class="cls-1" d="M52,760.68l99.34,42.22s-4.92,24.25-27.64,21.26L53.38,793.61S40.31,783.34,52,760.68Z"/><g class="cls-6"><polygon points="110.88 538.3 134.16 595.97 223.52 633.95 240.38 594.28 110.88 538.3"/></g><g class="cls-6"><path d="M106.05,518l181.8,77.26s-5.55,13.09-24.09,8L115.93,540.47S101.57,531.56,106.05,518Z"/></g><g class="cls-7"><path class="cls-8" d="M88.93,795.83a5.05,5.05,0,0,1-2-.4L55.34,782a5,5,0,0,1-2.65-6.57L126.38,602a5,5,0,1,1,9.22,3.91L63.87,774.73l27,11.48a5,5,0,0,1-2,9.62Z"/></g><g class="cls-7"><path class="cls-8" d="M262.72,286.25a6.82,6.82,0,0,1-6.26-9.46l47.05-110.72a6.8,6.8,0,0,1,8.92-3.6L348,177.56a6.8,6.8,0,0,1-5.32,12.51l-29.26-12.43L269,282.11A6.82,6.82,0,0,1,262.72,286.25Z"/></g><g class="cls-7"><path class="cls-8" d="M160.88,528.38a7,7,0,0,1-2.66-.54L126,514.13a6.8,6.8,0,0,1,5.31-12.52l32.26,13.71a6.8,6.8,0,0,1-2.66,13.06Z"/></g><g class="cls-6"><path d="M267,538.7a6.8,6.8,0,0,1-6.26-9.46l136-319.92a6.8,6.8,0,0,1,12.52,5.32L273.24,534.56A6.8,6.8,0,0,1,267,538.7Z"/></g><g class="cls-9"><path class="cls-8" d="M48.63,887.13a2.59,2.59,0,0,1-1-.2,2.5,2.5,0,0,1-1.33-3.29L77.19,811a2.5,2.5,0,0,1,4.61,2L50.94,885.6A2.49,2.49,0,0,1,48.63,887.13Z"/></g><g class="cls-7"><path class="cls-10" d="M22.34,953.76a.72.72,0,0,1-.53-.23.71.71,0,0,1,0-1l32.27-29.45L101.4,815.5a.71.71,0,1,1,1.31.57L55.37,923.79a.81.81,0,0,1-.17.24L22.82,953.57A.7.7,0,0,1,22.34,953.76Z"/></g><g class="cls-6"><ellipse class="cls-3" cx="188.88" cy="970.11" rx="188.88" ry="28.51"/></g><g class="cls-11"><path class="cls-12" d="M445.08,759.25H233.7a7.52,7.52,0,0,1,0-15H445.08a7.52,7.52,0,0,1,0,15Z"/></g><path class="cls-13" d="M407.84,715.88H271.7a7.52,7.52,0,1,1,0-15H407.84a7.52,7.52,0,0,1,0,15Z"/><path class="cls-13" d="M448.17,715.88H424a7.52,7.52,0,0,1,0-15h24.2a7.52,7.52,0,0,1,0,15Z"/><g class="cls-11"><path class="cls-12" d="M375.58,671H243.69a7.52,7.52,0,1,1,0-15H375.58a7.52,7.52,0,1,1,0,15Z"/></g><g class="cls-11"><path class="cls-12" d="M401,671h-1.62a7.52,7.52,0,0,1,0-15H401a7.52,7.52,0,1,1,0,15Z"/></g><g class="cls-11"><path class="cls-12" d="M552.66,671H420.76a7.52,7.52,0,0,1,0-15h131.9a7.52,7.52,0,0,1,0,15Z"/></g></svg>