<svg id="Capa_1" data-name="Capa 1" xmlns="http://www.w3.org/2000/svg" viewBox="0 0 217.64 166.92"><defs><style>.cls-1{fill:#fff;}.cls-2{opacity:0.2;}.cls-3{fill:#001616;}.cls-4{fill:#343ab2;}.cls-5{fill:#01123a;}.cls-6{fill:#4791fc;}.cls-7{opacity:0.3;}.cls-8{fill:#a5aec4;}.cls-9{fill:#8bb1fc;}.cls-10{fill:#03616b;}.cls-11{fill:#05adc9;}.cls-12{fill:#99c3ff;}.cls-13{opacity:0.5;}</style></defs><title>curso icon</title><path class="cls-1" d="M78.06,152H60.58a1.14,1.14,0,0,1,0-2.28H78.06a1.14,1.14,0,0,1,0,2.28Z"/><g class="cls-2"><ellipse class="cls-3" cx="108.82" cy="157.35" rx="108.82" ry="9.57"/></g><path class="cls-4" d="M35.41,13.93V134.28H26.18V155.8H62.64V31.5h98V155.76H188.7V6.46H147.41l-4.83-4.83H85.92V7.34h-58s-8.76,5.07-5.49,5.49C26.55,13.35,35.41,13.93,35.41,13.93Z"/><path class="cls-5" d="M64.27,157.43H24.56V132.65h9.22V15.45c-2.73-.19-8.43-.61-11.54-1a2.21,2.21,0,0,1-2.11-1.71c-.16-.8-.49-2.46,7-6.8l.38-.22H84.29V0h59l4.83,4.83h42.24V157.39H159V33.12H64.27Zm-36.46-3.25H61V29.87H162.22V154.14h24.86V8.08H146.74l-4.83-4.83H87.55V9H28.38a41.7,41.7,0,0,0-3.71,2.48c4.36.44,10.77.86,10.84.86l1.52.1V135.91H27.81Z"/><rect class="cls-6" x="91.36" y="9.78" width="39.54" height="16.95" rx="1.38" ry="1.38"/><path class="cls-5" d="M129.53,27.87H92.74a2.52,2.52,0,0,1-2.52-2.52V11.16a2.52,2.52,0,0,1,2.52-2.52h36.79A2.52,2.52,0,0,1,132,11.16V25.35A2.52,2.52,0,0,1,129.53,27.87Zm-36.79-17a.24.24,0,0,0-.24.24V25.35a.24.24,0,0,0,.24.24h36.79a.23.23,0,0,0,.23-.24V11.16a.23.23,0,0,0-.23-.24Z"/><path class="cls-5" d="M172.18,154.64A1.66,1.66,0,0,1,170.5,153V9.16a1.68,1.68,0,0,1,3.35,0V153A1.66,1.66,0,0,1,172.18,154.64Zm0-145.83a.37.37,0,0,0-.38.35V153a.38.38,0,0,0,.75,0V9.16A.37.37,0,0,0,172.18,8.81Z"/><path class="cls-5" d="M112.71,15.17H94.84a.82.82,0,0,1-.81-.82.81.81,0,0,1,.81-.81h17.87a.81.81,0,0,1,.81.81A.82.82,0,0,1,112.71,15.17Z"/><path class="cls-5" d="M113,19H94.84a.82.82,0,0,1,0-1.63H113A.82.82,0,0,1,113,19Z"/><path class="cls-5" d="M108.79,23H94.86a.82.82,0,1,1,0-1.63h13.93a.82.82,0,1,1,0,1.63Z"/><path class="cls-5" d="M126.53,16.12h-6.19a.82.82,0,1,1,0-1.63h6.19a.82.82,0,0,1,0,1.63Z"/><g class="cls-7"><polygon class="cls-1" points="112.24 22.77 122.12 13.19 125.27 13.19 115.69 22.77 112.24 22.77"/></g><g class="cls-7"><polygon class="cls-1" points="94.53 22.11 103.08 13.57 110.78 13.57 102.66 22.08 94.53 22.11"/></g><g class="cls-7"><path class="cls-1" d="M40,131.68a1.62,1.62,0,0,1-1.63-1.62V83.16a1.63,1.63,0,0,1,3.26,0v46.9A1.62,1.62,0,0,1,40,131.68Z"/></g><g class="cls-7"><path class="cls-1" d="M40.89,49.38a1.63,1.63,0,0,1-1.63-1.63V14.87a1.63,1.63,0,0,1,3.26,0V47.75A1.63,1.63,0,0,1,40.89,49.38Z"/></g><g class="cls-2"><path d="M60.2,51.19a1.14,1.14,0,0,1-1.14-1.14V31.89a1.14,1.14,0,0,1,2.28,0V50.05A1.14,1.14,0,0,1,60.2,51.19Z"/></g><g class="cls-2"><path d="M60.2,120.39a1.14,1.14,0,0,1-1.14-1.14V80.09a1.14,1.14,0,0,1,2.28,0v39.16A1.14,1.14,0,0,1,60.2,120.39Z"/></g><g class="cls-7"><path class="cls-1" d="M164.58,121.8a1.63,1.63,0,0,1-1.63-1.63V32.58a1.63,1.63,0,0,1,3.26,0v87.59A1.63,1.63,0,0,1,164.58,121.8Z"/></g><rect class="cls-8" x="68.97" y="52.8" width="102.38" height="14.92" rx="1.38" ry="1.38"/><path class="cls-5" d="M170,68.86H70.35a2.51,2.51,0,0,1-2.51-2.51V54.18a2.51,2.51,0,0,1,2.51-2.51H170a2.51,2.51,0,0,1,2.51,2.51V66.35A2.51,2.51,0,0,1,170,68.86ZM70.35,53.94a.24.24,0,0,0-.24.24V66.35a.24.24,0,0,0,.24.24H170a.24.24,0,0,0,.24-.24V54.18a.24.24,0,0,0-.24-.24Z"/><rect class="cls-9" x="115.15" y="48.73" width="24.08" height="22.3" rx="1.38" ry="1.38"/><path class="cls-5" d="M137.85,72.17H116.52A2.52,2.52,0,0,1,114,69.65V50.11a2.52,2.52,0,0,1,2.51-2.52h21.33a2.52,2.52,0,0,1,2.52,2.52V69.65A2.52,2.52,0,0,1,137.85,72.17Zm-21.33-22.3a.24.24,0,0,0-.24.24V69.65a.24.24,0,0,0,.24.24h21.33a.24.24,0,0,0,.24-.24V50.11a.24.24,0,0,0-.24-.24Z"/><polygon class="cls-9" points="127.17 80.54 116.06 71.03 138.47 71.03 127.17 80.54"/><path class="cls-5" d="M127.17,81.68a1.15,1.15,0,0,1-.74-.27l-11.11-9.52a1.13,1.13,0,0,1,.74-2h22.41a1.14,1.14,0,0,1,.73,2l-11.29,9.51A1.17,1.17,0,0,1,127.17,81.68Zm-8-9.51,8,6.88,8.17-6.88Z"/><rect x="168.36" y="50.51" width="12.78" height="19.33" rx="1.38" ry="1.38"/><path class="cls-8" d="M70.85,77.68a1.37,1.37,0,0,1-1.38,1.37H28.22a1.37,1.37,0,0,1-1.38-1.37V53.08a1.38,1.38,0,0,1,1.38-1.38H69.47a1.38,1.38,0,0,1,1.38,1.38Z"/><path class="cls-5" d="M69.47,80.19H28.22a2.52,2.52,0,0,1-2.52-2.51V53.08a2.52,2.52,0,0,1,2.52-2.52H69.47A2.51,2.51,0,0,1,72,53.08v24.6A2.51,2.51,0,0,1,69.47,80.19ZM28.22,52.84a.24.24,0,0,0-.24.24v24.6a.24.24,0,0,0,.24.24H69.47a.24.24,0,0,0,.24-.24V53.08a.24.24,0,0,0-.24-.24Z"/><path class="cls-5" d="M71.14,59.44H26.84a1.79,1.79,0,0,1,0-3.58h44.3a1.79,1.79,0,1,1,0,3.58Z"/><path class="cls-1" d="M31.46,75.56a1.14,1.14,0,0,1-1.14-1.14V63.69a1.14,1.14,0,0,1,2.28,0V74.42A1.14,1.14,0,0,1,31.46,75.56Z"/><path class="cls-1" d="M43.42,75.71H33a1.14,1.14,0,1,1,0-2.28H43.42a1.14,1.14,0,0,1,0,2.28Z"/><path class="cls-1" d="M129.25,53.32H118.83a1,1,0,1,1,0-2h10.42a1,1,0,1,1,0,2Z"/><path class="cls-1" d="M118.83,65.89a1,1,0,0,1-1-1V53.27a1,1,0,1,1,2,0V64.92A1,1,0,0,1,118.83,65.89Z"/><path class="cls-1" d="M174.77,53.46h-4a.65.65,0,0,1,0-1.3h4a.65.65,0,1,1,0,1.3Z"/><path class="cls-10" d="M108.06,122.07H88.94a3.56,3.56,0,0,1,0-7.12h15.54l0-8.6H91.05a3.56,3.56,0,0,1,0-7.12h13.38V91.06H88.32a3.56,3.56,0,1,1,0-7.12H108a3.56,3.56,0,0,1,3.56,3.56v15.29l.06,15.7a3.52,3.52,0,0,1-1,2.53A3.57,3.57,0,0,1,108.06,122.07Z"/><path class="cls-10" d="M137.37,121.85h-16.6a3.59,3.59,0,0,1-3.59-3.59V87.5a3.59,3.59,0,0,1,3.57-3.58l17.68-.08a3.28,3.28,0,0,1,2.87,1.41l3.9,5.14a3.58,3.58,0,0,1,.73,2.16v23a3.58,3.58,0,0,1-1.85,3.13l-5,2.76A3.64,3.64,0,0,1,137.37,121.85Zm-13-7.17h12.1l2.31-1.28V93.76L136.67,91l-12.32.06Z"/><path class="cls-11" d="M133.68,120.06h-16.6a3.58,3.58,0,0,1-3.58-3.59V85.71a3.58,3.58,0,0,1,3.56-3.58l17.68-.08a3.27,3.27,0,0,1,2.87,1.41l3.9,5.13a3.63,3.63,0,0,1,.73,2.17v23a3.58,3.58,0,0,1-1.85,3.13l-5,2.76A3.64,3.64,0,0,1,133.68,120.06Zm-13-7.17h12.1l2.31-1.28V92L133,89.22l-12.32.06Z"/><path class="cls-11" d="M105.37,120.27H86.25a3.56,3.56,0,1,1,0-7.11h15.54l0-8.6H88.36a3.56,3.56,0,0,1,0-7.12h13.38V89.26H85.63a3.56,3.56,0,0,1,0-7.12H105.3a3.57,3.57,0,0,1,3.56,3.56V101l.06,15.71a3.52,3.52,0,0,1-1,2.53A3.57,3.57,0,0,1,105.37,120.27Z"/><path class="cls-1" d="M170.79,62a.65.65,0,0,1-.65-.65V52.81a.65.65,0,0,1,1.3,0v8.58A.65.65,0,0,1,170.79,62Z"/><path class="cls-1" d="M37.06,58.44H26.17a.65.65,0,0,1,0-1.3H37.06a.65.65,0,1,1,0,1.3Z"/><rect class="cls-8" x="55.98" y="121.57" width="107.91" height="34.19" rx="1.38" ry="1.38"/><path class="cls-5" d="M162.51,156.9H57.36a2.52,2.52,0,0,1-2.52-2.52V123a2.52,2.52,0,0,1,2.52-2.52H162.51A2.52,2.52,0,0,1,165,123v31.43A2.52,2.52,0,0,1,162.51,156.9ZM57.36,122.71a.24.24,0,0,0-.24.24v31.43a.24.24,0,0,0,.24.24H162.51a.24.24,0,0,0,.24-.24V123a.24.24,0,0,0-.24-.24Z"/><rect class="cls-12" x="127.63" y="133.92" width="29.14" height="7.73" rx="1.38" ry="1.38"/><path class="cls-5" d="M155.39,142.47H129a2.2,2.2,0,0,1-2.19-2.19v-5a2.19,2.19,0,0,1,2.19-2.19h26.38a2.19,2.19,0,0,1,2.19,2.19v5A2.2,2.2,0,0,1,155.39,142.47ZM129,134.74a.56.56,0,0,0-.56.56v5a.56.56,0,0,0,.56.56h26.38a.57.57,0,0,0,.57-.56v-5a.57.57,0,0,0-.57-.56Z"/><rect class="cls-12" x="77.39" y="134.6" width="31.81" height="6.84" rx="1.38" ry="1.38"/><path class="cls-5" d="M107.82,142.25H78.76a2.2,2.2,0,0,1-2.19-2.19V136a2.2,2.2,0,0,1,2.19-2.19h29.06A2.19,2.19,0,0,1,110,136v4.08A2.19,2.19,0,0,1,107.82,142.25Zm-29.06-6.84a.57.57,0,0,0-.56.57v4.08a.57.57,0,0,0,.56.57h29.06a.58.58,0,0,0,.57-.57V136a.58.58,0,0,0-.57-.57Z"/><path class="cls-1" d="M60.47,152a1.14,1.14,0,0,1-1.14-1.14V133.51a1.14,1.14,0,0,1,2.28,0V150.9A1.14,1.14,0,0,1,60.47,152Z"/><path class="cls-1" d="M85.41,139.28H79.28a.48.48,0,0,1-.48-.49.47.47,0,0,1,.48-.48h6.13a.48.48,0,0,1,.49.48A.49.49,0,0,1,85.41,139.28Z"/><path class="cls-1" d="M136.3,139h-6.44a.49.49,0,0,1,0-1h6.44a.49.49,0,0,1,0,1Z"/><g class="cls-7"><path class="cls-1" d="M30.31,152.58a1.14,1.14,0,0,1-1.14-1.14V138.1A1.14,1.14,0,0,1,30.31,137h6.21a1.14,1.14,0,1,1,0,2.27H31.45v12.2A1.14,1.14,0,0,1,30.31,152.58Z"/></g><g class="cls-2"><path d="M166,154.19a1.14,1.14,0,0,1-1.14-1.14V123.39a1.14,1.14,0,1,1,2.28,0v29.66A1.14,1.14,0,0,1,166,154.19Z"/></g><path class="cls-1" d="M107.79,58.34H75.61a1.63,1.63,0,1,1,0-3.25h32.18a1.63,1.63,0,1,1,0,3.25Z"/><path class="cls-1" d="M126.88,77.67a.51.51,0,0,1-.31-.11l-5.28-4.14a.47.47,0,0,1-.16-.54.47.47,0,0,1,.46-.33h3.22a.49.49,0,0,1,0,1H123l4.18,3.26a.49.49,0,0,1,.08.69A.5.5,0,0,1,126.88,77.67Z"/><g class="cls-13"><path class="cls-1" d="M113.45,72.44H100.87a.65.65,0,1,1,0-1.3h12.58a.65.65,0,1,1,0,1.3Z"/></g><g class="cls-13"><path class="cls-1" d="M112.79,74.85h-20a.65.65,0,1,1,0-1.3h20a.65.65,0,1,1,0,1.3Z"/></g><g class="cls-13"><path class="cls-1" d="M118,77.23H105.35a.65.65,0,0,1,0-1.3H118a.65.65,0,0,1,0,1.3Z"/></g><g class="cls-13"><path class="cls-1" d="M99,72.44H97.48a.65.65,0,1,1,0-1.3H99a.65.65,0,1,1,0,1.3Z"/></g></svg>