<svg id="Capa_1" data-name="Capa 1" xmlns="http://www.w3.org/2000/svg" viewBox="0 0 58.25 40.28"><defs><style>.cls-1,.cls-3{fill:#010202;}.cls-1{opacity:0.7;}.cls-1,.cls-3,.cls-5,.cls-7{isolation:isolate;}.cls-2{fill:#2a3e87;}.cls-3,.cls-7{opacity:0.2;}.cls-4{fill:#1f2549;}.cls-5{fill:#fff;opacity:0.6;}.cls-6{fill:#243874;}.cls-7{fill:#020304;}.cls-8{fill:#1c3d75;}.cls-9{fill:#334e9a;}</style></defs><title>icon</title><ellipse class="cls-1" cx="31.03" cy="36.34" rx="22.94" ry="3.94"/><path class="cls-2" d="M29.64,24.45,17,23.83v10.6c2.71,2.52,7.25,3.28,12.49,3.28s10-.77,12.66-3.3V24.11Z"/><path class="cls-3" d="M33.12,28.18s7.45.48,8.17,3.46l.19-7.26Z"/><path class="cls-4" d="M29.48,38.55c-6.34,0-10.49-1.12-13-3.51a.84.84,0,0,1-.27-.61V23.83a.83.83,0,0,1,.26-.61A.84.84,0,0,1,17,23l12.61.62,12.47-.33a.84.84,0,0,1,.6.23.87.87,0,0,1,.26.6v10.3a.84.84,0,0,1-.27.61C40.18,37.39,35.85,38.55,29.48,38.55Zm-11.65-4.5c2.27,1.93,6,2.83,11.65,2.83S39.05,36,41.3,34V25l-11.63.31H29.6L17.83,24.7Z"/><path class="cls-5" d="M23.93,36h-.05a9.1,9.1,0,0,1-5.4-2.24.48.48,0,0,1-.15-.36v-5.7a.52.52,0,0,1,.52-.52h0a.52.52,0,0,1,.53.52v5.47A8.72,8.72,0,0,0,24,34.93a.52.52,0,0,1-.06,1Z"/><polygon class="cls-6" points="57.42 16.97 29.13 29.46 0.83 16.97 29.13 9.79 57.42 16.97"/><path class="cls-4" d="M29.13,30.3a.81.81,0,0,1-.34-.08L.5,17.73A.82.82,0,0,1,0,16.9a.84.84,0,0,1,.63-.74L28.92,9a.72.72,0,0,1,.41,0l28.29,7.18a.84.84,0,0,1,.63.74.82.82,0,0,1-.5.83L29.46,30.22A.76.76,0,0,1,29.13,30.3ZM3.39,17.18,29.13,28.55,54.86,17.18,29.13,10.65Z"/><path class="cls-5" d="M14.85,21.4a.46.46,0,0,1-.19,0l-9-3.54a.52.52,0,0,1,.06-1L16.3,14.07a.52.52,0,0,1,.26,1l-9,2.35,7.48,3a.53.53,0,0,1,.29.68A.52.52,0,0,1,14.85,21.4Z"/><path class="cls-5" d="M21.13,24.32a.59.59,0,0,1-.22-.05L16,22a.53.53,0,0,1,.44-1l4.9,2.24a.52.52,0,0,1-.22,1Z"/><path class="cls-5" d="M23.22,25.25A.41.41,0,0,1,23,25.2l-.65-.29a.52.52,0,1,1,.42-.95l.66.29a.52.52,0,0,1,.26.69A.54.54,0,0,1,23.22,25.25Z"/><ellipse class="cls-7" cx="29.17" cy="18.49" rx="3.74" ry="0.73"/><path class="cls-8" d="M29,18.61a1,1,0,0,1-1-.75C28,17.71,23.78,3.73,16,3.73h-.21a1,1,0,0,1-1.07-1,1,1,0,0,1,1-1.08H16c9.33,0,13.79,15,14,15.62a1.05,1.05,0,0,1-.71,1.3A1,1,0,0,1,29,18.61Z"/><path class="cls-4" d="M29,19.09A1.53,1.53,0,0,1,27.54,18C27.5,17.85,23.4,4.21,16,4.21h-.23a1.52,1.52,0,0,1-.06-3H16c9.68,0,14.25,15.32,14.44,16a1.53,1.53,0,0,1-1,1.89A1.47,1.47,0,0,1,29,19.09ZM16,3.26c3.36,0,6.57,2.5,9.3,7.24a38,38,0,0,1,3.13,7.22.58.58,0,0,0,.55.41l.16,0a.56.56,0,0,0,.38-.7A37.45,37.45,0,0,0,26,9.46c-2.94-4.87-6.3-7.34-10-7.34h-.26a.57.57,0,0,0-.55.58.56.56,0,0,0,.58.55Z"/><path class="cls-9" d="M16.09,2.5a1.91,1.91,0,0,0-3.81,0,1.78,1.78,0,0,0,.14.7,8.63,8.63,0,0,0-2,3.94,11.35,11.35,0,0,0-.31,2l4.42,1.12a10.35,10.35,0,0,0,.67-1.9,8.69,8.69,0,0,0,.12-4.3A1.9,1.9,0,0,0,16.09,2.5Z"/><path class="cls-4" d="M14.5,10.84a.36.36,0,0,1-.14,0L9.94,9.71a.6.6,0,0,1-.45-.62A11.33,11.33,0,0,1,9.81,7,9.67,9.67,0,0,1,11.74,3a2.42,2.42,0,0,1-.06-.54A2.51,2.51,0,1,1,16,4.27a9.77,9.77,0,0,1-.2,4.22,11.35,11.35,0,0,1-.71,2A.58.58,0,0,1,14.5,10.84ZM10.72,8.68l3.44.86A13.11,13.11,0,0,0,14.6,8.2a8.28,8.28,0,0,0,.12-4,.58.58,0,0,1,.22-.64A1.31,1.31,0,1,0,12.88,2.5,1.41,1.41,0,0,0,13,3a.59.59,0,0,1-.14.64A8.13,8.13,0,0,0,11,7.29,10.63,10.63,0,0,0,10.72,8.68Z"/><path class="cls-5" d="M13.35,3.08h0a.41.41,0,0,1-.39-.43,1.35,1.35,0,0,1,1.27-1.36.41.41,0,0,1,.43.39.41.41,0,0,1-.4.43c-.43,0-.47.52-.47.58A.42.42,0,0,1,13.35,3.08Z"/></svg>