<svg id="Capa_1" data-name="Capa 1" xmlns="http://www.w3.org/2000/svg" viewBox="0 0 526.61 515.81"><defs><style>.cls-1{fill:#1f1e17;}.cls-2{fill:#393828;}.cls-3{fill:#87752d;}.cls-4{fill:#f8efa0;}.cls-5{fill:#fcfbee;}.cls-6{fill:#5e5e5d;}</style></defs><title>Sin título-1</title><path class="cls-1" d="M433.68,4.8c22.86,0,45.73-.21,68.59-.06,13.83.08,23.44,9.82,24.28,24,.07,1.23,0,2.45,0,3.68q0,228.14,0,456.29c0,9.1-2.52,16.81-10,22.5-4.82,3.68-10.29,4.42-16.16,4.41q-87.29-.12-174.55,0c-62.07,0-124.13-.32-186.19.23-15.07.14-27-9.7-27-27q.15-228.75.08-457.51c0-16.77,10-26.62,26.74-26.62q31.25,0,62.47.12,0,7.47-.08,15c-20.62-.09-41.23-.22-61.85-.25-8.7,0-11.72,3.1-11.72,11.8q0,229.08,0,458.16c0,8.72,2.61,11.37,11.25,11.37q180.08,0,360.16,0c8.63,0,11.19-2.63,11.2-11.39q0-229.08,0-458.16c0-8.56-2.95-11.72-11.76-11.75-21.43-.09-42.87.06-64.31.11C434.62,14.69,435.42,9.64,433.68,4.8Z"/><path class="cls-2" d="M0,186.4q0-71.66,0-143.29c0-17.48,11.26-28.82,28.68-28.65,7.49.08,15.07-1.12,22.49,1.23,10.68,3.38,17,10.93,18.25,21.59,1.64,14.3,3.29,28.73.46,43.15a32.72,32.72,0,0,0-.11,6.11q0,117,.09,233.92c0,10.94-1.1,21.09-6.29,31.2-8.17,15.94-14.82,32.66-22.21,49-1.21,2.69-2,6.29-5.76,6.42s-4.68-3.49-5.94-6.16q-13.7-29-27.24-58.15A30.41,30.41,0,0,1,0,329.68Q.09,258,0,186.4ZM16.55,27.24l-1.23,1.1C10.62,32.15,9.4,37.26,9.6,43c.08,2.23.49,3.29,3,3.27q22.6-.14,45.21,0c2.37,0,3-.86,3.14-3.21.31-8-4.75-16.74-12.28-18.49-9.29-2.16-18.83-2.62-28.15.57-1,.15-1.94.24-2.45,1.26Zm6.53,43.3c11.2.07,22.41.19,33.61.15,1.5,0,4.24,1.17,4-2-.16-2.47-2.5-1.52-3.9-1.53-11.21-.08-22.42,0-33.63,0a13.82,13.82,0,0,0-3.48-.85c-3.21,0-5.54-.34-5.47-4.55.07-4.43,3.08-3.49,5.53-3.5,11.83-.06,23.67,0,35.5-.08,1.85,0,4.16,1,5.49-1.43-1.21-2.59-3.55-1.51-5.37-1.53-11.43-.1-22.87-.38-34.27.14-3.79.17-8.53-3.71-10.66-.33-1.8,2.84-.24,7.8-.18,11.83-1.07,2.2-1.15,3.93,2,3.91C15.89,70.73,19.49,70.62,23.08,70.54Zm3.74,303.1c1.45,3.31,3,6.53,3,10.33a4.2,4.2,0,0,0,3.21,4,2.81,2.81,0,0,0,3.12-1.34,3.76,3.76,0,0,0-.82-5c-3.34-2.51-2.64-5.6-2.15-8.82,2.43-.12,4.86-.39,7.28-.31a4.32,4.32,0,0,0,4.69-2.91c3-7.07,6.2-14.07,9.36-21.08,1.09-2.42.92-3.78-2.25-3.72-10.56.18-21.13.25-31.69.36-5.36-1.49-6.69.05-4.25,5.2C20,358.06,23.35,365.88,26.82,373.64Zm.5-166.1c0,40.59.12,81.18-.13,121.77,0,5.35,1.68,6.42,6.55,6.23,4.29-.17,6.82,0,6.81-5.88q-.36-121.77,0-243.54c0-5.7-2.25-5.94-6.74-6C29,80,27.16,81,27.19,86.38,27.43,126.76,27.32,167.15,27.32,207.54ZM50,207.32c0,40.81.08,81.62-.1,122.43,0,4.51,1,5.73,5.67,5.84,6.07.14,5.26-3.56,5.26-7.15q0-121.2.1-242.4c0-4.33-.72-6-5.56-6.05-5.07-.06-5.46,2-5.44,6.13C50,126.52,50,166.92,50,207.32Zm-40.3.75h.1q0,60.88,0,121.77c0,3.09-.65,5.86,4.41,5.75,4.63-.1,4.09-2.53,4.1-5.4.31-82.19-.68-164.38.51-246.56,0-2.43-.72-3.69-3.43-3.89-4.54-.34-5.8,1.39-5.78,5.94C9.73,126.48,9.65,167.28,9.65,208.07Z"/><path class="cls-2" d="M352.7,4.82c8.06-6.33,10.4-6.33,18.51,0q.6,7.37,1.21,14.74,0,3.56-.05,7.12,0,9.62-.07,19.24c-.11,4-.15,8.07-.35,12.09-.34,6.88-4.51,11.29-10.33,11.07C356,68.86,352.22,64.6,352,58c-.17-4-.23-8.06-.34-12.09q0-9.63-.08-19.24,0-3.57-.05-7.12A62.31,62.31,0,0,1,352.7,4.82Zm7.51,14.32c0-2.86,0-5.72,0-8.57a2.71,2.71,0,0,0-2.63-2.84c-1.83-.21-2.67,1.08-2.7,2.6-.1,5.71-.07,11.43,0,17.14,0,1.51.55,2.88,2.46,2.82s2.88-1.3,2.9-3.19C360.25,24.45,360.23,21.79,360.21,19.14Z"/><path class="cls-2" d="M202,19.76q0-7.47.08-15c9.29-6.41,10.59-6.41,18.49,0,1.7,4.82.95,9.85,1.23,14.79l-.06,7,0,19.46c0,4.27.07,8.54-.11,12.81-.24,5.9-4.58,10.25-9.94,10.2-5.19,0-9.36-4.08-9.65-9.79-.22-4.25,0-8.52.07-12.79q0-10.05,0-20.09C202,24.2,202,22,202,19.76Zm2.45-.68h0c0,2.83,0,5.66,0,8.49a2.62,2.62,0,1,0,5.24.12c.13-5.65.12-11.31.08-17,0-1.85-1-3.15-3-3s-2.44,1.7-2.4,3.49C204.45,13.82,204.41,16.45,204.41,19.08Z"/><path class="cls-2" d="M257.15,4.82c7.68-6.11,10.61-6.11,18.5,0q0,7.47.07,15l-.06,6.67V46.52c.07,4.08.25,8.15.17,12.22-.11,6.22-4.05,10.38-9.6,10.38-5.36,0-9.53-4.35-9.82-10.39-.2-4.27-.24-8.54-.35-12.81q0-9.63-.07-19.24l-.05-7.12A62.31,62.31,0,0,1,257.15,4.82Zm7.1,14.37h0c0-2.85.06-5.71,0-8.55a2.89,2.89,0,1,0-5.78,0c-.08,5.7-.09,11.4.06,17.1a2.66,2.66,0,0,0,2.84,2.59,2.57,2.57,0,0,0,2.82-2.6C264.36,24.89,264.25,22,264.25,19.19Z"/><path class="cls-2" d="M433.68,4.8c1.74,4.84.94,9.89,1.25,14.85l-.06,6.91q0,9.84,0,19.67c0,4.68.22,9.39-.14,14.05a10,10,0,0,1-10.05,8.82,9.73,9.73,0,0,1-9.36-9.43c-.18-4.47,0-9,0-13.44.56-5.68-1.26-11.53,1.15-17.08,3.24,2.09,5.33,1.69,5.38-2.63.06-4.83-.06-9.65,0-14.48.08-3.93-1.59-5.12-5.21-3.69-1.4-.81-1.32-2.22-1.43-3.55C424.11-1.25,426.26-1.25,433.68,4.8Z"/><path class="cls-1" d="M275.72,19.76q0-7.47-.07-15H352.7a62.31,62.31,0,0,0-1.21,14.74Z"/><path class="cls-1" d="M415.19,4.8c.11,1.33,0,2.74,1.43,3.55-.19,3.65-.37,7.3-.56,11a1.18,1.18,0,0,0-.67,0l-43,.3q-.6-7.36-1.21-14.74Z"/><path class="cls-1" d="M257.15,4.82a62.31,62.31,0,0,0-1.21,14.74l-34.18,0c-.28-5,.47-10-1.23-14.8Z"/><path class="cls-3" d="M434.87,26.56l.06-6.91c21.44,0,42.88-.2,64.31-.11,8.81,0,11.76,3.19,11.76,11.75q0,229.08,0,458.16c0,8.76-2.57,11.39-11.2,11.39q-180.09,0-360.16,0c-8.64,0-11.25-2.65-11.25-11.37q0-229.08,0-458.16c0-8.7,3-11.81,11.72-11.8,20.62,0,41.23.16,61.85.25,0,2.22,0,4.44.07,6.67-12.44.08-24.89.2-37.33.24C148,26.73,137,37.54,137,54.12q0,205.41,0,410.82c0,16.13,11.14,27.23,27.42,27.23q155.52.06,311,.05a25.7,25.7,0,0,0,11.28-2.28c12.21-5.81,16.52-16.1,16.52-28.92q0-201.43,0-402.87c0-1.22.05-2.45,0-3.67-.89-17.24-12-27.78-29.17-27.81Q454.46,26.64,434.87,26.56Z"/><path class="cls-4" d="M27.32,207.54c0-40.39.11-80.78-.13-121.16C27.16,81,29,80,33.8,80.09c4.49.09,6.75.33,6.74,6q-.33,121.77,0,243.54c0,5.89-2.52,5.71-6.81,5.88-4.87.19-6.58-.88-6.55-6.23C27.44,288.72,27.32,248.13,27.32,207.54Z"/><path class="cls-4" d="M50,207.32c0-40.4,0-80.8-.07-121.2,0-4.11.37-6.19,5.44-6.13,4.84.06,5.57,1.72,5.56,6.05q-.18,121.2-.1,242.4c0,3.59.81,7.29-5.26,7.15-4.63-.11-5.69-1.33-5.67-5.84C50,288.94,50,248.13,50,207.32Z"/><path class="cls-4" d="M9.65,208.07c0-40.79.08-81.59-.1-122.39,0-4.55,1.24-6.28,5.78-5.94,2.71.2,3.47,1.46,3.43,3.89-1.19,82.18-.2,164.37-.51,246.56,0,2.87.53,5.3-4.1,5.4-5.06.11-4.41-2.66-4.41-5.75q0-60.88,0-121.77Z"/><path class="cls-4" d="M20.55,25.17C29.87,22,39.41,22.44,48.7,24.6,56.23,26.35,61.29,35.07,61,43.09c-.09,2.35-.77,3.22-3.14,3.21q-22.61-.11-45.21,0c-2.54,0-3-1-3-3.27-.2-5.78,1-10.89,5.72-14.7a4.19,4.19,0,0,0,.59.81c-1.14,3.62-2.7,7.1-3.26,10.93-.32,2.24-.51,4.24,2.1,4.75s3.19-1.48,3.75-3.63c.89-3.43,1.13-7.39,4.81-9.3C25,31,26,30.14,25.59,28.23c-.57-2.58-2.51-2.84-4.68-2.58Z"/><path class="cls-4" d="M20.61,345.18c10.56-.11,21.13-.18,31.69-.36,3.17-.06,3.34,1.3,2.25,3.72-3.16,7-6.33,14-9.36,21.08a4.32,4.32,0,0,1-4.69,2.91c-2.42-.08-4.85.19-7.28.31l-1.34-.45Z"/><path class="cls-4" d="M10.3,66.85c-.07-4-1.63-9,.17-11.83,2.13-3.38,6.87.5,10.66.33,11.4-.52,22.84-.24,34.27-.14,1.82,0,4.16-1.06,5.37,1.53-1.33,2.45-3.64,1.42-5.49,1.43-11.83.1-23.67,0-35.5.08-2.45,0-5.46-.93-5.53,3.5-.07,4.21,2.26,4.59,5.47,4.55a13.82,13.82,0,0,1,3.48.85l-.27.28Z"/><path class="cls-5" d="M20.61,345.18l11.27,27.21c-1.37,1.71-3.41.69-5.06,1.25-3.47-7.76-6.82-15.58-10.46-23.26C13.92,345.23,15.25,343.69,20.61,345.18Z"/><path class="cls-4" d="M23.2,67.15c11.21,0,22.42-.05,33.63,0,1.4,0,3.74-.94,3.9,1.53.2,3.15-2.54,2-4,2-11.2,0-22.41-.08-33.61-.15l-.15-3.11Z"/><path class="cls-6" d="M26.82,373.64c1.65-.56,3.69.46,5.06-1.25l1.34.45c-.49,3.22-1.19,6.31,2.15,8.82a3.76,3.76,0,0,1,.82,5A2.81,2.81,0,0,1,33.07,388a4.2,4.2,0,0,1-3.21-4C29.79,380.17,28.27,377,26.82,373.64Z"/><path class="cls-5" d="M22.93,67.43l.15,3.11c-3.59.08-7.19.19-10.78.22-3.16,0-3.08-1.71-2-3.91Z"/><path class="cls-4" d="M18.1,26.43c.51-1,1.49-1.11,2.45-1.26l.36.48-2.44,1.21Z"/><path class="cls-4" d="M15.32,28.34l1.23-1.1a6.62,6.62,0,0,0,.59.7l-1.23,1.21A4.19,4.19,0,0,1,15.32,28.34Z"/><path class="cls-4" d="M16.55,27.24l1.55-.81.37.43-1.33,1.08A6.62,6.62,0,0,1,16.55,27.24Z"/><path class="cls-4" d="M415.26,46.23c0,4.48-.16,9,0,13.44a9.73,9.73,0,0,0,9.36,9.43,10,10,0,0,0,10.05-8.82c.36-4.66.12-9.37.14-14.05,13.06-.1,26.11-.27,39.16-.29,7.16,0,9.84,2.71,9.84,10.07,0,107.56.2,215.13-.2,322.7-.06,14.6-3.2,18.92-19,19.17-19.52.32-37.56-6.15-55.4-13.2-4-1.59-8.18-3.45-11.83.54-3.38,3.69-1.59,7.39.13,11.29,4.19,9.44,6.15,19.26,4.73,29.71-2.16,15.88-9.64,29.13-19.32,41.51-3.06,3.9-6.38,5.35-11.38,5.34q-101.34-.26-202.68-.12c-11.24,0-13.06-1.83-13.06-13.1q0-200.53,0-401.08a32.71,32.71,0,0,1,.18-6.11c.71-3.72,2.85-6.62,6.89-6.61,13,0,26.09-.86,39.11.47,0,4.27-.29,8.54-.07,12.79.29,5.71,4.46,9.75,9.65,9.79,5.36.05,9.7-4.3,9.94-10.2.18-4.27.08-8.54.11-12.81l34.41-.17c.11,4.27.15,8.54.35,12.81.29,6,4.46,10.38,9.82,10.39,5.55,0,9.49-4.16,9.6-10.38.08-4.07-.1-8.14-.17-12.22,2.41-.2,4.81-.57,7.22-.58q34.37-.06,68.74,0c.11,4,.17,8.06.34,12.09.26,6.59,4,10.85,9.66,11.07,5.82.22,10-4.19,10.33-11.07.2-4,.24-8.06.35-12.09ZM320.31,164.71H425a43.84,43.84,0,0,0,5.5-.1c4.05-.52,6.14-3.15,6.36-7a6.86,6.86,0,0,0-5.65-7.62,23.1,23.1,0,0,0-5.46-.37H214a26.91,26.91,0,0,0-5.47.29c-4,.83-5.9,3.72-5.8,7.52s2.23,6.56,6.24,7.18a36,36,0,0,0,5.5.13Zm0,51.58H235.27c-8.37,0-16.73,0-25.09,0-4.85,0-7.37,2.84-7.46,7.13-.09,4.61,2.55,7.62,7.59,7.72,1,0,2,0,3.06,0h213a25.57,25.57,0,0,0,4.88-.16c3.42-.69,5.16-3.13,5.57-6.44s-.93-6.24-4-7.55c-1.94-.84-4.39-.67-6.62-.67Q373.27,216.26,320.33,216.29Zm0,66.54H213.9a30.63,30.63,0,0,0-4.89.09c-4.29.73-6.49,3.74-6.28,7.75s2.3,7,6.93,7H426.89c1,0,2,0,3.06,0,4.49-.19,6.68-2.91,6.86-7.05s-2.08-6.94-6.31-7.69a28.32,28.32,0,0,0-4.88-.09Zm0,74.34H256.16c-15.1,0-30.19.1-45.28-.05-5-.05-7.72,2.29-8.22,7-.46,4.39,3.06,7.59,8.17,7.88.61,0,1.22,0,1.83,0H426.83c6.68,0,10.24-2.85,10.05-7.87s-3-7-10-7Q373.65,357.15,320.41,357.17ZM183.87,121.94c0-13.47,0-26.95,0-40.42,0-7.48-2.77-10.79-8.68-10.73-5.14.06-8.58,4.07-8.59,10.54q-.09,40.73,0,81.46c0,6.72,3,9.81,9,9.8,5.7,0,8.24-2.87,8.27-9.61C183.91,149.3,183.87,135.62,183.87,121.94Zm0,97.56c0-6.52.1-13,0-19.55-.1-4.79-4.09-9.16-8.26-8.81-5,.42-8.76,3-8.87,8.35q-.41,19.55,0,39.11c.1,4.94,4.54,8.77,9,8.09,4.84-.73,8.29-3.22,8.21-8.86C183.79,231.72,183.86,225.61,183.86,219.5Z"/><path class="cls-1" d="M351.62,45.92q-34.38,0-68.74,0c-2.41,0-4.81.38-7.22.58V26.43l75.88.25Q351.59,36.3,351.62,45.92Z"/><path class="cls-1" d="M415.26,46.23l-43-.31q0-9.63.07-19.24l43.25.12.44-.09c.12.81.23,1.62.35,2.44C414,34.7,415.82,40.55,415.26,46.23Z"/><path class="cls-3" d="M351.54,26.68l-75.88-.25.06-6.67,75.77-.2Q351.52,23.12,351.54,26.68Z"/><path class="cls-3" d="M415.63,26.8l-43.26-.12q0-3.57.05-7.12l43-.29Q415.5,23,415.63,26.8Z"/><path class="cls-5" d="M360.22,19.14c0,2.65,0,5.31,0,8,0,1.89-.89,3.12-2.9,3.19s-2.44-1.31-2.46-2.82c-.07-5.71-.1-11.43,0-17.14,0-1.52.87-2.81,2.7-2.6a2.71,2.71,0,0,1,2.63,2.84C360.25,13.42,360.21,16.28,360.22,19.14Z"/><path class="cls-1" d="M202,46.52c-13-1.33-26.07-.43-39.11-.47-4,0-6.18,2.89-6.89,6.61a32.71,32.71,0,0,0-.18,6.11q0,200.54,0,401.08c0,11.27,1.82,13.1,13.06,13.1q101.34,0,202.68.12c5,0,8.32-1.44,11.38-5.34,9.68-12.38,17.16-25.63,19.32-41.51,1.42-10.45-.54-20.27-4.73-29.71-1.72-3.9-3.51-7.6-.13-11.29,3.65-4,7.8-2.13,11.83-.54,17.84,7.05,35.88,13.52,55.4,13.2,15.78-.25,18.92-4.57,19-19.17.4-107.57.22-215.14.2-322.7,0-7.36-2.68-10.08-9.84-10.07-13.05,0-26.1.19-39.16.29q0-9.82,0-19.67,19.59.06,39.18.11c17.2,0,28.28,10.57,29.17,27.81.07,1.22,0,2.45,0,3.67q0,201.43,0,402.87c0,12.82-4.31,23.11-16.52,28.92a25.7,25.7,0,0,1-11.28,2.28q-155.52,0-311-.05c-16.28,0-27.41-11.1-27.42-27.23q0-205.41,0-410.82c0-16.58,11-27.39,27.69-27.45,12.44,0,24.89-.16,37.33-.24Q202,36.46,202,46.52ZM427.59,407.59a33.86,33.86,0,0,0-11-3.57c-.44,3.43.39,6.11,1.24,8.8.86,20.32-4.94,38.74-16,55.94,8.51-2.93,17.26-4.64,24.4-10.24,19.7-10.56,34.29-26.11,45.57-45.82-5.14,0-9.4,0-13.66,0-10.47-.06-20.37-3.54-30.58-5.18Zm56.25,14.28c-13,22.12-29.69,38-49.84,50.57,13.82.51,27.26.5,40.69.51,5.32,0,8.9-2.63,9-7.85C484.06,451.35,483.84,437.59,483.84,421.87Z"/><path class="cls-1" d="M256.06,45.92l-34.41.17q0-9.72,0-19.46l34.29.05Q256,36.3,256.06,45.92Z"/><path class="cls-3" d="M256,26.68l-34.29-.05.06-7,34.18,0Q256,23.12,256,26.68Z"/><path class="cls-5" d="M205,17.33c0-2.63,0-5.26,0-7.89,0-1.79.39-3.35,2.85-3.48s3.52,1.16,3.54,3c0,5.66,0,11.32-.09,17,0,1.51-1.08,2.69-3.21,2.63s-3-1.15-3-2.75c-.07-2.83,0-5.66,0-8.49Z"/><path class="cls-5" d="M264.25,19.19c0,2.85.11,5.7-.05,8.54a2.57,2.57,0,0,1-2.82,2.6,2.66,2.66,0,0,1-2.84-2.59c-.15-5.7-.14-11.4-.06-17.1a2.89,2.89,0,1,1,5.78,0c.09,2.84,0,5.7,0,8.55Z"/><path class="cls-5" d="M416.41,29.15c-.12-.82-.23-1.63-.35-2.44V19.3c.19-3.65.37-7.3.56-11,3.62-1.43,5.29-.24,5.21,3.69-.1,4.83,0,9.65,0,14.48C421.74,30.84,419.65,31.24,416.41,29.15Z"/><path class="cls-2" d="M416.06,19.3v7.41l-.44.09-.24-7.53A1.12,1.12,0,0,1,416.06,19.3Z"/><path class="cls-5" d="M17.14,27.94l1.33-1.08,2.44-1.21c2.17-.26,4.11,0,4.68,2.58C26,30.14,25,31,23.31,31.9c-3.68,1.91-3.92,5.87-4.81,9.3-.56,2.15-1.1,4.16-3.75,3.63s-2.42-2.51-2.1-4.75c.56-3.83,2.12-7.31,3.26-10.93Z"/><path class="cls-2" d="M320.31,164.71H214.44a36,36,0,0,1-5.5-.13c-4-.62-6.14-3.35-6.24-7.18s1.83-6.69,5.8-7.52a26.91,26.91,0,0,1,5.47-.29H425.71a23.1,23.1,0,0,1,5.46.37,6.86,6.86,0,0,1,5.65,7.62c-.22,3.88-2.31,6.51-6.36,7a43.84,43.84,0,0,1-5.5.1Z"/><path class="cls-2" d="M320.33,216.29q52.94,0,105.87,0c2.23,0,4.68-.17,6.62.67,3,1.31,4.39,4.18,4,7.55s-2.15,5.75-5.57,6.44a25.57,25.57,0,0,1-4.88.16h-213c-1,0-2,0-3.06,0-5-.1-7.68-3.11-7.59-7.72.09-4.29,2.61-7.16,7.46-7.13,8.36,0,16.72,0,25.09,0Z"/><path class="cls-2" d="M320.37,282.83H425.62a28.32,28.32,0,0,1,4.88.09c4.23.75,6.48,3.51,6.31,7.69s-2.37,6.86-6.86,7.05c-1,0-2,0-3.06,0H209.66c-4.63,0-6.74-3.06-6.93-7s2-7,6.28-7.75a30.63,30.63,0,0,1,4.89-.09Z"/><path class="cls-2" d="M320.41,357.17q53.23,0,106.47,0c7,0,9.81,2,10,7S433.51,372,426.83,372H212.66c-.61,0-1.22,0-1.83,0-5.11-.29-8.63-3.49-8.17-7.88.5-4.73,3.17-7.07,8.22-7,15.09.15,30.18.05,45.28.05Z"/><path class="cls-5" d="M183.87,121.94c0,13.68,0,27.36,0,41,0,6.74-2.57,9.61-8.27,9.61-6,0-9-3.08-9-9.8q-.09-40.73,0-81.46c0-6.47,3.45-10.48,8.59-10.54,5.91-.06,8.65,3.25,8.68,10.73C183.9,95,183.87,108.47,183.87,121.94Z"/><path class="cls-5" d="M183.86,219.5c0,6.11-.07,12.22,0,18.33.08,5.64-3.37,8.13-8.21,8.86-4.43.68-8.87-3.15-9-8.09q-.4-19.54,0-39.11c.11-5.31,3.91-7.93,8.87-8.35,4.17-.35,8.16,4,8.26,8.81C184,206.46,183.86,213,183.86,219.5Z"/><path class="cls-4" d="M483.84,421.87c0,15.72.22,29.48-.12,43.23-.13,5.22-3.71,7.86-9,7.85-13.43,0-26.87,0-40.69-.51C454.15,459.9,470.85,444,483.84,421.87Z"/><path class="cls-4" d="M427.51,407.52c10.21,1.64,20.11,5.12,30.58,5.18,4.26,0,8.52,0,13.66,0-11.28,19.71-25.87,35.26-45.56,45.82a102.47,102.47,0,0,0,7.39-36.73C433.74,415.92,432.61,411,427.51,407.52Z"/><path class="cls-5" d="M427.51,407.52c5.1,3.46,6.23,8.4,6.07,14.27a102.47,102.47,0,0,1-7.39,36.73c-7.15,5.6-15.9,7.31-24.41,10.24,11.09-17.2,16.89-35.62,16-55.95,2.67-2.84,5.76-4.91,9.78-5.22Z"/><path class="cls-4" d="M427.59,407.59c-4,.31-7.11,2.38-9.78,5.22-.85-2.68-1.68-5.36-1.24-8.79A33.86,33.86,0,0,1,427.59,407.59Z"/></svg>