<svg id="Capa_1" data-name="Capa 1" xmlns="http://www.w3.org/2000/svg" viewBox="0 0 207.61 147.26"><defs><style>.cls-1{opacity:0.1;}.cls-2{fill:#f4aa78;}.cls-3{fill:none;stroke:#000;stroke-miterlimit:10;}.cls-4{fill:#c5bca4;}.cls-5{fill:#181c36;}.cls-6{fill:#9d937e;}.cls-7{fill:#ca9207;}.cls-8{fill:#fff;}.cls-9{opacity:0.3;}.cls-10{opacity:0.4;}.cls-11{opacity:0.5;}.cls-12{fill:#f7d677;}.cls-13{fill:#f6cf64;}</style></defs><title>otras cosas</title><ellipse class="cls-1" cx="96" cy="129.76" rx="96" ry="17.5"/><path class="cls-2" d="M25.85,44.43V39.87A9.11,9.11,0,0,1,35,30.76H60.37A7.7,7.7,0,0,1,65.79,33l9.65,9.66a7.68,7.68,0,0,0,5.41,2.24h53.56A9.11,9.11,0,0,1,143.52,54v74.92H123.65Z"/><path class="cls-3" d="M25.85,40.26v-.39A9.11,9.11,0,0,1,35,30.76H59.84A7.7,7.7,0,0,1,65.26,33l9.68,9.68a7.65,7.65,0,0,0,5.42,2.25h54.05A9.11,9.11,0,0,1,143.52,54v74.89"/><rect class="cls-4" x="141.2" y="65.37" width="26.59" height="7.63" rx="0.92" ry="0.92" transform="translate(-5.43 124.69) rotate(-43.26)"/><path class="cls-5" d="M147.46,81.47h0a1.73,1.73,0,0,1-1.24-.54l-4-4.21a1.69,1.69,0,0,1,.08-2.4l18-16.95a1.7,1.7,0,0,1,2.4.07l4,4.21a1.69,1.69,0,0,1-.07,2.4l-18,17A1.74,1.74,0,0,1,147.46,81.47Zm14-23a.13.13,0,0,0-.1,0l-18,17a.15.15,0,0,0,0,.21l4,4.21a.15.15,0,0,0,.11,0,.14.14,0,0,0,.1,0l18-17a.14.14,0,0,0,0-.21l-4-4.21A.17.17,0,0,0,161.51,58.46Z"/><path class="cls-4" d="M177.3,56.82a1.17,1.17,0,0,0,.06,1.65L189,69.77a1.16,1.16,0,0,0,1.65,0l15.91-16.33a1.18,1.18,0,0,0-.06-1.66L194.86,40.5a1.17,1.17,0,0,0-1.65,0Z"/><path class="cls-5" d="M189.81,70.89h0a2,2,0,0,1-1.4-.57L176.82,59a2,2,0,0,1-.61-1.36,1.87,1.87,0,0,1,.53-1.39l15.91-16.34a1.87,1.87,0,0,1,1.36-.57,2,2,0,0,1,1.4.58L207,51.24a2,2,0,0,1,.61,1.36,1.88,1.88,0,0,1-.53,1.39L191.17,70.33A1.9,1.9,0,0,1,189.81,70.89Zm4.2-30a.32.32,0,0,0-.24.09L177.85,57.36a.34.34,0,0,0-.09.25.55.55,0,0,0,.14.31l11.6,11.29a.48.48,0,0,0,.31.13h0a.32.32,0,0,0,.24-.1L206,52.91a.37.37,0,0,0,.09-.26.49.49,0,0,0-.14-.3l-11.6-11.29A.42.42,0,0,0,194,40.93Z"/><path class="cls-4" d="M192.05,41.33s-10.86-16.41-30.28-14.8c0,0-17.34,2.55-19.88,8.79,0,0,1.39,1.16,9.48,2.54,0,0,13.17-.69,27.28,17.34Z"/><path class="cls-5" d="M178.65,56h0a.77.77,0,0,1-.57-.3c-5.44-7-11.33-11.9-17.53-14.72-.85-.39-5.29-2.32-8.94-2.32h-.33c-7.9-1.36-9.59-2.5-9.85-2.71a.78.78,0,0,1-.22-.89c1.15-2.82,5-5.24,11.39-7.19a68.65,68.65,0,0,1,9.1-2.07h.05c.91-.07,1.83-.11,2.74-.11a33.68,33.68,0,0,1,20.94,7.62,37.07,37.07,0,0,1,7.31,7.63.77.77,0,0,1-.09,1L179.2,55.74A.76.76,0,0,1,178.65,56Zm-27.08-18.9a24.22,24.22,0,0,1,9.58,2.46c6.22,2.84,12.12,7.71,17.55,14.48l12.35-12.76a38,38,0,0,0-6.67-6.81,32.14,32.14,0,0,0-19.93-7.25c-.85,0-1.73,0-2.59.11-4.51.66-16.21,3.28-18.93,7.68a39.84,39.84,0,0,0,8.49,2.09Z"/><path class="cls-6" d="M168,64.91l-9.94-9.25s11.56-8.09-1.39-16.41c0,0,11.1,2.31,22,16l-1.39,2.54.1.73S171,60.75,168,64.91Z"/><path class="cls-5" d="M168,65.69a.82.82,0,0,1-.53-.21l-9.94-9.25a.77.77,0,0,1-.24-.62.73.73,0,0,1,.33-.58s4.5-3.22,4.41-7.39c0-2.71-2-5.31-5.77-7.74A.75.75,0,0,1,156,39a.77.77,0,0,1,.87-.47A28.09,28.09,0,0,1,164,41.43a52,52,0,0,1,15.28,13.29.76.76,0,0,1,.08.85l-1.27,2.32.07.47a.77.77,0,0,1-.51.84c-.06,0-6.15,2.25-9,6.16a.77.77,0,0,1-.55.32Zm-8.75-10,8.66,8.06c2.68-3.19,7-5.16,8.59-5.8l0-.12a.81.81,0,0,1,.09-.48l1.14-2.09c-6.39-7.88-12.83-11.82-16.91-13.7a9,9,0,0,1,2.79,6,9.59,9.59,0,0,1-2.53,6.28A14.73,14.73,0,0,1,159.26,55.71Z"/><path class="cls-7" d="M138.42,71.85,150.21,82s0,10.17-7.63,9.48c0,0-13.41,7.86-17.1,13.17,0,0-13.13-9.13-10.64-12.25C115.77,91.26,137,70,138.42,71.85Z"/><path class="cls-5" d="M125.48,105.45a.8.8,0,0,1-.45-.14c-1.09-.76-10.67-7.53-11.25-11.54a2.31,2.31,0,0,1,.46-1.83c.48-.61,5.7-5.88,11-10.85C136,71,137.51,71,138.15,71a1.08,1.08,0,0,1,.82.34l11.75,10.13A.78.78,0,0,1,151,82a16.38,16.38,0,0,1-.91,5c-1.25,3.44-3.59,5.26-6.77,5.27h0l-.54,0c-1.7,1-13.34,8.06-16.66,12.83a.79.79,0,0,1-.5.32ZM138,72.53c-.56.17-2.92,1.4-11.83,9.79-5.37,5-10.37,10.11-10.75,10.58a.8.8,0,0,0-.13.65c.38,2.65,6.85,7.79,10,10,4.26-5.34,16.35-12.46,16.88-12.77a.75.75,0,0,1,.46-.11l.66,0h0c2.5,0,4.29-1.43,5.31-4.24a14.71,14.71,0,0,0,.8-4.15Z"/><path class="cls-8" d="M191.15,65.16a.92.92,0,0,1-.67-1.55l10.66-11.33-3.83-4.12a.91.91,0,0,1,0-1.29.92.92,0,0,1,1.3,0l4.42,4.75a.92.92,0,0,1,0,1.25l-11.24,12A.92.92,0,0,1,191.15,65.16Z"/><path class="cls-8" d="M146.83,75.2a.92.92,0,0,1-.64-1.57l12.66-12.45a.93.93,0,0,1,1.3,0,.91.91,0,0,1,0,1.29L147.48,74.94A.94.94,0,0,1,146.83,75.2Z"/><g class="cls-9"><path d="M164.22,43.81s8.52,11.13,5.9,15.72l6.55-2.84.87-2.18S167.28,43.15,164.22,43.81Z"/></g><path class="cls-8" d="M187.88,40.93a.92.92,0,0,1-.7-.32,31.79,31.79,0,0,0-13.66-9.73,27,27,0,0,0-12.6-1.15A33.55,33.55,0,0,0,148,34.39a.92.92,0,0,1-1-1.52,35,35,0,0,1,13.7-5,28.81,28.81,0,0,1,13.45,1.24,33.63,33.63,0,0,1,14.45,10.26.92.92,0,0,1-.09,1.29A.94.94,0,0,1,187.88,40.93Z"/><path class="cls-8" d="M184.49,44.31a.92.92,0,0,1-.65-.27l-5.78-5.78a.92.92,0,1,1,1.3-1.3l5.78,5.78a.92.92,0,0,1,0,1.3A.91.91,0,0,1,184.49,44.31Z"/><path class="cls-8" d="M181.65,46.93a.9.9,0,0,1-.64-.27l-5.79-5.79a.91.91,0,0,1,0-1.29.92.92,0,0,1,1.3,0l5.78,5.78a.92.92,0,0,1,0,1.3A.91.91,0,0,1,181.65,46.93Z"/><g class="cls-10"><path class="cls-8" d="M117.58,93.7a.43.43,0,0,1-.31-.14.42.42,0,0,1,0-.6l20.08-18.12a.44.44,0,0,1,.57,0l3.71,3.27a.43.43,0,0,1,0,.6.41.41,0,0,1-.59,0l-3.43-3L117.86,93.59A.43.43,0,0,1,117.58,93.7Z"/></g><g class="cls-9"><path d="M125,102.5a.5.5,0,0,1-.37-.17.5.5,0,0,1,.05-.7s3.77-3.21,7.72-6.26c7.76-6,9.16-6,9.7-5.86.65,0,5.55-.4,5.55-6.49a.5.5,0,1,1,1,0c0,7.39-6.54,7.48-6.61,7.48a.35.35,0,0,1-.14,0c-.19,0-1.52,0-8.91,5.69-3.92,3-7.62,6.19-7.66,6.22A.47.47,0,0,1,125,102.5Z"/></g><g class="cls-11"><path class="cls-8" d="M168.26,24.15a.89.89,0,0,1-.53-.18L136.91,1.66A.92.92,0,0,1,136.7.38.92.92,0,0,1,138,.17L168.8,22.49a.92.92,0,0,1-.54,1.66Z"/></g><g class="cls-11"><path class="cls-8" d="M145.41,23.19a.9.9,0,0,1-.54-.18L128.1,10.87a.92.92,0,1,1,1.07-1.49L146,21.53a.92.92,0,0,1-.54,1.66Z"/></g><g class="cls-11"><path class="cls-8" d="M126.27,9.28a.89.89,0,0,1-.54-.17l-3.64-2.64A.91.91,0,1,1,123.16,5l3.64,2.63a.92.92,0,0,1-.53,1.66Z"/></g><g class="cls-11"><path class="cls-8" d="M144.63,13.91a.9.9,0,0,1-.54-.18L135.48,7.5A.92.92,0,0,1,136.55,6l8.62,6.24a.92.92,0,0,1-.54,1.66Z"/></g><g class="cls-11"><path class="cls-8" d="M134,6.27a.92.92,0,0,1-.54-.18L131.91,5A.92.92,0,0,1,133,3.5l1.53,1.11a.91.91,0,0,1,.2,1.28A.94.94,0,0,1,134,6.27Z"/></g><path class="cls-12" d="M17.18,48.1v73A7.86,7.86,0,0,0,25,128.93H125.85V62.69A7.85,7.85,0,0,0,118,54.84H75.08A8.57,8.57,0,0,1,69,52.32l-9.58-9.58a8.65,8.65,0,0,0-6.1-2.52l-28.3,0A7.85,7.85,0,0,0,17.18,48.1Z"/><path class="cls-13" d="M92.9,54.93,21.74,126.09A1.81,1.81,0,0,0,23,129.18H47.9l74.63-74.63Z"/><path class="cls-3" d="M125.85,128.93l.67-66.16a7.86,7.86,0,0,0-7.85-7.93H75a8.59,8.59,0,0,1-6.09-2.52l-9.54-9.54a8.61,8.61,0,0,0-6.09-2.52H25a7.85,7.85,0,0,0-7.85,7.85v73A7.86,7.86,0,0,0,25,128.93H143.6"/></svg>