<svg id="Capa_1" data-name="Capa 1" xmlns="http://www.w3.org/2000/svg" viewBox="0 0 197.91 132.67"><defs><style>.cls-1{opacity:0.1;}.cls-2{fill:#f4aa78;}.cls-3{fill:none;stroke:#000;stroke-miterlimit:10;}.cls-10,.cls-4{fill:#dfdbd4;}.cls-4{fill-rule:evenodd;}.cls-5{fill:#332814;}.cls-6{fill:#fff;}.cls-7{fill:#f0b823;}.cls-8{fill:#bb8e24;}.cls-9{opacity:0.3;}.cls-11{fill:#f7d677;}.cls-12{fill:#f6cf64;}</style></defs><title>otras cosas</title><ellipse class="cls-1" cx="96" cy="115.17" rx="96" ry="17.5"/><path class="cls-2" d="M18.62,30.67V26.11A9.11,9.11,0,0,1,27.73,17H53.15a7.65,7.65,0,0,1,5.41,2.25l9.65,9.65a7.7,7.7,0,0,0,5.42,2.24h53.55a9.11,9.11,0,0,1,9.11,9.11v74.92H116.43Z"/><path class="cls-3" d="M18.62,26.5v-.39A9.11,9.11,0,0,1,27.73,17H52.62A7.63,7.63,0,0,1,58,19.25l9.68,9.68a7.7,7.7,0,0,0,5.42,2.24h54.05a9.11,9.11,0,0,1,9.11,9.11v74.89"/><polygon class="cls-4" points="191.97 19.37 196.2 15.38 187.29 5.94 183.3 1.71 179.08 5.7 169.63 14.6 173.61 18.83 183.06 9.92 191.97 19.37"/><path class="cls-5" d="M183.3,1.71l4,4.23,8.91,9.44-4.23,4-8.91-9.45-9.45,8.91-4-4.23,9.45-8.91,4.22-4m0-1.71a1.72,1.72,0,0,0-1.17.47l-4.23,4-9.44,8.91a1.71,1.71,0,0,0-.07,2.42l4,4.22a1.7,1.7,0,0,0,1.24.54,1.73,1.73,0,0,0,1.18-.47l8.2-7.73,7.74,8.2a1.68,1.68,0,0,0,1.24.54,1.71,1.71,0,0,0,1.17-.47l4.23-4a1.71,1.71,0,0,0,.07-2.42l-8.91-9.45-4-4.22a1.7,1.7,0,0,0-1.2-.54Z"/><path class="cls-6" d="M192.43,13.52a.46.46,0,0,0,.29-.11.44.44,0,0,0,0-.61l-9.13-9.68a.39.39,0,0,0-.29-.13.43.43,0,0,0-.31.12l-5.89,5.55a.42.42,0,0,0,0,.6.43.43,0,0,0,.6,0L183.29,4l8.83,9.37A.42.42,0,0,0,192.43,13.52Z"/><path class="cls-7" d="M123,22.16h1.51a7.06,7.06,0,0,1,7.06,7.06v53.4a0,0,0,0,1,0,0H115.89a0,0,0,0,1,0,0V29.23A7.06,7.06,0,0,1,123,22.16Z" transform="translate(257.94 57.85) rotate(159.37)"/><path class="cls-8" d="M110,38.15a13.77,13.77,0,0,0,14.82-5.25l-.39-.77-5,3.27s-5.17,1.6-5.47,1.6-4.91-.47-4.91-.47Z"/><path class="cls-5" d="M120.37,21.35l18.55,49.27a7.82,7.82,0,0,1-4.56,10.07h0a7.82,7.82,0,0,1-10.07-4.56L105.74,26.85l14.63-5.5m0-1.71a1.56,1.56,0,0,0-.6.11l-14.63,5.5a1.72,1.72,0,0,0-1,2.21l18.55,49.27a9.51,9.51,0,0,0,8.91,6.17,9.65,9.65,0,0,0,3.36-.61A9.54,9.54,0,0,0,140.52,70L122,20.74a1.73,1.73,0,0,0-.89-.95,1.78,1.78,0,0,0-.71-.15Z"/><g class="cls-9"><path class="cls-6" d="M137,71.06a.76.76,0,0,0,.21,0,.6.6,0,0,0,.35-.77L124.34,35.08a.6.6,0,1,0-1.12.42l13.24,35.18A.59.59,0,0,0,137,71.06Z"/></g><rect class="cls-7" x="136.36" y="-2.7" width="13.58" height="49.64" transform="translate(165.27 -121.03) rotate(90)"/><path class="cls-5" d="M118.33,15.33H168V28.91H118.33V15.33m0-1.71a1.72,1.72,0,0,0-1.71,1.71V28.91a1.71,1.71,0,0,0,1.71,1.71H168a1.71,1.71,0,0,0,1.71-1.71V15.33A1.72,1.72,0,0,0,168,13.62Z"/><rect class="cls-8" x="163.03" y="15.34" width="0.94" height="13.58" transform="translate(327 44.25) rotate(-180)"/><path class="cls-8" d="M127.12,28.91a13.89,13.89,0,0,0-2.06-13.58h-1.57l1.11,2,1,3.63.14,6.15-.14,1.82Z"/><g class="cls-9"><path class="cls-6" d="M161.38,17.13H127.83a.6.6,0,1,1,0-1.2h33.55a.6.6,0,0,1,0,1.2Z"/></g><polygon class="cls-4" points="191.97 26.88 196.2 30.86 187.29 40.31 183.3 44.54 179.08 40.55 169.63 31.65 173.61 27.42 183.06 36.33 191.97 26.88"/><path class="cls-5" d="M192,26.88l4.23,4-8.91,9.45-4,4.23-4.22-4-9.45-8.9,4-4.23,9.45,8.91L192,26.88m0-1.71a1.68,1.68,0,0,0-1.24.54L183,33.91l-8.2-7.73a1.73,1.73,0,0,0-1.18-.47,1.7,1.7,0,0,0-1.24.54l-4,4.22a1.71,1.71,0,0,0,.07,2.42l9.44,8.91,4.23,4a1.72,1.72,0,0,0,1.17.47h0a1.7,1.7,0,0,0,1.2-.54l4-4.22L197.44,32a1.71,1.71,0,0,0-.07-2.42l-4.23-4a1.71,1.71,0,0,0-1.17-.47Z"/><path class="cls-6" d="M183.3,43.26h0a.39.39,0,0,0,.29-.13l9.13-9.68a.44.44,0,0,0,0-.61.43.43,0,0,0-.6,0l-8.83,9.37L177.71,37a.43.43,0,0,0-.6,0,.42.42,0,0,0,0,.6L183,43.14A.4.4,0,0,0,183.3,43.26Z"/><rect class="cls-7" x="165.53" y="10.73" width="8.2" height="22.78" rx="3.71" ry="3.71" transform="translate(339.26 44.25) rotate(-180)"/><path class="cls-5" d="M167.46,10.73h4.33a1.94,1.94,0,0,1,1.94,1.94V31.58a1.93,1.93,0,0,1-1.94,1.93h-4.33a1.93,1.93,0,0,1-1.93-1.93V12.67a1.94,1.94,0,0,1,1.93-1.94m0-1.71a3.65,3.65,0,0,0-3.64,3.65V31.58a3.64,3.64,0,0,0,3.64,3.64h4.33a3.65,3.65,0,0,0,3.65-3.64V12.67A3.66,3.66,0,0,0,171.79,9Z"/><g class="cls-9"><path class="cls-6" d="M166.9,31a.6.6,0,0,1-.6-.6V12.31a.59.59,0,0,1,.6-.59h4.55a.59.59,0,0,1,.6.59.6.6,0,0,1-.6.6h-4V30.37A.59.59,0,0,1,166.9,31Z"/></g><rect class="cls-7" x="105.44" y="74.39" width="49.89" height="10.94" transform="translate(260.77 159.72) rotate(-180)"/><path class="cls-5" d="M105.44,74.39h49.89V85.33H105.44V74.39m0-1.71a1.72,1.72,0,0,0-1.71,1.71V85.33A1.72,1.72,0,0,0,105.44,87h49.89A1.71,1.71,0,0,0,157,85.33V74.39a1.71,1.71,0,0,0-1.71-1.71Z"/><g class="cls-9"><path class="cls-6" d="M106.64,84.56a.6.6,0,0,0,.6-.6v-7.6H153.4a.6.6,0,0,0,0-1.2H106.64a.6.6,0,0,0-.6.6V84A.6.6,0,0,0,106.64,84.56Z"/></g><circle class="cls-10" cx="113.32" cy="24" r="12.15"/><path class="cls-5" d="M113.32,11.86A12.15,12.15,0,1,1,101.17,24a12.14,12.14,0,0,1,12.15-12.14m0-1.71A13.86,13.86,0,1,0,127.17,24a13.87,13.87,0,0,0-13.85-13.85Z"/><path class="cls-6" d="M102.42,24.43a.43.43,0,0,0,.43-.43,10.48,10.48,0,0,1,10.47-10.46.43.43,0,0,0,0-.86A11.33,11.33,0,0,0,102,24,.42.42,0,0,0,102.42,24.43Z"/><path class="cls-6" d="M113.32,35.32A11.34,11.34,0,0,0,124.64,24a.43.43,0,0,0-.86,0,10.48,10.48,0,0,1-10.46,10.47.43.43,0,1,0,0,.85Z"/><path class="cls-11" d="M10,34.34v73a7.84,7.84,0,0,0,7.84,7.85H118.62V48.93a7.84,7.84,0,0,0-7.84-7.84H67.85a8.61,8.61,0,0,1-6.08-2.52L52.19,29a8.65,8.65,0,0,0-6.09-2.52l-28.3,0A7.85,7.85,0,0,0,10,34.34Z"/><path class="cls-12" d="M85.68,41.17,14.51,112.34a1.8,1.8,0,0,0,1.28,3.08H40.68L115.3,40.79Z"/><path class="cls-3" d="M118.62,115.17,119.29,49a7.84,7.84,0,0,0-7.84-7.92H67.77a8.61,8.61,0,0,1-6.08-2.52L52.14,29a8.61,8.61,0,0,0-6.08-2.52H17.8A7.85,7.85,0,0,0,10,34.35v73a7.84,7.84,0,0,0,7.84,7.85H136.37"/></svg>