<svg id="Capa_1" data-name="Capa 1" xmlns="http://www.w3.org/2000/svg" viewBox="0 0 192 124.29"><defs><style>.cls-1{opacity:0.1;}.cls-2{fill:#f4aa78;}.cls-3{fill:none;stroke:#000;stroke-miterlimit:10;}.cls-4{fill:#46bee3;}.cls-5{fill:#00262c;}.cls-6{fill:#92d2e8;}.cls-7{fill:#d5d5d5;}.cls-8{fill:#e5e5e5;}.cls-9{fill:#bbd1d2;}.cls-10{opacity:0.2;}.cls-11{fill:#010202;}.cls-12{fill:#fff;}.cls-13{fill:#33b6ba;}.cls-14{fill:#333;}.cls-15{fill:#04868d;}.cls-16{fill:#b4a2a2;}.cls-17{fill:#bce1ea;}.cls-18{fill:#d0eaf1;}.cls-19{fill:#f7d677;}.cls-20{fill:#f6cf64;}</style></defs><title>otras cosas</title><ellipse class="cls-1" cx="96" cy="106.79" rx="96" ry="17.5"/><path class="cls-2" d="M28.85,21.46V16.9A9.11,9.11,0,0,1,38,7.79H63.37A7.66,7.66,0,0,1,68.78,10l9.66,9.66a7.66,7.66,0,0,0,5.41,2.24H137.4A9.11,9.11,0,0,1,146.51,31V106H126.65Z"/><path class="cls-3" d="M28.85,17.29V16.9A9.11,9.11,0,0,1,38,7.79H62.84A7.7,7.7,0,0,1,68.26,10l9.68,9.68A7.63,7.63,0,0,0,83.35,22H137.4a9.11,9.11,0,0,1,9.11,9.11V106"/><path class="cls-4" d="M183.87,71.43a2.18,2.18,0,0,1-2.21,2.15H93.46a2.18,2.18,0,0,1-2.21-2.15V3A2.18,2.18,0,0,1,93.46.85h88.2A2.18,2.18,0,0,1,183.87,3Z"/><path class="cls-5" d="M181.66,74.43H93.46a3.06,3.06,0,0,1-3.11-3V3a3.05,3.05,0,0,1,3.11-3h88.2a3.05,3.05,0,0,1,3.11,3V71.43A3.06,3.06,0,0,1,181.66,74.43ZM93.46,1.69A1.31,1.31,0,0,0,92.16,3V71.43a1.3,1.3,0,0,0,1.3,1.3h88.2a1.3,1.3,0,0,0,1.3-1.3V3a1.31,1.31,0,0,0-1.3-1.31Z"/><path class="cls-6" d="M129.26,16.15a2.46,2.46,0,0,1-2.53-2.37,2.54,2.54,0,0,1,5.07,0A2.46,2.46,0,0,1,129.26,16.15Zm0-3a.68.68,0,1,0,0,1.36.68.68,0,1,0,0-1.36Z"/><path class="cls-6" d="M117.8,61.36a2.13,2.13,0,1,1,2.27-2.13A2.21,2.21,0,0,1,117.8,61.36Zm0-3a.92.92,0,1,0,1,.92A1,1,0,0,0,117.8,58.31Z"/><path class="cls-6" d="M120.35,66.64a2.13,2.13,0,1,1,2.27-2.13A2.21,2.21,0,0,1,120.35,66.64Zm0-3a.92.92,0,1,0,1,.92A1,1,0,0,0,120.35,63.59Z"/><path class="cls-6" d="M136.36,24.66a2.38,2.38,0,1,1,2.54-2.37A2.45,2.45,0,0,1,136.36,24.66Zm0-3.05a.68.68,0,1,0,0,1.36.68.68,0,1,0,0-1.36Z"/><path class="cls-6" d="M134.72,11.89a2.46,2.46,0,0,1-2.53-2.37,2.54,2.54,0,0,1,5.07,0A2.46,2.46,0,0,1,134.72,11.89Zm0-3a.68.68,0,1,0,0,1.35.68.68,0,1,0,0-1.35Z"/><path class="cls-6" d="M158.57,11A2.46,2.46,0,0,1,156,8.67a2.54,2.54,0,0,1,5.07,0A2.46,2.46,0,0,1,158.57,11Zm0-3a.68.68,0,1,0,.72.68A.7.7,0,0,0,158.57,8Z"/><path class="cls-6" d="M155.65,14.28a2.46,2.46,0,0,1-2.53-2.37,2.54,2.54,0,0,1,5.07,0A2.47,2.47,0,0,1,155.65,14.28Zm0-3a.68.68,0,1,0,.73.68A.7.7,0,0,0,155.65,11.23Z"/><path class="cls-6" d="M160.2,32.59a2.13,2.13,0,1,1,2.28-2.13A2.2,2.2,0,0,1,160.2,32.59Zm0-3.05a.92.92,0,1,0,1,.92A1,1,0,0,0,160.2,29.54Z"/><path class="cls-6" d="M160.56,37a2.13,2.13,0,1,1,2.28-2.13A2.21,2.21,0,0,1,160.56,37Zm0-3.05a.92.92,0,1,0,1,.92A1,1,0,0,0,160.56,34Z"/><path class="cls-6" d="M99.43,56.68a.63.63,0,0,1-.65-.61V45.86a.59.59,0,0,1,.16-.4l5.36-5.79a.66.66,0,0,1,.49-.2h9.28V35.81a.65.65,0,0,1,1.3,0v4.26a.63.63,0,0,1-.65.6h-9.63l-5,5.41v10A.63.63,0,0,1,99.43,56.68Z"/><path class="cls-6" d="M101.8,56.68a.63.63,0,0,1-.65-.61V45.86a.59.59,0,0,1,.14-.38l3.4-3.95a.66.66,0,0,1,.5-.23l11.25-.07V35.81a.65.65,0,0,1,1.29,0v6a.62.62,0,0,1-.64.6l-11.58.08-3.06,3.56v10A.63.63,0,0,1,101.8,56.68Z"/><path class="cls-6" d="M104.35,57.16a.63.63,0,0,1-.65-.6V46.34a.59.59,0,0,1,.16-.39l2-2.16a.63.63,0,0,1,.48-.21L119,43.49V36.3a.65.65,0,0,1,1.29,0v7.79a.62.62,0,0,1-.64.61l-13,.09L105,46.57v10A.62.62,0,0,1,104.35,57.16Z"/><path class="cls-6" d="M154,13.59H138.44a.63.63,0,0,1-.46-.18l-2.19-2.05a.58.58,0,0,1,0-.85.67.67,0,0,1,.91,0l2,1.87H154a.61.61,0,1,1,0,1.21Z"/><path class="cls-6" d="M137.37,21.6a.64.64,0,0,1-.45-.18.56.56,0,0,1,0-.85l2.62-2.46a.69.69,0,0,1,.46-.17h17a.62.62,0,0,1,.64.6.63.63,0,0,1-.64.61H140.27l-2.44,2.27A.67.67,0,0,1,137.37,21.6Z"/><path class="cls-6" d="M157,17.45H132.06a.65.65,0,0,1-.46-.18l-1.81-1.69a.57.57,0,0,1,0-.86.67.67,0,0,1,.91,0l1.62,1.52H157a.61.61,0,1,1,0,1.21Z"/><path class="cls-6" d="M148.3,42.55a.63.63,0,0,1-.65-.6V35.66a.61.61,0,0,1,.37-.55l10.44-4.6a.67.67,0,0,1,.86.29.6.6,0,0,1-.31.81L149,36V42A.63.63,0,0,1,148.3,42.55Z"/><path class="cls-6" d="M151,42.27a.63.63,0,0,1-.65-.6v-4.6a.61.61,0,0,1,.41-.57l8.23-3a.67.67,0,0,1,.84.34.6.6,0,0,1-.37.79l-7.82,2.85v4.19A.62.62,0,0,1,151,42.27Z"/><path class="cls-6" d="M120.9,63.86a.59.59,0,0,1-.29-.07.57.57,0,0,1-.28-.81l5.21-9.67a.67.67,0,0,1,.58-.33H140a.61.61,0,1,1,0,1.21H126.52l-5,9.34A.65.65,0,0,1,120.9,63.86Z"/><path class="cls-6" d="M118.59,58.51a.7.7,0,0,1-.41-.14.58.58,0,0,1-.08-.85l5.62-6.38a.64.64,0,0,1,.49-.22h16.06a.63.63,0,0,1,.65.6.63.63,0,0,1-.65.61H124.52l-5.43,6.16A.67.67,0,0,1,118.59,58.51Z"/><path class="cls-6" d="M140.15,43.85h-7.3a.62.62,0,0,1-.64-.6V31l-8.1-7.57a.58.58,0,0,1,0-.85.68.68,0,0,1,.92,0l8.28,7.75a.57.57,0,0,1,.19.42V42.64h6.65a.61.61,0,1,1,0,1.21Z"/><path class="cls-6" d="M140.15,46H130.6a.62.62,0,0,1-.64-.6V32.68L123.89,27a.58.58,0,0,1,0-.85.68.68,0,0,1,.92,0L131.06,32a.57.57,0,0,1,.19.42V44.76h8.9a.61.61,0,1,1,0,1.21Z"/><path class="cls-6" d="M139.93,47.75H128.3a.63.63,0,0,1-.65-.6v-12l-4-3.72a.59.59,0,0,1,0-.86.7.7,0,0,1,.92,0l4.17,3.9a.61.61,0,0,1,.19.43V46.54h11a.61.61,0,1,1,0,1.21Z"/><polygon class="cls-6" points="160.77 13.58 160 13.58 160 11.28 162.19 9.22 162.19 5.37 162.97 5.37 162.97 9.52 160.77 11.58 160.77 13.58"/><polygon class="cls-6" points="162.34 13.58 161.56 13.58 161.56 11.28 163.76 9.22 163.76 5.37 164.54 5.37 164.54 9.52 162.34 11.58 162.34 13.58"/><polygon class="cls-6" points="163.73 13.58 162.96 13.58 162.96 11.28 165.15 9.22 165.15 5.37 165.93 5.37 165.93 9.52 163.73 11.58 163.73 13.58"/><path class="cls-6" d="M165.65,43.42a.5.5,0,0,1-.51-.48v-14l-5.62-2.24a.47.47,0,0,1-.31-.44V21a.52.52,0,0,1,1,0v4.92l5.62,2.23a.49.49,0,0,1,.31.45V42.94A.5.5,0,0,1,165.65,43.42Z"/><path class="cls-6" d="M167,43.52a.5.5,0,0,1-.52-.48V27.87l-5.37-1.93a.48.48,0,0,1-.33-.45V21.07a.52.52,0,0,1,1,0v4.09l5.38,1.93a.48.48,0,0,1,.33.45V43A.5.5,0,0,1,167,43.52Z"/><path class="cls-6" d="M162.54,72.9a.75.75,0,0,1-.78-.72v-3.6a.73.73,0,0,1,.23-.51l4.27-4V62.32a.78.78,0,0,1,1.56,0v2.06a.73.73,0,0,1-.23.51l-4.27,4v3.3A.75.75,0,0,1,162.54,72.9Z"/><path class="cls-6" d="M165.72,72.9a.74.74,0,0,1-.77-.72v-3.6a.72.72,0,0,1,.22-.51l4.28-4V62.32a.74.74,0,0,1,.77-.72.75.75,0,0,1,.78.72v2.06a.69.69,0,0,1-.23.51l-4.27,4v3.3A.75.75,0,0,1,165.72,72.9Z"/><path class="cls-6" d="M168.58,72.9a.75.75,0,0,1-.78-.72v-3.6a.69.69,0,0,1,.23-.51l4.27-4V62.32a.78.78,0,0,1,1.55,0v2.06a.69.69,0,0,1-.23.51l-4.27,4v3.3A.75.75,0,0,1,168.58,72.9Z"/><path class="cls-6" d="M171.61,72.9a.74.74,0,0,1-.77-.72v-3.6a.72.72,0,0,1,.22-.51l4.28-4V62.32a.74.74,0,0,1,.77-.72.75.75,0,0,1,.78.72v2.06a.69.69,0,0,1-.23.51l-4.27,4v3.3A.75.75,0,0,1,171.61,72.9Z"/><path class="cls-6" d="M174.25,72.9a.75.75,0,0,1-.78-.72v-3.6a.69.69,0,0,1,.23-.51l4.27-4V62.32a.75.75,0,0,1,.78-.72.74.74,0,0,1,.77.72v2.06a.72.72,0,0,1-.22.51l-4.28,4v3.3A.74.74,0,0,1,174.25,72.9Z"/><path class="cls-7" d="M158.5,45a.51.51,0,0,1-.53.5H153.2a.51.51,0,0,1-.53-.5h0a.51.51,0,0,1,.53-.49H158a.51.51,0,0,1,.53.49Z"/><path class="cls-8" d="M158,45.6H153.2a.64.64,0,0,1-.65-.62.63.63,0,0,1,.65-.61H158a.64.64,0,0,1,.66.61A.65.65,0,0,1,158,45.6Zm-4.77-1a.38.38,0,1,0,0,.75H158a.38.38,0,1,0,0-.75Z"/><path class="cls-7" d="M158.5,46.58a.51.51,0,0,1-.53.5H153.2a.51.51,0,0,1-.53-.5h0a.51.51,0,0,1,.53-.49H158a.51.51,0,0,1,.53.49Z"/><path class="cls-8" d="M158,47.2H153.2a.64.64,0,0,1-.65-.62.63.63,0,0,1,.65-.61H158a.64.64,0,0,1,.66.61A.65.65,0,0,1,158,47.2Zm-4.77-1a.38.38,0,1,0,0,.75H158a.38.38,0,1,0,0-.75Z"/><path class="cls-7" d="M158.5,48.54a.51.51,0,0,1-.53.5H153.2a.51.51,0,0,1-.53-.5h0a.51.51,0,0,1,.53-.49H158a.51.51,0,0,1,.53.49Z"/><path class="cls-8" d="M158,49.16H153.2a.64.64,0,0,1-.65-.62.63.63,0,0,1,.65-.61H158a.64.64,0,0,1,.66.61A.65.65,0,0,1,158,49.16Zm-4.77-1a.38.38,0,1,0,0,.75H158a.38.38,0,1,0,0-.75Z"/><path class="cls-7" d="M158.5,50.41a.51.51,0,0,1-.53.5H153.2a.51.51,0,0,1-.53-.5h0a.51.51,0,0,1,.53-.49H158a.51.51,0,0,1,.53.49Z"/><path class="cls-8" d="M158,51H153.2a.64.64,0,0,1-.65-.62.63.63,0,0,1,.65-.61H158a.64.64,0,0,1,.66.61A.65.65,0,0,1,158,51Zm-4.77-1a.38.38,0,1,0,0,.75H158a.38.38,0,1,0,0-.75Z"/><path class="cls-7" d="M143.6,36.78a.52.52,0,0,1,.53.5v4.46a.51.51,0,0,1-.53.49h0a.51.51,0,0,1-.53-.49V37.28a.51.51,0,0,1,.53-.5Z"/><path class="cls-8" d="M143.6,42.35a.63.63,0,0,1-.66-.61V37.28a.66.66,0,0,1,1.31,0v4.46A.63.63,0,0,1,143.6,42.35Zm0-5.44a.38.38,0,0,0-.4.37v4.46a.4.4,0,0,0,.8,0V37.28A.38.38,0,0,0,143.6,36.91Z"/><path class="cls-7" d="M145.5,36.61a.51.51,0,0,1,.53.5v4.46a.51.51,0,0,1-.53.49h0a.51.51,0,0,1-.53-.49V37.11a.51.51,0,0,1,.53-.5Z"/><path class="cls-8" d="M145.5,42.18a.64.64,0,0,1-.66-.61V37.11a.66.66,0,0,1,1.32,0v4.46A.64.64,0,0,1,145.5,42.18Zm0-5.45a.39.39,0,0,0-.4.38v4.46a.4.4,0,0,0,.8,0V37.11A.39.39,0,0,0,145.5,36.73Z"/><path class="cls-7" d="M148,36.78a.51.51,0,0,1,.53.5v4.46a.51.51,0,0,1-.53.49h0a.51.51,0,0,1-.53-.49V37.28a.52.52,0,0,1,.53-.5Z"/><path class="cls-8" d="M148,42.35a.64.64,0,0,1-.66-.61V37.28a.66.66,0,0,1,1.32,0v4.46A.63.63,0,0,1,148,42.35Zm0-5.44a.38.38,0,0,0-.4.37v4.46a.4.4,0,0,0,.8,0V37.28A.38.38,0,0,0,148,36.91Z"/><path class="cls-7" d="M147.74,53.36a.51.51,0,0,1,.53.49v4.46a.51.51,0,0,1-.53.5h0a.51.51,0,0,1-.53-.5V53.85a.51.51,0,0,1,.53-.49Z"/><path class="cls-8" d="M147.74,58.93a.64.64,0,0,1-.66-.62V53.85a.66.66,0,0,1,1.31,0v4.46A.64.64,0,0,1,147.74,58.93Zm0-5.45a.38.38,0,0,0-.4.37v4.46a.38.38,0,0,0,.4.38.39.39,0,0,0,.4-.38V53.85A.39.39,0,0,0,147.74,53.48Z"/><path class="cls-7" d="M145.4,53.36a.51.51,0,0,1,.53.49v4.46a.51.51,0,0,1-.53.5h0a.51.51,0,0,1-.53-.5V53.85a.51.51,0,0,1,.53-.49Z"/><path class="cls-8" d="M145.4,58.93a.64.64,0,0,1-.65-.62V53.85a.66.66,0,0,1,1.31,0v4.46A.64.64,0,0,1,145.4,58.93Zm0-5.45a.39.39,0,0,0-.4.37v4.46a.39.39,0,0,0,.4.38.38.38,0,0,0,.4-.38V53.85A.38.38,0,0,0,145.4,53.48Z"/><path class="cls-7" d="M143,52.5a.51.51,0,0,1,.53.5v4.45a.51.51,0,0,1-.53.5h0a.51.51,0,0,1-.53-.5V53a.51.51,0,0,1,.53-.5Z"/><path class="cls-8" d="M143,58.07a.65.65,0,0,1-.66-.62V53a.66.66,0,0,1,1.32,0v4.45A.65.65,0,0,1,143,58.07Zm0-5.45a.39.39,0,0,0-.4.38v4.45a.4.4,0,0,0,.8,0V53A.39.39,0,0,0,143,52.62Z"/><path class="cls-7" d="M150.22,52.67a.51.51,0,0,1,.53.5v4.46a.51.51,0,0,1-.53.49h0a.51.51,0,0,1-.53-.49V53.17a.51.51,0,0,1,.53-.5Z"/><path class="cls-8" d="M150.22,58.24a.63.63,0,0,1-.66-.61V53.17a.66.66,0,0,1,1.32,0v4.46A.64.64,0,0,1,150.22,58.24Zm0-5.45a.39.39,0,0,0-.4.38v4.46a.4.4,0,0,0,.8,0V53.17A.39.39,0,0,0,150.22,52.79Z"/><rect class="cls-6" x="141.12" y="8.06" width="15.81" height="1.21"/><path class="cls-9" d="M88.77,21.78a1.42,1.42,0,0,0,1.34,1.49h0a1.42,1.42,0,0,0,1.35-1.49V18.35a1.42,1.42,0,0,0-1.35-1.49h0a1.42,1.42,0,0,0-1.34,1.49Z"/><path class="cls-5" d="M90.11,23.87a2,2,0,0,1-2-2.09V18.35a2,2,0,1,1,4,0v3.43A2.05,2.05,0,0,1,90.11,23.87Zm0-6.4a.81.81,0,0,0-.7.88v3.43a.72.72,0,1,0,1.41,0V18.35A.82.82,0,0,0,90.11,17.47Z"/><g class="cls-10"><path class="cls-11" d="M165.46,1.4l2.16,7.78h-39.8L122.45,5.3Z"/><path d="M167.63,9.55H127.82a.41.41,0,0,1-.24-.08l-5.36-3.89a.34.34,0,0,1-.14-.38.38.38,0,0,1,.34-.26l43-3.9a.39.39,0,0,1,.42.27L168,9a.23.23,0,0,1,0,.14A.39.39,0,0,1,167.63,9.55ZM128,8.82h39.17l-2-7-41.7,3.78Z"/></g><path class="cls-9" d="M88.77,27.2a1.42,1.42,0,0,0,1.34,1.49h0a1.42,1.42,0,0,0,1.35-1.49V23.77a1.42,1.42,0,0,0-1.35-1.49h0a1.42,1.42,0,0,0-1.34,1.49Z"/><path class="cls-5" d="M90.11,29.29a2,2,0,0,1-2-2.09V23.77a2,2,0,1,1,4,0V27.2A2.05,2.05,0,0,1,90.11,29.29Zm0-6.4a.81.81,0,0,0-.7.88V27.2a.72.72,0,1,0,1.41,0V23.77A.82.82,0,0,0,90.11,22.89Z"/><path class="cls-9" d="M88.77,32.8a1.42,1.42,0,0,0,1.34,1.49h0a1.42,1.42,0,0,0,1.35-1.49V29.37a1.42,1.42,0,0,0-1.35-1.49h0a1.42,1.42,0,0,0-1.34,1.49Z"/><path class="cls-5" d="M90.11,34.89a2,2,0,0,1-2-2.09V29.37a2,2,0,1,1,4,0V32.8A2.05,2.05,0,0,1,90.11,34.89Zm0-6.4a.81.81,0,0,0-.7.88V32.8a.72.72,0,1,0,1.41,0V29.37A.82.82,0,0,0,90.11,28.49Z"/><g class="cls-10"><polygon class="cls-11" points="169.21 32.54 183.3 42.6 183.19 32.34 169.21 32.54"/><path d="M183.3,43a.43.43,0,0,1-.24-.08L169,32.82a.35.35,0,0,1-.13-.4.41.41,0,0,1,.36-.25l14-.19a.4.4,0,0,1,.28.1.36.36,0,0,1,.11.26l.11,10.26a.37.37,0,0,1-.22.33A.47.47,0,0,1,183.3,43Zm-13-10.09,12.57,9-.09-9.16Z"/></g><g class="cls-10"><polygon class="cls-11" points="164.01 64.57 170.73 70.86 183.28 70.86 183.4 64.56 164.01 64.57"/><path d="M183.27,71.22H170.73a.39.39,0,0,1-.27-.11l-6.73-6.29a.34.34,0,0,1-.08-.39.39.39,0,0,1,.36-.23h19.38a.39.39,0,0,1,.28.11.36.36,0,0,1,.11.26l-.12,6.29A.37.37,0,0,1,183.27,71.22Zm-12.38-.72h12l.11-5.58H164.94Z"/></g><g class="cls-10"><polygon class="cls-11" points="136.42 31.74 138.76 33.93 156.91 33.5 155.94 29.25 136.42 30.5 136.42 31.74"/><path d="M138.76,34.29a.43.43,0,0,1-.28-.11L136.15,32a.34.34,0,0,1-.12-.26V30.5a.38.38,0,0,1,.36-.36l19.53-1.25a.38.38,0,0,1,.4.29l1,4.25a.34.34,0,0,1-.07.3.45.45,0,0,1-.3.14l-18.14.42Zm-1.95-2.7,2.11,2,17.51-.41-.8-3.52-18.82,1.21Z"/></g><path class="cls-12" d="M135.56,28.7a1.05,1.05,0,0,1-1.09,1h0a1.05,1.05,0,0,1-1.09-1V27.54a1.06,1.06,0,0,1,1.09-1h0a1.06,1.06,0,0,1,1.09,1Z"/><path class="cls-8" d="M134.47,29.84a1.18,1.18,0,0,1-1.22-1.14V27.54a1.22,1.22,0,0,1,2.44,0V28.7A1.18,1.18,0,0,1,134.47,29.84Zm0-3.2a1,1,0,0,0-1,.9V28.7a1,1,0,0,0,1.94,0V27.54A1,1,0,0,0,134.47,26.64Z"/><path class="cls-12" d="M156.22,28.7a1.06,1.06,0,0,1-1.1,1h0a1.05,1.05,0,0,1-1.09-1V27.54a1.06,1.06,0,0,1,1.09-1h0a1.06,1.06,0,0,1,1.1,1Z"/><path class="cls-8" d="M155.12,29.84a1.18,1.18,0,0,1-1.22-1.14V27.54a1.23,1.23,0,0,1,2.45,0V28.7A1.19,1.19,0,0,1,155.12,29.84Zm0-3.2a.94.94,0,0,0-1,.9V28.7a1,1,0,0,0,1.93,0V27.54A1,1,0,0,0,155.12,26.64Z"/><rect class="cls-13" x="164.56" y="43.36" width="20.3" height="20.51"/><path class="cls-5" d="M184.85,64.23H164.56a.38.38,0,0,1-.39-.37V43.36a.37.37,0,0,1,.39-.36h20.29a.37.37,0,0,1,.39.36v20.5A.38.38,0,0,1,184.85,64.23Zm-19.91-.73h19.52V43.72H164.94Z"/><g class="cls-10"><polygon class="cls-14" points="91.72 36.17 93.89 39.56 129.38 39.56 129.38 20.69 124.88 16.48 91.72 36.17"/><path class="cls-14" d="M129.37,39.8H93.89a.25.25,0,0,1-.22-.12L91.5,36.3a.23.23,0,0,1,.08-.33l33.16-19.69a.27.27,0,0,1,.32,0l4.5,4.21a.23.23,0,0,1,.07.17V39.56A.25.25,0,0,1,129.37,39.8ZM94,39.32h35.08V20.79l-4.28-4L92.07,36.25Z"/></g><g class="cls-10"><polygon class="cls-11" points="157.2 20.54 159.36 22.56 165.75 22.56 165.75 15.39 164.23 13.97 157.2 20.54"/><path d="M165.75,22.92h-6.39a.43.43,0,0,1-.28-.11l-2.15-2a.33.33,0,0,1,0-.51l7-6.57a.39.39,0,0,1,.28-.11h0a.39.39,0,0,1,.27.11L166,15.13a.34.34,0,0,1,.12.26v7.17A.38.38,0,0,1,165.75,22.92Zm-6.23-.73h5.84V15.54l-1.13-1.06-6.48,6.06Z"/></g><rect class="cls-15" x="157.2" y="13.51" width="7.51" height="7.02"/><path class="cls-5" d="M164.71,20.9H157.2a.38.38,0,0,1-.39-.36v-7a.38.38,0,0,1,.39-.36h7.51a.38.38,0,0,1,.39.36v7A.38.38,0,0,1,164.71,20.9Zm-7.12-.73h6.73V13.88h-6.73Z"/><g class="cls-10"><polygon class="cls-14" points="107.89 6.19 110.19 10.11 110.19 16.25 107.68 16.25 107.89 6.19"/><path class="cls-14" d="M110.19,16.49h-2.51a.23.23,0,0,1-.18-.07.25.25,0,0,1-.08-.17l.21-10.06a.24.24,0,0,1,.19-.23.26.26,0,0,1,.29.12l2.3,3.91a.28.28,0,0,1,0,.12v6.14A.25.25,0,0,1,110.19,16.49ZM107.94,16h2V10.17l-1.8-3.07Z"/></g><rect class="cls-9" x="97.64" y="6.19" width="10.24" height="9.58"/><path class="cls-5" d="M107.88,16.38H97.64a.63.63,0,0,1-.64-.61V6.19a.62.62,0,0,1,.64-.6h10.24a.63.63,0,0,1,.65.6v9.58A.63.63,0,0,1,107.88,16.38Zm-9.59-1.21h8.95V6.8H98.29Z"/><ellipse class="cls-16" cx="102.78" cy="11.15" rx="2.27" ry="2.12"/><path class="cls-13" d="M124.19,33.48A2.14,2.14,0,0,1,122,35.54H92.57a2.13,2.13,0,0,1-2.2-2.06V18a2.13,2.13,0,0,1,2.2-2.06H122A2.14,2.14,0,0,1,124.19,18Z"/><path class="cls-5" d="M122,35.9H92.57A2.51,2.51,0,0,1,90,33.48V18a2.51,2.51,0,0,1,2.59-2.42H122A2.51,2.51,0,0,1,124.57,18V33.48A2.51,2.51,0,0,1,122,35.9ZM92.57,16.26A1.76,1.76,0,0,0,90.76,18V33.48a1.76,1.76,0,0,0,1.81,1.7H122a1.77,1.77,0,0,0,1.82-1.7V18a1.77,1.77,0,0,0-1.82-1.7Z"/><g class="cls-10"><polygon class="cls-11" points="139.84 53.95 141.28 55.29 154.18 55.29 154.18 43.5 152.72 42.14 139.84 53.95"/><path d="M154.18,55.66h-12.9a.41.41,0,0,1-.28-.11l-1.43-1.35a.32.32,0,0,1-.12-.25.34.34,0,0,1,.12-.26l12.88-11.81a.4.4,0,0,1,.54,0l1.46,1.36a.36.36,0,0,1,.11.26V55.29A.38.38,0,0,1,154.18,55.66Zm-12.74-.73h12.35V43.65l-1.07-1L140.39,54Z"/></g><rect class="cls-15" x="140.2" y="42" width="12.67" height="11.85"/><path class="cls-5" d="M152.87,54.22H140.2a.37.37,0,0,1-.39-.36V42a.37.37,0,0,1,.39-.36h12.67a.38.38,0,0,1,.39.36V53.86A.38.38,0,0,1,152.87,54.22Zm-12.29-.73h11.9V42.37h-11.9Z"/><path class="cls-12" d="M93.31,31.93a.63.63,0,0,1-.65-.6V18.42a.63.63,0,0,1,.65-.6h20.34a.61.61,0,1,1,0,1.21H94v12.3A.62.62,0,0,1,93.31,31.93Z"/><path class="cls-12" d="M166.59,50a.63.63,0,0,1-.65-.6V45.52a.63.63,0,0,1,.65-.61h4a.61.61,0,1,1,0,1.21h-3.32v3.27A.63.63,0,0,1,166.59,50Z"/><path class="cls-12" d="M166.42,54.35a.63.63,0,0,1-.65-.61V51.49a.65.65,0,0,1,1.3,0v2.25A.63.63,0,0,1,166.42,54.35Z"/><path class="cls-12" d="M141.93,50.64a.63.63,0,0,1-.64-.61V43.42a.62.62,0,0,1,.64-.6h4.83a.61.61,0,1,1,0,1.21h-4.18v6A.63.63,0,0,1,141.93,50.64Z"/><rect class="cls-15" x="121.68" y="1.23" width="5.49" height="4.31"/><path class="cls-5" d="M127.17,5.9h-5.49a.37.37,0,0,1-.39-.36V1.23a.37.37,0,0,1,.39-.36h5.49a.37.37,0,0,1,.38.36V5.54A.37.37,0,0,1,127.17,5.9Zm-5.1-.72h4.71V1.59h-4.71Z"/><rect class="cls-15" x="127.17" y="1.23" width="5.49" height="4.31"/><path class="cls-5" d="M132.65,5.9h-5.48a.37.37,0,0,1-.39-.36V1.23a.37.37,0,0,1,.39-.36h5.48a.37.37,0,0,1,.39.36V5.54A.37.37,0,0,1,132.65,5.9Zm-5.1-.72h4.72V1.59h-4.72Z"/><rect class="cls-15" x="132.65" y="1.23" width="5.49" height="4.31"/><path class="cls-5" d="M138.14,5.9h-5.49a.37.37,0,0,1-.38-.36V1.23a.37.37,0,0,1,.38-.36h5.49a.38.38,0,0,1,.39.36V5.54A.38.38,0,0,1,138.14,5.9ZM133,5.18h4.71V1.59H133Z"/><rect class="cls-15" x="138.14" y="1.23" width="5.49" height="4.31"/><path class="cls-5" d="M143.63,5.9h-5.49a.38.38,0,0,1-.39-.36V1.23a.38.38,0,0,1,.39-.36h5.49a.38.38,0,0,1,.39.36V5.54A.38.38,0,0,1,143.63,5.9Zm-5.1-.72h4.71V1.59h-4.71Z"/><rect class="cls-15" x="143.63" y="1.23" width="5.49" height="4.31"/><path class="cls-5" d="M149.12,5.9h-5.49a.37.37,0,0,1-.39-.36V1.23a.37.37,0,0,1,.39-.36h5.49a.37.37,0,0,1,.38.36V5.54A.37.37,0,0,1,149.12,5.9ZM144,5.18h4.71V1.59H144Z"/><rect class="cls-15" x="149.12" y="1.23" width="5.49" height="4.31"/><path class="cls-5" d="M154.6,5.9h-5.48a.37.37,0,0,1-.39-.36V1.23a.37.37,0,0,1,.39-.36h5.48a.37.37,0,0,1,.39.36V5.54A.37.37,0,0,1,154.6,5.9Zm-5.1-.72h4.71V1.59H149.5Z"/><rect class="cls-15" x="154.6" y="1.23" width="5.49" height="4.31"/><path class="cls-5" d="M160.09,5.9H154.6a.38.38,0,0,1-.39-.36V1.23a.38.38,0,0,1,.39-.36h5.49a.38.38,0,0,1,.39.36V5.54A.38.38,0,0,1,160.09,5.9ZM155,5.18h4.71V1.59H155Z"/><rect class="cls-15" x="160.09" y="1.23" width="5.49" height="4.31"/><path class="cls-5" d="M165.58,5.9h-5.49a.38.38,0,0,1-.39-.36V1.23a.38.38,0,0,1,.39-.36h5.49a.38.38,0,0,1,.39.36V5.54A.38.38,0,0,1,165.58,5.9Zm-5.1-.72h4.71V1.59h-4.71Z"/><ellipse class="cls-17" cx="120.27" cy="3.63" rx="2.81" ry="2.63"/><path class="cls-5" d="M120.27,6.63a3.11,3.11,0,0,1-3.2-3,3.21,3.21,0,0,1,6.4,0A3.11,3.11,0,0,1,120.27,6.63Zm0-5.26a2.34,2.34,0,0,0-2.42,2.26,2.42,2.42,0,0,0,4.84,0A2.34,2.34,0,0,0,120.27,1.37Z"/><path class="cls-12" d="M98.74,12a.63.63,0,0,1-.65-.6V7.05a.63.63,0,0,1,.65-.6H102a.61.61,0,1,1,0,1.21H99.38v3.75A.62.62,0,0,1,98.74,12Z"/><path class="cls-12" d="M93.39,34.27a.62.62,0,0,1-.64-.61v-.8a.62.62,0,0,1,.64-.61.63.63,0,0,1,.65.61v.8A.63.63,0,0,1,93.39,34.27Z"/><path class="cls-18" d="M136.75,25.41h15.66s4,1.86,0,5.58H136.75S132.67,29.23,136.75,25.41Z"/><path class="cls-5" d="M152.41,31.59H136.75a.76.76,0,0,1-.27-.05,3.82,3.82,0,0,1-2.14-2.47c-.25-1.27.41-2.64,1.95-4.08a.65.65,0,0,1,.46-.18h15.66a.72.72,0,0,1,.29.06,3.91,3.91,0,0,1,2.08,2.54c.22,1.26-.42,2.61-1.91,4A.65.65,0,0,1,152.41,31.59Zm-15.5-1.21h15.23c1.05-1,1.51-2,1.37-2.78A2.53,2.53,0,0,0,152.24,26H137c-1.08,1.06-1.56,2-1.41,2.84A2.45,2.45,0,0,0,136.91,30.38Z"/><path class="cls-15" d="M185.19,31.28a2.14,2.14,0,0,1-2.2,2.06H170.82a2.14,2.14,0,0,1-2.2-2.06V7.49a2.13,2.13,0,0,1,2.2-2.06H183a2.13,2.13,0,0,1,2.2,2.06Z"/><path class="cls-5" d="M183,33.7H170.82a2.51,2.51,0,0,1-2.59-2.42V7.49a2.51,2.51,0,0,1,2.59-2.42H183a2.51,2.51,0,0,1,2.59,2.42V31.28A2.51,2.51,0,0,1,183,33.7ZM170.82,5.79A1.77,1.77,0,0,0,169,7.49V31.28A1.76,1.76,0,0,0,170.82,33H183a1.76,1.76,0,0,0,1.81-1.69V7.49A1.76,1.76,0,0,0,183,5.79Z"/><path class="cls-12" d="M170.9,11.93a.62.62,0,0,1-.64-.6V6.81a.62.62,0,0,1,.64-.6h6.38a.61.61,0,1,1,0,1.21h-5.73v3.91A.63.63,0,0,1,170.9,11.93Z"/><path class="cls-12" d="M170.9,17.42a.63.63,0,0,1-.64-.61V13.42a.65.65,0,0,1,1.29,0v3.39A.63.63,0,0,1,170.9,17.42Z"/><path class="cls-12" d="M170.73,20.8a.63.63,0,0,1-.65-.6v-.81a.65.65,0,0,1,1.3,0v.81A.63.63,0,0,1,170.73,20.8Z"/><g class="cls-10"><polygon class="cls-11" points="91.88 67.29 95.05 70.26 112.94 70.26 112.94 59.84 109.87 56.97 91.88 67.29"/><path d="M112.94,70.62H95.05a.39.39,0,0,1-.27-.11l-3.17-3a.32.32,0,0,1-.11-.3.36.36,0,0,1,.18-.27l18-10.32a.41.41,0,0,1,.48.05l3.07,2.87a.36.36,0,0,1,.11.26V70.26A.37.37,0,0,1,112.94,70.62Zm-17.73-.73h17.34V60l-2.73-2.56L92.5,67.36Z"/></g><path class="cls-13" d="M110.7,65.6a2.13,2.13,0,0,1-2.2,2.06h-15a2.14,2.14,0,0,1-2.21-2.06V58.35a2.14,2.14,0,0,1,2.21-2.06h15a2.13,2.13,0,0,1,2.2,2.06Z"/><path class="cls-5" d="M108.5,68h-15a2.52,2.52,0,0,1-2.6-2.42V58.35a2.52,2.52,0,0,1,2.6-2.42h15a2.51,2.51,0,0,1,2.59,2.42V65.6A2.51,2.51,0,0,1,108.5,68Zm-15-11.37a1.76,1.76,0,0,0-1.82,1.7V65.6a1.77,1.77,0,0,0,1.82,1.7h15a1.77,1.77,0,0,0,1.82-1.7V58.35a1.77,1.77,0,0,0-1.82-1.7Z"/><g class="cls-10"><polygon class="cls-11" points="127.17 69.04 129.42 71.14 137.93 71.14 137.93 62.72 136.11 61.03 127.17 69.04"/><path d="M137.93,71.51h-8.51a.39.39,0,0,1-.27-.11l-2.25-2.1a.36.36,0,0,1-.12-.27.35.35,0,0,1,.12-.25l8.94-8a.42.42,0,0,1,.55,0l1.81,1.7a.34.34,0,0,1,.11.25v8.42A.38.38,0,0,1,137.93,71.51Zm-8.35-.73h8V62.87l-1.43-1.34L127.73,69Z"/></g><path class="cls-15" d="M137,67.42a2.14,2.14,0,0,1-2.2,2.06H129a2.14,2.14,0,0,1-2.2-2.06V62.27a2.14,2.14,0,0,1,2.2-2.06h5.79a2.14,2.14,0,0,1,2.2,2.06Z"/><path class="cls-5" d="M134.83,69.84H129a2.51,2.51,0,0,1-2.59-2.42V62.27A2.52,2.52,0,0,1,129,59.84h5.79a2.52,2.52,0,0,1,2.59,2.43v5.15A2.51,2.51,0,0,1,134.83,69.84ZM129,60.57a1.76,1.76,0,0,0-1.81,1.7v5.15a1.76,1.76,0,0,0,1.81,1.7h5.79a1.76,1.76,0,0,0,1.81-1.7V62.27a1.76,1.76,0,0,0-1.81-1.7Z"/><path class="cls-12" d="M128.4,67.25a.63.63,0,0,1-.65-.6V61.81a.63.63,0,0,1,.65-.61h2.76a.61.61,0,1,1,0,1.21H129v4.24A.62.62,0,0,1,128.4,67.25Z"/><path class="cls-19" d="M20.18,25.13v73A7.85,7.85,0,0,0,28,106H128.85V39.72A7.86,7.86,0,0,0,121,31.87H78.08A8.61,8.61,0,0,1,72,29.35l-9.58-9.58a8.63,8.63,0,0,0-6.09-2.52l-28.3,0A7.85,7.85,0,0,0,20.18,25.13Z"/><path class="cls-20" d="M95.9,32,24.73,103.12A1.81,1.81,0,0,0,26,106.21H50.9l74.63-74.63Z"/><path class="cls-3" d="M128.85,106l.67-66.16a7.86,7.86,0,0,0-7.85-7.93H78a8.57,8.57,0,0,1-6.08-2.52l-9.54-9.54a8.65,8.65,0,0,0-6.09-2.52H28a7.84,7.84,0,0,0-7.85,7.85v73A7.85,7.85,0,0,0,28,106H146.6"/></svg>