<svg id="Capa_1" data-name="Capa 1" xmlns="http://www.w3.org/2000/svg" viewBox="0 0 192 124.29"><defs><style>.cls-1{opacity:0.1;}.cls-2{fill:#f4aa78;}.cls-3{fill:none;stroke:#000;stroke-miterlimit:10;}.cls-4{fill:#c8d0d2;}.cls-5{fill:#021c1c;}.cls-6{fill:#a7daeb;}.cls-7{fill:#b3b3b2;}.cls-8{fill:#fbf6eb;}.cls-9{fill:#181c36;}.cls-10{fill:#010202;}.cls-11{fill:#084959;}.cls-12{opacity:0.8;}.cls-13{fill:#fff;}.cls-14{fill:#cd3749;}.cls-15{fill:#454d9a;}.cls-16{fill:#53b26f;}.cls-17{opacity:0.3;}.cls-18{fill:#fcfcfc;}.cls-19{fill:#f7d677;}.cls-20{fill:#f6cf64;}</style></defs><title>otras cosas</title><ellipse class="cls-1" cx="96" cy="106.79" rx="96" ry="17.5"/><path class="cls-2" d="M22.94,21.46V16.9a9.11,9.11,0,0,1,9.11-9.11H57.46A7.68,7.68,0,0,1,62.88,10l9.65,9.66A7.7,7.7,0,0,0,78,21.93H131.5A9.11,9.11,0,0,1,140.61,31V106H120.75Z"/><path class="cls-3" d="M22.94,17.29V16.9a9.11,9.11,0,0,1,9.11-9.11H56.94A7.66,7.66,0,0,1,62.35,10L72,19.71A7.67,7.67,0,0,0,77.45,22H131.5a9.11,9.11,0,0,1,9.11,9.11V106"/><rect class="cls-4" x="89.14" y="0.89" width="95.57" height="58.63" rx="0.68" ry="0.68"/><path class="cls-5" d="M184,60.41H89.81a1.56,1.56,0,0,1-1.56-1.57V1.57A1.56,1.56,0,0,1,89.81,0H184a1.57,1.57,0,0,1,1.57,1.57V58.84A1.57,1.57,0,0,1,184,60.41ZM90,58.63h93.79V1.78H90Z"/><path class="cls-6" d="M96,5.75a.64.64,0,0,1,.68-.62h80.66a.65.65,0,0,1,.68.62V50.6a.66.66,0,0,1-.68.62H96.68A.65.65,0,0,1,96,50.6Z"/><path class="cls-7" d="M177.34,52.11H96.68a1.54,1.54,0,0,1-1.57-1.51V5.75a1.54,1.54,0,0,1,1.57-1.51h80.66a1.54,1.54,0,0,1,1.57,1.51V50.6A1.55,1.55,0,0,1,177.34,52.11ZM96.89,50.33h80.24V6H96.89Z"/><path class="cls-4" d="M152.18,78.84a15.76,15.76,0,0,0-31.52,0c0,.17,0,.34,0,.51h31.5C152.17,79.18,152.18,79,152.18,78.84Z"/><path class="cls-5" d="M152.17,80.24h-31.5a.88.88,0,0,1-.89-.86c0-.18,0-.36,0-.54a16.65,16.65,0,0,1,33.3,0c0,.18,0,.36,0,.54A.89.89,0,0,1,152.17,80.24Zm-30.62-1.78h29.73a14.87,14.87,0,0,0-29.73,0Z"/><rect class="cls-4" x="100.15" y="77.49" width="73.21" height="4.91" rx="0.68" ry="0.68"/><path class="cls-5" d="M172.68,83.29H100.83a1.57,1.57,0,0,1-1.57-1.57V78.16a1.57,1.57,0,0,1,1.57-1.56h71.85a1.57,1.57,0,0,1,1.57,1.56v3.56A1.57,1.57,0,0,1,172.68,83.29ZM101,81.51h71.43V78.37H101Z"/><rect class="cls-4" x="129.3" y="59.52" width="15.08" height="6.61" rx="0.68" ry="0.68"/><path class="cls-5" d="M143.7,67H130a1.57,1.57,0,0,1-1.57-1.57V60.2A1.57,1.57,0,0,1,130,58.63H143.7a1.57,1.57,0,0,1,1.57,1.57v5.25A1.57,1.57,0,0,1,143.7,67Zm-13.51-1.78h13.3V60.41h-13.3Z"/><path class="cls-8" d="M139.11,55.7a1.59,1.59,0,0,1-1.59,1.6h0a1.59,1.59,0,0,1-1.6-1.6h0a1.59,1.59,0,0,1,1.6-1.59h0a1.59,1.59,0,0,1,1.59,1.59Z"/><path class="cls-9" d="M137.52,57.81a2.11,2.11,0,1,1,2.1-2.11A2.11,2.11,0,0,1,137.52,57.81Zm0-3.2a1.09,1.09,0,1,0,1.08,1.09A1.09,1.09,0,0,0,137.52,54.61Z"/><g class="cls-1"><path class="cls-10" d="M130,60.16l21.91,17.37s-.75-8.18-7.51-11.44l-.68-5.93Z"/></g><path class="cls-11" d="M118.32,14H102.56a1,1,0,1,1,0-2h15.76a1,1,0,0,1,0,2Z"/><path class="cls-11" d="M118.6,19.74h-16a1,1,0,1,1,0-2h16a1,1,0,0,1,0,2Z"/><path class="cls-11" d="M124.65,25.52H102.33a1,1,0,1,1,0-2h22.32a1,1,0,0,1,0,2Z"/><g class="cls-12"><path class="cls-13" d="M91.93,17.82a.89.89,0,0,1-.89-.89V3.07a.89.89,0,0,1,.89-.89h6.28a.89.89,0,1,1,0,1.78H92.82v13A.89.89,0,0,1,91.93,17.82Z"/></g><g class="cls-12"><path class="cls-13" d="M91.82,24.1a.89.89,0,0,1-.89-.89v-4a.89.89,0,0,1,1.78,0v4A.89.89,0,0,1,91.82,24.1Z"/></g><g class="cls-12"><path class="cls-13" d="M102.81,57H92a.89.89,0,0,1-.89-.89V46.8a.89.89,0,0,1,1.78,0v8.45h10a.89.89,0,0,1,0,1.78Z"/></g><g class="cls-12"><path class="cls-13" d="M124.07,76.17l-.16,0a.89.89,0,0,1-.72-1c1.09-6,5.14-7.53,5.31-7.6a.89.89,0,0,1,.63,1.67c-.14,0-3.29,1.35-4.19,6.25A.88.88,0,0,1,124.07,76.17Z"/></g><path class="cls-13" d="M133.43,65h-2.18a.89.89,0,0,1,0-1.78h2.18a.89.89,0,1,1,0,1.78Z"/><path class="cls-14" d="M153.69,44.76l-10.43-3.44V28.55l.24.07,9,3c.37.12.73.25,1.1.36a.14.14,0,0,1,.11.16c0,.71,0,1.43,0,2.14V44.76Z"/><path class="cls-9" d="M153.69,45.27l-.16,0L143.1,41.81a.53.53,0,0,1-.35-.49V28.55a.52.52,0,0,1,.66-.49l.08,0,.17.06L153,31.22l.73.24a.61.61,0,0,1,.46.64V44.76a.51.51,0,0,1-.21.41A.47.47,0,0,1,153.69,45.27ZM143.77,41l9.42,3.1V33.78c0-.48,0-1,0-1.43l-.5-.17-.36-.12-8.56-2.82Z"/><path class="cls-15" d="M164.14,28.55V41.16a.19.19,0,0,1-.16.22l-6.65,2.28-3.1,1.06-.1,0V32.12c0-.11,0-.16.13-.19l3.88-1.33,5.84-2Z"/><path class="cls-9" d="M154.13,45.26a.52.52,0,0,1-.51-.51V32.12a.66.66,0,0,1,.48-.67l3.2-1.1,6.51-2.23.12,0,.06,0a.52.52,0,0,1,.45.08.5.5,0,0,1,.2.41v1.67c0,3.65,0,7.29,0,10.94a.7.7,0,0,1-.5.7l-5.29,1.81-4.47,1.53-.09,0h0Zm.51-12.92V44l3.89-1.33,5.1-1.75V29.25l-6,2.06Z"/><path class="cls-16" d="M143.78,28.24l1.13-.33,7-2.09c.63-.19,1.26-.39,1.9-.57a.34.34,0,0,1,.2,0l6.39,2,3.14,1,.09,0-.76.27-6.29,2.15-2.55.88a.49.49,0,0,1-.24,0l-6-2-3.84-1.26Z"/><path class="cls-9" d="M153.91,32.07a.77.77,0,0,1-.27,0l-5.83-1.91-.21-.07L144,28.87l-.28-.09-.11,0-.05,0a.54.54,0,0,1-.33-.5.51.51,0,0,1,.37-.46l8.65-2.59,1.37-.41a.94.94,0,0,1,.5,0l6.39,2,2.65.82.49.16.1,0,0,0a.5.5,0,0,1,.32.48.51.51,0,0,1-.34.47l-.26.09L163,29l-6.61,2.26-2.24.77A.86.86,0,0,1,153.91,32.07Zm-8.45-3.8,2.46.81.21.07,5.78,1.9,2.19-.75,5.92-2-1.77-.55-6.35-2-1.32.39Z"/><g class="cls-17"><polygon class="cls-18" points="136.43 12.89 125.7 13.06 102.51 40.9 113.11 40.85 136.43 12.89"/></g><path class="cls-11" d="M152.6,22.36h-4.1a.76.76,0,1,1,0-1.52h3.33V19H149a.77.77,0,0,1,0-1.53h2.87V15.72h-3.45a.76.76,0,1,1,0-1.52h4.21a.76.76,0,0,1,.76.76v3.27l0,3.37a.77.77,0,0,1-.22.54A.79.79,0,0,1,152.6,22.36Z"/><path class="cls-11" d="M158.24,22.32h-3.56a.77.77,0,0,1-.77-.77V15a.77.77,0,0,1,.76-.77l3.79,0a.74.74,0,0,1,.62.31l.83,1.1a.76.76,0,0,1,.16.46V21a.75.75,0,0,1-.4.67l-1.06.59A.82.82,0,0,1,158.24,22.32Zm-2.79-1.54H158l.49-.27V16.3l-.44-.59h-2.64Z"/><path class="cls-19" d="M14.28,25.13v73A7.85,7.85,0,0,0,22.12,106H122.94V39.72a7.85,7.85,0,0,0-7.84-7.85H72.17a8.57,8.57,0,0,1-6.08-2.52l-9.58-9.58a8.65,8.65,0,0,0-6.1-2.52l-28.29,0A7.85,7.85,0,0,0,14.28,25.13Z"/><path class="cls-20" d="M90,32,18.83,103.12a1.81,1.81,0,0,0,1.28,3.09H45l74.62-74.63Z"/><path class="cls-3" d="M122.94,106l.67-66.16a7.85,7.85,0,0,0-7.84-7.93H72.09A8.57,8.57,0,0,1,66,29.35l-9.55-9.54a8.61,8.61,0,0,0-6.08-2.52H22.12a7.84,7.84,0,0,0-7.84,7.85v73A7.85,7.85,0,0,0,22.12,106H140.69"/></svg>