<svg id="Capa_1" data-name="Capa 1" xmlns="http://www.w3.org/2000/svg" viewBox="0 0 431.97 339.51"><defs><style>.cls-1{opacity:0.1;}.cls-2{fill:#f4aa78;}.cls-3{fill:none;stroke:#000;stroke-miterlimit:10;}.cls-4{fill:#fff;}.cls-5{fill:#3a4596;}.cls-6{fill:#181c36;}.cls-7{fill:#5887c5;}.cls-8{opacity:0.3;}.cls-9{opacity:0.2;}.cls-10{fill:#000100;}.cls-11{fill:#a6afc4;}.cls-12{fill:#8faedc;}.cls-13{fill:#05626c;}.cls-14{fill:#07aeca;}.cls-15{fill:#9dc0e6;}.cls-16{opacity:0.5;}.cls-17{fill:#f7d677;}.cls-18{fill:#f6cf64;}</style></defs><title>proto_001</title><ellipse class="cls-1" cx="215.99" cy="300.14" rx="215.99" ry="39.37"/><path class="cls-2" d="M41.9,110V99.77A20.49,20.49,0,0,1,62.4,79.28h57.17a17.22,17.22,0,0,1,12.18,5L153.47,106a17.23,17.23,0,0,0,12.19,5H286.14a20.49,20.49,0,0,1,20.49,20.49V300.14H262Z"/><path class="cls-3" d="M41.9,100.65v-.88A20.49,20.49,0,0,1,62.4,79.28h56a17.24,17.24,0,0,1,12.19,5l21.78,21.78a17.23,17.23,0,0,0,12.18,5.05H286.14a20.49,20.49,0,0,1,20.49,20.5V300.14"/><path class="cls-4" d="M277,198.15H254.16a1.48,1.48,0,1,1,0-3H277a1.48,1.48,0,1,1,0,3Z"/><path class="cls-5" d="M221.4,18.15V175h-12v28.05H256.9v-162H384.55V203h36.64V8.42H367.38l-6.3-6.29H287.23V9.56H211.61s-11.41,6.62-7.13,7.13C209.86,17.39,221.4,18.15,221.4,18.15Z"/><path class="cls-6" d="M259,205.17H207.26V172.88h12V20.13c-3.55-.24-11-.8-15-1.31a2.85,2.85,0,0,1-2.75-2.23c-.22-1-.65-3.21,9.11-8.86l.49-.28h74V0H362l6.29,6.29h55.05V205.12H382.43v-162H259Zm-47.51-4.28h43.27v-162H386.68v162h32.39V10.53H366.45L360.2,4.28H289.4v7.41h-77a53.33,53.33,0,0,0-4.83,3.22c5.71.57,14,1.11,14.14,1.13l2,.13v161H211.5Z"/><rect class="cls-7" x="294.32" y="12.74" width="51.54" height="22.09" rx="1.8" ry="1.8"/><path class="cls-6" d="M344.06,36.31H296.12A3.29,3.29,0,0,1,292.84,33V14.5a3.28,3.28,0,0,1,3.28-3.29h47.94a3.28,3.28,0,0,1,3.28,3.29h0V33A3.27,3.27,0,0,1,344.06,36.31Zm-47.94-22a.31.31,0,0,0-.31.31h0V33.13a.29.29,0,0,0,.3.3h47.95a.3.3,0,0,0,.32-.29h0V14.58a.31.31,0,0,0-.32-.31H296.12Z"/><path class="cls-6" d="M399.65,201.53a2.17,2.17,0,0,1-2.18-2.15V11.94a2.18,2.18,0,0,1,4.36,0V199.38a2.15,2.15,0,0,1-2.18,2.15Zm0-190a.46.46,0,0,0-.48.45h0V199.38a.47.47,0,0,0,.48.48.49.49,0,0,0,.49-.48V11.94a.47.47,0,0,0-.49-.45Z"/><path class="cls-6" d="M322.22,19.76H298.86a1.06,1.06,0,0,1,0-2.11h23.36a1.06,1.06,0,0,1,0,2.11Z"/><path class="cls-6" d="M322.46,24.73h-23.6a1.06,1.06,0,0,1,0-2.12h23.6a1.06,1.06,0,1,1,0,2.12Z"/><path class="cls-6" d="M317.05,30H298.89a1.06,1.06,0,1,1,0-2.11h18.16a1.06,1.06,0,1,1,0,2.11Z"/><path class="cls-6" d="M340.17,21h-8.08a1.06,1.06,0,0,1,0-2.11h8.08a1.06,1.06,0,0,1,0,2.11Z"/><g class="cls-8"><polygon class="cls-4" points="321.53 29.68 334.42 17.18 338.51 17.18 326.03 29.68 321.53 29.68"/></g><g class="cls-8"><polygon class="cls-4" points="298.46 28.82 309.61 17.68 319.64 17.68 309.05 28.76 298.46 28.82"/></g><g class="cls-8"><path class="cls-4" d="M227.35,171.62a2.13,2.13,0,0,1-2.15-2.1V108.44a2.14,2.14,0,1,1,4.28,0V169.5A2.14,2.14,0,0,1,227.35,171.62Z"/></g><g class="cls-8"><path class="cls-4" d="M228.55,64.35a2.13,2.13,0,0,1-2.13-2.11V19.43a2.14,2.14,0,1,1,4.28,0V62.24a2.12,2.12,0,0,1-2.14,2.11Z"/></g><g class="cls-9"><path class="cls-10" d="M253.73,66.72a1.42,1.42,0,0,1-1.42-1.43V41.56a1.48,1.48,0,0,1,3,0V65.23a1.42,1.42,0,0,1-1.36,1.49Z"/></g><g class="cls-9"><path class="cls-10" d="M253.73,157a1.42,1.42,0,0,1-1.42-1.43V104.38a1.48,1.48,0,0,1,3,0v51A1.42,1.42,0,0,1,254,157Z"/></g><g class="cls-8"><path class="cls-4" d="M389.75,158.73a2.1,2.1,0,0,1-2.11-2.11V42.48a2.14,2.14,0,0,1,4.28,0h0V156.62a2.13,2.13,0,0,1-2.14,2.11Z"/></g><rect class="cls-11" x="265.15" y="68.81" width="133.43" height="19.45" rx="1.8" ry="1.8"/><path class="cls-6" d="M396.78,89.75H266.94a3.29,3.29,0,0,1-3.22-3.29V70.61A3.28,3.28,0,0,1,267,67.33H396.84a3.28,3.28,0,0,1,3.28,3.28h0V86.46a3.28,3.28,0,0,1-3.28,3.29ZM266.94,70.3a.31.31,0,0,0-.31.31h0V86.46a.31.31,0,0,0,.31.32H396.78a.32.32,0,0,0,.32-.32h0V70.61a.31.31,0,0,0-.32-.31H266.94Z"/><rect class="cls-12" x="325.33" y="63.51" width="31.39" height="29.06" rx="1.8" ry="1.8"/><path class="cls-6" d="M354.92,94.05H327.13a3.28,3.28,0,0,1-3.29-3.28h0V65.3A3.28,3.28,0,0,1,327.13,62h27.79a3.29,3.29,0,0,1,3.27,3.28V90.77A3.27,3.27,0,0,1,354.92,94.05ZM327.13,65a.31.31,0,0,0-.32.31h0V90.77a.32.32,0,0,0,.32.32h27.79a.3.3,0,0,0,.3-.3V65.3a.3.3,0,0,0-.29-.31h-27.8Z"/><polygon class="cls-12" points="341 104.97 326.53 92.57 355.72 92.57 341 104.97"/><path class="cls-6" d="M341,106.45a1.38,1.38,0,0,1-.95-.35L325.56,93.7a1.42,1.42,0,0,1,1-2.61h29.19a1.47,1.47,0,0,1,1,2.61L342,106.1A1.42,1.42,0,0,1,341,106.45Zm-10.45-12.4L341,103l10.64-9Z"/><rect class="cls-10" x="394.68" y="65.83" width="16.66" height="25.18" rx="1.8" ry="1.8"/><path class="cls-11" d="M267.59,101.3a1.79,1.79,0,0,1-1.77,1.8H212a1.79,1.79,0,0,1-1.8-1.77V69.17A1.79,1.79,0,0,1,212,67.39h53.76a1.79,1.79,0,0,1,1.8,1.77h0Z"/><path class="cls-6" d="M265.79,104.51H212a3.28,3.28,0,0,1-3.28-3.28h0V69.17A3.28,3.28,0,0,1,212,65.9h53.75a3.28,3.28,0,0,1,3.28,3.27V101.3A3.28,3.28,0,0,1,265.79,104.51ZM212,68.84a.31.31,0,0,0-.31.29h0V101.3a.31.31,0,0,0,.31.32h53.75a.31.31,0,0,0,.31-.32h0V69.17a.3.3,0,0,0-.3-.3h0Z"/><path class="cls-6" d="M268,77.46H210.24a2.34,2.34,0,1,1-.36-4.66H268a2.34,2.34,0,1,1,.36,4.66A2.16,2.16,0,0,1,268,77.46Z"/><path class="cls-4" d="M216.26,98.45A1.43,1.43,0,0,1,214.84,97V83a1.49,1.49,0,0,1,3,0V97a1.43,1.43,0,0,1-1.43,1.43Z"/><path class="cls-4" d="M231.84,98.68H218.26a1.49,1.49,0,0,1,0-3h13.58a1.49,1.49,0,1,1,0,3Z"/><path class="cls-4" d="M343.71,69.5H330.12A1.29,1.29,0,0,1,329,68.09,1.27,1.27,0,0,1,330.12,67h13.59a1.28,1.28,0,0,1,0,2.55Z"/><path class="cls-4" d="M330.12,85.88a1.27,1.27,0,0,1-1.27-1.27V69.43a1.27,1.27,0,0,1,2.54,0h0V84.61A1.27,1.27,0,0,1,330.12,85.88Z"/><path class="cls-4" d="M403,69.67h-5.19a.86.86,0,0,1,0-1.7H403a.86.86,0,0,1,.22,1.7A.81.81,0,0,1,403,69.67Z"/><path class="cls-13" d="M316.08,159.09H291.17a4.64,4.64,0,0,1,0-9.28h20.26V138.6H293.92a4.64,4.64,0,0,1,0-9.28h17.44V118.67h-21a4.64,4.64,0,1,1,0-9.28H316a4.66,4.66,0,0,1,4.64,4.64v20l.08,20.46a4.65,4.65,0,0,1-4.63,4.67h0Z"/><path class="cls-13" d="M354.29,158.8H332.65a4.66,4.66,0,0,1-4.72-4.63V114a4.68,4.68,0,0,1,4.65-4.68l23-.1a4.3,4.3,0,0,1,3.75,1.84l5.08,6.7a4.72,4.72,0,0,1,.95,2.85v30a4.65,4.65,0,0,1-2.41,4.08l-6.48,3.6A4.69,4.69,0,0,1,354.29,158.8Zm-17-9.34H353l3-1.67V122.21l-2.73-3.6-16.05.09Z"/><path class="cls-14" d="M349.48,156.46H327.84a4.67,4.67,0,0,1-4.67-4.66V111.7a4.69,4.69,0,0,1,4.66-4.69l23-.11a4.29,4.29,0,0,1,3.76,1.85l5.08,6.68a4.72,4.72,0,0,1,.95,2.85v30a4.68,4.68,0,0,1-2.41,4.1l-6.48,3.58A4.61,4.61,0,0,1,349.48,156.46Zm-17-9.33h15.69l3-1.68v-25.6l-2.72-3.58H332.45Z"/><path class="cls-14" d="M312.57,156.75H287.66a4.64,4.64,0,0,1,0-9.28H308v-11.2H290.41a4.64,4.64,0,0,1,0-9.27h17.44V116.33h-21a4.64,4.64,0,1,1,0-9.28h25.68a4.64,4.64,0,0,1,4.64,4.64h0v20l.1,20.48a4.65,4.65,0,0,1-4.65,4.65h0Z"/><path class="cls-4" d="M397.84,80.86A.85.85,0,0,1,397,80V68.83a.85.85,0,1,1,1.69-.22.81.81,0,0,1,0,.22V80A.85.85,0,0,1,397.84,80.86Z"/><path class="cls-4" d="M223.56,76.16H209.37a.86.86,0,0,1-.22-1.7h14.41a.86.86,0,0,1,.73,1A.85.85,0,0,1,223.56,76.16Z"/><rect class="cls-11" x="248.21" y="158.45" width="140.64" height="44.56" rx="1.8" ry="1.8"/><path class="cls-6" d="M387.05,204.49h-137a3.28,3.28,0,0,1-3.28-3.28h0v-41a3.28,3.28,0,0,1,3.28-3.27h137a3.27,3.27,0,0,1,3.28,3.27v41a3.28,3.28,0,0,1-3.25,3.31Zm-137-44.56a.29.29,0,0,0-.31.28v41a.31.31,0,0,0,.31.31h137a.31.31,0,0,0,.32-.31h0v-41a.3.3,0,0,0-.3-.3H250.08Z"/><rect class="cls-15" x="341.59" y="174.54" width="37.97" height="10.07" rx="1.8" ry="1.8"/><path class="cls-6" d="M377.78,185.67H343.39a2.86,2.86,0,0,1-2.85-2.85v-6.48a2.86,2.86,0,0,1,2.85-2.86h34.39a2.86,2.86,0,0,1,2.85,2.86v6.48A2.86,2.86,0,0,1,377.78,185.67ZM343.39,175.6a.73.73,0,0,0-.73.72v6.5a.74.74,0,0,0,.72.74h34.4a.74.74,0,0,0,.74-.74h0v-6.48a.74.74,0,0,0-.74-.74H343.39Z"/><rect class="cls-15" x="276.12" y="175.42" width="41.46" height="8.92" rx="1.8" ry="1.8"/><path class="cls-6" d="M315.78,185.4H277.9a2.86,2.86,0,0,1-2.85-2.86v-5.32a2.86,2.86,0,0,1,2.85-2.85h37.88a2.86,2.86,0,0,1,2.86,2.85v5.32A2.86,2.86,0,0,1,315.78,185.4Zm-37.88-8.92a.73.73,0,0,0-.73.73h0v5.32a.73.73,0,0,0,.73.73h37.88a.72.72,0,0,0,.73-.73h0v-5.32a.73.73,0,0,0-.71-.74H277.9Z"/><path class="cls-4" d="M254.06,198.15a1.43,1.43,0,0,1-1.43-1.42V174.07a1.5,1.5,0,0,1,3,0v22.67a1.44,1.44,0,0,1-1.44,1.42Z"/><path class="cls-4" d="M286.55,181.52h-8a.63.63,0,0,1-.64-.62h0a.63.63,0,0,1,.64-.64h8a.64.64,0,0,1,.64.64.63.63,0,0,1-.63.63Z"/><path class="cls-4" d="M352.89,181.12H344.5a.63.63,0,0,1-.62-.63h0a.64.64,0,0,1,.62-.64h8.39a.65.65,0,0,1,.65.64.63.63,0,0,1-.63.63Z"/><g class="cls-8"><path class="cls-4" d="M214.77,198.85a1.43,1.43,0,0,1-1.43-1.42V180a1.43,1.43,0,0,1,1.43-1.43h8.09a1.49,1.49,0,0,1,0,3h-6.61v15.9a1.43,1.43,0,0,1-1.43,1.42Z"/></g><g class="cls-9"><path class="cls-10" d="M391.55,201a1.43,1.43,0,0,1-1.43-1.43V160.81a1.49,1.49,0,0,1,3,0v38.66a1.43,1.43,0,0,1-1.37,1.48A1,1,0,0,1,391.55,201Z"/></g><path class="cls-4" d="M315.74,76H273.79a2.14,2.14,0,0,1,0-4.28h41.95a2.14,2.14,0,0,1,0,4.28Z"/><path class="cls-4" d="M340.61,101.22a.7.7,0,0,1-.39-.13l-6.89-5.39a.68.68,0,0,1-.21-.72.63.63,0,0,1,.6-.43h4.19a.64.64,0,0,1,.73.54.64.64,0,0,1-.54.73.6.6,0,0,1-.19,0h-2.35L341,100.1a.63.63,0,0,1,.12.88.6.6,0,0,1-.52.25Z"/><g class="cls-16"><path class="cls-4" d="M323.12,94.41H306.71a.84.84,0,0,1-.84-.84.86.86,0,0,1,.84-.86h16.41a.85.85,0,0,1,.84.84v0a.83.83,0,0,1-.81.84Z"/></g><g class="cls-16"><path class="cls-4" d="M322.22,97.55h-26a.86.86,0,1,1-.22-1.7h26.25a.86.86,0,0,1,0,1.7Z"/></g><g class="cls-16"><path class="cls-4" d="M329.05,100.66H312.56a.86.86,0,0,1-.86-.86.85.85,0,0,1,.84-.84h16.51a.85.85,0,0,1,.86.83h0A.85.85,0,0,1,329.05,100.66Z"/></g><g class="cls-16"><path class="cls-4" d="M304.31,94.41h-2.07a.83.83,0,0,1-.84-.81v0a.84.84,0,0,1,.84-.83h2a.86.86,0,0,1,.86.86A.83.83,0,0,1,304.31,94.41Z"/></g><path class="cls-17" d="M22.4,118.29V282.48a17.66,17.66,0,0,0,17.66,17.66H266.89v-149a17.66,17.66,0,0,0-17.66-17.66H152.66A19.37,19.37,0,0,1,139,127.79l-21.55-21.56a19.42,19.42,0,0,0-13.71-5.67L40,100.63A17.66,17.66,0,0,0,22.4,118.29Z"/><path class="cls-18" d="M192.76,133.65,32.65,293.76a4.06,4.06,0,0,0,2.87,6.94h56l167.9-167.9Z"/><path class="cls-3" d="M266.89,300.14l1.5-148.85a17.65,17.65,0,0,0-17.65-17.83H152.48a19.35,19.35,0,0,1-13.69-5.67l-21.47-21.47a19.37,19.37,0,0,0-13.69-5.67H40.06A17.66,17.66,0,0,0,22.4,118.3V282.48a17.66,17.66,0,0,0,17.66,17.66H306.82"/></svg>