<svg id="Capa_1" data-name="Capa 1" xmlns="http://www.w3.org/2000/svg" viewBox="0 0 192 127.09"><defs><style>.cls-1{opacity:0.1;}.cls-2{fill:#f4aa78;}.cls-3{fill:none;stroke:#000;stroke-miterlimit:10;}.cls-4{fill:#16171a;}.cls-5{fill:#eb6255;}.cls-6{fill:#fabe2f;}.cls-7{fill:#4ead42;}.cls-8{fill:#fff;}.cls-9{fill:#f41c7e;}.cls-10{fill:#26d8ea;}.cls-11{fill:#f7d677;}.cls-12{fill:#f6cf64;}</style></defs><title>otras cosas</title><ellipse class="cls-1" cx="96" cy="109.59" rx="96" ry="17.5"/><path class="cls-2" d="M26.39,25.09V20.54a9.11,9.11,0,0,1,9.11-9.12H60.91a7.67,7.67,0,0,1,5.42,2.25L76,23.32a7.64,7.64,0,0,0,5.41,2.24H135a9.11,9.11,0,0,1,9.11,9.11v74.92H124.19Z"/><path class="cls-3" d="M26.39,20.92v-.38a9.11,9.11,0,0,1,9.11-9.12H60.38a7.67,7.67,0,0,1,5.42,2.25l9.68,9.68a7.68,7.68,0,0,0,5.42,2.24h54a9.11,9.11,0,0,1,9.11,9.11v74.89"/><path d="M179.05,1.77V68.66h-94V1.77h94m0-1.77h-94a1.77,1.77,0,0,0-1.77,1.77V68.66a1.77,1.77,0,0,0,1.77,1.77h94a1.77,1.77,0,0,0,1.77-1.77V1.77A1.77,1.77,0,0,0,179.05,0Z"/><rect class="cls-4" x="85.09" y="1.77" width="93.96" height="66.89"/><rect x="85.09" y="11.34" width="93.96" height="1.77"/><rect class="cls-5" x="86.53" y="4.61" width="3.87" height="3.87" rx="1.93" ry="1.93"/><rect class="cls-6" x="91.45" y="4.61" width="3.87" height="3.87" rx="1.93" ry="1.93"/><rect class="cls-7" x="96.47" y="4.61" width="3.87" height="3.87" rx="1.93" ry="1.93"/><path class="cls-8" d="M178.16,7.27a.44.44,0,0,1-.44-.44V3.28h-43.2a.45.45,0,1,1,0-.89h43.64a.44.44,0,0,1,.44.45v4A.44.44,0,0,1,178.16,7.27Z"/><path class="cls-8" d="M177.27,67.33h-47a.45.45,0,0,1-.45-.44.44.44,0,0,1,.45-.44h46.53v-31a.45.45,0,0,1,.89,0V66.89A.45.45,0,0,1,177.27,67.33Z"/><path class="cls-9" d="M89.9,23.31l1,.37V24l-1.36-.56v-.26l1.36-.56v.32Z"/><path class="cls-9" d="M91.42,24.1a.24.24,0,1,1,.17.07A.21.21,0,0,1,91.42,24.1Zm0-.59V22h.42v1.49Z"/><path class="cls-9" d="M93.68,22.15a.94.94,0,0,1,.37.37,1.13,1.13,0,0,1,.13.56,1.09,1.09,0,0,1-.13.55.9.9,0,0,1-.37.38,1.09,1.09,0,0,1-.55.13h-.84V22h.84A1.09,1.09,0,0,1,93.68,22.15Zm-.22,1.56a.61.61,0,0,0,.21-.26.75.75,0,0,0,.08-.37.79.79,0,0,0-.08-.38.58.58,0,0,0-.21-.25.6.6,0,0,0-.33-.09h-.42V23.8h.42A.6.6,0,0,0,93.46,23.71Z"/><path class="cls-9" d="M95,24a1,1,0,0,1-.4-.38,1.2,1.2,0,0,1-.14-.57,1.15,1.15,0,0,1,.14-.57.94.94,0,0,1,.4-.39,1.36,1.36,0,0,1,1.16,0,1,1,0,0,1,.4.39,1.15,1.15,0,0,1,.14.57,1.2,1.2,0,0,1-.14.57,1,1,0,0,1-.4.38A1.27,1.27,0,0,1,95,24Zm.94-.3a.67.67,0,0,0,.24-.26.89.89,0,0,0,0-.78.7.7,0,0,0-.24-.27.69.69,0,0,0-.36-.09.74.74,0,0,0-.36.09.7.7,0,0,0-.24.27.89.89,0,0,0,0,.78.67.67,0,0,0,.24.26.74.74,0,0,0,.36.09A.69.69,0,0,0,95.93,23.73Z"/><path class="cls-9" d="M98.41,22.35l-.24,0a.88.88,0,0,0-.41.09.73.73,0,0,0-.28.27.8.8,0,0,0-.09.39.71.71,0,0,0,.1.39.59.59,0,0,0,.28.26.88.88,0,0,0,.41.09,1.14,1.14,0,0,0,.25,0,.89.89,0,0,0,.23-.05v.32a1.77,1.77,0,0,1-.29.07l-.32,0a1.15,1.15,0,0,1-.57-.14,1,1,0,0,1-.39-.38,1.2,1.2,0,0,1-.13-.57,1.14,1.14,0,0,1,.13-.57,1,1,0,0,1,.38-.39A1.13,1.13,0,0,1,98,22l.31,0a1.71,1.71,0,0,1,.29.08v.32Z"/><path class="cls-9" d="M99.88,22.36v1.78h-.42V22.36h-.65V22h1.71v.34Z"/><path class="cls-9" d="M101.77,23.34v.8h-.42v-.81a13.48,13.48,0,0,1-.76-1.31H101c.17.35.35.68.52,1,.18-.3.35-.63.52-1h.44A12.94,12.94,0,0,1,101.77,23.34Z"/><path class="cls-9" d="M104.07,22.1a.66.66,0,0,1,.27.25.79.79,0,0,1,.09.38.76.76,0,0,1-.1.39.62.62,0,0,1-.27.26.82.82,0,0,1-.4.09h-.43v.67h-.42V22h.87A.93.93,0,0,1,104.07,22.1Zm-.17.92a.41.41,0,0,0,.1-.28.43.43,0,0,0-.1-.28.38.38,0,0,0-.26-.1h-.41v.76h.41A.34.34,0,0,0,103.9,23Z"/><path class="cls-9" d="M106.25,24.14h-1.47V22h1.45v.34h-1v.53h.94v.34h-.94v.57h1Z"/><path class="cls-9" d="M108.71,22.71a.62.62,0,0,1,.15.46v1h-.4V23.2a.3.3,0,0,0-.09-.24.34.34,0,0,0-.26-.08.47.47,0,0,0-.17,0l-.18.07v1.17h-.41V22l.41-.12v.8a1.43,1.43,0,0,1,.52-.11A.58.58,0,0,1,108.71,22.71Z"/><path class="cls-9" d="M110.21,23.84v.29a1.42,1.42,0,0,1-.34,0,.56.56,0,0,1-.39-.14.5.5,0,0,1-.15-.38v-.77h-.22v-.29h.22v-.34l.41-.11v.45h.46v.29h-.46v.71a.25.25,0,0,0,.07.19.23.23,0,0,0,.18.07Z"/><path class="cls-9" d="M112.65,22.71a.6.6,0,0,1,.16.46v1h-.4V23.2a.33.33,0,0,0-.08-.24.26.26,0,0,0-.22-.08.53.53,0,0,0-.28.07.59.59,0,0,1,0,.13v1.06h-.4V23.2a.33.33,0,0,0-.08-.24.27.27,0,0,0-.22-.08.46.46,0,0,0-.26.07v1.19h-.4V22.58a.62.62,0,0,1,.19,0,.85.85,0,0,1,.17.06,1.12,1.12,0,0,1,.43-.1.61.61,0,0,1,.42.14.81.81,0,0,1,.49-.14A.65.65,0,0,1,112.65,22.71Z"/><path class="cls-9" d="M113.61,21.87v2.27h-.4V22Z"/><path class="cls-9" d="M115.41,23.44l-1.35.56v-.32l1-.37-1-.37v-.32l1.35.56Z"/><path class="cls-10" d="M89.84,30.2l1,.42v.21l-1.23-.55v-.15l1.23-.55v.2Z"/><path class="cls-10" d="M92.8,30.05v1h-.25v-1a.39.39,0,0,0-.44-.41,1.39,1.39,0,0,0-.47.09V31h-.25V28.84l.25-.07v.79a2.18,2.18,0,0,1,.57-.08A.52.52,0,0,1,92.8,30.05Z"/><path class="cls-10" d="M94.06,30.84V31a1,1,0,0,1-.29,0,.44.44,0,0,1-.46-.47v-.9h-.22V29.5h.22v-.37l.25-.07v.44h.49v.19h-.49v.86a.28.28,0,0,0,.28.31Z"/><path class="cls-10" d="M96.63,30.05v1h-.25v-1a.36.36,0,0,0-.39-.4.83.83,0,0,0-.41.1.59.59,0,0,1,0,.23v1h-.25v-1a.36.36,0,0,0-.38-.4.84.84,0,0,0-.38.08V31h-.25V29.49a.52.52,0,0,1,.23.06,1.55,1.55,0,0,1,.48-.07.56.56,0,0,1,.41.14,1,1,0,0,1,.57-.14A.52.52,0,0,1,96.63,30.05Z"/><path class="cls-10" d="M97.34,28.77V31H97.1V28.84Z"/><path class="cls-10" d="M99.13,30.28l-1.24.55v-.21l1-.42-1-.42v-.2l1.24.55Z"/><path class="cls-10" d="M89.84,33.65l1,.42v.2l-1.23-.54v-.16L90.84,33v.21Z"/><path class="cls-10" d="M92.8,33.5v1h-.25v-.95c0-.26-.16-.4-.44-.4a1.65,1.65,0,0,0-.47.08v1.27h-.25V32.28l.25-.07V33a1.84,1.84,0,0,1,.57-.09A.53.53,0,0,1,92.8,33.5Z"/><path class="cls-10" d="M94.57,33.8H93.43a.48.48,0,0,0,.52.5,1.63,1.63,0,0,0,.52-.09v.19a1.7,1.7,0,0,1-.57.1.79.79,0,0,1,0-1.58.7.7,0,0,1,.69.77Zm-1.14-.16h.89c0-.32-.18-.53-.44-.53S93.45,33.32,93.43,33.64Z"/><path class="cls-10" d="M95.89,34.43a1.59,1.59,0,0,1-.48.07c-.36,0-.59-.17-.59-.45s.24-.46.62-.46a1.59,1.59,0,0,1,.43.06V33.5a.37.37,0,0,0-.42-.38,1.69,1.69,0,0,0-.5.08V33a1.54,1.54,0,0,1,.55-.1.54.54,0,0,1,.62.56v1A.52.52,0,0,1,95.89,34.43Zm-.39-.11a1.19,1.19,0,0,0,.37-.06v-.44a1,1,0,0,0-.37-.06c-.26,0-.42.11-.42.28S95.24,34.32,95.5,34.32Z"/><path class="cls-10" d="M97.75,34.43a1.64,1.64,0,0,1-.46.07.75.75,0,0,1-.8-.78.73.73,0,0,1,.74-.8.83.83,0,0,1,.5.16v-.8l.25-.07v2.28A.41.41,0,0,1,97.75,34.43Zm-.4-.13a1,1,0,0,0,.38-.07v-.95a.7.7,0,0,0-.44-.16.54.54,0,0,0-.55.6A.56.56,0,0,0,97.35,34.3Z"/><path class="cls-10" d="M99.77,33.73l-1.24.54v-.2l1-.42-1-.42V33l1.24.55Z"/><path class="cls-10" d="M98.45,37.09l1,.42v.21l-1.23-.55V37l1.23-.54v.2Z"/><path class="cls-10" d="M100.82,37.73v.18a1,1,0,0,1-.29,0,.44.44,0,0,1-.46-.47v-.9h-.22v-.19h.22V36l.25-.07v.44h.49v.19h-.49v.86a.28.28,0,0,0,.28.31Z"/><path class="cls-10" d="M101.08,35.92a.16.16,0,1,1,.16.16A.16.16,0,0,1,101.08,35.92Zm.29,2h-.25V36.39h.25Z"/><path class="cls-10" d="M102.67,37.73v.18a1,1,0,0,1-.29,0,.44.44,0,0,1-.46-.47v-.9h-.22v-.19h.22V36l.25-.07v.44h.48v.19h-.48v.86a.28.28,0,0,0,.28.31Z"/><path class="cls-10" d="M103.22,35.66v2.26H103V35.73Z"/><path class="cls-10" d="M105,37.25h-1.13a.47.47,0,0,0,.52.5,1.89,1.89,0,0,0,.51-.09v.18a1.4,1.4,0,0,1-.56.11.79.79,0,0,1,0-1.58.7.7,0,0,1,.7.77A.41.41,0,0,1,105,37.25Zm-1.14-.17h.9c0-.32-.19-.52-.45-.52S103.88,36.76,103.86,37.08Z"/><path class="cls-10" d="M106.68,37.17l-1.23.55v-.21l1-.42-1-.42v-.2l1.23.54Z"/><path class="cls-8" d="M108.69,36.48a.66.66,0,0,1-.7.69h-.53v.75h-.26V35.79H108A.66.66,0,0,1,108.69,36.48Zm-.27,0A.44.44,0,0,0,108,36h-.5V37h.5A.43.43,0,0,0,108.42,36.49Z"/><path class="cls-8" d="M109.29,36.66v1.26H109V36.38a.41.41,0,0,1,.23.06,2,2,0,0,1,.58-.07v.23A2.12,2.12,0,0,0,109.29,36.66Z"/><path class="cls-8" d="M110,37.16a.79.79,0,1,1,.79.79A.75.75,0,0,1,110,37.16Zm1.32,0a.53.53,0,1,0-.53.59A.54.54,0,0,0,111.27,37.16Z"/><path class="cls-8" d="M112.7,37.73v.18a1,1,0,0,1-.29,0,.44.44,0,0,1-.46-.47v-.9h-.22v-.19H112V36l.25-.07v.44h.48v.19h-.48v.86a.28.28,0,0,0,.28.31Z"/><path class="cls-8" d="M112.88,37.16a.79.79,0,1,1,.79.79A.75.75,0,0,1,112.88,37.16Zm1.32,0a.54.54,0,0,0-.53-.6.6.6,0,1,0,.53.6Z"/><path class="cls-8" d="M116.34,37.15a.73.73,0,0,1-.75.8.83.83,0,0,1-.5-.16v.76h-.25V36.38a.48.48,0,0,1,.24.06,1.25,1.25,0,0,1,.45-.07A.75.75,0,0,1,116.34,37.15Zm-.26,0a.57.57,0,0,0-.61-.59,1,1,0,0,0-.38.08v1a.7.7,0,0,0,.44.16A.54.54,0,0,0,116.08,37.15Z"/><path class="cls-8" d="M117,35.66v2.26h-.25V35.73Z"/><path class="cls-8" d="M118.4,37.87a1.56,1.56,0,0,1-.48.08c-.36,0-.59-.18-.59-.46s.24-.45.62-.45a1.58,1.58,0,0,1,.43.05V37a.37.37,0,0,0-.42-.39,1.47,1.47,0,0,0-.5.09v-.19a1.55,1.55,0,0,1,.55-.09c.39,0,.62.2.62.55v1A.41.41,0,0,1,118.4,37.87Zm-.39-.1a1.19,1.19,0,0,0,.37-.06v-.45a1.24,1.24,0,0,0-.37-.06c-.26,0-.42.11-.42.29S117.75,37.77,118,37.77Z"/><path class="cls-8" d="M119.53,37.26l-.14,0c-.24,0-.39-.15-.39-.41s.19-.45.52-.45a1.22,1.22,0,0,1,.46.09v.18a1.1,1.1,0,0,0-.41-.08c-.21,0-.32.08-.32.22s.1.19.26.23l.14,0c.23.06.41.18.41.45s-.2.46-.53.46a1.09,1.09,0,0,1-.48-.11v-.18a1,1,0,0,0,.43.1c.21,0,.32-.09.32-.25S119.69,37.3,119.53,37.26Z"/><path class="cls-8" d="M122.71,36.94v1h-.25V37a.36.36,0,0,0-.39-.4.83.83,0,0,0-.41.1.59.59,0,0,1,0,.23v1h-.25V37a.35.35,0,0,0-.38-.4.84.84,0,0,0-.38.08v1.28h-.25V36.38a.52.52,0,0,1,.23.06,1.55,1.55,0,0,1,.48-.07.54.54,0,0,1,.41.14,1,1,0,0,1,.57-.14A.52.52,0,0,1,122.71,36.94Z"/><path class="cls-8" d="M124.11,37.87a1.56,1.56,0,0,1-.48.08c-.36,0-.58-.18-.58-.46s.23-.45.62-.45a1.55,1.55,0,0,1,.42.05V37a.37.37,0,0,0-.42-.39,1.51,1.51,0,0,0-.5.09v-.19a1.59,1.59,0,0,1,.55-.09c.39,0,.62.2.62.55v1A.46.46,0,0,1,124.11,37.87Zm-.39-.1a1.1,1.1,0,0,0,.37-.06v-.45a1.19,1.19,0,0,0-.37-.06c-.25,0-.41.11-.41.29S123.47,37.77,123.72,37.77Z"/><path class="cls-10" d="M125,37.09l1,.42v.21l-1.24-.55V37l1.24-.54v.2Z"/><path class="cls-10" d="M126.44,38.21l.69-2.53h.25l-.69,2.53Z"/><path class="cls-10" d="M128.56,37.73v.18a.92.92,0,0,1-.29,0,.44.44,0,0,1-.45-.47v-.9h-.23v-.19h.23V36l.24-.07v.44h.49v.19h-.49v.86a.28.28,0,0,0,.28.31Z"/><path class="cls-10" d="M128.83,35.92a.15.15,0,0,1,.15-.16.16.16,0,1,1,0,.32A.15.15,0,0,1,128.83,35.92Zm.28,2h-.25V36.39h.25Z"/><path class="cls-10" d="M130.41,37.73v.18a.92.92,0,0,1-.29,0,.44.44,0,0,1-.46-.47v-.9h-.22v-.19h.22V36l.25-.07v.44h.49v.19h-.49v.86a.28.28,0,0,0,.28.31Z"/><path class="cls-10" d="M131,35.66v2.26h-.25V35.73Z"/><path class="cls-10" d="M132.74,37.25h-1.13a.47.47,0,0,0,.52.5,2,2,0,0,0,.52-.09v.18a1.48,1.48,0,0,1-.57.11.79.79,0,0,1,0-1.58.7.7,0,0,1,.7.77A.41.41,0,0,1,132.74,37.25Zm-1.14-.17h.9c0-.32-.18-.52-.45-.52S131.62,36.76,131.6,37.08Z"/><path class="cls-10" d="M134.42,37.17l-1.23.55v-.21l1-.42-1-.42v-.2l1.23.54Z"/><path class="cls-10" d="M89.84,40.54l1,.42v.2l-1.23-.54v-.16l1.23-.55v.21Z"/><path class="cls-10" d="M91.27,41.65,92,39.12h.25l-.69,2.53Z"/><path class="cls-10" d="M94,40.38v1h-.25v-1c0-.26-.16-.4-.44-.4a1.65,1.65,0,0,0-.47.08v1.27h-.25V39.17l.25-.07v.8a1.84,1.84,0,0,1,.57-.09A.53.53,0,0,1,94,40.38Z"/><path class="cls-10" d="M95.75,40.69H94.61a.48.48,0,0,0,.52.5,1.63,1.63,0,0,0,.52-.09v.19a1.7,1.7,0,0,1-.57.1.79.79,0,0,1,0-1.58.7.7,0,0,1,.69.77Zm-1.14-.16h.89c0-.32-.18-.53-.44-.53S94.62,40.21,94.61,40.53Z"/><path class="cls-10" d="M97.07,41.32a1.59,1.59,0,0,1-.48.07c-.36,0-.59-.17-.59-.45s.24-.46.62-.46a1.59,1.59,0,0,1,.43.06v-.15a.37.37,0,0,0-.42-.38,1.69,1.69,0,0,0-.5.08v-.18a1.54,1.54,0,0,1,.55-.1.54.54,0,0,1,.62.56v1A.52.52,0,0,1,97.07,41.32Zm-.39-.11a1.19,1.19,0,0,0,.37-.06v-.44a1,1,0,0,0-.37-.06c-.26,0-.42.11-.42.28S96.42,41.21,96.68,41.21Z"/><path class="cls-10" d="M98.93,41.32a1.64,1.64,0,0,1-.46.07.75.75,0,0,1-.81-.78.73.73,0,0,1,.75-.8.83.83,0,0,1,.5.16v-.8l.25-.07v2.28A.41.41,0,0,1,98.93,41.32Zm-.4-.13a1,1,0,0,0,.38-.07v-.95a.7.7,0,0,0-.44-.16.54.54,0,0,0-.55.6A.56.56,0,0,0,98.53,41.19Z"/><path class="cls-10" d="M101,40.62l-1.24.54V41l1-.42-1-.42v-.21l1.24.55Z"/><path class="cls-10" d="M89.84,44l1,.42v.21l-1.23-.55V43.9l1.23-.54v.2Z"/><path class="cls-10" d="M92.89,44.06a.75.75,0,0,1-.81.78,1.34,1.34,0,0,1-.46-.08.41.41,0,0,1-.23.06v-2.2l.25-.07v.86a.82.82,0,0,1,.5-.15A.73.73,0,0,1,92.89,44.06Zm-.26,0a.54.54,0,0,0-.55-.6.7.7,0,0,0-.44.16v1a1.27,1.27,0,0,0,.38.07A.57.57,0,0,0,92.63,44.05Z"/><path class="cls-10" d="M93.18,44.05a.75.75,0,0,1,.79-.79.79.79,0,0,1,0,1.58A.75.75,0,0,1,93.18,44.05Zm1.32,0a.54.54,0,0,0-.53-.6.6.6,0,1,0,.53.6Z"/><path class="cls-10" d="M96.31,44.76a1.34,1.34,0,0,1-.46.08.76.76,0,0,1-.81-.78.73.73,0,0,1,.75-.8.82.82,0,0,1,.5.15v-.79l.25-.07v2.27A.41.41,0,0,1,96.31,44.76Zm-.4-.12a1.27,1.27,0,0,0,.38-.07v-1a.7.7,0,0,0-.44-.16.54.54,0,0,0-.55.6A.57.57,0,0,0,95.91,44.64Z"/><path class="cls-10" d="M97.33,45.44h-.26c.14-.25.28-.5.41-.76-.21-.43-.44-.94-.63-1.4h.27c.14.39.31.8.48,1.16.17-.36.35-.77.49-1.16h.27A20.91,20.91,0,0,1,97.33,45.44Z"/><path class="cls-10" d="M99.94,44.06l-1.23.55V44.4l1-.42-1-.42v-.2l1.23.54Z"/><path class="cls-10" d="M98.45,47.43l1,.42v.2l-1.23-.54v-.16l1.23-.55V47Z"/><path class="cls-10" d="M101.41,47.27v1h-.25v-1c0-.26-.16-.4-.44-.4a1.65,1.65,0,0,0-.47.08v1.27H100V46.06l.25-.07v.8a1.88,1.88,0,0,1,.57-.09A.53.53,0,0,1,101.41,47.27Z"/><path class="cls-10" d="M102.42,46.1h0v2.15h-.26V46.38l-.51.14V46.3Z"/><path class="cls-10" d="M104.31,47.51l-1.24.54v-.2l1-.42-1-.42V46.8l1.24.55Z"/><path class="cls-8" d="M106.12,47.74H105l-.21.51h-.28c.3-.71.69-1.52,1-2.15h0a23.76,23.76,0,0,1,1,2.15h-.27Zm-.55-1.2c-.15.31-.31.65-.46,1H106C105.88,47.19,105.72,46.85,105.57,46.54Z"/><path class="cls-8" d="M108.35,47.48a.73.73,0,0,1-.75.8.9.9,0,0,1-.5-.15v.76h-.25V46.72a.45.45,0,0,1,.24.06,1.34,1.34,0,0,1,.46-.08A.75.75,0,0,1,108.35,47.48Zm-.26,0a.56.56,0,0,0-.61-.59,1.06,1.06,0,0,0-.38.07v1a.69.69,0,0,0,.44.15A.54.54,0,0,0,108.09,47.49Z"/><path class="cls-8" d="M109,47v1.25h-.25V46.72a.41.41,0,0,1,.23.06,1.93,1.93,0,0,1,.58-.08v.23A2,2,0,0,0,109,47Z"/><path class="cls-8" d="M111.05,47.58h-1.14a.48.48,0,0,0,.53.5A1.57,1.57,0,0,0,111,48v.19a1.64,1.64,0,0,1-.56.1.79.79,0,0,1,0-1.58.7.7,0,0,1,.7.77S111.05,47.55,111.05,47.58Zm-1.14-.16h.89c0-.32-.18-.53-.44-.53S109.93,47.1,109.91,47.42Z"/><path class="cls-8" d="M112.84,47.27v1h-.25v-1c0-.26-.16-.4-.44-.4a1.65,1.65,0,0,0-.47.08v1.27h-.25V46.72a.41.41,0,0,1,.25.07,1.84,1.84,0,0,1,.57-.09A.53.53,0,0,1,112.84,47.27Z"/><path class="cls-8" d="M114.47,48.2a1.34,1.34,0,0,1-.46.08.75.75,0,0,1-.8-.78.73.73,0,0,1,.75-.8.83.83,0,0,1,.5.16v-.8l.25-.07v2.28A.4.4,0,0,1,114.47,48.2Zm-.39-.12a1.06,1.06,0,0,0,.38-.07v-.95a.72.72,0,0,0-.44-.16.54.54,0,0,0-.55.6A.56.56,0,0,0,114.08,48.08Z"/><path class="cls-8" d="M116.49,47.58h-1.13a.47.47,0,0,0,.52.5,1.63,1.63,0,0,0,.52-.09v.19a1.7,1.7,0,0,1-.57.1.79.79,0,0,1,0-1.58.7.7,0,0,1,.7.77A.41.41,0,0,1,116.49,47.58Zm-1.14-.16h.9c0-.32-.18-.53-.45-.53S115.37,47.1,115.35,47.42Z"/><path class="cls-8" d="M117.9,48.89h-.26l.41-.76c-.21-.43-.44-.94-.63-1.4h.27a11.85,11.85,0,0,0,.49,1.16c.17-.36.34-.78.48-1.16h.27A23.08,23.08,0,0,1,117.9,48.89Z"/><path class="cls-8" d="M120.37,47.6l-.13,0c-.24-.06-.39-.16-.39-.42s.19-.45.52-.45a1.25,1.25,0,0,1,.46.09V47a1.4,1.4,0,0,0-.41-.08c-.21,0-.32.09-.32.23s.1.19.26.22l.13,0c.24,0,.41.17.41.44s-.2.46-.52.46a1,1,0,0,1-.48-.11V48a1.14,1.14,0,0,0,.43.09c.21,0,.31-.08.31-.24S120.54,47.64,120.37,47.6Z"/><path class="cls-8" d="M121.19,47.49a.75.75,0,0,1,.79-.79.79.79,0,1,1-.79.79Zm1.31,0a.53.53,0,1,0-.52.59A.53.53,0,0,0,122.5,47.49Z"/><path class="cls-8" d="M123.4,47v1.25h-.25V46.72a.41.41,0,0,1,.23.06,1.93,1.93,0,0,1,.58-.08v.23A2,2,0,0,0,123.4,47Z"/><path class="cls-8" d="M125.74,47.48a.73.73,0,0,1-.74.8.85.85,0,0,1-.5-.15v.76h-.25V46.72a.41.41,0,0,1,.23.06,1.34,1.34,0,0,1,.46-.08A.75.75,0,0,1,125.74,47.48Zm-.25,0a.56.56,0,0,0-.61-.59,1,1,0,0,0-.38.07v1a.69.69,0,0,0,.44.15A.54.54,0,0,0,125.49,47.49Z"/><path class="cls-8" d="M126.38,47v1.25h-.24V46.72a.41.41,0,0,1,.23.06,1.86,1.86,0,0,1,.57-.08v.23A2.07,2.07,0,0,0,126.38,47Z"/><path class="cls-8" d="M128.45,47.58h-1.14a.48.48,0,0,0,.52.5,1.63,1.63,0,0,0,.52-.09v.19a1.7,1.7,0,0,1-.57.1.79.79,0,0,1,0-1.58.7.7,0,0,1,.69.77Zm-1.14-.16h.89c0-.32-.18-.53-.44-.53S127.32,47.1,127.31,47.42Z"/><path class="cls-8" d="M130.23,47.27v1H130v-1c0-.26-.16-.4-.44-.4a1.6,1.6,0,0,0-.47.08v1.27h-.25V46.72a.36.36,0,0,1,.24.07,1.88,1.88,0,0,1,.57-.09A.53.53,0,0,1,130.23,47.27Z"/><path class="cls-8" d="M131.87,48.2a1.34,1.34,0,0,1-.46.08.75.75,0,0,1-.8-.78.73.73,0,0,1,.75-.8.8.8,0,0,1,.49.16v-.8l.25-.07v2.28A.35.35,0,0,1,131.87,48.2Zm-.4-.12a1,1,0,0,0,.38-.07v-.95a.69.69,0,0,0-.43-.16.55.55,0,0,0-.56.6A.56.56,0,0,0,131.47,48.08Z"/><path class="cls-8" d="M133.89,47.58h-1.14a.48.48,0,0,0,.53.5,1.61,1.61,0,0,0,.51-.09v.19a1.66,1.66,0,0,1-.57.1.71.71,0,0,1-.73-.79.72.72,0,0,1,.71-.79.7.7,0,0,1,.7.77S133.89,47.55,133.89,47.58Zm-1.14-.16h.89c0-.32-.18-.53-.44-.53S132.77,47.1,132.75,47.42Z"/><path class="cls-8" d="M134.58,48.15a.57.57,0,0,1-.31.49.52.52,0,0,1,0-.11.57.57,0,0,1,.08-.28.15.15,0,0,1-.11-.15.17.17,0,0,1,.18-.17C134.5,47.93,134.58,48,134.58,48.15Z"/><path class="cls-8" d="M137.14,47.48a.73.73,0,0,1-.75.8.9.9,0,0,1-.5-.15v.76h-.24V46.72a.41.41,0,0,1,.23.06,1.34,1.34,0,0,1,.46-.08A.75.75,0,0,1,137.14,47.48Zm-.26,0a.55.55,0,0,0-.6-.59,1.11,1.11,0,0,0-.39.07v1a.69.69,0,0,0,.44.15A.54.54,0,0,0,136.88,47.49Z"/><path class="cls-8" d="M137.78,46v2.26h-.25V46.06Z"/><path class="cls-8" d="M139.2,48.21a1.55,1.55,0,0,1-.48.07c-.36,0-.58-.17-.58-.45s.23-.46.62-.46a1.58,1.58,0,0,1,.42.06v-.15c0-.24-.15-.38-.42-.38a1.8,1.8,0,0,0-.5.08V46.8a1.35,1.35,0,0,1,.55-.1.54.54,0,0,1,.62.56v1A.56.56,0,0,1,139.2,48.21Zm-.39-.11a1.1,1.1,0,0,0,.37-.06V47.6a1,1,0,0,0-.37-.06c-.26,0-.42.11-.42.28S138.55,48.1,138.81,48.1Z"/><path class="cls-8" d="M140.33,47.6l-.13,0c-.25-.06-.4-.16-.4-.42s.2-.45.53-.45a1.29,1.29,0,0,1,.46.09V47a1.4,1.4,0,0,0-.42-.08c-.21,0-.31.09-.31.23s.09.19.25.22l.14,0c.24,0,.41.17.41.44s-.2.46-.53.46a1,1,0,0,1-.48-.11V48a1.23,1.23,0,0,0,.43.09c.21,0,.32-.08.32-.24S140.5,47.64,140.33,47.6Z"/><path class="cls-8" d="M143.51,47.27v1h-.25v-1a.35.35,0,0,0-.38-.39.87.87,0,0,0-.42.1.53.53,0,0,1,0,.23v1h-.25v-1a.35.35,0,0,0-.38-.39,1,1,0,0,0-.38.07v1.28h-.25V46.72a.45.45,0,0,1,.24.06,1.45,1.45,0,0,1,.47-.08.56.56,0,0,1,.41.14,1.07,1.07,0,0,1,.57-.14A.52.52,0,0,1,143.51,47.27Z"/><path class="cls-8" d="M144.92,48.21a1.59,1.59,0,0,1-.48.07c-.36,0-.59-.17-.59-.45s.24-.46.62-.46a1.59,1.59,0,0,1,.43.06v-.15a.37.37,0,0,0-.42-.38,1.74,1.74,0,0,0-.5.08V46.8a1.35,1.35,0,0,1,.55-.1.54.54,0,0,1,.62.56v1A.52.52,0,0,1,144.92,48.21Zm-.39-.11a1.19,1.19,0,0,0,.37-.06V47.6a1,1,0,0,0-.37-.06c-.26,0-.42.11-.42.28S144.27,48.1,144.53,48.1Z"/><path class="cls-8" d="M147.21,48.06v.19a1.36,1.36,0,0,1-.29,0,.43.43,0,0,1-.45-.47v-.9h-.23v-.18h.23v-.38l.24-.07v.45h.49v.18h-.49v.86a.28.28,0,0,0,.28.31A.78.78,0,0,0,147.21,48.06Z"/><path class="cls-8" d="M148.63,48.2a2,2,0,0,1-.54.08.52.52,0,0,1-.59-.57v-1h.24v1c0,.26.16.4.44.4a1.65,1.65,0,0,0,.43-.06V46.73h.25v1.54A.42.42,0,0,1,148.63,48.2Z"/><path class="cls-8" d="M151.53,47.27v1h-.24v-1c0-.26-.16-.4-.44-.4a1.6,1.6,0,0,0-.47.08v1.27h-.25V46.06l.25-.07v.8a1.77,1.77,0,0,1,.56-.09A.53.53,0,0,1,151.53,47.27Z"/><path class="cls-8" d="M152.94,48.21a1.55,1.55,0,0,1-.48.07c-.36,0-.59-.17-.59-.45s.24-.46.62-.46a1.59,1.59,0,0,1,.43.06v-.15c0-.24-.15-.38-.42-.38a1.74,1.74,0,0,0-.5.08V46.8a1.35,1.35,0,0,1,.55-.1.54.54,0,0,1,.62.56v1A.56.56,0,0,1,152.94,48.21Zm-.39-.11a1.1,1.1,0,0,0,.37-.06V47.6a1,1,0,0,0-.37-.06c-.26,0-.42.11-.42.28S152.29,48.1,152.55,48.1Z"/><path class="cls-8" d="M155.13,47.5a.75.75,0,0,1-.8.78,1.34,1.34,0,0,1-.46-.08.35.35,0,0,1-.23.07V46.06l.24-.07v.87a.83.83,0,0,1,.5-.16A.73.73,0,0,1,155.13,47.5Zm-.26,0a.54.54,0,0,0-.55-.6.72.72,0,0,0-.44.16V48a1.11,1.11,0,0,0,.39.07A.55.55,0,0,0,154.87,47.5Z"/><path class="cls-8" d="M155.49,46.26a.14.14,0,0,1,.15-.16.15.15,0,0,1,.16.16.14.14,0,0,1-.16.15A.14.14,0,0,1,155.49,46.26Zm.28,2h-.25V46.73h.25Z"/><path class="cls-8" d="M156.5,46v2.26h-.25V46.06Z"/><path class="cls-8" d="M157,46.26a.16.16,0,1,1,.32,0,.16.16,0,0,1-.32,0Zm.28,2H157V46.73h.24Z"/><path class="cls-8" d="M158.88,48.2a1.26,1.26,0,0,1-.46.08.75.75,0,0,1-.8-.78.73.73,0,0,1,.75-.8.83.83,0,0,1,.5.16v-.8l.25-.07v2.28A.4.4,0,0,1,158.88,48.2Zm-.39-.12a1.06,1.06,0,0,0,.38-.07v-.95a.7.7,0,0,0-.44-.16.54.54,0,0,0-.55.6A.56.56,0,0,0,158.49,48.08Z"/><path class="cls-8" d="M160.54,48.21a1.55,1.55,0,0,1-.48.07c-.36,0-.58-.17-.58-.45s.23-.46.62-.46a1.58,1.58,0,0,1,.42.06v-.15c0-.24-.15-.38-.42-.38a1.8,1.8,0,0,0-.5.08V46.8a1.35,1.35,0,0,1,.55-.1.54.54,0,0,1,.62.56v1A.56.56,0,0,1,160.54,48.21Zm-.39-.11a1.1,1.1,0,0,0,.37-.06V47.6a1,1,0,0,0-.37-.06c-.26,0-.42.11-.42.28S159.89,48.1,160.15,48.1Z"/><path class="cls-8" d="M162.4,48.2a1.3,1.3,0,0,1-.46.08.75.75,0,0,1-.8-.78.73.73,0,0,1,.75-.8.83.83,0,0,1,.5.16v-.8l.25-.07v2.28A.4.4,0,0,1,162.4,48.2Zm-.39-.12a1.06,1.06,0,0,0,.38-.07v-.95a.7.7,0,0,0-.44-.16.54.54,0,0,0-.55.6A.56.56,0,0,0,162,48.08Z"/><path class="cls-8" d="M163.07,48.1a.18.18,0,0,1,.18-.17.18.18,0,1,1,0,.35A.18.18,0,0,1,163.07,48.1Z"/><path class="cls-10" d="M164.07,47.43l1,.42v.2l-1.24-.54v-.16l1.24-.55V47Z"/><path class="cls-10" d="M165.49,48.54l.69-2.53h.25l-.69,2.53Z"/><path class="cls-10" d="M168.2,47.27v1H168v-1a.39.39,0,0,0-.44-.4,1.6,1.6,0,0,0-.47.08v1.27h-.25V46.06l.25-.07v.8a1.77,1.77,0,0,1,.56-.09A.53.53,0,0,1,168.2,47.27Z"/><path class="cls-10" d="M169.21,46.1h.06v2.15H169V46.38l-.52.14V46.3Z"/><path class="cls-10" d="M171.1,47.51l-1.24.54v-.2l1-.42-1-.42V46.8l1.24.55Z"/><path class="cls-10" d="M98.45,50.87l1,.42v.21L98.22,51v-.16l1.23-.54v.2Z"/><path class="cls-10" d="M101.5,50.93a.73.73,0,0,1-.75.8.83.83,0,0,1-.5-.16v.76H100V50.16a.45.45,0,0,1,.24.06,1.35,1.35,0,0,1,.46-.07A.75.75,0,0,1,101.5,50.93Zm-.26,0a.57.57,0,0,0-.61-.59,1.4,1.4,0,0,0-.38.07v1a.7.7,0,0,0,.44.16A.54.54,0,0,0,101.24,50.93Z"/><path class="cls-10" d="M103.19,51,102,51.5v-.21l1-.42-1-.42v-.2l1.24.54Z"/><path class="cls-8" d="M104.45,51.73h0a22.71,22.71,0,0,1-1-2.16h.28a18.5,18.5,0,0,0,.73,1.7c.25-.52.52-1.14.73-1.7h.27A22.69,22.69,0,0,1,104.45,51.73Z"/><path class="cls-8" d="M105.67,49.7a.16.16,0,1,1,.16.16A.16.16,0,0,1,105.67,49.7Zm.29,2h-.25V50.17H106Z"/><path class="cls-8" d="M106.88,51l-.14,0c-.24-.06-.39-.15-.39-.41s.19-.45.52-.45a1.22,1.22,0,0,1,.46.09v.18a1.13,1.13,0,0,0-.41-.09c-.21,0-.32.09-.32.23s.1.19.26.23l.13,0c.24,0,.42.17.42.45s-.2.46-.53.46a1.09,1.09,0,0,1-.48-.11v-.18a1,1,0,0,0,.43.1c.21,0,.32-.09.32-.25S107,51.08,106.88,51Z"/><path class="cls-8" d="M108,51.7h-.25V50.17H108ZM108,49.94l.44-.42-.23-.06-.38.43Z"/><path class="cls-8" d="M109.34,51.51v.18a1,1,0,0,1-.3,0,.44.44,0,0,1-.45-.47v-.91h-.22v-.18h.22V49.8l.25-.07v.44h.48v.18h-.48v.87a.28.28,0,0,0,.28.31Z"/><path class="cls-8" d="M110.57,51.65a1.51,1.51,0,0,1-.48.08c-.35,0-.58-.18-.58-.46s.23-.45.62-.45a1.63,1.63,0,0,1,.43,0v-.14a.37.37,0,0,0-.42-.39,1.43,1.43,0,0,0-.5.09v-.19a1.51,1.51,0,0,1,.55-.09c.38,0,.61.2.61.55v1A.46.46,0,0,1,110.57,51.65Zm-.38-.1a1.19,1.19,0,0,0,.37-.06V51a1.29,1.29,0,0,0-.37-.06c-.26,0-.42.11-.42.28S109.93,51.55,110.19,51.55Z"/><path class="cls-8" d="M112.68,50.72v1h-.25v-1c0-.27-.16-.41-.44-.41a1.39,1.39,0,0,0-.47.09V51.7h-.25V50.16a.49.49,0,0,1,.25.07,2.18,2.18,0,0,1,.57-.08A.52.52,0,0,1,112.68,50.72Z"/><path class="cls-8" d="M113.05,50.93a.79.79,0,0,1,1.57,0,.79.79,0,1,1-1.57,0Zm1.31,0a.53.53,0,1,0-.52.6A.53.53,0,0,0,114.36,50.93Z"/><path class="cls-8" d="M115.44,51l-.13,0c-.25-.06-.4-.15-.4-.41s.2-.45.53-.45a1.25,1.25,0,0,1,.46.09v.18a1.17,1.17,0,0,0-.41-.09c-.21,0-.32.09-.32.23s.09.19.26.23l.13,0c.24,0,.41.17.41.45s-.2.46-.52.46a1.17,1.17,0,0,1-.49-.11v-.18a1.06,1.06,0,0,0,.43.1c.21,0,.32-.09.32-.25S115.61,51.08,115.44,51Z"/><path class="cls-8" d="M118.44,51H117.3a.49.49,0,0,0,.53.5,1.64,1.64,0,0,0,.51-.1v.19a1.45,1.45,0,0,1-.57.11.79.79,0,0,1,0-1.58.7.7,0,0,1,.7.76S118.44,51,118.44,51Zm-1.14-.17h.89c0-.32-.18-.53-.44-.53S117.32,50.54,117.3,50.86Z"/><path class="cls-8" d="M120.23,50.72v1H120v-1c0-.27-.16-.41-.44-.41a1.35,1.35,0,0,0-.47.09V51.7h-.25V50.16a.49.49,0,0,1,.25.07,2.18,2.18,0,0,1,.57-.08A.52.52,0,0,1,120.23,50.72Z"/><path class="cls-8" d="M123,50.26a.66.66,0,0,1-.71.69h-.52v.75h-.27V49.57h.8A.66.66,0,0,1,123,50.26Zm-.27,0a.44.44,0,0,0-.46-.48h-.5v.94h.5A.43.43,0,0,0,122.76,50.27Z"/><path class="cls-8" d="M123.63,50.44V51.7h-.25V50.16a.41.41,0,0,1,.23.06,2,2,0,0,1,.58-.07v.22A2,2,0,0,0,123.63,50.44Z"/><path class="cls-8" d="M124.29,50.93a.79.79,0,0,1,1.58,0,.79.79,0,1,1-1.58,0Zm1.32,0a.53.53,0,1,0-.53.6A.53.53,0,0,0,125.61,50.93Z"/><path class="cls-8" d="M127,51.51v.18a1,1,0,0,1-.3,0,.44.44,0,0,1-.45-.47v-.91h-.22v-.18h.22V49.8l.25-.07v.44H127v.18h-.48v.87a.28.28,0,0,0,.28.31Z"/><path class="cls-8" d="M127.22,50.93a.74.74,0,0,1,.79-.78.73.73,0,0,1,.78.78.75.75,0,0,1-.78.8A.75.75,0,0,1,127.22,50.93Zm1.32,0a.54.54,0,0,0-.53-.59.6.6,0,0,0,0,1.19A.54.54,0,0,0,128.54,50.93Z"/><path class="cls-8" d="M130.67,50.93a.73.73,0,0,1-.74.8.81.81,0,0,1-.5-.16v.76h-.25V50.16a.41.41,0,0,1,.23.06,1.35,1.35,0,0,1,.46-.07A.74.74,0,0,1,130.67,50.93Zm-.25,0a.57.57,0,0,0-.61-.59,1.27,1.27,0,0,0-.38.07v1a.7.7,0,0,0,.44.16A.54.54,0,0,0,130.42,50.93Z"/><path class="cls-8" d="M131.31,49.44V51.7h-.24V49.51Z"/><path class="cls-8" d="M132.74,51.65a1.61,1.61,0,0,1-.48.08c-.36,0-.59-.18-.59-.46s.24-.45.62-.45a1.58,1.58,0,0,1,.43,0v-.14a.37.37,0,0,0-.42-.39,1.43,1.43,0,0,0-.5.09v-.19a1.55,1.55,0,0,1,.55-.09c.39,0,.62.2.62.55v1A.41.41,0,0,1,132.74,51.65Zm-.39-.1a1.19,1.19,0,0,0,.37-.06V51a1.29,1.29,0,0,0-.37-.06c-.26,0-.42.11-.42.28S132.09,51.55,132.35,51.55Z"/><path class="cls-8" d="M133.87,51l-.14,0c-.24-.06-.39-.15-.39-.41s.19-.45.52-.45a1.22,1.22,0,0,1,.46.09v.18a1.17,1.17,0,0,0-.41-.09c-.21,0-.32.09-.32.23s.1.19.26.23l.13,0c.24,0,.41.17.41.45s-.19.46-.52.46a1.09,1.09,0,0,1-.48-.11v-.18a1,1,0,0,0,.43.1c.21,0,.32-.09.32-.25S134,51.08,133.87,51Z"/><path class="cls-8" d="M137,50.72v1h-.24v-1a.36.36,0,0,0-.39-.4.83.83,0,0,0-.41.1.56.56,0,0,1,0,.23v1h-.25v-1a.35.35,0,0,0-.38-.4,1,1,0,0,0-.38.07V51.7h-.25V50.16a.52.52,0,0,1,.23.06,1.51,1.51,0,0,1,.48-.07.55.55,0,0,1,.41.14,1,1,0,0,1,.57-.14A.51.51,0,0,1,137,50.72Z"/><path class="cls-8" d="M138.45,51.65a1.56,1.56,0,0,1-.48.08c-.36,0-.58-.18-.58-.46s.23-.45.62-.45a1.55,1.55,0,0,1,.42,0v-.14a.37.37,0,0,0-.42-.39,1.51,1.51,0,0,0-.5.09v-.19a1.59,1.59,0,0,1,.55-.09c.39,0,.62.2.62.55v1A.44.44,0,0,1,138.45,51.65Zm-.39-.1a1.1,1.1,0,0,0,.37-.06V51a1.19,1.19,0,0,0-.37-.06c-.26,0-.42.11-.42.28S137.8,51.55,138.06,51.55Z"/><path class="cls-8" d="M139.09,51.55a.18.18,0,1,1,.18.18A.18.18,0,0,1,139.09,51.55Z"/><path class="cls-8" d="M142.15,50.72v1h-.25v-1a.35.35,0,0,0-.38-.4.87.87,0,0,0-.42.1.56.56,0,0,1,0,.23v1h-.24v-1a.36.36,0,0,0-.39-.4,1,1,0,0,0-.38.07V51.7h-.24V50.16a.56.56,0,0,1,.23.06,1.47,1.47,0,0,1,.48-.07.52.52,0,0,1,.4.14,1,1,0,0,1,.57-.14A.52.52,0,0,1,142.15,50.72Z"/><path class="cls-8" d="M143.13,51.06a5.84,5.84,0,0,0-.42.64h-.27a5.54,5.54,0,0,1,.54-.79,7.42,7.42,0,0,1-.5-.74h.27c.11.19.24.38.38.58.13-.2.26-.39.37-.58h.27a7.42,7.42,0,0,1-.5.74,7.53,7.53,0,0,1,.55.79h-.28C143.42,51.48,143.28,51.28,143.13,51.06Z"/><path class="cls-10" d="M144.32,50.87l1,.42v.21L144.09,51v-.16l1.23-.54v.2Z"/><path class="cls-10" d="M145.75,52l.69-2.53h.25L146,52Z"/><path class="cls-10" d="M148.55,50.93a.73.73,0,0,1-.75.8.83.83,0,0,1-.5-.16v.76h-.25V50.16a.45.45,0,0,1,.24.06,1.35,1.35,0,0,1,.46-.07A.75.75,0,0,1,148.55,50.93Zm-.26,0a.57.57,0,0,0-.61-.59,1.33,1.33,0,0,0-.38.07v1a.7.7,0,0,0,.44.16A.54.54,0,0,0,148.29,50.93Z"/><path class="cls-10" d="M150.24,51,149,51.5v-.21l1-.42-1-.42v-.2l1.24.54Z"/><path class="cls-10" d="M89.84,54.32l1,.42v.2l-1.23-.54v-.16l1.23-.55v.21Z"/><path class="cls-10" d="M91.27,55.43,92,52.9h.25l-.69,2.53Z"/><path class="cls-10" d="M94.07,54.39a.75.75,0,0,1-.81.78,1.34,1.34,0,0,1-.46-.08.42.42,0,0,1-.23.07V53l.25-.07v.86a.9.9,0,0,1,.5-.15A.73.73,0,0,1,94.07,54.39Zm-.26,0a.54.54,0,0,0-.55-.6.7.7,0,0,0-.44.16v.95a1,1,0,0,0,.38.07A.56.56,0,0,0,93.81,54.39Z"/><path class="cls-10" d="M94.36,54.38a.75.75,0,0,1,.79-.79.79.79,0,1,1-.79.79Zm1.32,0a.54.54,0,0,0-.53-.59.59.59,0,1,0,.53.59Z"/><path class="cls-10" d="M97.49,55.09a1.36,1.36,0,0,1-.47.08.75.75,0,0,1-.8-.78.73.73,0,0,1,.75-.8.9.9,0,0,1,.5.15V53l.25-.07v2.28A.42.42,0,0,1,97.49,55.09Zm-.4-.12a1,1,0,0,0,.38-.07V54a.7.7,0,0,0-.44-.16.54.54,0,0,0-.55.6A.56.56,0,0,0,97.09,55Z"/><path class="cls-10" d="M98.51,55.78h-.26l.41-.76c-.21-.43-.44-.94-.63-1.4h.27c.14.38.31.8.48,1.16.17-.36.35-.78.49-1.16h.27A23.08,23.08,0,0,1,98.51,55.78Z"/><path class="cls-10" d="M101.12,54.4l-1.23.54v-.2l1-.42-1-.42v-.21l1.23.55Z"/><path class="cls-10" d="M89.84,57.76l1,.42v.21l-1.23-.55v-.16l1.23-.54v.2Z"/><path class="cls-10" d="M91.27,58.88,92,56.35h.25l-.69,2.53Z"/><path class="cls-10" d="M94,57.61v1h-.25v-1c0-.26-.16-.4-.44-.4a1.39,1.39,0,0,0-.47.09v1.27h-.25V56.4l.25-.07v.79a2.19,2.19,0,0,1,.57-.09A.53.53,0,0,1,94,57.61Z"/><path class="cls-10" d="M95.24,58.4v.18a1,1,0,0,1-.29,0,.44.44,0,0,1-.46-.47v-.91h-.22v-.18h.22v-.37l.25-.07v.44h.48v.18h-.48v.87a.28.28,0,0,0,.28.31Z"/><path class="cls-10" d="M97.81,57.61v1h-.25v-1a.36.36,0,0,0-.39-.4.83.83,0,0,0-.41.1.56.56,0,0,1,0,.23v1h-.25v-1a.35.35,0,0,0-.38-.4,1,1,0,0,0-.38.07v1.29h-.25V57.05a.41.41,0,0,1,.23.06,1.56,1.56,0,0,1,.48-.08.54.54,0,0,1,.41.15,1,1,0,0,1,.57-.15A.53.53,0,0,1,97.81,57.61Z"/><path class="cls-10" d="M98.52,56.33v2.26h-.24V56.4Z"/><path class="cls-10" d="M100.31,57.84l-1.24.55v-.21l1-.42-1-.42v-.2l1.24.54Z"/><path class="cls-11" d="M17.72,28.76v73a7.85,7.85,0,0,0,7.85,7.85H126.39V43.36a7.84,7.84,0,0,0-7.85-7.85H75.62A8.61,8.61,0,0,1,69.54,33L60,23.41a8.57,8.57,0,0,0-6.1-2.52l-28.3,0A7.84,7.84,0,0,0,17.72,28.76Z"/><path class="cls-12" d="M93.44,35.59,22.28,106.76a1.8,1.8,0,0,0,1.27,3.08H48.44l74.63-74.62Z"/><path class="cls-3" d="M126.39,109.59l.67-66.16a7.85,7.85,0,0,0-7.85-7.92H75.54A8.63,8.63,0,0,1,69.45,33l-9.54-9.55a8.61,8.61,0,0,0-6.09-2.52H25.57a7.86,7.86,0,0,0-7.85,7.85v73a7.85,7.85,0,0,0,7.85,7.85H144.14"/></svg>