<svg id="Capa_1" data-name="Capa 1" xmlns="http://www.w3.org/2000/svg" viewBox="0 0 484.53 411.78"><defs><style>.cls-1{opacity:0.1;}.cls-2{fill:#f4aa78;}.cls-3{fill:none;stroke:#000;stroke-miterlimit:10;}.cls-4{fill:#6c4f4f;}.cls-5{fill:#6d1322;}.cls-6{fill:#9a5a5a;}.cls-7{fill:#520f1a;}.cls-8{fill:#cea6a6;}.cls-9{fill:#5b3c45;}.cls-10{fill:#9e8b8f;}.cls-11{fill:#9c1923;}.cls-12{fill:#fce8ed;}.cls-13{fill:#4d2632;}.cls-14{opacity:0.2;}.cls-15{fill:#000100;}.cls-16{opacity:0.3;}.cls-17{fill:#fafafa;}.cls-18{opacity:0.6;}.cls-19{opacity:0.5;}.cls-20{fill:#fff;}.cls-21{fill:#f7d677;}.cls-22{fill:#f6cf64;}</style></defs><title>proto_001</title><ellipse class="cls-1" cx="242.26" cy="367.62" rx="242.26" ry="44.16"/><path class="cls-2" d="M47,154.37V142.88a23,23,0,0,1,23-23h64.13a19.29,19.29,0,0,1,13.66,5.66l24.36,24.35a19.32,19.32,0,0,0,13.67,5.67H321a23,23,0,0,1,23,23V367.62H293.82Z"/><path class="cls-3" d="M47,143.86v-1a23,23,0,0,1,23-23h62.8a19.29,19.29,0,0,1,13.66,5.66L170.88,150a19.32,19.32,0,0,0,13.67,5.67H321a23,23,0,0,1,23,23v189"/><polygon class="cls-4" points="327.22 259.98 239.98 261.05 310.96 275.33 392.97 271.37 327.22 259.98"/><path class="cls-5" d="M311,276.82h-.29l-71-14.31a1.47,1.47,0,0,1,.27-2.91l87.25-1.07h.27l65.75,11.36a1.48,1.48,0,0,1-.2,2.94l-82,4ZM254,262.36l57.06,11.49,68.4-3.33-52.37-9Z"/><path class="cls-6" d="M307.12,264.47H307l-35.16-6.8a.73.73,0,0,1-.58-.79.71.71,0,0,1,.71-.68l45-1.35,39.38,6.38a.74.74,0,0,1,.62.78.73.73,0,0,1-.72.69Z"/><path class="cls-7" d="M317,255.61l39.25,6.28-49.13,1.88L272,257l45-1.37m0-1.47h0l-45.06,1.36a1.48,1.48,0,0,0-.22,2.94l35.16,6.79h.27l49.11-1.89a1.5,1.5,0,0,0,.18-3l-39.23-6.26Z"/><path class="cls-6" d="M307.83,269.87a.74.74,0,0,1-.73-.74v-5.32a.73.73,0,0,1,.7-.73L356.48,261a.73.73,0,0,1,.47.21.75.75,0,0,1,.22.53V267a.73.73,0,0,1-.71.73Z"/><path class="cls-7" d="M356.43,261.76V267l-48.68,2.14v-5.32l48.68-2.05m0-1.47h0l-48.68,2a1.48,1.48,0,0,0-1.41,1.48v5.32a1.49,1.49,0,0,0,.45,1.07,1.51,1.51,0,0,0,1,.4h0l48.59-2.14a1.49,1.49,0,0,0,1.43-1.47v-5.23a1.47,1.47,0,0,0-1.49-1.47Z"/><path class="cls-6" d="M307.7,269.86,271.83,263a.76.76,0,0,1-.62-.73V257a.69.69,0,0,1,.28-.57.74.74,0,0,1,.47-.18h.15L308,263.06a.74.74,0,0,1,.6.73v5.32a.71.71,0,0,1-.28.57.72.72,0,0,1-.47.18Z"/><path class="cls-7" d="M272,257l35.87,6.83v5.32L272,262.31V257m0-1.48a1.47,1.47,0,0,0-.94.34,1.48,1.48,0,0,0-.54,1.14v5.33a1.48,1.48,0,0,0,1.2,1.45l35.88,6.83h.27a1.45,1.45,0,0,0,.94-.34,1.5,1.5,0,0,0,.56-1.14v-5.32a1.52,1.52,0,0,0-1.22-1.46l-35.87-6.83Z"/><path class="cls-8" d="M306.65,259.8a6.12,6.12,0,0,0,4.62.24,2.42,2.42,0,0,0-2.08-2.73l-.33,0S306.94,257.3,306.65,259.8Z"/><path class="cls-5" d="M309.23,261.11a5.91,5.91,0,0,1-2.91-.68.75.75,0,0,1-.37-.7,3,3,0,0,1,5.32-2.17,3.57,3.57,0,0,1,.8,2.55.78.78,0,0,1-.52.65A8.69,8.69,0,0,1,309.23,261.11Zm-1.71-1.77a6,6,0,0,0,3,.13,1.77,1.77,0,0,0-.41-1,1.61,1.61,0,0,0-1.26-.49A1.51,1.51,0,0,0,307.52,259.34Z"/><path class="cls-8" d="M313.14,256.67a4,4,0,0,0,3.08.16,1.62,1.62,0,0,0-1.4-1.82h-.22S313.32,255,313.14,256.67Z"/><path class="cls-5" d="M314.84,257.59h0a4,4,0,0,1-2-.45.53.53,0,0,1-.28-.52,2.09,2.09,0,0,1,3.65-1.49,2.46,2.46,0,0,1,.54,1.75.54.54,0,0,1-.39.49A5.88,5.88,0,0,1,314.84,257.59Zm-1-1.23a3.39,3.39,0,0,0,1,.16h0a4.58,4.58,0,0,0,.83-.08,1.27,1.27,0,0,0-.26-.55,1.07,1.07,0,0,0-.79-.31A.94.94,0,0,0,313.79,256.36Z"/><path class="cls-8" d="M318.77,259.8a6.12,6.12,0,0,0,4.64.24,2.45,2.45,0,0,0-2.12-2.74l-.3,0S319,257.3,318.77,259.8Z"/><path class="cls-5" d="M321.25,261.11a6,6,0,0,1-2.92-.68.74.74,0,0,1-.36-.7,3.25,3.25,0,0,1,3-3.24,3.29,3.29,0,0,1,2.37,1,3.61,3.61,0,0,1,.77,2.55.73.73,0,0,1-.51.65A8.3,8.3,0,0,1,321.25,261.11Zm-1.62-1.77a6.18,6.18,0,0,0,3.05.13,2,2,0,0,0-.41-1A1.61,1.61,0,0,0,321,258C320.8,258,319.92,258.13,319.63,259.34Z"/><path class="cls-8" d="M329,259.36a6.09,6.09,0,0,0,4.63.24,2.43,2.43,0,0,0-2.09-2.73,1.62,1.62,0,0,0-.31,0S329.27,256.85,329,259.36Z"/><path class="cls-5" d="M331.57,260.66h0a6.05,6.05,0,0,1-2.92-.67.73.73,0,0,1-.36-.71,3.06,3.06,0,0,1,2.91-3.19,3,3,0,0,1,2.41,1,3.61,3.61,0,0,1,.78,2.49.77.77,0,0,1-.52.65A8.18,8.18,0,0,1,331.57,260.66Zm-1.72-1.75a5.29,5.29,0,0,0,1.72.27h0a6.41,6.41,0,0,0,1.31-.14,1.84,1.84,0,0,0-.38-1,1.82,1.82,0,0,0-1.29-.5,1.61,1.61,0,0,0-1.36,1.33Z"/><path class="cls-8" d="M292.24,257.64a6,6,0,0,0,4.63.24,2.44,2.44,0,0,0-2.13-2.73,1.42,1.42,0,0,0-.29,0S292.48,255.13,292.24,257.64Z"/><path class="cls-5" d="M294.77,258.94h0a6.19,6.19,0,0,1-2.92-.67.75.75,0,0,1-.36-.71,3.05,3.05,0,0,1,5.33-2.17,3.69,3.69,0,0,1,.78,2.56.75.75,0,0,1-.52.65A8.23,8.23,0,0,1,294.77,258.94Zm-1.62-1.75a5.24,5.24,0,0,0,1.62.27h0a6.53,6.53,0,0,0,1.33-.14,1.87,1.87,0,0,0-.4-1,1.67,1.67,0,0,0-1.28-.49,1.51,1.51,0,0,0-1.35,1.32Z"/><path class="cls-9" d="M434.05,55.66a13.07,13.07,0,0,1-3.47-.46,12.46,12.46,0,0,1-9.06-9.62c-.65-3.13-1-11.28,9.64-19.6A93.56,93.56,0,0,1,445,17a27.83,27.83,0,0,0-6.62-5.46A47.66,47.66,0,0,0,417,5.44c-7.14-.52-12.17,1.2-15.38,5.24-4.4,5.57-4.55,14.6-3.88,21.3a74,74,0,0,0,2.64,13.6,2.68,2.68,0,1,1-5.11,1.62c-.29-1.12-8.16-26.77,2.26-39.85,4.33-5.45,11.05-7.9,20-7.25A53,53,0,0,1,441.14,7a32.11,32.11,0,0,1,8.76,7.66,53.86,53.86,0,0,1,5.42-2.23c7.8-2.84,15-3.89,20.26-3a11.51,11.51,0,0,1,8.12,4.86,2.68,2.68,0,0,1-4.55,2.84h0a6.58,6.58,0,0,0-4.49-2.51c-6-1-13.92,1-21.81,4.49.31.62.59,1.25.85,1.88,3.69,9,1.62,19.25-5.47,27.31a22.39,22.39,0,0,1-8.84,6.36A16,16,0,0,1,434.05,55.66Zm14-34.21a90.56,90.56,0,0,0-13.58,8.75c-5.81,4.56-8.61,9.73-7.69,14.29A7.08,7.08,0,0,0,432,50c3.91,1,8.38-.88,12.25-5.28,5.83-6.58,7.48-14.52,4.55-21.72C448.54,22.49,448.29,22,448,21.45Z"/><polygon class="cls-10" points="324.25 213.88 308.64 250.6 309.23 255.84 318.48 247.29 331.42 217.55 324.25 213.88"/><path class="cls-7" d="M309.23,257.27a1.44,1.44,0,0,1-.5-.1,1.41,1.41,0,0,1-.93-1.18l-.58-5.23a1.65,1.65,0,0,1,.11-.73l15.54-36.72a1.47,1.47,0,0,1,.85-.77,1.32,1.32,0,0,1,1.13,0L332,216.2a1.44,1.44,0,0,1,.67,1.85l-13,29.74a1.54,1.54,0,0,1-.34.49l-9.25,8.55A1.46,1.46,0,0,1,309.23,257.27Zm.87-6.49.23,2,6.95-6.49,12.29-28.23-4.6-2.3Z"/><path class="cls-11" d="M408.87,51.73l-19.33-8.21a5.33,5.33,0,0,0-2.12-.44,4.15,4.15,0,0,0-3.93,2.35l-40.79,96a3.92,3.92,0,0,0,.11,3.25,5.31,5.31,0,0,0,2.78,2.46l19.32,8.21a5.38,5.38,0,0,0,2.13.44,4.17,4.17,0,0,0,3.94-2.37l40.69-96A4.52,4.52,0,0,0,408.87,51.73Z"/><path class="cls-7" d="M410,49.1l-19.33-8.21a8,8,0,0,0-3.24-.68,7,7,0,0,0-6.49,4.12l-40.87,96a6.67,6.67,0,0,0,.17,5.53,8,8,0,0,0,4.16,3.93L363.71,158a8.09,8.09,0,0,0,3.25.68,7,7,0,0,0,6.49-4.12l40.79-96A7.39,7.39,0,0,0,410,49.1ZM413,58l-40.79,96a5.93,5.93,0,0,1-7.93,2.7L345,148.45a5.92,5.92,0,0,1-3.57-7.58h0l40.77-96a6,6,0,0,1,7.95-2.71l19.31,8.21A6,6,0,0,1,413,58Z"/><path class="cls-7" d="M409.42,50.42l-19.31-8.23a6,6,0,0,0-7.95,2.69l-40.77,96a5.92,5.92,0,0,0,3.57,7.58h0l19.32,8.21a5.93,5.93,0,0,0,7.93-2.7L413,58A5.94,5.94,0,0,0,409.42,50.42Zm2.25,7-40.77,96a4.17,4.17,0,0,1-3.94,2.35,5.37,5.37,0,0,1-2.13-.43l-19.24-8.2a5.23,5.23,0,0,1-2.69-2.53,3.9,3.9,0,0,1-.12-3.24l40.71-95.93a4.16,4.16,0,0,1,3.93-2.36,5.32,5.32,0,0,1,2.12.43l19.33,8.23A4.52,4.52,0,0,1,411.67,57.44Z"/><path class="cls-12" d="M343.27,216.35a5.77,5.77,0,0,1-7.45,3.24L319.6,212.7a5.74,5.74,0,0,1-2.83-7.62h0l24.92-58.62a5.75,5.75,0,0,1,7.44-3.24l16.22,6.89a5.76,5.76,0,0,1,2.82,7.63Z"/><path class="cls-7" d="M337.9,221.44a6.75,6.75,0,0,1-2.63-.53L319,214a6.79,6.79,0,0,1-3.74-4,7.4,7.4,0,0,1,.16-5.53l24.9-58.64a7.35,7.35,0,0,1,6.69-4.54,6.63,6.63,0,0,1,2.64.54l16.23,6.89a6.89,6.89,0,0,1,3.75,4,7.5,7.5,0,0,1-.17,5.53L344.6,216.9A7.33,7.33,0,0,1,337.9,221.44Zm9.15-77.23a4.45,4.45,0,0,0-4,2.79l-24.92,58.64a4.6,4.6,0,0,0-.1,3.42,4,4,0,0,0,2.17,2.32l16.23,6.9a4.12,4.12,0,0,0,1.51.31,4.47,4.47,0,0,0,4.05-2.81l24.93-58.64a4.6,4.6,0,0,0,.09-3.42,3.94,3.94,0,0,0-2.17-2.3l-16.23-6.9A3.79,3.79,0,0,0,347.05,144.21Z"/><circle class="cls-13" cx="354.63" cy="153.23" r="4.84"/><circle class="cls-13" cx="349.32" cy="165.69" r="4.84"/><circle class="cls-13" cx="344.08" cy="178.06" r="4.84"/><circle class="cls-13" cx="338.26" cy="191.77" r="4.84"/><path class="cls-11" d="M381.28,157.22a6,6,0,0,1-7.56,3.69l-38.39-16.23a6,6,0,0,1-2.61-8h0A6,6,0,0,1,340.3,133l38.44,16.29A6,6,0,0,1,381.28,157.22Z"/><path class="cls-7" d="M375.69,162.74a6.22,6.22,0,0,1-2.52-.49l-38.35-16.33a7.44,7.44,0,0,1-3.36-9.89,7.86,7.86,0,0,1,7-4.86,6.34,6.34,0,0,1,2.47.5l38.4,16.24a7.42,7.42,0,0,1,3.36,9.88A7.87,7.87,0,0,1,375.69,162.74ZM338.37,134A4.84,4.84,0,0,0,334,137.2a4.54,4.54,0,0,0,1.83,6.12l38.47,16.27a3.3,3.3,0,0,0,1.35.28,4.89,4.89,0,0,0,4.33-3.25,4.59,4.59,0,0,0-1.84-6.13l-38.4-16.22a3.29,3.29,0,0,0-1.35-.31Z"/><path class="cls-13" d="M362.5,158.83a4.87,4.87,0,1,0-.2,9l2.74-6.49A4.85,4.85,0,0,0,362.5,158.83Z"/><path class="cls-13" d="M357,171.73a4.87,4.87,0,1,0-.2,9l2.74-6.49A4.85,4.85,0,0,0,357,171.73Z"/><path class="cls-13" d="M351.41,185a4.87,4.87,0,1,0-.19,9l2.74-6.49A4.7,4.7,0,0,0,351.41,185Z"/><path class="cls-13" d="M345.59,198.45a4.87,4.87,0,1,0-4,8.89,4.79,4.79,0,0,0,3.77.08l2.75-6.49A4.94,4.94,0,0,0,345.59,198.45Z"/><path class="cls-13" d="M340.72,160.08a4.84,4.84,0,1,0,.54-9.1l-3,6.89A4.85,4.85,0,0,0,340.72,160.08Z"/><path class="cls-13" d="M335.2,173a4.87,4.87,0,0,0,4.77-8.49,4.46,4.46,0,0,0-1-.42,4.91,4.91,0,0,0-3.25-.19l-2.92,6.89A4.7,4.7,0,0,0,335.2,173Z"/><path class="cls-13" d="M329.61,186.14a4.87,4.87,0,0,0,4.76-8.49,4.46,4.46,0,0,0-1-.42,4.73,4.73,0,0,0-3.25-.19l-2.93,6.89A4.87,4.87,0,0,0,329.61,186.14Z"/><path class="cls-13" d="M324,199.39a4.87,4.87,0,1,0,4.79-8.47,4.67,4.67,0,0,0-1-.43,4.82,4.82,0,0,0-3.24-.2l-2.92,6.9A4.81,4.81,0,0,0,324,199.39Z"/><path class="cls-13" d="M337.07,206.91a4.87,4.87,0,1,0-8.31,1l4.43,1.88A4.87,4.87,0,0,0,337.07,206.91Z"/><path class="cls-13" d="M340.17,211.35a4.79,4.79,0,0,0-3.57,0l6.12,2.6A4.88,4.88,0,0,0,340.17,211.35Z"/><path class="cls-13" d="M322.45,203.45a4.75,4.75,0,0,0-3.24-.18l-.21.52,6.16,2.61A4.85,4.85,0,0,0,322.45,203.45Z"/><path class="cls-13" d="M317.58,203.19l26.53,11.36s-1.31,6.49-7.38,5.68L318,212.11S314.47,209.31,317.58,203.19Z"/><g class="cls-14"><polygon class="cls-15" points="333.32 143.79 339.54 159.19 363.4 169.33 367.9 158.73 333.32 143.79"/></g><g class="cls-14"><path class="cls-15" d="M332,138.37,380.59,159s-1.5,3.49-6.49,2.14l-39.43-16.74S330.82,142,332,138.37Z"/></g><g class="cls-16"><path class="cls-17" d="M327.45,212.55a1.34,1.34,0,0,1-.52-.1l-8.45-3.6a1.26,1.26,0,0,1-.72-.73,1.29,1.29,0,0,1,0-1l19.72-46.29a1.33,1.33,0,0,1,1.74-.71,1.34,1.34,0,0,1,.71,1.75l-19.17,45.09L328,210a1.34,1.34,0,0,1,.72,1.74v0A1.31,1.31,0,0,1,327.45,212.55Z"/></g><g class="cls-16"><path class="cls-17" d="M373.87,76.46a1.94,1.94,0,0,1-.7-.2,1.79,1.79,0,0,1-1-2.36h0l12.58-29.57a1.78,1.78,0,0,1,2.33-1l0,0,9.49,4a1.82,1.82,0,0,1-1.41,3.34l-7.82-3.32L375.56,75.3A1.81,1.81,0,0,1,373.87,76.46Z"/></g><g class="cls-16"><path class="cls-17" d="M346.68,141.16A1.63,1.63,0,0,1,346,141l-8.61-3.65a1.82,1.82,0,0,1,1.41-3.35l8.61,3.65a1.82,1.82,0,0,1-.69,3.49Z"/></g><g class="cls-14"><path class="cls-15" d="M375,143.89a2,2,0,0,1-.71-.15,1.82,1.82,0,0,1-1-2.37l36.31-85.45A1.82,1.82,0,0,1,412,55h0a1.8,1.8,0,0,1,1,2.35v0l-36.31,85.44A1.82,1.82,0,0,1,375,143.89Z"/></g><g class="cls-18"><path class="cls-17" d="M316.69,236.89a.66.66,0,0,1-.61-.93l8.24-19.38a.66.66,0,0,1,.87-.36.67.67,0,0,1,.36.87l-8.24,19.39A.68.68,0,0,1,316.69,236.89Z"/></g><path class="cls-7" d="M309.67,254.74a.2.2,0,0,1-.15,0,.2.2,0,0,1,0-.26h0l8.63-7.86,12.63-28.73a.19.19,0,0,1,.25-.1.19.19,0,0,1,.1.26l-12.64,28.7h0l-8.69,8Z"/><g class="cls-19"><path class="cls-20" d="M422.58,202.82H366.11a2,2,0,0,1,0-4h56.47a2,2,0,0,1,.36,4A2.16,2.16,0,0,1,422.58,202.82Z"/></g><g class="cls-19"><path class="cls-20" d="M412.63,191.22H376.27a2,2,0,0,1-.36-4,2.16,2.16,0,0,1,.36,0h36.36a2,2,0,0,1,.36,4Z"/></g><g class="cls-19"><path class="cls-20" d="M423.47,191.22H417a2,2,0,1,1-.36-4,2.16,2.16,0,0,1,.36,0h6.49a2,2,0,0,1,.36,4Z"/></g><g class="cls-19"><path class="cls-20" d="M404,179.23H368.79a2,2,0,0,1,0-4H404a2,2,0,0,1,0,4Z"/></g><g class="cls-19"><path class="cls-20" d="M410.8,179.23h-.44a2,2,0,0,1,0-4h.44a2,2,0,0,1,0,4Z"/></g><g class="cls-19"><path class="cls-20" d="M451.31,179.23H416.09a2,2,0,1,1,0-4h35.22a2,2,0,0,1,0,4Z"/></g><path class="cls-21" d="M25.13,163.64V347.81a19.8,19.8,0,0,0,19.8,19.81H299.36V200.47a19.81,19.81,0,0,0-19.81-19.81H171.24a21.73,21.73,0,0,1-15.36-6.36L131.7,150.12a21.75,21.75,0,0,0-15.37-6.36l-71.42.08A19.8,19.8,0,0,0,25.13,163.64Z"/><path class="cls-22" d="M216.22,180.87,36.62,360.47a4.56,4.56,0,0,0,3.23,7.78h62.81L291,179.93Z"/><path class="cls-3" d="M299.36,367.62l1.69-167a19.81,19.81,0,0,0-19.81-20H171a21.73,21.73,0,0,1-15.36-6.36l-24.08-24.08a21.73,21.73,0,0,0-15.36-6.36H44.93a19.8,19.8,0,0,0-19.8,19.8V347.81a19.8,19.8,0,0,0,19.8,19.81H344.15"/></svg>