<svg id="Capa_1" data-name="Capa 1" xmlns="http://www.w3.org/2000/svg" viewBox="0 0 570.19 479.75"><defs><style>.cls-1{fill:#052937;}.cls-2{fill:#e3f2f6;}.cls-3{fill:#74a5ad;}.cls-4{fill:#d2eaef;}.cls-5{fill:#89cfe4;}.cls-6{fill:#06080a;}.cls-7{opacity:0.7;}.cls-8{fill:#fff;}.cls-9{opacity:0.5;}</style></defs><title>Sin título-1</title><path class="cls-1" d="M0,218.68q0-77.49,0-155C0,42.77,10.75,32,31.59,32c17.56,0,35.13-.34,52.67.18,6.54.19,8.24-2,7.53-7.92a72.31,72.31,0,0,1-.05-10.41C92,5.51,97.8,0,106.38,0s14.53,5.44,14.73,13.73c.11,4.69.17,9.4,0,14.08C121,31.06,122.3,32,125.41,32q51.45-.11,102.9,0c3.66,0,4.53-1.54,4.39-4.79-.18-4.28-.17-8.58,0-12.86C233,5.56,239.34-.19,248.33,0c8.33.18,13.59,5.84,13.86,14.62.16,5.47-2.31,12.47,1,16,3.64,3.89,10.82,1.25,16.43,1.28,28.58.17,57.17-.09,85.75.22,5.81.07,7.54-1.76,7-7.23a72.24,72.24,0,0,1,0-11C372.66,5.58,378.62,0,387,0c8.64,0,14.32,5.24,14.69,13.78a86.23,86.23,0,0,1,0,12.24c-.51,5.09,1.67,6.1,6.29,6.06,24.3-.19,48.59-.14,72.89,0,9.4,0,17.56,3.19,23.72,10.63,5,6.05,4.3,13.58,4.46,20.5.47,21.63.83,43.3,0,64.91-1.46,39.38-.15,78.76-.8,118.14-.07,4,1.51,6.16,4.77,8.3,33.38,21.9,52.78,52.41,56.51,92.49,3.46,37.19-8.28,69.36-33.82,96-20.88,21.74-46.89,34-77.37,36.36-32.2,2.53-60.88-6.08-86.1-26-14.59-11.54-26.37-25.63-34-42.68-2.28-5.09-5.07-6.17-10.16-6.16-99,.14-198,0-297,.21-10.06,0-18.48-2.43-24.88-10.41C1.52,388.4,0,381.59,0,374.25Q0,296.46,0,218.68Zm355.22,59.65c12.34-13.28,26.4-24.23,42.83-32,5.89-2,11.73-4.21,17.69-6,16.33-5,33.07-4.9,49.88-3.75l23.62,5.93v-91H19.45V371.33c0,12.42,2,14.36,14.61,14.36h288.5c1.22,0,2.45-.06,3.67,0,2.31.14,3.23-.34,2.61-3.1-2.73-12.19-3.06-24.56-2.11-37a180.72,180.72,0,0,1,4.91-24.48q3.69-9.19,7.39-18.41A216.91,216.91,0,0,1,355.24,278.33ZM255,133.75H430.14c16.94,0,33.88.05,50.82,0,8,0,9.78-1.9,9.79-9.64q0-31.23,0-62.46c0-9.83-1.4-11.25-11.33-11.25q-33.68,0-67.36,0c-9.6,0-9.59,0-10.09,9.82-.05,1-.16,2-.28,3.05-1,8.12-7.16,13.2-15.69,12.85a14.17,14.17,0,0,1-13.72-13.67,36,36,0,0,1,0-6.73c.57-4.28-1-5.45-5.33-5.42-31,.19-62.05.1-93.07.1-11.14,0-11.14,0-11.57,11.39-.33,8.46-6,14.23-14.24,14.33-8.51.11-14.86-5.65-15.39-14a28.44,28.44,0,0,1,0-6.12c.72-4.69-1.22-5.7-5.71-5.67-30.82.21-61.64.09-92.47.13-4.24,0-9.52-1.2-12.44.84s-.68,7.6-1,11.6c-.56,7.75-6.63,13.27-14.73,13.27S92.19,70.59,91.76,62.8c-.17-3-.13-6.12,0-9.18.08-2.27-.6-3.29-3.08-3.28-20.61.07-41.23-.11-61.84.18-4.66.07-7.55,2.68-7.48,8.33.26,22.25.22,44.5,0,66.75,0,5,2.48,7.07,6.64,7.92a34.14,34.14,0,0,0,6.72.22ZM551.61,366.42c-2.24,0-4.47.16-6.67,0-4.11-.37-6.21-2.76-6.06-6.9.22-5.83,4.12-6.74,8.89-6.57,2.23.08,4.64,1,4.34-3.37-3.42-48.37-43.34-89.76-91.53-94.87-4.59-.48-8-1.28-7.29,5.36.4,3.72-2.17,6-6.05,6.23-4.12.26-7.51-1.94-7.25-5.71.61-8.66-5-6-8.93-5.28-50.87,9.1-82.88,50.81-86.23,92.59-.33,4.19.15,5.48,4.35,5.14,4.38-.36,7.15,2,7.26,6.35.12,4.59-2.48,7.43-7.21,7-4.54-.44-4.4,1.88-4,5.1a95.82,95.82,0,0,0,11.31,35.16c17.31,30.94,43.42,49.32,78.72,54.27,2.46.34,4.46.91,4.75-3.06.25-3.45,2.92-5.75,6.83-5.62s6.2,2.21,6.44,6c.19,3.07,1.37,3.6,4.23,3.33C510.34,456.55,548.57,413.52,551.61,366.42Z"/><path class="cls-2" d="M339,302.73q-3.69,9.21-7.39,18.41c-2.43,0-4.87-.15-7.27.1-8.51.92-12.71,5.64-12.19,13.49.48,7.18,5.3,10.79,14.55,10.89-1,12.42-.62,24.79,2.11,37,.62,2.76-.3,3.24-2.61,3.1-1.22-.07-2.45,0-3.67,0H34.06c-12.63,0-14.61-1.94-14.61-14.36V151.44H489.26v91l-23.62-5.93c-2.23-5.16-6.74-6-11.6-6.06q-20.18-.06-40.34,0c-11.61,0-15.83,4.31-15.63,15.84-16.43,7.81-30.49,18.76-42.83,32-10.37,0-20.75-.15-31.13-.08-6.41.05-11.17,4.18-11.89,10-.88,7.11,2.35,11.63,9.21,13.51C327.26,303.34,333.17,302.27,339,302.73Zm-81.79-47.85c7.55,0,15.1.12,22.65,0s12.66-5,12.76-11.92c.11-7.26-4.93-12.35-12.87-12.43q-22-.24-44.08,0c-7.84.08-13.1,5.44-12.88,12.55.21,6.91,5.34,11.68,13,11.81C243,255,250.09,254.88,257.24,254.88ZM168,186.34c-7.14,0-14.28,0-21.42,0-8,.05-12.9,4.18-13.27,11.2-.38,7.41,4.1,12.84,12.18,13.07,15.08.42,30.19.35,45.27,0,7.19-.16,12.66-6.25,12.39-12.61-.3-6.88-5.46-11.57-13.12-11.68C182.72,186.26,175.37,186.35,168,186.34Zm85.76,0c-7.14,0-14.28,0-21.41,0-8.12.05-12.93,4.1-13.31,11.11-.41,7.74,3.63,12.86,12,13.12,15.27.48,30.58.4,45.86,0,6.87-.17,12.19-6.37,11.9-12.44-.33-7-5.37-11.67-13-11.79C268.47,186.26,261.13,186.35,253.79,186.34Zm-87.47,44.11c-6.93,0-13.86,0-20.78,0-8.27.05-14.62,5.53-14.47,12.43s6.18,11.93,14.31,12q21.08.13,42.17,0c8.42-.06,13.18-4.4,13.32-11.79.15-7.83-4.55-12.43-13.16-12.59C180.58,230.34,173.45,230.45,166.32,230.45Zm267.2-44.1c-7.54,0-15.08-.1-22.62,0s-12.57,4.37-12.93,11c-.4,7.17,3.84,12.93,11.42,13.18,15.67.53,31.38.49,47.05,0,6.87-.22,11.83-6.69,11.34-12.85-.53-6.62-5.58-11.16-12.87-11.29C447.78,186.25,440.65,186.35,433.52,186.35ZM81.5,345.59c8,0,15.89.16,23.83,0,6.54-.17,11-4.49,11.89-10.92.73-5.39-2.79-10.33-8.81-12.35a22.09,22.09,0,0,0-7.19-1.14c-12.83.06-25.66,0-38.5.07a24.42,24.42,0,0,0-6.58,1c-6.69,1.95-9.41,6.37-8.53,13.43.71,5.78,5.48,9.88,11.89,10C66.83,345.68,74.17,345.6,81.5,345.59Zm177.45,0c7.74,0,15.49.1,23.22,0,7.22-.13,11.7-4.84,11.75-12,.05-7.81-4.8-12.24-14.14-12.36-13.45-.16-26.89-.07-40.34,0a21,21,0,0,0-5.38.84c-6.84,1.92-10.67,7-9.76,12.78,1,6.72,5.53,10.63,12.65,10.75C244.29,345.69,251.62,345.6,259,345.6ZM82.43,278.23c-7.74,0-15.49-.12-23.22,0-7.25.14-11.64,4.84-11.65,12.08,0,7.46,3.83,11.73,13,12.09,14.44.57,28.92.2,43.38.15a13.3,13.3,0,0,0,3.55-.81c6.56-1.92,10.31-6.66,9.72-12.27-.72-6.89-5.46-11.14-12.83-11.25S89.76,278.22,82.43,278.23Zm177.18,0c-7.53,0-15.07-.09-22.6,0-7.34.11-12.11,4.43-12.79,11.3-.56,5.61,3.21,10.28,9.77,12.26,5.41,1.63,10.93.78,16.39.79,10.78,0,21.62.39,32.32-.61,8.81-.82,12-5.64,11.19-13.52-.69-6.45-5.63-10.22-13.5-10.24C273.46,278.2,266.54,278.22,259.61,278.22Zm85.7-47.77h-20.8c-.41,0-.82,0-1.22,0-8,.45-12.38,4.79-12.41,12.14s4.38,12.11,12.23,12.22c14.88.2,29.77.23,44.65,0,8-.13,12.17-5,12-13.05-.16-6.87-4.79-11.17-12.41-11.28C360,230.37,352.65,230.45,345.31,230.45Zm0-44.11c-7.34,0-14.68-.06-22,0s-12.12,4.21-12.43,10.62c-.4,8.16,3.52,13.46,11.33,13.66,15.28.38,30.58.34,45.87,0,7.59-.16,11.91-5.44,11.65-12.88-.24-6.92-4.91-11.33-12.37-11.42S352.67,186.35,345.33,186.34ZM168,278.22c-7.54,0-15.09,0-22.63,0a12.19,12.19,0,0,0-7.45,2.21c-5.19,3.66-5.7,8.89-4.07,14.19,1.78,5.81,6.76,7.95,12.45,8,13.87.14,27.73.08,41.59,0a20.23,20.23,0,0,0,5.39-.87c7.19-2.06,9.91-6.61,8.78-14.44-.74-5.18-5.7-9-12-9.07C182.66,278.16,175.32,278.22,168,278.22Zm-.37,67.38c7.13,0,14.27,0,21.4,0,7.61,0,12.58-3.84,13.08-9.93.7-8.46-2.83-13.8-11.4-14.17-15.47-.67-31-.56-46.47-.09-7.45.23-11.31,5.76-11,13.47.29,6.49,5,10.63,12.33,10.71S160.27,345.6,167.61,345.6ZM80.75,230.45h-22c-8.17.43-12.63,4.94-12.49,12.64.14,7.25,4.68,11.67,12.7,11.75q21.69.22,43.38,0c8.3-.08,12.84-4.63,12.8-12.26s-4.64-11.93-13-12.1C95,230.34,87.88,230.45,80.75,230.45Z"/><path class="cls-3" d="M255,133.75H32.72a34.14,34.14,0,0,1-6.72-.22c-4.16-.85-6.68-2.94-6.64-7.92.21-22.25.25-44.5,0-66.75-.07-5.65,2.82-8.26,7.48-8.33,20.61-.29,41.23-.11,61.84-.18,2.48,0,3.16,1,3.08,3.28-.12,3.06-.16,6.13,0,9.18.43,7.79,6.56,13.29,14.65,13.3s14.17-5.52,14.73-13.27c.3-4-1.91-9.58,1-11.6s8.2-.83,12.44-.84c30.83,0,61.65.08,92.47-.13,4.49,0,6.43,1,5.71,5.67a28.44,28.44,0,0,0,0,6.12c.53,8.39,6.88,14.15,15.39,14,8.19-.1,13.91-5.87,14.24-14.33.43-11.39.43-11.39,11.57-11.39,31,0,62,.09,93.07-.1,4.34,0,5.9,1.14,5.33,5.42a36,36,0,0,0,0,6.73A14.17,14.17,0,0,0,386,76.09c8.53.35,14.72-4.73,15.69-12.85.12-1,.23-2,.28-3.05.5-9.82.49-9.82,10.09-9.82q33.69,0,67.36,0c9.93,0,11.33,1.42,11.33,11.25q0,31.23,0,62.46c0,7.74-1.8,9.6-9.79,9.64-16.94.07-33.88,0-50.82,0Z"/><path class="cls-4" d="M551.61,366.42c-3,47.1-41.27,90.13-94.1,95.07-2.86.27-4-.26-4.23-3.33-.24-3.76-2.59-5.84-6.44-6s-6.58,2.17-6.83,5.62c-.29,4-2.29,3.4-4.75,3.06-35.3-4.95-61.41-23.33-78.72-54.27a95.82,95.82,0,0,1-11.31-35.16c-.4-3.22-.54-5.54,4-5.1,4.73.45,7.33-2.39,7.21-7-.11-4.37-2.88-6.71-7.26-6.35-4.2.34-4.68-.95-4.35-5.14,3.35-41.78,35.36-83.49,86.23-92.59,3.9-.7,9.54-3.38,8.93,5.28-.26,3.77,3.13,6,7.25,5.71,3.88-.24,6.45-2.51,6.05-6.23-.71-6.64,2.7-5.84,7.29-5.36,48.19,5.11,88.11,46.5,91.53,94.87.3,4.35-2.11,3.45-4.34,3.37-4.77-.17-8.67.74-8.89,6.57-.15,4.14,2,6.53,6.06,6.9C547.14,366.58,549.37,366.42,551.61,366.42ZM399.82,350.5H369.21c-6.75,0-10.27,2.73-10.1,7.73.17,4.82,3.45,7.28,10,7.29q30.6,0,61.22,0c2.88,0,5.23.29,7.61,2.65,6.2,6.15,14.88,6,20.72.14s6.1-14,.43-20.29c-2.19-2.42-2.62-4.79-2.6-7.72.07-12,0-24.08.05-36.12,0-5.49-2.95-7.82-8-7.79s-7.81,2.21-7.67,7.88c.29,11.42.09,22.86.09,34.29,0,8.65-3.24,11.94-11.73,11.95Z"/><path class="cls-5" d="M339,302.73c-5.86-.46-11.77.61-17.6-1-6.86-1.88-10.09-6.4-9.21-13.51.72-5.79,5.48-9.92,11.89-10,10.38-.07,20.76.05,31.13.08A216.91,216.91,0,0,0,339,302.73Z"/><path class="cls-5" d="M398.07,246.29c-.2-11.53,4-15.83,15.63-15.84q20.18,0,40.34,0c4.86,0,9.37.9,11.6,6.06-16.81-1.15-33.55-1.22-49.88,3.75C409.8,242.08,404,244.27,398.07,246.29Z"/><path class="cls-5" d="M326.73,345.62c-9.25-.1-14.07-3.71-14.55-10.89-.52-7.85,3.68-12.57,12.19-13.49,2.4-.25,4.84-.08,7.27-.1A180.72,180.72,0,0,0,326.73,345.62Z"/><path class="cls-5" d="M257.24,254.88c-7.15,0-14.29.1-21.43,0-7.65-.13-12.78-4.9-13-11.81-.22-7.11,5-12.47,12.88-12.55q22-.24,44.08,0c7.94.08,13,5.17,12.87,12.43-.1,6.93-5.15,11.77-12.76,11.92S264.79,254.88,257.24,254.88Z"/><path class="cls-5" d="M168,186.34c7.34,0,14.69-.08,22,0,7.66.11,12.82,4.8,13.12,11.68.27,6.36-5.2,12.45-12.39,12.61-15.08.31-30.19.38-45.27,0-8.08-.23-12.56-5.66-12.18-13.07.37-7,5.23-11.15,13.27-11.2C153.75,186.31,160.89,186.34,168,186.34Z"/><path class="cls-5" d="M253.79,186.34c7.34,0,14.68-.08,22,0,7.64.12,12.68,4.78,13,11.79.29,6.07-5,12.27-11.9,12.44-15.28.38-30.59.46-45.86,0-8.36-.26-12.4-5.38-12-13.12.38-7,5.19-11.06,13.31-11.11C239.51,186.31,246.65,186.34,253.79,186.34Z"/><path class="cls-5" d="M166.32,230.45c7.13,0,14.26-.11,21.39,0,8.61.16,13.31,4.76,13.16,12.59-.14,7.39-4.9,11.73-13.32,11.79q-21.09.13-42.17,0c-8.13-.05-14.16-5.22-14.31-12s6.2-12.38,14.47-12.43C152.46,230.41,159.39,230.45,166.32,230.45Z"/><path class="cls-5" d="M433.52,186.35c7.13,0,14.26-.1,21.39,0,7.29.13,12.34,4.67,12.87,11.29.49,6.16-4.47,12.63-11.34,12.85-15.67.49-31.38.53-47.05,0-7.58-.25-11.82-6-11.42-13.18.36-6.59,5.24-10.82,12.93-11S426,186.35,433.52,186.35Z"/><path class="cls-5" d="M81.5,345.6c-7.33,0-14.67.08-22,0-6.41-.09-11.18-4.19-11.89-10-.88-7.06,1.84-11.48,8.53-13.43a24.42,24.42,0,0,1,6.58-1c12.84-.08,25.67,0,38.5-.07a22.09,22.09,0,0,1,7.19,1.14c6,2,9.54,7,8.81,12.35-.88,6.43-5.35,10.75-11.89,10.92C97.39,345.75,89.45,345.59,81.5,345.6Z"/><path class="cls-5" d="M259,345.6c-7.33,0-14.66.09-22,0-7.12-.12-11.6-4-12.65-10.75-.91-5.78,2.92-10.86,9.76-12.78a21,21,0,0,1,5.38-.84c13.45-.07,26.89-.16,40.34,0,9.34.12,14.19,4.55,14.14,12.36-.05,7.17-4.53,11.88-11.75,12C274.44,345.7,266.69,345.6,259,345.6Z"/><path class="cls-5" d="M82.43,278.22c7.33,0,14.66-.08,22,0s12.11,4.36,12.83,11.25c.59,5.61-3.16,10.35-9.72,12.27a13.3,13.3,0,0,1-3.55.81c-14.46.05-28.94.42-43.38-.15-9.21-.36-13.05-4.63-13-12.09,0-7.24,4.4-11.94,11.65-12.08C66.94,278.11,74.69,278.23,82.43,278.22Z"/><path class="cls-5" d="M259.61,278.22c6.93,0,13.85,0,20.78,0,7.87,0,12.81,3.79,13.5,10.24.84,7.88-2.38,12.7-11.19,13.52-10.7,1-21.54.65-32.32.61-5.46,0-11,.84-16.39-.79-6.56-2-10.33-6.65-9.77-12.26.68-6.87,5.45-11.19,12.79-11.3C244.54,278.13,252.08,278.22,259.61,278.22Z"/><path class="cls-5" d="M345.31,230.45c7.34,0,14.68-.08,22,0,7.62.11,12.25,4.41,12.41,11.28.19,8.06-3.94,12.92-12,13.05-14.88.25-29.77.22-44.65,0-7.85-.11-12.27-4.82-12.23-12.22s4.46-11.69,12.41-12.14c.4,0,.81,0,1.22,0Z"/><path class="cls-5" d="M345.33,186.35c7.34,0,14.69-.08,22,0s12.13,4.5,12.37,11.42c.26,7.44-4.06,12.72-11.65,12.88-15.29.31-30.59.35-45.87,0-7.81-.2-11.73-5.5-11.33-13.66.31-6.41,5.05-10.54,12.43-10.62S338,186.34,345.33,186.35Z"/><path class="cls-5" d="M168,278.22c7.34,0,14.68-.06,22,0,6.34.08,11.3,3.89,12,9.07,1.13,7.83-1.59,12.38-8.78,14.44a20.23,20.23,0,0,1-5.39.87c-13.86.07-27.72.13-41.59,0-5.69-.06-10.67-2.2-12.45-8-1.63-5.3-1.12-10.53,4.07-14.19a12.19,12.19,0,0,1,7.45-2.21C152.89,278.27,160.44,278.22,168,278.22Z"/><path class="cls-5" d="M167.61,345.6c-7.34,0-14.69.06-22,0s-12-4.22-12.33-10.71c-.35-7.71,3.51-13.24,11-13.47,15.48-.47,31-.58,46.47.09,8.57.37,12.1,5.71,11.4,14.17-.5,6.09-5.47,9.89-13.08,9.93C181.88,345.63,174.74,345.6,167.61,345.6Z"/><path class="cls-5" d="M80.75,230.45c7.13,0,14.26-.11,21.39,0,8.36.17,13,4.55,13,12.1s-4.5,12.18-12.8,12.26q-21.69.22-43.38,0c-8-.08-12.56-4.5-12.7-11.75-.14-7.7,4.32-12.21,12.49-12.64h22Z"/><path class="cls-6" d="M399.82,350.5h29.39c8.49,0,11.72-3.3,11.73-11.95,0-11.43.2-22.87-.09-34.29-.14-5.67,2.64-7.85,7.67-7.88s8,2.3,8,7.79c-.08,12,0,24.08-.05,36.12,0,2.93.41,5.3,2.6,7.72,5.67,6.26,5.27,14.62-.43,20.29s-14.52,6-20.72-.14c-2.38-2.36-4.73-2.66-7.61-2.65q-30.62,0-61.22,0c-6.51,0-9.79-2.47-10-7.29-.17-5,3.35-7.72,10.1-7.73Zm48.5,16a8.61,8.61,0,0,0,.2-17.22,8.61,8.61,0,1,0-.2,17.22Z"/><path class="cls-5" d="M448.32,366.46a8.61,8.61,0,1,1,.2-17.22,8.61,8.61,0,0,1-.2,17.22Z"/><g class="cls-7"><path class="cls-8" d="M110.2,56.16c0,6.23-3.25,11.27-7.26,11.27h0c-4,0-7.25-5-7.25-11.27V17.08c0-6.23,3.25-11.27,7.25-11.27h0c4,0,7.26,5,7.26,11.27Z"/></g><g class="cls-7"><path class="cls-8" d="M252.2,56.16c0,6.23-3.25,11.27-7.26,11.27h0c-4,0-7.26-5-7.26-11.27V17.08c0-6.23,3.25-11.27,7.26-11.27h0c4,0,7.26,5,7.26,11.27Z"/></g><g class="cls-7"><path class="cls-8" d="M392.24,56.16c0,6.23-3.25,11.27-7.26,11.27h0c-4,0-7.26-5-7.26-11.27V17.08c0-6.23,3.25-11.27,7.26-11.27h0c4,0,7.26,5,7.26,11.27Z"/></g><g class="cls-9"><path class="cls-8" d="M34,129.77a9.79,9.79,0,0,1-9.8-9.8V64.09a9.8,9.8,0,0,1,9.8-9.8H64a9.8,9.8,0,0,1,0,19.6H43.84V120A9.8,9.8,0,0,1,34,129.77Z"/></g><g class="cls-9"><path class="cls-8" d="M217.93,74.38h-82a9.8,9.8,0,0,1,0-19.6h82a9.8,9.8,0,0,1,0,19.6Z"/></g><g class="cls-9"><path class="cls-8" d="M358.9,74.38h-82a9.8,9.8,0,0,1,0-19.6h82a9.8,9.8,0,1,1,0,19.6Z"/></g><g class="cls-9"><path class="cls-8" d="M477.83,74.38H417.3a9.8,9.8,0,0,1,0-19.6h60.53a9.8,9.8,0,1,1,0,19.6Z"/></g><path class="cls-8" d="M364.64,338.72a9.64,9.64,0,0,1-3.84-.79,9.79,9.79,0,0,1-5.18-12.84c1-2.39,25.44-58.64,70.84-61.44a9.8,9.8,0,1,1,1.2,19.56c-33.27,2.06-53.8,49.09-54,49.56A9.82,9.82,0,0,1,364.64,338.72Z"/><g class="cls-9"><path class="cls-8" d="M121.4,313.18a9.8,9.8,0,0,1-6.54-17.11L243.28,181.29a9.8,9.8,0,0,1,13.06,14.62L127.93,310.69A9.78,9.78,0,0,1,121.4,313.18Z"/></g><g class="cls-9"><path class="cls-8" d="M157.76,346.13a9.8,9.8,0,0,1-6.31-17.3l178.42-150a9.8,9.8,0,1,1,12.61,15l-178.41,150A9.8,9.8,0,0,1,157.76,346.13Z"/></g><g class="cls-9"><path class="cls-8" d="M239.58,335.91a9.8,9.8,0,0,1-6.47-17.16l113.64-100a9.8,9.8,0,1,1,12.95,14.71l-113.65,100A9.76,9.76,0,0,1,239.58,335.91Z"/></g></svg>