<svg id="Capa_1" data-name="Capa 1" xmlns="http://www.w3.org/2000/svg" viewBox="0 0 1287.64 256"><defs><style>.cls-1{fill:#020202;opacity:0.1;}.cls-2{fill:#f3f7d0;}.cls-3{fill:#e2e2e2;}.cls-4{fill:#fffffa;}.cls-5{fill:#c9c9c9;}.cls-6{fill:#eaeaea;}.cls-7{fill:#d1d1cf;}</style></defs><title>otras cosas</title><path class="cls-1" d="M0,256s72-84,90-84H1212l-90,84Z"/><polygon class="cls-2" points="1287 118 165 138 165 0 1287 0 1287 118"/><rect class="cls-3" x="75" y="84" width="1122" height="118"/><path class="cls-4" d="M75,84S147,0,165,0H1287l-90,84Z"/><polygon class="cls-5" points="1196.36 201.74 1286.84 118.26 1287.64 0.26 1197.16 83.74 1196.36 201.74"/><rect class="cls-6" x="74.5" y="83.5" width="1122" height="27"/><polygon class="cls-7" points="1196.5 110.5 1287.5 27.5 1287.5 0.5 1196.5 83.5 1196.5 110.5"/><rect class="cls-4" x="693.07" y="168" width="469" height="19" rx="9.5" ry="9.5"/></svg>