<svg id="Capa_1" data-name="Capa 1" xmlns="http://www.w3.org/2000/svg" viewBox="0 0 1144 990.23"><defs><style>.cls-1{fill:#241a60;opacity:0.5;}.cls-2{fill:#40539f;}.cls-3{fill:#181c36;}.cls-4{fill:#fffdfd;}.cls-5{opacity:0.3;}.cls-6{fill:#fcfdfd;}.cls-7{fill:#fff;}</style></defs><title>proto_sombra</title><ellipse class="cls-1" cx="572" cy="920.73" rx="572" ry="69.5"/><path class="cls-2" d="M118.3,465.57q0-157.14,0-314.27c.14-84.66,52.36-137,137-137q316.62-.22,633.24,0c84.67.06,137,52.36,137,137q.21,316.62,0,633.25c-.06,84.66-52.36,136.95-137,137q-316.62.23-633.25,0c-84.66-.06-136.87-52.36-137-137Q118.08,625.06,118.3,465.57Zm562.52,355.7c15.36,0,27.34-1.31,38.92.28,22.48,3.08,29.22-4.6,28.86-27.89-1.43-92.81-.18-185.67-1-278.51-.14-17.27,4-24.41,22.24-22.75,16.38,1.5,33,0,49.53.42,9.26.24,14.91-2.53,16.29-12.47,3.46-24.9,7-49.8,11.17-74.59,1.79-10.66-2-13.79-12.24-13.58-23.59.48-47.2.27-70.81,0-6.57-.06-15.66,2.34-15.58-8.83.19-23.54-2.47-47.24,3-70.55,3.21-13.59,12.81-19.19,25.88-19.64,18.07-.63,36.21-1.79,54.23-.94,14.83.69,19.19-5,18.59-19.15-.93-22-.64-44.06-.08-66.08.29-11.61-2.89-17.23-15.82-17-36.16.61-72.41-1.14-108.39,3.76-54.4,7.4-86.74,38.26-98.6,92.79-5.59,25.68-5.27,51.77-3.7,77.51,1.34,22.1-4,29.89-27.78,28.86-48.31-2.07-48.37-.58-48.37,48.71,0,50.7,0,51.74,51.69,50.56,20.57-.47,24.55,6.77,24.33,25.59-1,80.24-.72,160.5-.19,240.75.13,20.13-8.81,45.71,4.38,58.94C639.69,829.79,664.93,819.43,680.82,821.27Z"/><path class="cls-3" d="M572,935.87q-158.33,0-316.64-.11c-93.1-.07-151-58-151.18-151.18q-.19-111.26-.07-222.5l0-96.51,0-95.09q0-109.61.07-219.2C104.33,58.1,162.26.18,255.37.12Q572-.12,888.64.12c93.18.06,151.11,58,151.17,151.19.15,210.1.15,423.16,0,633.27-.06,93.18-58,151.11-151.19,151.18Q730.31,935.87,572,935.87Zm0-907.51q-158.31,0-316.61.11c-76.8.05-122.74,46-122.87,122.86q-.18,109.56-.07,219.14l0,95.1,0,96.52q0,111.23.07,222.44c.13,76.88,46.06,122.82,122.85,122.87q316.62.23,633.23,0c76.88,0,122.8-46,122.86-122.84.15-210.09.15-423.14,0-633.23-.06-76.88-46-122.8-122.84-122.86Q730.31,28.37,572,28.36Zm74.15,809.43h0c-12.46,0-21.86-3.37-28.77-10.29-14.2-14.23-11.78-35.25-9.84-52.14a145.46,145.46,0,0,0,1.32-16.72c-.47-71.69-.81-156.39.19-241,.08-7-.57-9.58-.9-10.44-.7-.26-2.73-.82-7.42-.82h-1.5c-6.2.15-11.67.25-16.5.25-49.7,0-49.7-20.36-49.7-65,0-40.9,0-63.43,43.85-63.43,5.28,0,11.3.22,19.31.56,1.14.05,2.23.07,3.28.07,7.2,0,9-1.24,9-1.25s1.36-2.39.74-12.66c-1.49-24.33-2.17-53,4-81.39,13.21-60.71,50.4-95.64,110.55-103.82,25.41-3.46,49.69-3.73,78.79-3.73h6.14c8.38,0,16.76,0,25.13-.16h1c9.54,0,16.69,2.56,21.84,7.85,7,7.19,7.6,17,7.43,23.7-.5,19.51-.88,42.49.08,65.12.31,7.32-.14,17.93-7.57,25.68-5.35,5.59-12.84,8.3-22.88,8.3-.95,0-1.94,0-3-.07-12.3-.58-27.47-.07-41.55.5q-5.76.24-11.54.44c-9.79.34-11.48,4.16-12.56,8.74-3.66,15.51-3.28,31.61-2.88,48.67.1,4.43.21,8.86.24,13.29l1.14,0c13.52.13,26.63.25,39.75.25,11.42,0,21.57-.09,31-.29h1.21c3.46,0,14,0,20.79,8s5.09,18.63,4.51,22.09c-4.26,25.35-7.82,50.55-11.1,74.19-1.29,9.23-6.8,24.72-29.29,24.72L819,507c-6.25-.16-12.49,0-18.75.09-4.37.09-8.74.17-13.1.17-7.17,0-13.08-.23-18.62-.74a28.36,28.36,0,0,0-6.1,0,34.61,34.61,0,0,0-.66,8.51c.34,40.19.3,81,.26,120.52-.05,51.77-.11,105.31.71,157.9.16,11-.81,24.72-9.87,33.91-5.88,6-14.2,9-24.69,9a75.34,75.34,0,0,1-10.4-.78,85.73,85.73,0,0,0-11.53-.65c-3.48,0-7.09.11-10.9.23-4.55.13-9.37.28-14.57.28l-1.63-.1c-4.14-.47-9.51.27-15.44,1A144.4,144.4,0,0,1,646.15,837.79ZM600.73,478c8,0,19.52.95,27.65,9.18s9.16,19.67,9,30.78c-1,84.39-.66,168.92-.19,240.49a169.32,169.32,0,0,1-1.51,20.14c-1.31,11.4-2.8,24.32,1.75,28.88,1.61,1.61,5.61,1.95,8.69,1.95h0a123.1,123.1,0,0,0,14.13-1.22c7.15-.88,14.94-1.73,21.27-1.12,4.61,0,8.91-.14,13-.27s8-.24,11.75-.24a112.69,112.69,0,0,1,15.38.92,49.81,49.81,0,0,0,6.55.52c3.47,0,4.57-.62,4.58-.63s1.79-2.3,1.62-13.51c-.81-52.82-.76-106.47-.7-158.36,0-39.43.08-80.19-.26-120.25-.09-9.9.89-21.09,8.78-29,5.49-5.54,13-8.23,22.86-8.23,1.87,0,3.88.1,6,.29,4.66.43,9.75.63,16,.63,4.17,0,8.35-.09,12.54-.17,6.69-.13,13.37-.26,20-.09h.68c.46,0,.84,0,1.17,0a2.24,2.24,0,0,1,0-.24c3.18-22.91,6.63-47.29,10.73-72-8.93.16-18.47.25-29.08.25-13.21,0-26.41-.13-39.62-.25h0c-.83,0-1.58,0-2.33.07-1.22,0-2.46.1-3.67.1-2.74,0-11.08,0-17.37-6.34-4.19-4.22-6.29-9.92-6.23-17,0-5.94-.1-11.9-.24-17.85-.42-18.09-.86-36.79,3.63-55.84,4.42-18.71,18.69-29.85,39.19-30.56,3.78-.13,7.57-.29,11.36-.44,9.73-.4,19.79-.81,29.81-.81,5.07,0,9.73.1,14.22.31a28.2,28.2,0,0,0,3.68,0,28.72,28.72,0,0,0,.08-4.35c-1-23.46-.61-47-.09-67,0-1,0-1.83,0-2.46l-.9,0h-.48c-8.53.14-17.07.15-25.61.15h-6.14c-28,0-51.32.26-75,3.48-48.42,6.59-76,32.56-86.66,81.75-5.43,25-4.77,51.24-3.4,73.64.7,11.55.25,24.62-8.47,33.88-8.52,9.06-21,10.11-29.57,10.11-1.43,0-2.93,0-4.5-.1-7.63-.33-13.31-.53-18.09-.53-10.51,0-13,1.1-13.56,1.44-1.93,2.88-1.93,18.51-1.93,33.63,0,15.62,0,31.78,2.33,34.73.7.53,4.09,1.9,19,1.9,4.64,0,9.9-.11,15.85-.24Z"/><path class="cls-4" d="M172.32,480.68a23.63,23.63,0,0,1-23.63-23.63V145.78a24.48,24.48,0,0,1,.15-2.71c4.13-35.8,30.29-103.5,99.71-103.5H524.88a23.63,23.63,0,0,1,0,47.26H248.55c-41.7,0-51.27,51.71-52.6,60.56V457.05A23.63,23.63,0,0,1,172.32,480.68Z"/><g class="cls-5"><polygon points="622.7 817.49 656.72 851.52 780.72 851.52 780.72 530.47 851.75 530.47 872.37 415.9 849.73 385.81 718.85 461.73 711.98 679.41 622.7 817.49"/><path d="M780.72,853.88h-124a2.4,2.4,0,0,1-1.67-.69l-34-34a2.36,2.36,0,0,1-.32-2.95l88.93-137.53,6.85-217a2.36,2.36,0,0,1,1.18-2l130.88-75.92a2.36,2.36,0,0,1,3.07.62l22.64,30.09a2.39,2.39,0,0,1,.44,1.84L854.07,530.89a2.35,2.35,0,0,1-2.32,1.94H783.08V851.52A2.36,2.36,0,0,1,780.72,853.88Zm-123-4.72H778.35V530.47a2.37,2.37,0,0,1,2.37-2.36h69l20.1-111.61-20.76-27.59L721.17,463.12l-6.83,216.36a2.28,2.28,0,0,1-.38,1.21L625.72,817.17Z"/></g><g class="cls-5"><polygon points="776.28 390.7 780.86 315.09 871.56 314.78 872.11 203.51 847.98 185.63 666.29 289.88 705.25 443.4 776.28 390.7"/><path d="M705.25,445.77A2.38,2.38,0,0,1,703,444L664,290.46a2.37,2.37,0,0,1,1.12-2.63L846.8,183.58a2.39,2.39,0,0,1,2.59.15l24.12,17.88a2.37,2.37,0,0,1,1,1.91l-.54,111.27a2.36,2.36,0,0,1-2.36,2.35l-88.49.3-4.45,73.4a2.34,2.34,0,0,1-1,1.76l-71,52.7A2.31,2.31,0,0,1,705.25,445.77ZM669,291,706.67,439.4,774,389.46l4.52-74.52a2.36,2.36,0,0,1,2.35-2.22l88.36-.3.53-107.72-21.92-16.25Z"/></g><path class="cls-6" d="M680.82,821.27c-15.89-1.84-41.13,8.52-53.4-3.78-13.19-13.23-4.25-38.81-4.38-58.94-.53-80.25-.76-160.51.19-240.75.22-18.82-3.76-26.06-24.33-25.59-51.67,1.18-51.69.14-51.69-50.56,0-49.29.06-50.78,48.37-48.71,23.81,1,29.12-6.76,27.78-28.86-1.57-25.74-1.89-51.83,3.7-77.51,11.86-54.53,44.2-85.39,98.6-92.79,36-4.9,72.23-3.15,108.39-3.76,12.93-.22,16.11,5.4,15.82,17-.56,22-.85,44.09.08,66.08.6,14.13-3.76,19.84-18.59,19.15-18-.85-36.16.31-54.23.94-13.07.45-22.67,6.05-25.88,19.64-5.49,23.31-2.83,47-3,70.55-.08,11.17,9,8.77,15.58,8.83,23.61.23,47.22.44,70.81,0,10.25-.21,14,2.92,12.24,13.58-4.16,24.79-7.71,49.69-11.17,74.59-1.38,9.94-7,12.71-16.29,12.47-16.51-.42-33.15,1.08-49.53-.42-18.22-1.66-22.38,5.48-22.24,22.75.79,92.84-.46,185.7,1,278.51.36,23.29-6.38,31-28.86,27.89C708.16,820,696.18,821.27,680.82,821.27Z"/><path class="cls-3" d="M646.15,830.7c-10.47,0-18.24-2.68-23.75-8.2-11.79-11.82-9.68-30.15-7.82-46.33A149.76,149.76,0,0,0,616,758.6c-.47-71.67-.81-156.33.19-240.89.1-8.64-.79-13.45-2.89-15.57-1.88-1.9-6.09-2.86-12.52-2.86l-1.66,0c-6.14.14-11.56.25-16.34.25-16.78,0-30.17-.89-37.09-12-5.52-8.84-5.52-22-5.52-45.94,0-41,0-56.34,36.76-56.34,5.15,0,11.09.21,19,.55,9.25.4,15.17-.68,17.68-3.33s3.31-8.33,2.72-18c-1.45-23.85-2.13-51.93,3.85-79.45,12.5-57.49,47.69-90.57,104.57-98.31,25-3.39,49-3.66,77.83-3.66h6.15c8.42,0,16.84,0,25.25-.16h.84c7.53,0,13,1.87,16.77,5.71,5.08,5.22,5.57,12.67,5.42,18.58-.51,19.63-.89,42.76.08,65.6.27,6.52-.11,14.75-5.61,20.48-4.36,4.55-10.83,6.47-20.4,6-12.56-.59-27.94-.08-42.16.5-3.83.15-7.67.31-11.5.44-11.07.38-17,4.76-19.22,14.19-3.87,16.39-3.48,32.94-3.07,50.46.15,6.18.29,12.35.24,18.51a8.1,8.1,0,0,0,.14,1.71,31.92,31.92,0,0,0,4.92.07c1.08,0,2.15-.09,3.17-.09,13.47.13,26.61.25,39.75.25,11.47,0,21.67-.1,31.18-.29h1.06c4.6,0,11.2.57,15.39,5.52s3.7,11.72,2.92,16.33c-4.27,25.45-7.84,50.71-11.14,74.39-1.72,12.35-9.21,18.61-22.26,18.61l-1.23,0c-6.34-.17-12.71,0-19.07.09-4.32.09-8.65.17-13,.17-7,0-12.66-.22-18-.71-6-.55-10.19,0-11.88,1.74s-2.68,6.38-2.62,13.89c.34,40.16.3,81,.26,120.45-.05,51.8-.1,105.37.71,158,.21,14.22-2.2,23.11-7.83,28.83-4.57,4.64-11,6.9-19.64,6.9a69.49,69.49,0,0,1-9.44-.72,91.57,91.57,0,0,0-12.49-.72c-3.55,0-7.23.11-11.11.23-4.49.13-9.24.28-14.36.28l-.81-.05c-4.81-.57-10.71.22-17.13,1A137.9,137.9,0,0,1,646.15,830.7ZM600.73,485.1c10.8,0,17.77,2.18,22.6,7.07,6.33,6.41,7.1,16.14,7,25.71-1,84.44-.66,169-.19,240.62a162.73,162.73,0,0,1-1.46,19.29c-1.64,14.25-3.19,27.72,3.77,34.69,2.75,2.76,7.1,4,13.71,4a129,129,0,0,0,15-1.27c6.85-.85,14-1.7,20.06-1.07,4.83,0,9.31-.14,13.55-.27,4-.12,7.85-.24,11.54-.24a105.17,105.17,0,0,1,14.42.85,55.67,55.67,0,0,0,7.51.59c6.91,0,8.89-2,9.54-2.67,2.67-2.72,3.9-8.82,3.75-18.67-.81-52.76-.76-106.38-.71-158.24.05-39.45.09-80.23-.25-120.32-.08-8.44.66-17.89,6.72-24,5-5,12.12-6.88,23.24-5.87,4.87.45,10.17.66,16.68.66,4.22,0,8.45-.09,12.68-.17,6.58-.13,13.16-.26,19.71-.09h.87c6.37,0,7.53-1.44,8.22-6.38,3.31-23.79,6.9-49.16,11.2-74.79.57-3.39.24-4.66.15-4.91a19.83,19.83,0,0,0-4.48-.41h-.78c-9.6.19-19.89.29-31.46.29-13.18,0-26.37-.13-39.55-.25a25.74,25.74,0,0,0-2.74.08c-1.11.05-2.24.09-3.35.09-3.49,0-8.56-.44-12.34-4.25-2.81-2.82-4.22-6.83-4.17-11.9,0-6-.1-12-.24-18.06-.42-17.65-.84-35.89,3.44-54,2.6-11,10.35-24.34,32.53-25.11,3.8-.13,7.61-.28,11.41-.44,9.66-.39,19.64-.8,29.52-.8,5,0,9.5.1,13.88.3.69,0,1.35.05,2,.05,2.67,0,6.14-.3,7.53-1.75.92-1,1.95-3.48,1.67-10.06-1-23.26-.6-46.7-.09-66.56.15-5.84-.81-7.72-1.39-8.32-.89-.91-3.3-1.43-6.62-1.43h-.6c-8.49.14-17,.16-25.49.16h-6.15c-28.28,0-51.83.26-75.92,3.53-51.07,6.95-81.36,35.5-92.62,87.27-5.62,25.83-5,52.7-3.56,75.58.62,10,.32,21.3-6.55,28.59-6.64,7.06-17.11,7.88-24.41,7.88-1.34,0-2.73,0-4.19-.09-7.73-.34-13.5-.54-18.4-.54-22.58,0-22.58,0-22.58,42.16,0,19.89,0,33,3.37,38.42,2.44,3.91,9,5.3,25.06,5.3,4.69,0,10-.11,16-.25Z"/><circle class="cls-7" cx="173.45" cy="516.09" r="22.69"/></svg>