<svg id="Capa_1" data-name="Capa 1" xmlns="http://www.w3.org/2000/svg" viewBox="0 0 928 1005.34"><defs><style>.cls-1{fill:#241a60;opacity:0.5;}.cls-2{fill:#a1cef0;stroke:#181c36;stroke-miterlimit:10;stroke-width:8px;}.cls-3{fill:#181c36;}.cls-4{opacity:0.9;}.cls-5{fill:#fff;}</style></defs><title>proto_sombra</title><ellipse class="cls-1" cx="464" cy="945.84" rx="460.5" ry="59.5"/><circle class="cls-2" cx="464" cy="476.47" r="460"/><path class="cls-3" d="M467.13,951.75c-66.49,0-128.09-50.94-173.46-143.45C250,719.25,226,601.19,226,475.88S250,232.51,293.67,143.46C339,51,400.64,0,467.13,0S595.21,51,640.58,143.46c43.67,89,67.72,207.1,67.72,332.42s-24,243.37-67.72,332.42C595.21,900.81,533.61,951.75,467.13,951.75Zm0-921.18c-54.2,0-106,44.87-146,126.35-41.66,84.94-64.6,198.22-64.6,319s22.94,234,64.6,319c40,81.48,91.81,126.36,146,126.36s106-44.88,146-126.36c41.66-84.93,64.61-198.21,64.61-319s-23-234-64.61-319C573.17,75.44,521.32,30.57,467.13,30.57Z"/><path class="cls-3" d="M464.52,430.45c-115.53,0-224.28-8.64-306.23-24.34C20.23,379.68,20.23,344.56,20.23,333s0-46.66,138.06-73.1c82-15.69,190.7-24.33,306.23-24.33s224.28,8.64,306.22,24.33C908.8,286.36,908.8,321.47,908.8,333s0,46.66-138.06,73.09C688.8,421.81,580.05,430.45,464.52,430.45Zm0-164.29c-113.66,0-220.37,8.45-300.48,23.79C70,308,50.8,328.5,50.8,333S70,358.09,164,376.09c80.11,15.34,186.82,23.79,300.48,23.79S684.88,391.43,765,376.09c94-18,113.24-38.56,113.24-43.07S859,308,765,290C684.88,274.61,578.17,266.16,464.52,266.16Z"/><path class="cls-3" d="M466.38,733.78c-117.21,0-227.55-8.64-310.68-24.32-94.18-17.77-140-41.69-140-73.11s45.79-55.33,140-73.1c83.13-15.69,193.47-24.33,310.68-24.33s227.54,8.64,310.67,24.33c94.18,17.77,140,41.68,140,73.1s-45.79,55.34-140,73.11C693.92,725.14,583.59,733.78,466.38,733.78Zm0-164.29c-115.37,0-223.69,8.45-305,23.79-95.54,18-115.07,38.56-115.07,43.07s19.53,25,115.07,43.07c81.32,15.35,189.64,23.79,305,23.79s223.68-8.44,305-23.79c95.53-18,115.06-38.56,115.06-43.07s-19.53-25-115.06-43.07C690.06,577.94,581.74,569.49,466.38,569.49Z"/><path class="cls-3" d="M459,951.75c-207.72,0-376.71-211.37-376.71-471.17S251.28,9.4,459,9.4,835.71,220.77,835.71,480.58,666.72,951.75,459,951.75ZM459,40C268.14,40,112.86,237.63,112.86,480.58S268.14,921.19,459,921.19,805.14,723.53,805.14,480.58,649.87,40,459,40Z"/><path class="cls-3" d="M469.28,952.67c-42.28,0-62.35-83.59-73.77-146.46-15.84-87.22-24.57-203-24.57-326s8.73-238.78,24.57-326C419.36,22.93,449,7.75,469.28,7.75c42.27,0,62.34,83.58,73.76,146.45,15.85,87.23,24.57,203,24.57,326S558.89,719,543,806.21C519.19,937.49,489.52,952.67,469.28,952.67Zm0-914.35c-.22,0-22.94,7.13-43.69,121.35C410.06,245.14,401.51,359,401.51,480.21s8.55,235.06,24.08,320.53C446.34,915,469.06,922.1,469.28,922.1S492.22,915,513,800.74c15.52-85.47,24.08-199.31,24.08-320.53S528.49,245.14,513,159.67C492.22,45.45,469.49,38.32,469.28,38.32Z"/><g class="cls-4"><path class="cls-5" d="M66.71,342.51a22.93,22.93,0,0,1-21.92-29.59c2.3-7.56,59-185.83,279.83-247.17a22.93,22.93,0,0,1,12.28,44.18c-82.06,22.79-148.7,66-198.08,128.35-37.11,46.87-50.07,87.68-50.2,88.08A23,23,0,0,1,66.71,342.51Z"/></g></svg>