<svg id="Capa_1" data-name="Capa 1" xmlns="http://www.w3.org/2000/svg" viewBox="0 0 921 1248.98"><defs><style>.cls-1{fill:#241a60;opacity:0.5;}.cls-2{fill:#e63930;}.cls-3{fill:#181c36;}.cls-4{fill:#fff;}</style></defs><title>proto_sombra</title><ellipse class="cls-1" cx="460.5" cy="1189.48" rx="460.5" ry="59.5"/><path class="cls-2" d="M459.9,1170.46C336,997.8,213.32,830.48,94.94,660.18c-48.3-69.47-63.34-151.43-60.45-236C41.25,225.66,197.16,49.57,392.33,22.06,577.39-4,736.43,76.48,825.6,223.44c90.56,149.27,79.46,332.22-25.07,475.92C687.77,854.38,575.85,1010,459.9,1170.46Zm202-726.85c.3-111.54-89-202.27-199.93-203.09S259.56,329.65,258.78,440.29c-.8,113.36,89.27,204.92,201.7,205C571.08,645.41,661.62,554.75,661.92,443.61Z"/><path class="cls-3" d="M459.85,1199.87l-13.92-19.39c-35.72-49.78-71.86-99.83-106.81-148.23-89.46-123.91-174-241-258.3-362.26-24.15-34.74-41.66-74.51-52-118.18C19.59,513,15.73,469.89,17.31,423.55c3.41-100.09,43.4-198.11,112.6-276,69.35-78,161.7-128.67,260-142.54A508.11,508.11,0,0,1,460.6,0c158.58,0,297,78.19,379.69,214.53,46.08,76,67.9,162.37,63.09,249.9-4.76,86.86-35.52,171.59-89,245C736.15,817.08,659.9,922.75,579.17,1034.62Q526.93,1107,473.83,1180.53ZM460.6,34.38a473.15,473.15,0,0,0-65.87,4.7C304.47,51.8,219.55,98.44,155.61,170.4S54.8,332.62,51.66,424.72c-3.12,91.79,15.65,165.6,57.39,225.65,84.15,121,168.57,238,257.94,361.76,30.43,42.14,61.76,85.53,92.95,128.92q46-63.72,91.35-126.54c80.75-111.91,157-217.6,235.34-325.26C888,549.86,897.32,374.79,810.9,232.36,734.56,106.54,606.88,34.38,460.6,34.38Zm.06,628.12h-.2A216.92,216.92,0,0,1,305.56,598c-41.68-42-64.39-98.05-64-157.82.85-119.56,99-216.84,218.89-216.84h1.64a216.65,216.65,0,0,1,153.79,65.16,218.94,218.94,0,0,1,63.2,155.17C678.79,564.33,580.79,662.5,460.66,662.5Zm-.18-404.8c-101,0-183.8,82-184.51,182.71-.36,50.54,18.82,97.9,54,133.36A182.78,182.78,0,0,0,460.5,628.12h.16c101.23,0,183.8-82.79,184.07-184.55a184.81,184.81,0,0,0-53.32-131,182.53,182.53,0,0,0-129.55-54.89Z"/><path class="cls-4" d="M119,290.7A14.33,14.33,0,0,1,106.17,270c.85-1.73,21.36-42.88,65.75-89.73,41-43.24,110.91-99.65,211.56-122.88a14.33,14.33,0,1,1,6.44,27.92C296.23,107,231,159.63,192.72,200c-41.44,43.74-60.66,82.3-60.85,82.69A14.33,14.33,0,0,1,119,290.7Z"/><path class="cls-4" d="M91,363.15a14.32,14.32,0,0,1-14.32-14.32c0-2.38,0-6.82,13.77-44.86a14.33,14.33,0,0,1,26.94,9.75c-5.21,14.38-11.21,32.07-12.11,36.35A14.33,14.33,0,0,1,91,363.15Z"/></svg>