<svg id="Capa_1" data-name="Capa 1" xmlns="http://www.w3.org/2000/svg" viewBox="0 0 1239.1 829.62"><defs><style>.cls-1{opacity:0.2;}.cls-2{fill:#020202;}.cls-3{fill:#2ecaee;}.cls-4{fill:#01272d;}.cls-5{fill:#81eafc;}.cls-6{fill:#d6d6d6;}.cls-7{fill:#e5e5e5;}.cls-8{fill:#bcd2d3;}.cls-9{fill:#fff;}.cls-10{fill:#11c1c1;}.cls-11{fill:#333;}.cls-12{fill:#02878e;}.cls-13{fill:#b5a3a3;}.cls-14{fill:#b7f6f9;}.cls-15{fill:#cff5f9;}</style></defs><title>prto</title><g class="cls-1"><ellipse class="cls-2" cx="619.55" cy="759.74" rx="615.59" ry="66.18"/><path d="M619.55,829.62c-164.58,0-319.33-6.89-435.74-19.41C61.84,797.1,0,780.12,0,759.74s61.84-37.36,183.81-50.47C300.22,696.75,455,689.86,619.55,689.86s319.33,6.89,435.74,19.41c122,13.11,183.81,30.09,183.81,50.47s-61.84,37.36-183.81,50.47C938.88,822.73,784.13,829.62,619.55,829.62Zm0-132.36c-164.29,0-318.71,6.88-434.84,19.36C16.44,734.71,7.91,755.72,7.91,759.74s8.53,25,176.8,43.12c116.13,12.49,270.56,19.36,434.84,19.36s318.71-6.87,434.84-19.36c168.27-18.09,176.8-39.09,176.8-43.12s-8.53-25-176.8-43.12C938.26,704.14,783.83,697.26,619.55,697.26Z"/></g><path class="cls-3" d="M1107.4,728.4c0,12.11-10.06,21.93-22.46,21.93H185.44C173,750.33,163,740.51,163,728.4V30.57C163,18.46,173,8.63,185.44,8.63h899.5c12.4,0,22.46,9.83,22.46,21.94Z"/><path class="cls-4" d="M1084.94,759H185.44c-17.48,0-31.7-13.72-31.7-30.57V30.57C153.74,13.71,168,0,185.44,0h899.5c17.47,0,31.69,13.71,31.69,30.57V728.4C1116.63,745.25,1102.41,759,1084.94,759ZM185.44,17.27a13.29,13.29,0,0,0-13.24,13.3V728.4a13.29,13.29,0,0,0,13.24,13.3h899.5a13.29,13.29,0,0,0,13.23-13.3V30.57a13.29,13.29,0,0,0-13.23-13.3Z"/><path class="cls-5" d="M550.59,164.7c-14.25,0-25.85-10.85-25.85-24.18s11.6-24.18,25.85-24.18,25.85,10.85,25.85,24.18S564.84,164.7,550.59,164.7Zm0-31.09a6.92,6.92,0,1,0,7.38,6.91A7.17,7.17,0,0,0,550.59,133.61Z"/><path class="cls-5" d="M433.66,625.72c-12.8,0-23.21-9.74-23.21-21.71s10.41-21.71,23.21-21.71S456.87,592,456.87,604,446.46,625.72,433.66,625.72Zm0-31.09c-5.53,0-10,4.21-10,9.38s4.49,9.37,10,9.37,10-4.2,10-9.37S439.19,594.63,433.66,594.63Z"/><path class="cls-5" d="M459.64,679.53c-12.79,0-23.21-9.74-23.21-21.71s10.42-21.71,23.21-21.71,23.22,9.74,23.22,21.71S472.44,679.53,459.64,679.53Zm0-31.08c-5.52,0-10,4.2-10,9.37s4.5,9.38,10,9.38,10-4.21,10-9.38S465.17,648.45,459.64,648.45Z"/><path class="cls-5" d="M623,251.49c-14.25,0-25.84-10.84-25.84-24.18s11.59-24.17,25.84-24.17,25.85,10.84,25.85,24.17S637.23,251.49,623,251.49Zm0-31.08a6.92,6.92,0,1,0,7.39,6.9A7.16,7.16,0,0,0,623,220.41Z"/><path class="cls-5" d="M606.27,121.3c-14.25,0-25.85-10.85-25.85-24.18S592,72.94,606.27,72.94s25.85,10.85,25.85,24.18S620.52,121.3,606.27,121.3Zm0-31.09a6.92,6.92,0,1,0,7.38,6.91A7.16,7.16,0,0,0,606.27,90.21Z"/><path class="cls-5" d="M849.41,112.57c-14.26,0-25.85-10.84-25.85-24.17s11.59-24.18,25.85-24.18,25.85,10.84,25.85,24.18S863.66,112.57,849.41,112.57Zm0-31.08a6.92,6.92,0,1,0,7.38,6.91A7.17,7.17,0,0,0,849.41,81.49Z"/><path class="cls-5" d="M819.71,145.6c-14.25,0-25.85-10.85-25.85-24.18s11.6-24.17,25.85-24.17,25.85,10.84,25.85,24.17S834,145.6,819.71,145.6Zm0-31.08a6.92,6.92,0,1,0,7.39,6.9A7.16,7.16,0,0,0,819.71,114.52Z"/><path class="cls-5" d="M866.11,332.35c-12.8,0-23.21-9.74-23.21-21.71s10.41-21.71,23.21-21.71,23.21,9.74,23.21,21.71S878.91,332.35,866.11,332.35Zm0-31.09c-5.53,0-10,4.21-10,9.38s4.49,9.37,10,9.37,10-4.2,10-9.37S871.64,301.26,866.11,301.26Z"/><path class="cls-5" d="M869.78,377.47c-12.8,0-23.22-9.74-23.22-21.71s10.42-21.71,23.22-21.71S893,343.79,893,355.76,882.57,377.47,869.78,377.47Zm0-31.09c-5.53,0-10,4.21-10,9.38s4.5,9.37,10,9.37,10-4.2,10-9.37S875.3,346.38,869.78,346.38Z"/><path class="cls-5" d="M246.38,578a6.39,6.39,0,0,1-6.6-6.17V467.63a5.92,5.92,0,0,1,1.61-4l54.65-59a6.76,6.76,0,0,1,5-2.13h94.67V365.21a6.61,6.61,0,0,1,13.19,0v43.4a6.4,6.4,0,0,1-6.6,6.17H304L253,469.93V571.79A6.39,6.39,0,0,1,246.38,578Z"/><path class="cls-5" d="M270.52,578a6.39,6.39,0,0,1-6.59-6.17V467.63a5.94,5.94,0,0,1,1.45-3.86L300,423.48a6.77,6.77,0,0,1,5.09-2.3l114.74-.75V365.21a6.61,6.61,0,0,1,13.19,0v61.34a6.39,6.39,0,0,1-6.55,6.17l-118.15.77L277.11,469.8v102A6.39,6.39,0,0,1,270.52,578Z"/><path class="cls-5" d="M296.5,582.89a6.39,6.39,0,0,1-6.59-6.17V472.57a5.92,5.92,0,0,1,1.61-4l20.4-22a6.78,6.78,0,0,1,4.94-2.13l129-.86V370.15a6.61,6.61,0,0,1,13.19,0v79.49a6.39,6.39,0,0,1-6.54,6.17l-132.52.88L303.1,474.87V576.72A6.39,6.39,0,0,1,296.5,582.89Z"/><path class="cls-5" d="M803.09,138.57h-159a6.84,6.84,0,0,1-4.66-1.8l-22.32-20.88a5.88,5.88,0,0,1,0-8.72,6.91,6.91,0,0,1,9.32,0l20.39,19.07H803.09a6.18,6.18,0,1,1,0,12.33Z"/><path class="cls-5" d="M633.28,220.28a6.77,6.77,0,0,1-4.66-1.81,5.88,5.88,0,0,1,0-8.72L655.4,184.7a6.84,6.84,0,0,1,4.66-1.8H833.5a6.18,6.18,0,1,1,0,12.33H662.79l-24.85,23.24A6.8,6.8,0,0,1,633.28,220.28Z"/><path class="cls-5" d="M833.5,177.93H579.08a6.83,6.83,0,0,1-4.67-1.8l-18.49-17.3a5.89,5.89,0,0,1,0-8.72,6.92,6.92,0,0,1,9.33,0l16.56,15.49H833.5a6.18,6.18,0,1,1,0,12.33Z"/><path class="cls-5" d="M744.7,433.92a6.4,6.4,0,0,1-6.6-6.17V363.63a6.16,6.16,0,0,1,3.79-5.58l106.42-46.9a6.8,6.8,0,0,1,8.78,3,6,6,0,0,1-3.16,8.21L751.29,367.54v60.21A6.39,6.39,0,0,1,744.7,433.92Z"/><path class="cls-5" d="M772.33,431.05a6.4,6.4,0,0,1-6.6-6.17V378a6.19,6.19,0,0,1,4.2-5.75l83.91-30.63a6.75,6.75,0,0,1,8.54,3.51,6,6,0,0,1-3.74,8l-79.72,29.1v42.68A6.39,6.39,0,0,1,772.33,431.05Z"/><path class="cls-5" d="M465.32,651.19a6.89,6.89,0,0,1-3-.66,6,6,0,0,1-2.92-8.29l53.22-98.58a6.64,6.64,0,0,1,5.88-3.39H659.76a6.18,6.18,0,1,1,0,12.33H522.6l-51.38,95.2A6.67,6.67,0,0,1,465.32,651.19Z"/><path class="cls-5" d="M441.79,596.63a6.88,6.88,0,0,1-4.19-1.4,5.91,5.91,0,0,1-.9-8.69L494,521.46a6.79,6.79,0,0,1,5.09-2.25H662.83a6.18,6.18,0,1,1,0,12.34H502.21l-55.33,62.84A6.76,6.76,0,0,1,441.79,596.63Z"/><path class="cls-5" d="M661.62,447.16H587.2a6.39,6.39,0,0,1-6.59-6.17V316.37l-82.56-77.22a5.88,5.88,0,0,1,0-8.72,6.91,6.91,0,0,1,9.32,0l84.49,79a6,6,0,0,1,1.94,4.37v121h67.82a6.18,6.18,0,1,1,0,12.34Z"/><path class="cls-5" d="M661.62,468.8H564.26a6.39,6.39,0,0,1-6.59-6.17V333.3l-61.86-57.86a5.88,5.88,0,0,1,0-8.72,6.91,6.91,0,0,1,9.32,0l63.79,59.66a6,6,0,0,1,1.93,4.36V456.46h90.77a6.18,6.18,0,1,1,0,12.34Z"/><path class="cls-5" d="M659.39,486.93H540.76a6.4,6.4,0,0,1-6.6-6.16v-122l-40.59-38a5.88,5.88,0,0,1,0-8.72,6.91,6.91,0,0,1,9.32,0l42.53,39.78a5.94,5.94,0,0,1,1.93,4.36V474.6h112a6.18,6.18,0,1,1,0,12.33Z"/><polygon class="cls-5" points="871.89 138.49 863.97 138.49 863.97 114.98 886.36 94.04 886.36 54.75 894.27 54.75 894.27 97.11 871.89 118.04 871.89 138.49"/><polygon class="cls-5" points="887.9 138.49 879.99 138.49 879.99 114.98 902.37 94.04 902.37 54.75 910.28 54.75 910.28 97.11 887.9 118.04 887.9 138.49"/><polygon class="cls-5" points="902.08 138.49 894.17 138.49 894.17 114.98 916.55 94.04 916.55 54.75 924.46 54.75 924.46 97.11 902.08 118.04 902.08 138.49"/><path class="cls-5" d="M921.67,442.78a5.12,5.12,0,0,1-5.28-4.93V294.57l-57.22-22.8a4.92,4.92,0,0,1-3.21-4.53V213.85a5.29,5.29,0,0,1,10.55,0V264l57.23,22.8a4.94,4.94,0,0,1,3.2,4.54V437.85A5.11,5.11,0,0,1,921.67,442.78Z"/><path class="cls-5" d="M935.81,443.83a5.12,5.12,0,0,1-5.28-4.93V284.23l-54.81-19.72a4.94,4.94,0,0,1-3.38-4.6v-45a5.29,5.29,0,0,1,10.55,0v41.62l54.81,19.72a4.94,4.94,0,0,1,3.38,4.6V438.9A5.11,5.11,0,0,1,935.81,443.83Z"/><path class="cls-5" d="M889.92,743.42A7.67,7.67,0,0,1,882,736V699.38a7.15,7.15,0,0,1,2.32-5.23L927.9,653.4V635.53a7.93,7.93,0,0,1,15.82,0v20.94a7.15,7.15,0,0,1-2.32,5.23l-43.56,40.75V736A7.68,7.68,0,0,1,889.92,743.42Z"/><path class="cls-5" d="M922.38,743.42a7.67,7.67,0,0,1-7.91-7.4V699.38a7.15,7.15,0,0,1,2.32-5.23l43.56-40.75V635.53a7.93,7.93,0,0,1,15.83,0v20.94a7.19,7.19,0,0,1-2.32,5.23l-43.57,40.75V736A7.67,7.67,0,0,1,922.38,743.42Z"/><path class="cls-5" d="M951.48,743.42a7.68,7.68,0,0,1-7.92-7.4V699.38a7.19,7.19,0,0,1,2.32-5.23l43.57-40.75V635.53a7.93,7.93,0,0,1,15.82,0v20.94a7.17,7.17,0,0,1-2.31,5.23l-43.57,40.75V736A7.67,7.67,0,0,1,951.48,743.42Z"/><path class="cls-5" d="M982.45,743.42a7.68,7.68,0,0,1-7.92-7.4V699.38a7.19,7.19,0,0,1,2.32-5.23l43.57-40.75V635.53a7.93,7.93,0,0,1,15.82,0v20.94a7.17,7.17,0,0,1-2.31,5.23l-43.57,40.75V736A7.67,7.67,0,0,1,982.45,743.42Z"/><path class="cls-5" d="M1009.31,743.42a7.68,7.68,0,0,1-7.92-7.4V699.38a7.19,7.19,0,0,1,2.32-5.23l43.57-40.75V635.53a7.93,7.93,0,0,1,15.82,0v20.94a7.15,7.15,0,0,1-2.32,5.23l-43.56,40.75V736A7.67,7.67,0,0,1,1009.31,743.42Z"/><path class="cls-6" d="M848.73,458.71a5.23,5.23,0,0,1-5.4,5.05H794.72a5.23,5.23,0,0,1-5.4-5.05h0a5.23,5.23,0,0,1,5.4-5h48.61a5.23,5.23,0,0,1,5.4,5Z"/><path class="cls-7" d="M843.33,465H794.72a6.3,6.3,0,1,1,0-12.57h48.61a6.3,6.3,0,1,1,0,12.57Zm-48.61-10.1a3.83,3.83,0,1,0,0,7.64h48.61a3.83,3.83,0,1,0,0-7.64Z"/><path class="cls-6" d="M848.73,475.05a5.23,5.23,0,0,1-5.4,5.05H794.72a5.23,5.23,0,0,1-5.4-5.05h0a5.23,5.23,0,0,1,5.4-5.05h48.61a5.23,5.23,0,0,1,5.4,5.05Z"/><path class="cls-7" d="M843.33,481.33H794.72a6.3,6.3,0,1,1,0-12.57h48.61a6.3,6.3,0,1,1,0,12.57Zm-48.61-10.1a3.82,3.82,0,1,0,0,7.63h48.61a3.82,3.82,0,1,0,0-7.63Z"/><path class="cls-6" d="M848.73,495a5.24,5.24,0,0,1-5.4,5.05H794.72a5.24,5.24,0,0,1-5.4-5.05h0a5.24,5.24,0,0,1,5.4-5.06h48.61a5.24,5.24,0,0,1,5.4,5.06Z"/><path class="cls-7" d="M843.33,501.3H794.72a6.3,6.3,0,1,1,0-12.57h48.61a6.3,6.3,0,1,1,0,12.57Zm-48.61-10.1a3.82,3.82,0,1,0,0,7.63h48.61a3.82,3.82,0,1,0,0-7.63Z"/><path class="cls-6" d="M848.73,514.08a5.23,5.23,0,0,1-5.4,5H794.72a5.23,5.23,0,0,1-5.4-5h0a5.23,5.23,0,0,1,5.4-5.05h48.61a5.23,5.23,0,0,1,5.4,5.05Z"/><path class="cls-7" d="M843.33,520.36H794.72a6.3,6.3,0,1,1,0-12.57h48.61a6.3,6.3,0,1,1,0,12.57Zm-48.61-10.1a3.82,3.82,0,1,0,0,7.63h48.61a3.82,3.82,0,1,0,0-7.63Z"/><path class="cls-6" d="M696.74,375.11a5.23,5.23,0,0,1,5.4,5.05v45.46a5.23,5.23,0,0,1-5.4,5.05h0a5.23,5.23,0,0,1-5.4-5.05V380.16a5.23,5.23,0,0,1,5.4-5.05Z"/><path class="cls-7" d="M696.74,431.9a6.52,6.52,0,0,1-6.72-6.28V380.16a6.73,6.73,0,0,1,13.44,0v45.46A6.52,6.52,0,0,1,696.74,431.9Zm0-55.56a4,4,0,0,0-4.08,3.82v45.46a4.09,4.09,0,0,0,8.17,0V380.16A4,4,0,0,0,696.74,376.34Z"/><path class="cls-6" d="M716.15,373.36a5.23,5.23,0,0,1,5.4,5.05v45.46a5.23,5.23,0,0,1-5.4,5.05h0a5.23,5.23,0,0,1-5.4-5.05V378.41a5.23,5.23,0,0,1,5.4-5.05Z"/><path class="cls-7" d="M716.15,430.15a6.52,6.52,0,0,1-6.72-6.28V378.41a6.73,6.73,0,0,1,13.44,0v45.46A6.52,6.52,0,0,1,716.15,430.15Zm0-55.56a4,4,0,0,0-4.08,3.82v45.46a4.09,4.09,0,0,0,8.17,0V378.41A4,4,0,0,0,716.15,374.59Z"/><path class="cls-6" d="M741.39,375.11a5.23,5.23,0,0,1,5.4,5.05v45.46a5.23,5.23,0,0,1-5.4,5.05h0a5.23,5.23,0,0,1-5.4-5.05V380.16a5.23,5.23,0,0,1,5.4-5.05Z"/><path class="cls-7" d="M741.39,431.9a6.52,6.52,0,0,1-6.72-6.28V380.16a6.73,6.73,0,0,1,13.44,0v45.46A6.52,6.52,0,0,1,741.39,431.9Zm0-55.56a4,4,0,0,0-4.09,3.82v45.46a4.09,4.09,0,0,0,8.17,0V380.16A4,4,0,0,0,741.39,376.34Z"/><path class="cls-6" d="M739,544.13a5.23,5.23,0,0,1,5.4,5v45.46a5.23,5.23,0,0,1-5.4,5.05h0a5.23,5.23,0,0,1-5.4-5.05V549.18a5.23,5.23,0,0,1,5.4-5Z"/><path class="cls-7" d="M739,600.93a6.52,6.52,0,0,1-6.72-6.29V549.18a6.74,6.74,0,0,1,13.44,0v45.46A6.53,6.53,0,0,1,739,600.93Zm0-55.57a4,4,0,0,0-4.09,3.82v45.46a4.09,4.09,0,0,0,8.17,0V549.18A4,4,0,0,0,739,545.36Z"/><path class="cls-6" d="M715.18,544.13a5.23,5.23,0,0,1,5.4,5v45.46a5.23,5.23,0,0,1-5.4,5.05h0a5.23,5.23,0,0,1-5.4-5.05V549.18a5.23,5.23,0,0,1,5.4-5Z"/><path class="cls-7" d="M715.18,600.93a6.53,6.53,0,0,1-6.72-6.29V549.18a6.74,6.74,0,0,1,13.44,0v45.46A6.52,6.52,0,0,1,715.18,600.93Zm0-55.57a4,4,0,0,0-4.08,3.82v45.46a4.09,4.09,0,0,0,8.17,0V549.18A4,4,0,0,0,715.18,545.36Z"/><path class="cls-6" d="M690.78,535.38a5.23,5.23,0,0,1,5.4,5v45.46a5.23,5.23,0,0,1-5.4,5.05h0a5.23,5.23,0,0,1-5.4-5.05V540.43a5.23,5.23,0,0,1,5.4-5Z"/><path class="cls-7" d="M690.78,592.17a6.52,6.52,0,0,1-6.72-6.28V540.43a6.73,6.73,0,0,1,13.44,0v45.46A6.52,6.52,0,0,1,690.78,592.17Zm0-55.56a4,4,0,0,0-4.08,3.82v45.46a4.09,4.09,0,0,0,8.16,0V540.43A4,4,0,0,0,690.78,536.61Z"/><path class="cls-6" d="M764.26,537.13a5.23,5.23,0,0,1,5.4,5v45.46a5.23,5.23,0,0,1-5.4,5.05h0a5.23,5.23,0,0,1-5.4-5.05V542.18a5.23,5.23,0,0,1,5.4-5Z"/><path class="cls-7" d="M764.26,593.92a6.52,6.52,0,0,1-6.72-6.28V542.18a6.73,6.73,0,0,1,13.44,0v45.46A6.52,6.52,0,0,1,764.26,593.92Zm0-55.56a4,4,0,0,0-4.08,3.82v45.46a4.09,4.09,0,0,0,8.16,0V542.18A4,4,0,0,0,764.26,538.36Z"/><rect class="cls-5" x="671.53" y="82.23" width="161.26" height="12.33"/><path class="cls-8" d="M137.61,222.12c0,8.37,6.16,15.16,13.75,15.16h0c7.6,0,13.75-6.79,13.75-15.16v-35c0-8.37-6.15-15.16-13.75-15.16h0c-7.59,0-13.75,6.79-13.75,15.16Z"/><path class="cls-4" d="M151.36,243.44c-11.22,0-20.34-9.56-20.34-21.32v-35c0-11.76,9.12-21.33,20.34-21.33s20.35,9.57,20.35,21.33v35C171.71,233.88,162.58,243.44,151.36,243.44Zm0-65.29c-3.88,0-7.16,4.11-7.16,9v35c0,4.87,3.28,9,7.16,9s7.16-4.12,7.16-9v-35C158.52,182.26,155.24,178.15,151.36,178.15Z"/><g class="cls-1"><path class="cls-2" d="M919.72,14.25l22,79.41H535.88L481.16,54Z"/><path d="M941.82,97.36H535.88a4.13,4.13,0,0,1-2.42-.78L478.74,56.94A3.55,3.55,0,0,1,477.36,53a3.9,3.9,0,0,1,3.42-2.66L919.34,10.57a4,4,0,0,1,4.21,2.75l21.89,78.84a3.58,3.58,0,0,1,.33,1.5A3.83,3.83,0,0,1,941.82,97.36ZM537.23,90H936.65L916.74,18.24,491.46,56.8Z"/></g><path class="cls-8" d="M137.61,277.38c0,8.37,6.16,15.16,13.75,15.16h0c7.6,0,13.75-6.79,13.75-15.16v-35c0-8.37-6.15-15.16-13.75-15.16h0c-7.59,0-13.75,6.79-13.75,15.16Z"/><path class="cls-4" d="M151.36,298.7c-11.22,0-20.34-9.56-20.34-21.32v-35c0-11.76,9.12-21.33,20.34-21.33s20.35,9.57,20.35,21.33v35C171.71,289.14,162.58,298.7,151.36,298.7Zm0-65.29c-3.88,0-7.16,4.11-7.16,9v35c0,4.87,3.28,9,7.16,9s7.16-4.12,7.16-9v-35C158.52,237.52,155.24,233.41,151.36,233.41Z"/><path class="cls-8" d="M137.61,334.48c0,8.37,6.16,15.16,13.75,15.16h0c7.6,0,13.75-6.79,13.75-15.16v-35c0-8.37-6.15-15.16-13.75-15.16h0c-7.59,0-13.75,6.79-13.75,15.16Z"/><path class="cls-4" d="M151.36,355.81c-11.22,0-20.34-9.57-20.34-21.33v-35c0-11.76,9.12-21.32,20.34-21.32s20.35,9.56,20.35,21.32v35C171.71,346.24,162.58,355.81,151.36,355.81Zm0-65.3c-3.88,0-7.16,4.12-7.16,9v35c0,4.87,3.28,9,7.16,9s7.16-4.12,7.16-9v-35C158.52,294.63,155.24,290.51,151.36,290.51Z"/><g class="cls-1"><polygon class="cls-2" points="957.9 331.79 1101.61 434.46 1100.55 329.77 957.9 331.79"/><path d="M1101.61,438.16a4.15,4.15,0,0,1-2.4-.76L955.5,334.73a3.58,3.58,0,0,1-1.36-4.1,3.94,3.94,0,0,1,3.7-2.54l142.65-2a4.24,4.24,0,0,1,2.82,1.06,3.58,3.58,0,0,1,1.2,2.61l1.06,104.68a3.69,3.69,0,0,1-2.19,3.34A4.08,4.08,0,0,1,1101.61,438.16ZM969.37,335.33l128.21,91.59-.95-93.39Z"/></g><g class="cls-1"><polygon class="cls-2" points="904.87 658.41 973.48 722.57 1101.36 722.57 1102.59 658.37 904.87 658.41"/><path d="M1101.36,726.27H973.47a4.11,4.11,0,0,1-2.79-1.08L902.07,661a3.51,3.51,0,0,1-.85-4,4,4,0,0,1,3.65-2.28l197.72-.05a4.08,4.08,0,0,1,2.82,1.11,3.59,3.59,0,0,1,1.13,2.66l-1.22,64.21A3.84,3.84,0,0,1,1101.36,726.27Zm-126.25-7.4h122.37l1.08-56.8-184.14,0Z"/></g><g class="cls-1"><polygon class="cls-2" points="623.58 323.69 647.41 345.98 832.46 341.66 822.65 298.28 623.58 311.07 623.58 323.69"/><path d="M647.41,349.68a4.05,4.05,0,0,1-2.79-1.09L620.78,326.3a3.58,3.58,0,0,1-1.16-2.62V311.07a3.82,3.82,0,0,1,3.69-3.7l199.07-12.78a3.89,3.89,0,0,1,4.14,2.92l9.81,43.38a3.5,3.5,0,0,1-.76,3.06,4,4,0,0,1-3,1.4l-185,4.33Zm-19.88-27.53L649,342.24l178.6-4.17-8.12-35.88-192,12.33Z"/></g><path class="cls-9" d="M614.84,292.67c0,5.76-5,10.44-11.16,10.44h0c-6.16,0-11.16-4.68-11.16-10.44v-11.8c0-5.77,5-10.44,11.16-10.44h0c6.17,0,11.16,4.67,11.16,10.44Z"/><path class="cls-7" d="M603.68,304.34c-6.88,0-12.48-5.23-12.48-11.67v-11.8c0-6.44,5.6-11.67,12.48-11.67s12.48,5.23,12.48,11.67v11.8C616.16,299.11,610.56,304.34,603.68,304.34Zm0-32.68c-5.42,0-9.84,4.13-9.84,9.21v11.8c0,5.08,4.42,9.2,9.84,9.2s9.84-4.12,9.84-9.2v-11.8C613.52,275.79,609.11,271.66,603.68,271.66Z"/><path class="cls-9" d="M825.44,292.67c0,5.76-5,10.44-11.16,10.44h0c-6.17,0-11.17-4.68-11.17-10.44v-11.8c0-5.77,5-10.44,11.17-10.44h0c6.16,0,11.16,4.67,11.16,10.44Z"/><path class="cls-7" d="M814.28,304.34c-6.89,0-12.48-5.23-12.48-11.67v-11.8c0-6.44,5.59-11.67,12.48-11.67s12.47,5.23,12.47,11.67v11.8C826.75,299.11,821.16,304.34,814.28,304.34Zm0-32.68c-5.43,0-9.85,4.13-9.85,9.21v11.8c0,5.08,4.42,9.2,9.85,9.2s9.84-4.12,9.84-9.2v-11.8C824.12,275.79,819.7,271.66,814.28,271.66Z"/><rect class="cls-10" x="910.48" y="442.14" width="206.96" height="209.11"/><path class="cls-4" d="M1117.44,655h-207a3.83,3.83,0,0,1-4-3.7V442.14a3.83,3.83,0,0,1,4-3.7h207a3.84,3.84,0,0,1,4,3.7V651.25A3.84,3.84,0,0,1,1117.44,655Zm-203-7.4h199V445.84h-199Z"/><g class="cls-1"><polygon class="cls-11" points="167.75 368.88 189.9 403.41 551.72 403.41 551.72 211.02 505.84 168.1 167.75 368.88"/><path class="cls-11" d="M551.72,405.88H189.9a2.67,2.67,0,0,1-2.26-1.2l-22.15-34.53a2.36,2.36,0,0,1,.84-3.35L504.42,166a2.77,2.77,0,0,1,3.28.34l45.89,42.92a2.4,2.4,0,0,1,.77,1.74V403.41A2.56,2.56,0,0,1,551.72,405.88Zm-360.33-4.94h357.7V212l-43.62-40.8L171.33,369.67Z"/></g><g class="cls-1"><polygon class="cls-2" points="835.47 209.43 857.49 230.02 922.64 230.02 922.64 156.93 907.12 142.41 835.47 209.43"/><path d="M922.64,233.72H857.48a4.11,4.11,0,0,1-2.79-1.08l-22-20.59a3.55,3.55,0,0,1,0-5.24l71.65-67a4.1,4.1,0,0,1,2.8-1.09h0a4.08,4.08,0,0,1,2.8,1.09l15.52,14.51a3.61,3.61,0,0,1,1.16,2.62V230A3.84,3.84,0,0,1,922.64,233.72Zm-63.52-7.4h59.56V158.46l-11.56-10.81-66.06,61.78Z"/></g><rect class="cls-12" x="835.47" y="137.81" width="76.58" height="71.62"/><path class="cls-4" d="M912,213.13H835.47a3.84,3.84,0,0,1-4-3.7V137.81a3.83,3.83,0,0,1,4-3.7H912a3.83,3.83,0,0,1,4,3.7v71.62A3.84,3.84,0,0,1,912,213.13Zm-72.61-7.4h68.66V141.51H839.43Z"/><g class="cls-1"><polygon class="cls-11" points="332.58 63.16 356.06 103.06 356.06 165.72 330.5 165.72 332.58 63.16"/><path class="cls-11" d="M356.06,168.19H330.5a2.72,2.72,0,0,1-1.88-.74,2.38,2.38,0,0,1-.76-1.77l2.08-102.56a2.52,2.52,0,0,1,2-2.35A2.7,2.7,0,0,1,334.89,62l23.48,39.89a2.41,2.41,0,0,1,.32,1.19v62.66A2.55,2.55,0,0,1,356.06,168.19Zm-22.87-4.93h20.23V103.69L335,72.44Z"/></g><rect class="cls-8" x="228.16" y="63.16" width="104.43" height="97.67"/><path class="cls-4" d="M332.58,167H228.16a6.39,6.39,0,0,1-6.6-6.17V63.16a6.39,6.39,0,0,1,6.6-6.16H332.58a6.4,6.4,0,0,1,6.6,6.16v97.67A6.4,6.4,0,0,1,332.58,167Zm-97.83-12.33H326V69.33H234.75Z"/><ellipse class="cls-13" cx="280.49" cy="113.66" rx="23.11" ry="21.62"/><path class="cls-10" d="M498.82,341.42c0,11.6-10.06,21-22.47,21H176.42c-12.41,0-22.47-9.41-22.47-21V183.17c0-11.61,10.06-21,22.47-21H476.35c12.41,0,22.47,9.41,22.47,21Z"/><path class="cls-4" d="M476.35,366.13H176.42c-14.57,0-26.42-11.08-26.42-24.71V183.17c0-13.63,11.85-24.72,26.42-24.72H476.35c14.57,0,26.42,11.09,26.42,24.72V341.42C502.77,355.05,490.92,366.13,476.35,366.13ZM176.42,165.86c-10.21,0-18.51,7.76-18.51,17.31V341.42c0,9.54,8.3,17.31,18.51,17.31H476.35c10.21,0,18.51-7.77,18.51-17.31V183.17c0-9.55-8.3-17.31-18.51-17.31Z"/><g class="cls-1"><polygon class="cls-2" points="658.44 550.13 673.11 563.84 804.64 563.84 804.64 443.6 789.78 429.69 658.44 550.13"/><path d="M804.64,567.54H673.1a4.09,4.09,0,0,1-2.79-1.08l-14.67-13.72a3.53,3.53,0,0,1,0-5.26L787,427.05a4.15,4.15,0,0,1,5.57,0L807.44,441a3.58,3.58,0,0,1,1.16,2.62V563.84A3.83,3.83,0,0,1,804.64,567.54Zm-129.9-7.4h126v-115L789.75,434.9,664.06,550.15Z"/></g><rect class="cls-12" x="662.08" y="428.33" width="129.23" height="120.87"/><path class="cls-4" d="M791.31,552.91H662.08a3.84,3.84,0,0,1-4-3.7V428.33a3.84,3.84,0,0,1,4-3.7H791.31a3.84,3.84,0,0,1,4,3.7V549.21A3.84,3.84,0,0,1,791.31,552.91ZM666,545.51H787.36V432H666Z"/><path class="cls-9" d="M183.91,325.61a6.39,6.39,0,0,1-6.59-6.17V187.87a6.4,6.4,0,0,1,6.59-6.17H391.4a6.18,6.18,0,1,1,0,12.34H190.5v125.4A6.39,6.39,0,0,1,183.91,325.61Z"/><path class="cls-9" d="M931.24,509.81a6.39,6.39,0,0,1-6.59-6.17V464.17a6.39,6.39,0,0,1,6.59-6.16h40.44a6.18,6.18,0,1,1,0,12.33H937.83v33.3A6.39,6.39,0,0,1,931.24,509.81Z"/><path class="cls-9" d="M929.48,554.22a6.39,6.39,0,0,1-6.59-6.17V525a6.61,6.61,0,0,1,13.19,0v23A6.4,6.4,0,0,1,929.48,554.22Z"/><path class="cls-9" d="M679.78,516.39a6.39,6.39,0,0,1-6.59-6.17V442.79a6.39,6.39,0,0,1,6.59-6.16H729A6.18,6.18,0,1,1,729,449H686.38v61.26A6.39,6.39,0,0,1,679.78,516.39Z"/><rect class="cls-12" x="473.24" y="12.52" width="55.96" height="43.96"/><path class="cls-4" d="M529.2,60.19h-56a3.84,3.84,0,0,1-3.95-3.71v-44a3.83,3.83,0,0,1,3.95-3.7h56a3.84,3.84,0,0,1,4,3.7v44A3.84,3.84,0,0,1,529.2,60.19Zm-52-7.41h48V16.22h-48Z"/><rect class="cls-12" x="529.2" y="12.52" width="55.96" height="43.96"/><path class="cls-4" d="M585.16,60.19h-56a3.84,3.84,0,0,1-4-3.71v-44a3.84,3.84,0,0,1,4-3.7h56a3.83,3.83,0,0,1,4,3.7v44A3.84,3.84,0,0,1,585.16,60.19Zm-52-7.41h48V16.22h-48Z"/><rect class="cls-12" x="585.16" y="12.52" width="55.96" height="43.96"/><path class="cls-4" d="M641.11,60.19h-56a3.84,3.84,0,0,1-4-3.71v-44a3.84,3.84,0,0,1,4-3.7h56a3.84,3.84,0,0,1,4,3.7v44A3.84,3.84,0,0,1,641.11,60.19Zm-52-7.41h48V16.22h-48Z"/><rect class="cls-12" x="641.11" y="12.52" width="55.96" height="43.96"/><path class="cls-4" d="M697.07,60.19h-56a3.84,3.84,0,0,1-4-3.71v-44a3.83,3.83,0,0,1,4-3.7h56a3.84,3.84,0,0,1,4,3.7v44A3.84,3.84,0,0,1,697.07,60.19Zm-52-7.41h48V16.22h-48Z"/><rect class="cls-12" x="697.07" y="12.52" width="55.96" height="43.96"/><path class="cls-4" d="M753,60.19h-56a3.84,3.84,0,0,1-4-3.71v-44a3.84,3.84,0,0,1,4-3.7h56a3.83,3.83,0,0,1,4,3.7v44A3.84,3.84,0,0,1,753,60.19Zm-52-7.41h48V16.22H701Z"/><rect class="cls-12" x="753.03" y="12.52" width="55.96" height="43.96"/><path class="cls-4" d="M809,60.19H753a3.84,3.84,0,0,1-4-3.71v-44a3.84,3.84,0,0,1,4-3.7h56a3.84,3.84,0,0,1,4,3.7v44A3.84,3.84,0,0,1,809,60.19Zm-52-7.41h48V16.22H757Z"/><rect class="cls-12" x="808.98" y="12.52" width="55.96" height="43.96"/><path class="cls-4" d="M864.94,60.19H809a3.84,3.84,0,0,1-4-3.71v-44a3.83,3.83,0,0,1,4-3.7h56a3.83,3.83,0,0,1,3.95,3.7v44A3.84,3.84,0,0,1,864.94,60.19Zm-52-7.41h48V16.22h-48Z"/><rect class="cls-12" x="864.94" y="12.52" width="55.96" height="43.96"/><path class="cls-4" d="M920.89,60.19H864.94a3.84,3.84,0,0,1-4-3.71v-44a3.84,3.84,0,0,1,4-3.7h55.95a3.84,3.84,0,0,1,4,3.7v44A3.84,3.84,0,0,1,920.89,60.19Zm-52-7.41h48.05V16.22H868.89Z"/><ellipse class="cls-14" cx="458.88" cy="37.05" rx="28.68" ry="26.83"/><path class="cls-4" d="M458.88,67.58c-18,0-32.64-13.7-32.64-30.53S440.88,6.52,458.88,6.52s32.64,13.7,32.64,30.53S476.88,67.58,458.88,67.58Zm0-53.66c-13.63,0-24.73,10.38-24.73,23.13s11.1,23.13,24.73,23.13S483.6,49.8,483.6,37.05,472.51,13.92,458.88,13.92Z"/><path class="cls-9" d="M239.3,122.5a6.39,6.39,0,0,1-6.59-6.17V71.93a6.39,6.39,0,0,1,6.59-6.17h33.41a6.18,6.18,0,1,1,0,12.33H245.89v38.24A6.39,6.39,0,0,1,239.3,122.5Z"/><path class="cls-9" d="M184.79,349.46a6.39,6.39,0,0,1-6.59-6.17v-8.22a6.6,6.6,0,0,1,13.18,0v8.22A6.39,6.39,0,0,1,184.79,349.46Z"/><path class="cls-15" d="M626.91,259.16H786.65s40.49,18.94,0,56.82H626.91S585.28,298.09,626.91,259.16Z"/><path class="cls-4" d="M786.65,322.14H626.91a7.06,7.06,0,0,1-2.76-.56c-.75-.33-18.59-8.17-21.84-25.12-2.48-12.95,4.23-27,19.94-41.66a6.8,6.8,0,0,1,4.66-1.81H786.65a7.13,7.13,0,0,1,3,.65c.74.35,18.25,8.72,21.22,25.85,2.24,12.9-4.33,26.65-19.51,40.85A6.86,6.86,0,0,1,786.65,322.14ZM628.54,309.81H783.87c10.68-10.52,15.37-20.05,13.93-28.34-1.52-8.76-9.78-14.33-12.91-16.14H629.69c-11,10.81-16,20.79-14.4,29C616.94,302.89,625.45,308.16,628.54,309.81Z"/><path class="cls-12" d="M1120.93,318.94c0,11.61-10.06,21-22.47,21H974.34c-12.41,0-22.47-9.41-22.47-21V76.36c0-11.6,10.06-21,22.47-21h124.12c12.41,0,22.47,9.41,22.47,21Z"/><path class="cls-4" d="M1098.46,343.66H974.34c-14.57,0-26.42-11.09-26.42-24.72V76.37c0-13.63,11.85-24.72,26.42-24.72h124.12c14.57,0,26.42,11.09,26.42,24.72V318.94C1124.88,332.57,1113,343.66,1098.46,343.66ZM974.34,59.05c-10.21,0-18.51,7.77-18.51,17.32V318.94c0,9.55,8.3,17.32,18.51,17.32h124.12c10.21,0,18.51-7.77,18.51-17.32V76.37c0-9.55-8.3-17.32-18.51-17.32Z"/><path class="cls-9" d="M975.2,121.68a6.39,6.39,0,0,1-6.59-6.17V69.46a6.39,6.39,0,0,1,6.59-6.17h65.06a6.18,6.18,0,1,1,0,12.34H981.79v39.88A6.39,6.39,0,0,1,975.2,121.68Z"/><path class="cls-9" d="M975.2,177.59a6.39,6.39,0,0,1-6.59-6.16V136.89a6.6,6.6,0,0,1,13.18,0v34.54A6.39,6.39,0,0,1,975.2,177.59Z"/><path class="cls-9" d="M973.44,212.13a6.39,6.39,0,0,1-6.59-6.17v-8.22a6.61,6.61,0,0,1,13.19,0V206A6.4,6.4,0,0,1,973.44,212.13Z"/><g class="cls-1"><polygon class="cls-2" points="169.39 686.23 201.71 716.45 384.14 716.45 384.14 610.17 352.87 580.92 169.39 686.23"/><path d="M384.14,720.15H201.71a4.12,4.12,0,0,1-2.8-1.08l-32.32-30.23a3.58,3.58,0,0,1-1.13-3.05,3.69,3.69,0,0,1,1.86-2.72L350.8,577.77a4.15,4.15,0,0,1,4.86.54l31.28,29.25a3.57,3.57,0,0,1,1.16,2.61V716.45A3.83,3.83,0,0,1,384.14,720.15Zm-180.79-7.4H380.18v-101L352.27,585.6,175.73,686.93Z"/></g><path class="cls-10" d="M361.32,668.93c0,11.61-10.06,21-22.46,21H185.44c-12.41,0-22.47-9.41-22.47-21V595c0-11.61,10.06-21,22.47-21H338.86c12.4,0,22.46,9.4,22.46,21Z"/><path class="cls-4" d="M338.86,693.65H185.44c-14.57,0-26.43-11.09-26.43-24.72V595c0-13.63,11.86-24.71,26.43-24.71H338.86c14.57,0,26.42,11.08,26.42,24.71v73.92C365.28,682.56,353.43,693.65,338.86,693.65ZM185.44,577.7c-10.21,0-18.51,7.76-18.51,17.31v73.92c0,9.55,8.3,17.32,18.51,17.32H338.86c10.2,0,18.51-7.77,18.51-17.32V595c0-9.55-8.31-17.31-18.51-17.31Z"/><g class="cls-1"><polygon class="cls-2" points="529.26 704.02 552.21 725.49 638.93 725.49 638.93 639.61 620.44 622.31 529.26 704.02"/><path d="M638.93,729.19H552.21a4.05,4.05,0,0,1-2.79-1.09l-23-21.47a3.53,3.53,0,0,1,.06-5.29l91.18-81.7a4.16,4.16,0,0,1,5.54.06L641.73,637a3.61,3.61,0,0,1,1.16,2.62v85.88A3.84,3.84,0,0,1,638.93,729.19Zm-85.08-7.41H635V641.14l-14.59-13.65-85.47,76.58Z"/></g><path class="cls-12" d="M629.78,687.52c0,11.6-10.06,21-22.46,21h-59c-12.41,0-22.47-9.41-22.47-21V635c0-11.61,10.06-21,22.47-21h59c12.4,0,22.46,9.4,22.46,21Z"/><path class="cls-4" d="M607.32,712.23h-59c-14.57,0-26.42-11.08-26.42-24.71V635c0-13.63,11.85-24.72,26.42-24.72h59c14.57,0,26.42,11.09,26.42,24.72v52.54C633.74,701.15,621.89,712.23,607.32,712.23Zm-59-94.56c-10.21,0-18.51,7.76-18.51,17.31v52.54c0,9.55,8.3,17.31,18.51,17.31h59c10.2,0,18.51-7.76,18.51-17.31V635c0-9.55-8.31-17.31-18.51-17.31Z"/><path class="cls-9" d="M541.75,685.79a6.39,6.39,0,0,1-6.59-6.17V630.28a6.4,6.4,0,0,1,6.59-6.17h28.13a6.18,6.18,0,1,1,0,12.34H548.34v43.17A6.39,6.39,0,0,1,541.75,685.79Z"/></svg>