<svg id="Capa_1" data-name="Capa 1" xmlns="http://www.w3.org/2000/svg" viewBox="0 0 812.34 945.86"><defs><style>.cls-1{fill:#c6bda5;}.cls-2{fill:#01123a;}.cls-3{fill:#9e947e;}.cls-4{fill:#cc9305;}.cls-5{fill:#fff;}.cls-6{opacity:0.3;}.cls-7{opacity:0.4;}.cls-8{opacity:0.2;}.cls-9{fill:#001616;}.cls-10{opacity:0.5;}.cls-11{fill:#3f3f3f;}</style></defs><title>prto</title><rect class="cls-1" x="237.53" y="565.8" width="230.09" height="66.03" rx="8" ry="8" transform="translate(-314.58 404.41) rotate(-43.26)"/><path class="cls-2" d="M291.77,705.11h0a14.79,14.79,0,0,1-10.72-4.63l-34.28-36.43a14.73,14.73,0,0,1,.63-20.8L403.3,496.51a14.71,14.71,0,0,1,20.8.63l34.29,36.43a14.74,14.74,0,0,1-.63,20.81L301.86,701.11A14.66,14.66,0,0,1,291.77,705.11ZM413.39,506a1.24,1.24,0,0,0-.88.35L256.61,653a1.29,1.29,0,0,0-.06,1.82l34.29,36.42a1.27,1.27,0,0,0,.93.41,1.25,1.25,0,0,0,.88-.35L448.55,544.6a1.29,1.29,0,0,0,.06-1.82l-34.29-36.43A1.25,1.25,0,0,0,413.39,506Z"/><path class="cls-1" d="M550,491.77a10.13,10.13,0,0,0,.54,14.31l100.35,97.74a10.15,10.15,0,0,0,14.32.17l137.72-141.4a10.13,10.13,0,0,0-.55-14.31L702,350.54a10.14,10.14,0,0,0-14.32-.17Z"/><path class="cls-2" d="M658.29,613.58h0a17.26,17.26,0,0,1-12.08-5L545.86,510.89a17.25,17.25,0,0,1-5.27-11.75,16.27,16.27,0,0,1,4.59-12.06L682.9,345.69a16.21,16.21,0,0,1,11.74-4.91,17.26,17.26,0,0,1,12.08,5l100.35,97.74a17.28,17.28,0,0,1,5.26,11.74,16.2,16.2,0,0,1-4.59,12.07L670,608.67A16.21,16.21,0,0,1,658.29,613.58Zm36.35-259.37a2.88,2.88,0,0,0-2.11.85L554.81,496.46a2.83,2.83,0,0,0-.79,2.17,3.87,3.87,0,0,0,1.21,2.64L655.58,599a3.89,3.89,0,0,0,2.71,1.15h0a2.9,2.9,0,0,0,2.11-.85L798.12,457.9a2.91,2.91,0,0,0,.79-2.17,3.9,3.9,0,0,0-1.22-2.64L697.34,355.35A3.88,3.88,0,0,0,694.64,354.21Z"/><path class="cls-1" d="M677.71,357.71s-94-142.06-262.1-128c0,0-150.07,22-172.08,76,0,0,12,10,82,22,0,0,114-6,236.1,150.06Z"/><path class="cls-2" d="M561.67,484.48h-.36a6.72,6.72,0,0,1-4.94-2.57c-47-60.1-98-103-151.7-127.42-7.37-3.35-45.72-20.09-77.4-20.09-.82,0-1.28,0-1.37,0a7.26,7.26,0,0,1-1.47-.09c-68.34-11.72-83-21.61-85.2-23.47a6.73,6.73,0,0,1-1.92-7.69c9.93-24.37,43.09-45.29,98.56-62.17a602,602,0,0,1,78.76-18l.42,0c7.92-.66,15.91-1,23.75-1,81.23,0,143.37,35.88,181.2,66,40.9,32.55,62.42,64.71,63.31,66.06a6.72,6.72,0,0,1-.77,8.38l-116,120.05A6.7,6.7,0,0,1,561.67,484.48ZM327.27,321c8.5,0,39.57,1.54,83,21.31,53.81,24.51,104.9,66.65,151.93,125.32L669,357.06a326.67,326.67,0,0,0-57.72-58.89C575.19,269.54,516,235.4,438.8,235.4c-7.4,0-14.95.32-22.43.94-39,5.76-140.3,28.45-163.86,66.51,8.09,3.5,28.13,10.3,73.52,18.11Z"/><path class="cls-3" d="M469.63,561.8l-86-80s100-70-12-142.06c0,0,96,20,190.08,138.06l-12,22,.88,6.31S495.64,525.78,469.63,561.8Z"/><path class="cls-2" d="M469.63,568.51a6.69,6.69,0,0,1-4.58-1.8l-86-80a6.71,6.71,0,0,1,.72-10.42c.38-.27,39-27.85,38.23-64-.49-23.4-17.32-45.92-50-66.95a6.72,6.72,0,0,1,5-12.22c1,.21,25.41,5.44,61.65,25.46,33.17,18.32,83,53.14,132.31,115a6.71,6.71,0,0,1,.64,7.4L556.62,501l.57,4.11a6.69,6.69,0,0,1-4.38,7.25c-.53.19-53.28,19.47-77.74,53.33a6.73,6.73,0,0,1-4.79,2.75C470.06,568.5,469.85,568.51,469.63,568.51Zm-75.74-86.34,74.95,69.72c23.18-27.57,60.65-44.58,74.31-50.15l-.14-1a6.73,6.73,0,0,1,.75-4.15l9.86-18.07c-55.28-68.22-111-102.33-146.33-118.61C423,376.34,431,393.81,431.4,412.09c.36,18.1-7.19,36.87-21.82,54.3A133.7,133.7,0,0,1,393.89,482.17Z"/><path class="cls-4" d="M213.52,621.82l102,88s0,88-66,82c0,0-116,68-148.06,114.05,0,0-113.62-79.07-92-106.05C17.44,789.89,201.52,605.81,213.52,621.82Z"/><path class="cls-2" d="M101.48,912.66a6.7,6.7,0,0,1-3.84-1.21C88.2,904.88,5.29,846.28.26,811.58A20.13,20.13,0,0,1,4.19,795.7c4.18-5.22,49.35-50.82,95.14-93.83,93.44-87.75,106.32-87.75,111.82-87.75a9.46,9.46,0,0,1,7.13,2.94L320,704.77a6.72,6.72,0,0,1,2.33,5.09,141.88,141.88,0,0,1-7.87,43.45c-10.82,29.82-31.07,45.59-58.56,45.59h0c-1.53,0-3.11,0-4.7-.15-14.73,8.79-115.48,69.81-144.15,111a6.77,6.77,0,0,1-5.51,2.89ZM210.14,627.77c-4.84,1.47-25.27,12.13-102.44,84.67C61.23,756.12,18,800,14.68,804.09c-.7.88-1.58,2.41-1.12,5.56,3.32,22.92,59.28,67.46,86.46,87C136.9,850.43,241.53,788.8,246.14,786.1a6.67,6.67,0,0,1,4-.9c2,.18,3.86.27,5.7.27h0c21.64,0,37.09-12.37,45.93-36.74a129.46,129.46,0,0,0,7-35.88Z"/><path class="cls-5" d="M669.89,563.94a7.94,7.94,0,0,1-5.78-13.38l92.22-98.09-33.17-35.6a7.94,7.94,0,1,1,11.62-10.82l38.23,41a7.94,7.94,0,0,1,0,10.85l-97.31,103.5A7.92,7.92,0,0,1,669.89,563.94Z"/><path class="cls-5" d="M286.33,650.86a7.94,7.94,0,0,1-5.57-13.6l109.59-107.7a7.94,7.94,0,1,1,11.13,11.32L291.89,648.58A7.89,7.89,0,0,1,286.33,650.86Z"/><g class="cls-6"><path d="M436.82,379.17s73.69,96.37,51,136.05l56.68-24.57,7.56-18.89S463.27,373.51,436.82,379.17Z"/></g><path class="cls-5" d="M641.55,354.21a7.94,7.94,0,0,1-6-2.76c-35.31-41-75.08-69.35-118.21-84.18-34.39-11.83-71.08-15.18-109.05-10-64.93,8.92-111.35,40-111.81,40.33a7.94,7.94,0,0,1-8.92-13.14c2-1.36,50-33.5,118.57-42.92,40.45-5.55,79.6-2,116.37,10.68C568.31,268,610.4,297.9,647.57,341.09a7.94,7.94,0,0,1-6,13.12Z"/><path class="cls-5" d="M612.26,383.49a7.9,7.9,0,0,1-5.61-2.32L556.58,331.1a7.94,7.94,0,1,1,11.23-11.23l50.07,50.07a7.94,7.94,0,0,1-5.62,13.55Z"/><path class="cls-5" d="M587.7,406.17a7.91,7.91,0,0,1-5.61-2.33L532,353.77a7.93,7.93,0,1,1,11.22-11.22l50.07,50.07a7.94,7.94,0,0,1-5.61,13.55Z"/><g class="cls-7"><path class="cls-5" d="M33.14,811a3.67,3.67,0,0,1-2.46-6.39L204.52,647.75a3.68,3.68,0,0,1,4.88,0l32.12,28.34a3.67,3.67,0,0,1-4.85,5.5L207,655.39,35.59,810A3.65,3.65,0,0,1,33.14,811Z"/></g><g class="cls-6"><path d="M97.38,887.16a4.28,4.28,0,0,1-2.77-7.53c.32-.28,32.59-27.77,66.76-54.22,67.17-52,79.33-51.94,83.95-50.74,5.65-.19,48.07-3.41,48.07-56.17a4.28,4.28,0,1,1,8.55,0c0,64-56.61,64.73-57.18,64.73a4.26,4.26,0,0,1-1.23-.18c-1.66-.46-13.18-.23-77.09,49.25-33.95,26.28-66,53.56-66.28,53.83A4.28,4.28,0,0,1,97.38,887.16Z"/></g><g class="cls-8"><ellipse class="cls-9" cx="188.03" cy="922.87" rx="179.15" ry="23"/></g><g class="cls-10"><path class="cls-11" d="M471.81,209a7.91,7.91,0,0,1-4.65-1.51L200.4,14.37a7.94,7.94,0,1,1,9.31-12.86L476.47,194.64A7.94,7.94,0,0,1,471.81,209Z"/></g><g class="cls-10"><path class="cls-11" d="M274,200.69a7.86,7.86,0,0,1-4.64-1.51L124.16,94.08a7.94,7.94,0,0,1,9.32-12.86l145.17,105.1A7.94,7.94,0,0,1,274,200.69Z"/></g><g class="cls-10"><path class="cls-11" d="M108.3,80.34a7.86,7.86,0,0,1-4.64-1.51L72.14,56a7.94,7.94,0,1,1,9.31-12.86L113,66a7.94,7.94,0,0,1-4.67,14.37Z"/></g><g class="cls-10"><path class="cls-11" d="M267.23,120.38a7.91,7.91,0,0,1-4.65-1.51L188,64.89A7.94,7.94,0,1,1,197.34,52l74.56,54a7.94,7.94,0,0,1-4.67,14.37Z"/></g><g class="cls-10"><path class="cls-11" d="M175,54.23a7.91,7.91,0,0,1-4.65-1.51l-13.21-9.56a7.94,7.94,0,0,1,9.31-12.86l13.21,9.56A7.94,7.94,0,0,1,175,54.23Z"/></g></svg>