<svg id="Capa_1" data-name="Capa 1" xmlns="http://www.w3.org/2000/svg" viewBox="0 0 926 924.67"><defs><style>.cls-1{fill:#704795;}.cls-2{fill:#5155a0;}.cls-3{fill:#cd2e80;}.cls-4{fill:#844492;}.cls-5{fill:#b3368b;}.cls-6{fill:#97398c;}.cls-7{fill:#da2c74;}.cls-8{fill:#f7ae4e;}.cls-9{fill:#fbc260;}.cls-10{fill:#fcd478;}.cls-11{fill:#ec6c39;}.cls-12{fill:#f18d35;}.cls-13{fill:#e84a4a;}.cls-14{fill:#e13960;}.cls-15{fill:#c44070;}.cls-16{fill:#fcfdfd;}.cls-17{fill:#181c36;}.cls-18{fill:#fffdfd;}</style></defs><title>prto</title><path class="cls-1" d="M653.71,10.28h30.87c17.41,1.08,34.87,1.38,52.24,3.4,40.24,4.67,76.5,18.63,107.6,45-4.15.13-8-1.66-12.16-1.77-6.44-.18-12.85-1.11-19.28-1.43-5.25-.26-9.87-2.78-14.92-3.69-16-2.89-32-2.23-48.09-.79-4.8.44-9.62-.62-14.45.61-5.7,1.44-11.59,1.55-17.44,2-6.37.55-13.34.59-17.68,6.91-.87,1.26-2.45,1.53-4,1.37a13.7,13.7,0,0,0-6.84,1.37c-6,2.56-12.38,3.88-18.45,6.47-6.57,2.8-14.16,3.28-21.43,4.38-17.24,2.6-34.27,6.29-51.63,8.38-18.47,2.23-36.63,6.68-54.74,11-4.07,1-9,.78-12,3.83a19.69,19.69,0,0,1-12.36,6c-12.83,1.46-25.49,3.91-38.21,6.06-15.66,2.64-31.25,5-45.65,12.1-3.07,1.52-7,1.57-9,5.06-24.39.33-48.78.37-73.15,1.07-25.81.73-51.64,1.52-77.05,7-45,9.66-82,31.76-109.53,69.12-7.6,10.34-13.37,21.69-18.87,33.21-8.26,2-14.63,7.2-20.92,12.46a49.45,49.45,0,0,1-8.38,5.58c-8.22,4.44-16.73,8.49-24.39,13.77-7.3,5-14,11-21.15,16.28-7.53,5.56-14.76,11.55-22.24,17.21-6.39,4.84-12.59,9.8-18,16s-11.74,11.88-19.86,14.79c0-43.38-1.29-86.8,1.85-130.13,1-14.11,2.48-28.25,6.62-41.92,2.46,0,4.48-1.29,6.61-2.27,5.59-2.57,10.92-5.62,16.85-7.58a189.4,189.4,0,0,1,38.67-8.05c4.07-.45,8.39-.14,12.19-1.39,18.61-6.13,38.4-5.08,57.21-9.79,7.5-1.88,15.27,0,22.81-1.46,10.53-2,20.53-6.33,31.23-7.56,7.62-.87,15-2.72,22.41-4.54,13.41-3.29,26.31-8.48,40-10.73.85-.14,2.13,0,2.38-1.59-2.24.1-4.41.27-6.57.26-1,0-2.55-.36-1.68-1.73,2-3.25-.07-3.35-2.34-3.58-.86-.09-2-.17-2.15-1.19-.23-1.4,1.1-1.59,2-1.81a40.5,40.5,0,0,0,7.6-2.2c12.4-5.6,25.56-8.68,38.79-11.36,11.8-2.4,23.87-3,35.76-4.92,13.15-2.13,26.46-3.31,39.69-4.94,12.38-1.53,24.95-2.52,36.95-5.8,24.1-6.6,48.57-11.5,72.87-17.17q39.26-9.16,78.29-19.25c10.21-2.65,20.21-6.56,30.69-7.68,17.43-1.87,34.21-7,51.53-9.31,2-.26,4.77-.76,5-2.9S654.87,11.6,653.71,10.28Z"/><path class="cls-2" d="M653.71,10.28c1.16,1.32,4.38.08,4.19,2.22s-3,2.64-5,2.9c-17.32,2.29-34.1,7.44-51.53,9.31-10.48,1.12-20.48,5-30.69,7.68q-39,10.11-78.29,19.25c-24.3,5.67-48.77,10.57-72.87,17.17-12,3.28-24.57,4.27-36.95,5.8-13.23,1.63-26.54,2.81-39.69,4.94-11.89,1.92-24,2.52-35.76,4.92-13.23,2.68-26.39,5.76-38.79,11.36a40.5,40.5,0,0,1-7.6,2.2c-.93.22-2.26.41-2,1.81.18,1,1.29,1.1,2.15,1.19,2.27.23,4.39.33,2.34,3.58-.87,1.37.68,1.72,1.68,1.73,2.16,0,4.33-.16,6.57-.26-.25,1.59-1.53,1.45-2.38,1.59-13.69,2.25-26.59,7.44-40,10.73-7.41,1.82-14.79,3.67-22.41,4.54-10.7,1.23-20.7,5.52-31.23,7.56-7.54,1.46-15.31-.42-22.81,1.46-18.81,4.71-38.6,3.66-57.21,9.79-3.8,1.25-8.12.94-12.19,1.39a189.4,189.4,0,0,0-38.67,8.05c-5.93,2-11.26,5-16.85,7.58-2.13,1-4.15,2.26-6.61,2.27a22.75,22.75,0,0,1,.36-2.61c9.18-35.83,26.75-66.84,53.66-92.32,39.56-37.46,87.65-52.83,141.15-54.19,4.36-.11,8.93-.09,13.19-1.64Z"/><path class="cls-3" d="M914.77,417.76V715.87c-1.49.87-.83,2.36-.94,3.58-1.27,13.89-2.93,27.73-6.11,41.34-9,38.49-27.38,71.58-56.6,98.45-2.45-1.54-3.91-3-.89-5.66,2.42-2.14,2.66-5.41,2.82-8.55.32-6,.8-12,1.13-18,.78-14.18,2.26-28.31,1.07-42.59-.33-4-1.28-8.21-.41-12.12a36.16,36.16,0,0,0,.33-12.18c-.35-3.17-2.19-6.88-.5-9.47,4.53-7,1.34-13.79.2-20.41-2.68-15.44-6.18-30.73-9.32-46.08,0-.22.23-.5.46-1,2,1.15,1.57,3.36,2.36,4.94.6,1.2.55,3.55,2.49,2.89s.67-2.49.24-3.81c-2.34-7.19-5.39-14.25-5.88-21.89A89.37,89.37,0,0,0,839,639c-4.67-12.25-9.65-24.55-8.07-38.24.77-6.63-.64-13-2.76-19.43-3.35-10.16-5.06-20.81-6.68-31.35-1.39-9.06-4.74-17.2-8.68-25.22a19.88,19.88,0,0,1-2.16-7.48c-.78-10.24-5.48-18.74-12.18-26.27-.05-15.83-.17-31.66-.12-47.49q.14-48.59-.83-97.16a6.79,6.79,0,0,1,4.44,3.4c3.24,5.89,9.41,9.91,10.7,17.06.35,1.93,2.05,3.15,3.71,4.19a14.29,14.29,0,0,1,4.87,4.37c1.89,3,2.93,1.82,4.65-.44,3.16-4.19.62-9.11,2-13,2.23-6.43-2-12.72.84-18.88.51-1.12-.73-3.16,1.1-3.8s2.49,1.13,3.45,2.19c3.93,4.34,6.45,10.21,13.27,11.36,1.92.33,3.6,2.1,4.69,3.85,5.62,9.05,14.36,15,22,21.94,7.37,6.71,14.77,13.5,20.95,21.19,5.82,7.25,14.16,11.18,20.18,17.91C914.44,417.72,914.63,417.72,914.77,417.76Z"/><path class="cls-4" d="M426.15,126.62c2-3.49,5.9-3.54,9-5.06,14.4-7.14,30-9.46,45.65-12.1,12.72-2.15,25.38-4.6,38.21-6.06a19.69,19.69,0,0,0,12.36-6c3-3,7.9-2.86,12-3.83,18.11-4.33,36.27-8.78,54.74-11,17.36-2.09,34.39-5.78,51.63-8.38,7.27-1.1,14.86-1.58,21.43-4.38,6.07-2.59,12.46-3.91,18.45-6.47A13.7,13.7,0,0,1,696.4,62c1.55.16,3.13-.11,4-1.37,4.34-6.32,11.31-6.36,17.68-6.91,5.85-.5,11.74-.61,17.44-2,4.83-1.23,9.65-.17,14.45-.61,16.06-1.44,32.09-2.1,48.09.79,5.05.91,9.67,3.43,14.92,3.69,6.43.32,12.84,1.25,19.28,1.43,4.17.11,8,1.9,12.16,1.77,7.22,5.54,13.35,12.14,19.36,19a197.76,197.76,0,0,1,22.77,31.09c14.39,24.7,22,51.64,25.71,79.84,1,7.29-.14,14.81,2.51,21.88V237c-7.87-4.37-15.22-9.82-24.28-11.77a5.73,5.73,0,0,1-2.6-1.6,12.29,12.29,0,0,0-7.9-3.51c-7.54-.62-14.28-4.2-21.46-6.11-5.54-1.47-11.13-4.4-16.39-7.25-10.08-5.46-21.69-5.83-32.1-10.1a2.58,2.58,0,0,0-1.73.08c-5.79,2.17-10.85-.66-16-2.4-1.69-.57-3.2-1.57-5-.71-2,.93-3.57.12-5.37-.76-8.44-4.1-16.2-9.48-24.86-13.17-5.12-2.17-10.61-3.22-15.87-4.9-3-1-6.17-3.84-9.93-2A186.56,186.56,0,0,0,703.64,154c-28.14-15.31-58.56-22.33-90.2-24.52-31.38-2.17-62.83-2.68-94.28-2.72Q472.66,126.73,426.15,126.62Z"/><path class="cls-5" d="M731.25,172.74c3.76-1.83,6.88,1,9.93,2,5.26,1.68,10.75,2.73,15.87,4.9,8.66,3.69,16.42,9.07,24.86,13.17,1.8.88,3.38,1.69,5.37.76,1.81-.86,3.32.14,5,.71,5.17,1.74,10.23,4.57,16,2.4a2.58,2.58,0,0,1,1.73-.08c10.41,4.27,22,4.64,32.1,10.1,5.26,2.85,10.85,5.78,16.39,7.25,7.18,1.91,13.92,5.49,21.46,6.11a12.29,12.29,0,0,1,7.9,3.51,5.73,5.73,0,0,0,2.6,1.6c9.06,1.95,16.41,7.4,24.28,11.77V417.76c-.14,0-.33,0-.41-.13-6-6.73-14.36-10.66-20.18-17.91C888,392,880.6,385.24,873.23,378.53c-7.66-7-16.4-12.89-22-21.94-1.09-1.75-2.77-3.52-4.69-3.85-6.82-1.15-9.34-7-13.27-11.36-1-1.06-1.77-2.77-3.45-2.19s-.59,2.68-1.1,3.8c-2.82,6.16,1.39,12.45-.84,18.88-1.35,3.91,1.19,8.83-2,13-1.72,2.26-2.76,3.47-4.65.44a14.29,14.29,0,0,0-4.87-4.37c-1.66-1-3.36-2.26-3.71-4.19-1.29-7.15-7.46-11.17-10.7-17.06a6.79,6.79,0,0,0-4.44-3.4c-.11-1.17-.27-2.33-.32-3.5-1-21.38-1.71-42.79-5.92-63.85-6.62-33.08-19.27-63.31-42.19-88.67C743.48,184.08,737.22,178.56,731.25,172.74Z"/><path class="cls-6" d="M147.55,237c-5.79,15.21-10.58,30.7-13.36,46.79-3.9,22.62-4.33,45.5-5.26,68.34q-.28,7.25-.59,14.48a9.29,9.29,0,0,0-4.65,2.4c-4.18,3.73-8.36,7.14-14.57,6.6-4.93-.43-8.92,3.39-14,3.31-4.63-.06-8.15,2.82-11.27,6.52-2.35,2.79-4.23,6.6-8.26,7.56-2.57.61-4.41,2.07-6.34,3.72-8.56,7.34-16.14,15.88-25.52,22.21-7.3,4.93-14.56,9.82-21,15.82-2.95,2.73-5.48,6.29-10,6.83V333.09c8.12-2.91,14.5-8.59,19.86-14.79s11.58-11.17,18-16c7.48-5.66,14.71-11.65,22.24-17.21,7.17-5.3,13.85-11.25,21.15-16.28,7.66-5.28,16.17-9.33,24.39-13.77a49.45,49.45,0,0,0,8.38-5.58C132.92,244.19,139.29,239,147.55,237Z"/><path class="cls-7" d="M763,715.78c15.83-24.08,25.14-50.64,29.63-78.94,2.39-15,3.24-30.23,4-45.45,1.62-33.46,1.52-66.95,1.82-100.43,6.7,7.53,11.4,16,12.18,26.27a19.88,19.88,0,0,0,2.16,7.48c3.94,8,7.29,16.16,8.68,25.22,1.62,10.54,3.33,21.19,6.68,31.35,2.12,6.41,3.53,12.8,2.76,19.43-1.58,13.69,3.4,26,8.07,38.24a89.37,89.37,0,0,1,6.22,26.38c.49,7.64,3.54,14.7,5.88,21.89.43,1.32,1.68,3.17-.24,3.81s-1.89-1.69-2.49-2.89c-.79-1.58-.38-3.79-2.36-4.94-.23.49-.5.77-.46,1,3.14,15.35,6.64,30.64,9.32,46.08,1.14,6.62,4.33,13.45-.2,20.41-1.69,2.59.15,6.3.5,9.47a36.16,36.16,0,0,1-.33,12.18c-.87,3.91.08,8.14.41,12.12,1.19,14.28-.29,28.41-1.07,42.59-.33,6-.81,12-1.13,18-.16,3.14-.4,6.41-2.82,8.55-3,2.69-1.56,4.12.89,5.66A166.26,166.26,0,0,1,810.06,888c-3.15-5-2.94-10.92-3.69-16.47-1.51-11.18-2.37-22.51-5-33.47-4.8-20.11-10.45-40-15.46-60.07-2.67-10.7-6.21-20.87-11.91-30.45-2.14-3.61-4.47-7.51-5.54-11.84C766.81,729,764.86,722.42,763,715.78Z"/><path class="cls-8" d="M198.28,753.72c10.51,7.29,20.74,15,32.44,20.44a239.83,239.83,0,0,0,87.64,21c32.55,1.44,65.14,1.84,97.72,1.87q38.12,0,76.22.15c1.29,3.31,4.53,3.52,7.23,4.3A129,129,0,0,1,528,813.13c12.87,7.39,23,18.48,35,27a7.13,7.13,0,0,1,2.31,2.61c3.54,7.56,10,13,15.38,18.85,8.76,9.54,17.38,19,24.34,29.93,4.55,7.17,9.28,14.22,13.33,21.69l-59,0a7.53,7.53,0,0,0-2.15-4.73c-8.09-9.1-16.06-18.31-24.45-27.13-4.53-4.75-9.77-8.85-14.79-13.13-7.47-6.37-14.48-13.49-23.55-17.56-6.67-3-12.45-7.15-18.34-11.28a51.92,51.92,0,0,0-21.7-9.06c-5.82-1-11.71-.63-17.39-1.42-8-1.13-16.87,1.34-24.13-4.3-.3-.24-.85-.19-1.29-.22-8.38-.74-16.39-3.24-24.45-5.39-10.38-2.77-20.83-5.69-31.41-6.77-24.65-2.51-49.1-6.58-73.94-7.67-22.59-1-45.15-2.35-67.62.52-8,1-16.21.52-24,2.5-11.67,3-23.29,6.35-34.32,11.2-18.11,8-37.25,13.82-53.45,25.75a10.91,10.91,0,0,1-2.42,1c-6.78,2.81-13.73,5.29-19.23,10.47A8.12,8.12,0,0,1,75.83,858c-16.6-15.33-30.17-32.89-39.62-53.52,2.5-2.4,5.89-3.21,8.79-4.91,8.45-5,16.77-10.28,25.6-14.49,10.17-4.85,20.45-9.51,30.71-14.19,10.65-4.86,21.49-9.74,32.75-12.72,16.21-4.28,32.78-7.48,49.85-5.36C188.64,753.36,193.39,755.08,198.28,753.72Z"/><path class="cls-9" d="M75.83,858a8.12,8.12,0,0,0,4.86-1.88c5.5-5.18,12.45-7.66,19.23-10.47a10.91,10.91,0,0,0,2.42-1c16.2-11.93,35.34-17.79,53.45-25.75,11-4.85,22.65-8.23,34.32-11.2,7.8-2,16-1.47,24-2.5,22.47-2.87,45-1.5,67.62-.52,24.84,1.09,49.29,5.16,73.94,7.67,10.58,1.08,21,4,31.41,6.77,8.06,2.15,16.07,4.65,24.45,5.39.44,0,1,0,1.29.22,7.26,5.64,16.09,3.17,24.13,4.3,5.68.79,11.57.46,17.39,1.42a51.92,51.92,0,0,1,21.7,9.06c5.89,4.13,11.67,8.3,18.34,11.28,9.07,4.07,16.08,11.19,23.55,17.56,5,4.28,10.26,8.38,14.79,13.13,8.39,8.82,16.36,18,24.45,27.13a7.53,7.53,0,0,1,2.15,4.73H479.1c-1.81-3.79-5.41-5.72-8.64-7.87-11.58-7.74-23.69-14.73-34.83-23-9.32-7-18.87-13.09-29.68-17.32-1.74-.69-3.25-2-4.95-2.82-7.6-3.78-15.07-8.08-23.77-8.69a113.9,113.9,0,0,1-18.3-2.44c-21.82-5.14-44.17-6.27-66.32-7.85-22.63-1.62-45.28.38-67.87,4.41-24.91,4.44-48.45,12.86-72.2,20.82-13.25,4.44-25,12.38-37.86,17.73A151.19,151.19,0,0,1,75.83,858Z"/><path class="cls-10" d="M114.68,886.2c12.89-5.35,24.61-13.29,37.86-17.73,23.75-8,47.29-16.38,72.2-20.82,22.59-4,45.24-6,67.87-4.41,22.15,1.58,44.5,2.71,66.32,7.85a113.9,113.9,0,0,0,18.3,2.44c8.7.61,16.17,4.91,23.77,8.69,1.7.84,3.21,2.13,4.95,2.82,10.81,4.23,20.36,10.37,29.68,17.32,11.14,8.31,23.25,15.3,34.83,23,3.23,2.15,6.83,4.08,8.64,7.87-1.32.06-2.64.18-4,.18q-111.3-.08-222.62-.23c-25.12-.07-50.27-.92-75.09-5.21C155.37,904.2,134.1,897.77,114.68,886.2Z"/><path class="cls-11" d="M128.52,561.55c.72,16,1.26,32,2.19,47.93,1.7,29,7.46,57.13,19.95,83.61a34.45,34.45,0,0,1,1.37,4.13c-3.83,1.14-7.11-.33-10.43-2-9.25-4.77-19-7.16-29.53-6.29-5.84.49-11.59,2.72-17.19,2.59-9.14-.23-17.2,2.8-25.37,5.68-9.07,3.2-16.94,8.63-24.1,15-5.67,5.05-13.24,6.8-19.24,11.34-3.31,2.51-6,6.25-10.62,6.66-2.3-18.38-2.64-36.88-2.86-55.36-.24-21,0-42,0-63,4.23-.52,6-4.42,9.09-6.61a428.93,428.93,0,0,1,40.54-25.58c4.2-2.35,8.23-6.32,14.15-3.67,1.37.62,3.91-.87,5.71-1.8a13.34,13.34,0,0,1,9.73-1.38c3.12.76,6.38.9,9.55,1.49a8.17,8.17,0,0,0,7-1.72c4.63-3.81,10.74-5.23,15.07-9.56C124.76,561.8,126.71,561.51,128.52,561.55Z"/><path class="cls-12" d="M15.55,730.17c4.67-.41,7.31-4.15,10.62-6.66,6-4.54,13.57-6.29,19.24-11.34,7.16-6.38,15-11.81,24.1-15,8.17-2.88,16.23-5.91,25.37-5.68,5.6.13,11.35-2.1,17.19-2.59,10.54-.87,20.28,1.52,29.53,6.29,3.32,1.71,6.6,3.18,10.43,2,6.78,11.58,13.72,23,22.49,33.29,2.67,3.12,5.6,6,8.48,8.83,5,4.93,9.41,10.42,15.28,14.38-4.89,1.36-9.64-.36-14.37-1-17.07-2.12-33.64,1.08-49.85,5.36-11.26,3-22.1,7.86-32.75,12.72C91.05,775.53,80.77,780.19,70.6,785c-8.83,4.21-17.15,9.52-25.6,14.49-2.9,1.7-6.29,2.51-8.79,4.91-8.79-16.23-13.85-33.73-17.45-51.69A168.37,168.37,0,0,1,15.55,730.17Z"/><path class="cls-13" d="M630.86,792.65c14-2.36,27.9-5,41.4-9.49,18.7-6.25,36.22-14.75,52-26.66a20.15,20.15,0,0,0,2.25,7.09c.78,1.61,1.44,3.25.76,5.06-2.49,6.6-.59,12.94,1,19.34,1.45,5.88,4.71,11.14,6.25,16.84,5.19,19.21,11.2,38.16,14.65,57.89,2.57,14.71,5.88,29.24,6.16,44.24a290.41,290.41,0,0,1-54.87,5.44c.13-2.46-.92-4.58-2.06-6.63-6.84-12.34-9.42-26.55-16.94-38.58A6.54,6.54,0,0,1,681,866c-.75-1.93-.46-3.48,1.64-4.3,2.87-1.11,2.83-3.25,2.36-5.79s-1.47-4.78-.77-7.35c2.08-7.75,0-13-6.87-17.26a11.38,11.38,0,0,1-3.63-3.77c-3.62-5.68-9-9.56-14.26-13.48-8.56-6.37-17.93-11.59-26.24-18.33C632.19,794.83,631.14,794.06,630.86,792.65Z"/><path class="cls-14" d="M755.33,907c-.28-15-3.59-29.53-6.16-44.24-3.45-19.73-9.46-38.68-14.65-57.89-1.54-5.7-4.8-11-6.25-16.84-1.58-6.4-3.48-12.74-1-19.34.68-1.81,0-3.45-.76-5.06a20.15,20.15,0,0,1-2.25-7.09A191.79,191.79,0,0,0,763,715.78c1.82,6.64,3.77,13.25,5.44,19.93,1.07,4.33,3.4,8.23,5.54,11.84,5.7,9.58,9.24,19.75,11.91,30.45,5,20.06,10.66,40,15.46,60.07,2.61,11,3.47,22.29,5,33.47.75,5.55.54,11.42,3.69,16.47-14.87,8.43-30.9,13.69-47.46,17.51C760.2,906.08,757.76,906.48,755.33,907Z"/><path class="cls-15" d="M128,411.58q0,32.64,0,65.29c-13.35-1-23.71,6.1-34.22,12.76a13.78,13.78,0,0,0-5.07,5.4c-2.06,4.11-4.18,8-9.21,9.23-1.21.3-2.4,1.81-3,3.05-3.53,6.87-10.21,10.16-16.37,13.5a269.86,269.86,0,0,0-36.79,24c-3.19,2.46-6.3,5.34-10.54,6.12l0-71.48c7.4-1.81,13.14-6.95,20-9.94,8.63-3.78,16.14-9.45,23.93-14.66,9.54-6.38,20.2-10.42,31-14.1,2.07-.7,4-1.92,6.05-2.6,6.26-2.07,11.82-5.07,15.64-10.7C114,420.46,119.44,414.18,128,411.58Z"/><path class="cls-12" d="M618.38,913.24c-4-7.47-8.78-14.52-13.33-21.69-7-11-15.58-20.39-24.34-29.93-5.37-5.86-11.84-11.29-15.38-18.85a7.13,7.13,0,0,0-2.31-2.61c-12-8.55-22.18-19.64-35-27a129,129,0,0,0-28.44-11.7c-2.7-.78-5.94-1-7.23-4.3l78.46-.8c.16,1.53.62,3.07,2.11,3.64,6.77,2.6,12.73,6.73,18.77,10.52,9.46,5.93,20.52,10.59,23.79,23.07a6,6,0,0,0,1.18,1.84c2.37,3.13,4.1,6.45,3.31,10.57a3.4,3.4,0,0,0,1.21,3.09,250.7,250.7,0,0,1,19.46,24.23c7.6,10.62,13.58,22.26,21.37,32.74,1.57,2.11,3,4.34,3.12,7.15Z"/><path class="cls-11" d="M665.08,913.18c-.08-2.81-1.55-5-3.12-7.15-7.79-10.48-13.77-22.12-21.37-32.74a250.7,250.7,0,0,0-19.46-24.23,3.4,3.4,0,0,1-1.21-3.09c.79-4.12-.94-7.44-3.31-10.57a6,6,0,0,1-1.18-1.84c-3.27-12.48-14.33-17.14-23.79-23.07-6-3.79-12-7.92-18.77-10.52-1.49-.57-2-2.11-2.11-3.64,20.06-.87,40.12-1.57,60.1-3.68.28,1.41,1.33,2.18,2.38,3,8.31,6.74,17.68,12,26.24,18.33,5.28,3.92,10.64,7.8,14.26,13.48a11.38,11.38,0,0,0,3.63,3.77c6.84,4.25,9,9.51,6.87,17.26-.7,2.57.32,4.93.77,7.35s.51,4.68-2.36,5.79c-2.1.82-2.39,2.37-1.64,4.3a6.54,6.54,0,0,0,.45,1.24c7.52,12,10.1,26.24,16.94,38.58,1.14,2.05,2.19,4.17,2.06,6.63Q682.79,913.6,665.08,913.18Z"/><path class="cls-13" d="M128.52,561.55c-1.81,0-3.76.25-5,1.47-4.33,4.33-10.44,5.75-15.07,9.56a8.17,8.17,0,0,1-7,1.72c-3.17-.59-6.43-.73-9.55-1.49a13.34,13.34,0,0,0-9.73,1.38c-1.8.93-4.34,2.42-5.71,1.8-5.92-2.65-10,1.32-14.15,3.67a428.93,428.93,0,0,0-40.54,25.58c-3,2.19-4.86,6.09-9.09,6.61q0-23,0-46a14.58,14.58,0,0,0,3.18-1.44,153,153,0,0,1,23.72-15c5.85-3,12-5.54,17.28-9.61,5.74-4.42,12.62-6.75,18.9-10.17,7.17-3.9,15.44-4.46,22.89-7.59,3.7-1.55,5.64-4,5.35-7.59-.49-6.26,2.43-10.29,7.35-13.4,6.08-3.85,10.4-9.84,16.54-13.62Q128.23,524.51,128.52,561.55Z"/><path class="cls-5" d="M128,411.58c-8.52,2.6-13.93,8.88-18.7,15.88-3.82,5.63-9.38,8.63-15.64,10.7-2.08.68-4,1.9-6.05,2.6-10.81,3.68-21.47,7.72-31,14.1-7.79,5.21-15.3,10.88-23.93,14.66-6.83,3-12.57,8.13-20,9.94V441.57c4.51-.54,7-4.1,10-6.83,6.49-6,13.75-10.89,21-15.82,9.38-6.33,17-14.87,25.52-22.21,1.93-1.65,3.77-3.11,6.34-3.72,4-1,5.91-4.77,8.26-7.56,3.12-3.7,6.64-6.58,11.27-6.52,5.12.08,9.11-3.74,14-3.31,6.21.54,10.39-2.87,14.57-6.6a9.29,9.29,0,0,1,4.65-2.4Q128.15,389.08,128,411.58Z"/><path class="cls-14" d="M127.91,487.48c-6.14,3.78-10.46,9.77-16.54,13.62-4.92,3.11-7.84,7.14-7.35,13.4.29,3.6-1.65,6-5.35,7.59-7.45,3.13-15.72,3.69-22.89,7.59-6.28,3.42-13.16,5.75-18.9,10.17-5.27,4.07-11.43,6.6-17.28,9.61a153,153,0,0,0-23.72,15,14.58,14.58,0,0,1-3.18,1.44l0-15c4.24-.78,7.35-3.66,10.54-6.12a269.86,269.86,0,0,1,36.79-24c6.16-3.34,12.84-6.63,16.37-13.5.63-1.24,1.82-2.75,3-3.05,5-1.26,7.15-5.12,9.21-9.23a13.78,13.78,0,0,1,5.07-5.4c10.51-6.66,20.87-13.73,34.22-12.76Z"/><path class="cls-5" d="M580.5,188.57c32.29-.58,64.16,1.93,93.28,17.43,33.15,17.65,51,46.66,58.36,82.73.74,3.59,1.14,7.24,1.69,10.86-2.14-.2-4.65.64-6.24-1.32s-3.27-2.27-5.41-2.31a5.46,5.46,0,0,1-4.23-2,5.94,5.94,0,0,0-5-2.26,17.75,17.75,0,0,1-7.72-1.55c-7.54-3.23-16-3.71-23.16-8.15-1.42-16.19-8.95-28.39-23.91-35.25C635.65,236.39,608,249,602.24,275.94c-4.65-1.82-9.27-4.3-13.35,1.29-.89,1.22-2.94,1.11-4.6.78a28.9,28.9,0,0,0-14.79,1c-6.17,2-12.31,1.72-18.66.72-11.14-1.77-22.32-4.36-33.62-3.71-10.87.63-21.55-1.18-32.36-1-9.66.19-19.38-1.22-29,.59-9.92,1.87-19.79,4-29.61,6.36-6.22,1.46-12.83,1.35-18.62,4.55a29.12,29.12,0,0,1-10,3.31,79.56,79.56,0,0,0-16.86,4.86c-5.33,2.05-10.2,5.57-15.86,6.35-9.9,1.36-18.43,6.87-28.15,8.68a4.25,4.25,0,0,0-2.42,1.75c-1.65,2.45-4.13,3.84-6.61,5-9.55,4.46-19.11,8.94-28.88,12.87-3.72,1.49-8.29.86-12,2.36-9.88,4-19.5,8.59-29.21,13A3.91,3.91,0,0,0,256,346c-2.26,3.78-6.12,4.62-9.91,5.9-7.16,2.43-13.86,6.67-16.27,13.67-2.12,6.16-5.85,10.27-10.12,14.39-2.92,2.83-6.48,3.05-8,.37-3.24-5.56-8.05-10.15-10.15-16.38-.79-2.34-2.14-2.48-4.07-1.58a18.32,18.32,0,0,1-8.57,1.65c-.32-11.57.5-23.1,1.11-34.64,3.48-.24,6-2.49,8.38-4.54A176.15,176.15,0,0,1,222.47,308c4.45-2.66,7-11.05,5.21-16.16-.84-2.32-1.51-5,.78-6.49,4.93-3.27,7.56-8.52,11.57-12.5,7.64-7.61,14.49-16,23.61-22.19,11.93-8.1,23.5-16.64,37.49-21,9.66-3,19.37-6.06,28.73-9.77a211.28,211.28,0,0,1,33.93-10.59c12.11-2.56,24.12-6.12,36.73-6.63,10.53-.42,20.82-1.65,31.26,1.9a67.56,67.56,0,0,0,12.52,3.46c8,1.12,15.86.29,23.7-.36,9.1-.75,18.3.23,27.26-1.08,15.25-2.22,30.69-1.7,45.93-4.18,4.29-.69,9.12-1.42,13.52-.54,8.25,1.66,16.67.64,24.9,2.13,2.28.41,3.81-.53,4.19-2.8a4.86,4.86,0,0,1,3.78-4.28c2.71-.84,2.27-2.23.16-3.54C585.27,191.87,582.3,191.1,580.5,188.57Z"/><path class="cls-11" d="M229.19,700.71c-16.68-14.77-26.38-33.65-32.32-54.77-4.51-16-6.24-32.39-6.92-48.9-.41-10.08-1.71-20.15-1-30.27,2-.36,3.41-1.55,4.93-2.73,5.47-4.21,11.17-7.94,18.07-9.55,6.19-1.43,12.94-1.45,17.87-6.47a2.55,2.55,0,0,1,2.1-.32c4.14,1.24,7.83-.57,11.53-1.76a34.14,34.14,0,0,1,12.93-2.05c14.84,1,29.69,1.79,44.13,6.05,5.71,1.69,11.27,4.22,17.39,4.41,5.4,6.64,9.62,14.08,15.44,20.51,31.85,35.16,71.12,55,118.45,58.58A167,167,0,0,0,494.91,631c10.84-2,21.19-5.67,31.7-8.79.64,1.75,2.25,2.16,3.75,2.76,3.26,1.31,6.72,2.31,9.69,4.11,10.3,6.22,20,13.49,28.09,22.29,9.12,9.93,18.34,19.73,27.77,29.34a21.61,21.61,0,0,1,4.55,5.9c1.7,3.83,4.38,6.82,6.79,10.12,2,2.75,4.9,5.65,4.24,9.72a53.73,53.73,0,0,0-1.07,10,5,5,0,0,1-2,4.22,15.25,15.25,0,0,0-5.86,14c-6.43.37-12.85.85-19.28,1.11-35.61,1.43-71.23,1.36-106.86,1.12a23.38,23.38,0,0,0-6.53-10.3c-3.53-3.29-7.49-6.16-10.76-9.69-9-9.67-20-15.83-32.12-20.71-10.05-4.06-19.82-8.84-30.37-11.6a5,5,0,0,1-2-1c-4.75-4.11-10.6-5.44-16.5-6.72-2.71-.6-5.78-.68-7.86-2.61-4.07-3.8-9.1-4.6-14.21-5.14-16.63-1.75-33.22-3.67-49.38-8.27a12.79,12.79,0,0,0-6.53-.2,21.91,21.91,0,0,1-7,.28q-9.84-.86-19.7-1.52a8,8,0,0,0-3.9.4c-5.12,2.51-10.66,3.82-15.92,5.89-.79.31-2.14,1-2.09,1.33.7,5.09-4,7.12-6,10.68a63.9,63.9,0,0,1-12.21,16.51C231.4,696.15,229.78,698,229.19,700.71Z"/><path class="cls-3" d="M682,282c7.12,4.44,15.62,4.92,23.16,8.15a17.75,17.75,0,0,0,7.72,1.55,5.94,5.94,0,0,1,5,2.26,5.46,5.46,0,0,0,4.23,2c2.14,0,3.93.47,5.41,2.31s4.1,1.12,6.24,1.32c2.43,13.77,2.68,27.71,3.22,41.62.81,21.1,1.54,42.21,1.11,63.33-2.57-.28-4,.94-5,3.27-2.15,4.82-4.6,9.5-6.84,14.28-.59,1.26-1.13,2.61-2.66,2.56-4.53-.16-5,2.93-5.57,6.3-.69,4-4.54,7.78-6.72,8.49-4.45,1.46-4.3,4.13-4.7,7.16s-1.44,4.11-4.19,1.95c-1.93-1.51-3.81-1.8-5,.88-1.36,3.18-3.32,2.76-5.57,1.12-8.16-6-17.35-10.76-24.86-17.34-6.72-5.89-11.59-14.09-16.44-21.8-1.92-3-3.65-6.25-5.8-9.19-5.57-7.61-9.75-15.85-10.51-25.43-.25-3.17-2.1-5.41-3.81-7.76-1.51-2.07-2.79.15-4.2.32a4.22,4.22,0,0,1-2-.73c-.92-.45-1.89-.54-2.09.61-.76,4.46-3.32,3.44-6.16,2.27-2.08-.86-4.35-.43-6.54-.46-.61-.82-1.25-1.61-1.82-2.45C575.18,320.5,530,294.11,472.06,290.16c-26-1.77-51.08,3-75.2,12.95-26.34,10.89-48.43,27.77-66.65,49.3a165.22,165.22,0,0,0-27.06,46.11c-10,.83-20.15,2.73-30.13,2.21-11.41-.61-22.61.89-33.57,2.62-17,2.71-34.59,1.25-51.28,6.42-.09-15.26-.32-30.53.66-45.77a18.32,18.32,0,0,0,8.57-1.65c1.93-.9,3.28-.76,4.07,1.58,2.1,6.23,6.91,10.82,10.15,16.38,1.57,2.68,5.13,2.46,8-.37,4.27-4.12,8-8.23,10.12-14.39,2.41-7,9.11-11.24,16.27-13.67,3.79-1.28,7.65-2.12,9.91-5.9a3.91,3.91,0,0,1,1.74-1.31c9.71-4.4,19.33-9,29.21-13,3.71-1.5,8.28-.87,12-2.36,9.77-3.93,19.33-8.41,28.88-12.87,2.48-1.15,5-2.54,6.61-5a4.25,4.25,0,0,1,2.42-1.75c9.72-1.81,18.25-7.32,28.15-8.68,5.66-.78,10.53-4.3,15.86-6.35a79.56,79.56,0,0,1,16.86-4.86,29.12,29.12,0,0,0,10-3.31c5.79-3.2,12.4-3.09,18.62-4.55,9.82-2.31,19.69-4.49,29.61-6.36,9.59-1.81,19.31-.4,29-.59,10.81-.21,21.49,1.6,32.36,1,11.3-.65,22.48,1.94,33.62,3.71,6.35,1,12.49,1.29,18.66-.72a28.9,28.9,0,0,1,14.79-1c1.66.33,3.71.44,4.6-.78,4.08-5.59,8.7-3.11,13.35-1.29-.12.87-.23,1.74-.34,2.62-3.13,25.34,19.86,49.56,46.93,44.2C668.45,318.88,680.9,303.92,682,282Z"/><path class="cls-7" d="M609.52,371c2.19,0,4.46-.4,6.54.46,2.84,1.17,5.4,2.19,6.16-2.27.2-1.15,1.17-1.06,2.09-.61a4.22,4.22,0,0,0,2,.73c1.41-.17,2.69-2.39,4.2-.32,1.71,2.35,3.56,4.59,3.81,7.76.76,9.58,4.94,17.82,10.51,25.43,2.15,2.94,3.88,6.15,5.8,9.19,4.85,7.71,9.72,15.91,16.44,21.8,7.51,6.58,16.7,11.34,24.86,17.34,2.25,1.64,4.21,2.06,5.57-1.12,1.15-2.68,3-2.39,5-.88,2.75,2.16,3.78,1.08,4.19-1.95s.25-5.7,4.7-7.16c2.18-.71,6-4.51,6.72-8.49.58-3.37,1-6.46,5.57-6.3,1.53.05,2.07-1.3,2.66-2.56,2.24-4.78,4.69-9.46,6.84-14.28,1-2.33,2.46-3.55,5-3.27.07,16.9.25,33.81.2,50.71-.11,37.33.81,74.69-1,112-.49,10-.72,20.06-1.25,30-.67,12.64-1.62,25.17-4,37.57-1.67,8.77-3.88,17.45-7.75,25.58-3.74-3.5-7.37-7.13-12.63-8.42-2.56-.63-4.09-2.61-5.49-4.77-2.32-3.58-3.69-7.72-6.07-11.16-6.71-9.72-13.76-19.24-20.92-28.61-11.62-15.21-24.67-29.3-39.95-41.09-8.67-6.69-16.88-14-26.15-19.89.43-.92.82-1.87,1.3-2.76q30.12-57.24,16.34-120.42C626.73,404.66,619.08,387.46,609.52,371Z"/><path class="cls-12" d="M229.19,700.71c.59-2.7,2.21-4.56,4.24-6.45a63.9,63.9,0,0,0,12.21-16.51c2-3.56,6.68-5.59,6-10.68-.05-.35,1.3-1,2.09-1.33,5.26-2.07,10.8-3.38,15.92-5.89a8,8,0,0,1,3.9-.4q9.86.66,19.7,1.52a21.91,21.91,0,0,0,7-.28,12.79,12.79,0,0,1,6.53.2c16.16,4.6,32.75,6.52,49.38,8.27,5.11.54,10.14,1.34,14.21,5.14,2.08,1.93,5.15,2,7.86,2.61,5.9,1.28,11.75,2.61,16.5,6.72a5,5,0,0,0,2,1c10.55,2.76,20.32,7.54,30.37,11.6,12.09,4.88,23.14,11,32.12,20.71,3.27,3.53,7.23,6.4,10.76,9.69a23.38,23.38,0,0,1,6.53,10.3c-38.88.16-77.77.49-116.64-.66-21.55-.64-43.15-.8-64.47-4.53-23.29-4.09-45-11.82-63-27.93C231.22,702.8,230.23,701.73,229.19,700.71Z"/><path class="cls-13" d="M602.59,734.67a15.25,15.25,0,0,1,5.86-14,5,5,0,0,0,2-4.22,53.73,53.73,0,0,1,1.07-10c.66-4.07-2.22-7-4.24-9.72-2.41-3.3-5.09-6.29-6.79-10.12a21.61,21.61,0,0,0-4.55-5.9c-9.43-9.61-18.65-19.41-27.77-29.34-8.08-8.8-17.79-16.07-28.09-22.29-3-1.8-6.43-2.8-9.69-4.11-1.5-.6-3.11-1-3.75-2.76,5.21-2.54,10.46-5,15.63-7.62,18.89-9.61,35-22.87,49.5-38.16,4.32,2,7.68,5.26,10.92,8.67a89.25,89.25,0,0,0,8,8,191.31,191.31,0,0,1,14.64,13.6c4.44,4.48,8.49,9.65,12.89,14.3,7.44,7.87,14.39,16.18,21.5,24.31,6.59,7.52,11.6,16.42,17.22,24.77,1.84,2.74,3.77,4.1,7.5,4.08s8.38-1.39,11.17,2.19c3.69,4.75,8.52,8.52,11.66,13.71-14.08,17.22-31.68,29-53,35.81A195.7,195.7,0,0,1,602.59,734.67Z"/><path class="cls-6" d="M580.5,188.57c1.8,2.53,4.77,3.3,7.24,4.83,2.11,1.31,2.55,2.7-.16,3.54a4.86,4.86,0,0,0-3.78,4.28c-.38,2.27-1.91,3.21-4.19,2.8-8.23-1.49-16.65-.47-24.9-2.13-4.4-.88-9.23-.15-13.52.54-15.24,2.48-30.68,2-45.93,4.18-9,1.31-18.16.33-27.26,1.08-7.84.65-15.7,1.48-23.7.36a67.56,67.56,0,0,1-12.52-3.46c-10.44-3.55-20.73-2.32-31.26-1.9-12.61.51-24.62,4.07-36.73,6.63a211.28,211.28,0,0,0-33.93,10.59c-9.36,3.71-19.07,6.75-28.73,9.77-14,4.38-25.56,12.92-37.49,21-9.12,6.2-16,14.58-23.61,22.19-4,4-6.64,9.23-11.57,12.5-2.29,1.52-1.62,4.17-.78,6.49,1.83,5.11-.76,13.5-5.21,16.16a176.15,176.15,0,0,0-24.15,16.78c-2.4,2.05-4.9,4.3-8.38,4.54.8-28.15,4.57-55.79,18.7-80.66,14-24.68,35-41.53,62-50.54,13.88-4.62,28.15-6.83,42.73-8.11,56-4.91,112.07-2.91,168.12-3.31,28.94-.21,57.89-.31,86.81.77C572.4,187.66,576.45,188.21,580.5,188.57Z"/><path class="cls-13" d="M317.93,554.35c-6.12-.19-11.68-2.72-17.39-4.41-14.44-4.26-29.29-5-44.13-6.05a34.14,34.14,0,0,0-12.93,2.05c-3.7,1.19-7.39,3-11.53,1.76a2.55,2.55,0,0,0-2.1.32c-4.93,5-11.68,5-17.87,6.47-6.9,1.61-12.6,5.34-18.07,9.55-1.52,1.18-3,2.37-4.93,2.73-1.19-26.44-1-52.9-.78-79.35,5.83.4,11.14-2.22,16.85-2.77,9.58-.91,19.21-2,28.54-4.46,7.7-2,15.25-4,23.25-2.05a7.43,7.43,0,0,0,3.47.14c10.38-2.65,21-1,31.43-1.62a216.3,216.3,0,0,0,4.35,26C300.49,521.13,308.23,538.15,317.93,554.35Z"/><path class="cls-14" d="M707.28,690.05c-3.14-5.19-8-9-11.66-13.71-2.79-3.58-7.49-2.21-11.17-2.19s-5.66-1.34-7.5-4.08c-5.62-8.35-10.63-17.25-17.22-24.77-7.11-8.13-14.06-16.44-21.5-24.31-4.4-4.65-8.45-9.82-12.89-14.3a191.31,191.31,0,0,0-14.64-13.6,89.25,89.25,0,0,1-8-8c-3.24-3.41-6.6-6.63-10.92-8.67a243.65,243.65,0,0,0,21.43-29.93c9.27,5.91,17.48,13.2,26.15,19.89,15.28,11.79,28.33,25.88,39.95,41.09,7.16,9.37,14.21,18.89,20.92,28.61,2.38,3.44,3.75,7.58,6.07,11.16,1.4,2.16,2.93,4.14,5.49,4.77,5.26,1.29,8.89,4.92,12.63,8.42-3.85,10.29-8.53,20.08-16.26,28.12A7.26,7.26,0,0,0,707.28,690.05Z"/><path class="cls-14" d="M291.74,476.65c-10.47.6-21.05-1-31.43,1.63a7.43,7.43,0,0,1-3.47-.14c-8-2-15.55,0-23.25,2.05-9.33,2.47-19,3.55-28.54,4.46-5.71.55-11,3.17-16.85,2.77l0-45.81a68.57,68.57,0,0,1,20.14-3.32c13.84-.48,27.59-3.18,41.44-4.22,5.59-.42,10.73-3.14,16.37-2.51,3.24.35,6.44-.13,9.63-.11,6.42,0,12.3-2.67,18.6-3C291.1,444.4,290.68,460.49,291.74,476.65Z"/><path class="cls-15" d="M294.36,428.47c-6.3.31-12.18,3-18.6,3-3.19,0-6.39.46-9.63.11-5.64-.63-10.78,2.09-16.37,2.51-13.85,1-27.6,3.74-41.44,4.22a68.57,68.57,0,0,0-20.14,3.32V409.77c16.69-5.17,34.23-3.71,51.28-6.42,11-1.73,22.16-3.23,33.57-2.62,10,.52,20.08-1.38,30.13-2.21C299.29,408.23,296.7,418.31,294.36,428.47Z"/><path class="cls-16" d="M682,282c-1.14,22-13.59,36.93-33.21,40.81-27.07,5.36-50.06-18.86-46.93-44.2.11-.88.22-1.75.34-2.62,5.71-27,33.41-39.55,55.89-29.24C673.09,253.56,680.62,265.76,682,282Z"/><path class="cls-17" d="M641.25,330.24a46,46,0,0,1-34.33-15.8,46.9,46.9,0,0,1-11.7-36.71l.43-3.19c4.76-22.47,23.7-38.16,46.07-38.16a45.78,45.78,0,0,1,19.22,4.2c16.52,7.57,26.13,21.67,27.81,40.78l0,.47,0,.47c-1.3,24.94-15.74,42.53-38.63,47.07A46.18,46.18,0,0,1,641.25,330.24Zm-32.37-53.15-.3,2.29A33.48,33.48,0,0,0,617,305.52a32.3,32.3,0,0,0,30.52,10.63c16.56-3.27,26.66-15.68,27.77-34.08-1.36-14.15-7.9-23.72-20-29.25a32.53,32.53,0,0,0-13.61-3C625.86,249.84,612.39,261,608.88,277.09Z"/><path class="cls-7" d="M355.54,431.81c4.27-17.52,13.14-32.56,25.2-45.74a108.53,108.53,0,0,1,53.42-32.4c66-17.28,130.47,26,139.73,92.31,2.43,17.31,2.11,35.18-4.85,52-9.48-1.79-19.76-1.35-26.9-9.67-.09-.11-.28-.11-.39-.21-3-2.63-6.94-4.78-8.87-8.08a9.75,9.75,0,0,0-5.15-4.7c-15.25-6-30.64-11.67-45.73-18-13.41-5.66-27.54-9.15-41-14.61a101.08,101.08,0,0,0-20.56-6.08,65.72,65.72,0,0,1-14.36-3.69,16.35,16.35,0,0,0-3.36-1c-7.76-1.45-14.68,1.42-21.52,4.39-1.93.84-3.54,1.81-5.77,1C368.93,435,362.4,432.83,355.54,431.81Z"/><path class="cls-13" d="M540.13,542.2a15.47,15.47,0,0,1-3.9,4.63C488.36,587.5,418,581.6,377.76,534.25a108.73,108.73,0,0,1-26.39-68c3.21.37,6.27,1.44,9.46,2,5.8,1,12.13.16,17.38,2.25,16.28,6.47,33.67,9,50,15.2,20.21,7.73,41.17,13.47,60.81,22.79,6.21,2.95,12.63,5.46,19,8.16,1.42.61,2.53,1.23,2.2,3.22-.95,5.87,1.52,10.45,7.23,12.63C525.13,535.46,532.6,538.88,540.13,542.2Z"/><path class="cls-14" d="M540.13,542.2c-7.53-3.32-15-6.74-22.69-9.68-5.71-2.18-8.18-6.76-7.23-12.63.33-2-.78-2.61-2.2-3.22-6.33-2.7-12.75-5.21-19-8.16-19.64-9.32-40.6-15.06-60.81-22.79-16.36-6.25-33.75-8.73-50-15.2-5.25-2.09-11.58-1.27-17.38-2.25-3.19-.54-6.25-1.61-9.46-2a94.26,94.26,0,0,1,4.17-34.48c6.86,1,13.39,3.2,19.88,5.53,2.23.8,3.84-.17,5.77-1,6.84-3,13.76-5.84,21.52-4.39a16.35,16.35,0,0,1,3.36,1,65.72,65.72,0,0,0,14.36,3.69A101.08,101.08,0,0,1,441,442.68c13.47,5.46,27.6,8.95,41,14.61,15.09,6.37,30.48,12,45.73,18a9.75,9.75,0,0,1,5.15,4.7c1.93,3.3,5.82,5.45,8.87,8.08.11.1.3.1.39.21,7.14,8.32,17.42,7.88,26.9,9.67-5.11,16.35-14.2,30.26-26,42.48C542.2,541.29,541.52,542.35,540.13,542.2Z"/><path class="cls-18" d="M55.08,509.91h-.65a22.44,22.44,0,0,1-21.79-23.07L41,193.62a22.17,22.17,0,0,1,.28-2.94c8.82-54.5,58-157.57,181.27-157.57h202a22.44,22.44,0,0,1,0,44.88h-202c-111,0-134.17,104.78-136.73,118.53l-8.3,291.59A22.45,22.45,0,0,1,55.08,509.91Z"/><circle class="cls-18" cx="54.85" cy="540.83" r="21.25"/><path class="cls-16" d="M294.36,428.47c2.34-10.16,4.93-20.24,8.79-30a165.22,165.22,0,0,1,27.06-46.11c18.22-21.53,40.31-38.41,66.65-49.3,24.12-10,49.24-14.72,75.2-12.95,57.9,3.95,103.12,30.34,135.64,78.43.57.84,1.21,1.63,1.82,2.45,9.56,16.42,17.21,33.62,21.29,52.27q13.85,63.19-16.34,120.42c-.48.89-.87,1.84-1.3,2.76a243.65,243.65,0,0,1-21.43,29.93c-14.52,15.29-30.61,28.55-49.5,38.16-5.17,2.62-10.42,5.08-15.63,7.62-10.51,3.12-20.86,6.79-31.7,8.79a167,167,0,0,1-43.09,2.45c-47.33-3.61-86.6-23.42-118.45-58.58-5.82-6.43-10-13.87-15.44-20.51-9.7-16.2-17.44-33.22-21.84-51.67a216.3,216.3,0,0,1-4.35-26C290.68,460.49,291.1,444.4,294.36,428.47Zm57,37.82a108.73,108.73,0,0,0,26.39,68C418,581.6,488.36,587.5,536.23,546.83a15.47,15.47,0,0,0,3.9-4.63c1.39.15,2.07-.91,2.86-1.73,11.85-12.22,20.94-26.13,26-42.48,7-16.83,7.28-34.7,4.85-52-9.26-66.27-73.73-109.59-139.73-92.31a108.53,108.53,0,0,0-53.42,32.4c-12.06,13.18-20.93,28.22-25.2,45.74A94.26,94.26,0,0,0,351.37,466.29Z"/><path class="cls-17" d="M463.89,640.63c-4.2,0-8.43-.16-12.58-.48-48.38-3.69-89.73-24.13-122.93-60.76a123,123,0,0,1-9.45-12.33c-2.09-3-4.06-5.8-6.23-8.46l-.55-.79c-11-18.36-18.39-35.88-22.61-53.57a223.27,223.27,0,0,1-4.49-26.82c-1.25-18.94-.35-35.29,2.71-50.3,2.33-10.12,5-20.76,9.14-31.09a171.92,171.92,0,0,1,28.17-48c19.48-23,42.77-40.24,69.22-51.18,25.86-10.69,52.2-15.23,78.23-13.45,59.63,4.07,107,31.45,140.76,81.38.31.46.65.9,1,1.33l1.08,1.5c11,18.84,18.18,36.58,22,54.22,9.52,43.46,3.81,85.51-17,125-.25.48-.47,1-.69,1.48l-.8,1.64a250.84,250.84,0,0,1-22,30.76c-16.89,17.8-33.68,30.72-51.61,39.84-3.58,1.82-7.21,3.56-10.83,5.31l-5.93,2.76c-2.58.77-5.14,1.56-7.71,2.36a213.63,213.63,0,0,1-24.69,6.6A178.45,178.45,0,0,1,463.89,640.63ZM323.46,550.49c2.35,2.92,4.46,5.93,6.5,8.85a111.22,111.22,0,0,0,8.4,11c31.24,34.48,68.52,52.92,114,56.38a160.3,160.3,0,0,0,41.35-2.35,202,202,0,0,0,23.15-6.22c2.44-.76,4.89-1.52,7.34-2.25l4.45-2.15c3.54-1.7,7.07-3.39,10.57-5.17,16.54-8.41,32.13-20.45,47.67-36.79a238,238,0,0,0,20.35-28.46l.23-.5c.34-.76.68-1.51,1.07-2.24C627.77,504,633.06,465,624.23,424.75c-3.53-16.14-10.18-32.49-20.32-50l-.32-.42c-.51-.66-1-1.32-1.47-2C570.8,326,526.88,300.65,471.6,296.88c-24-1.62-48.22,2.56-72.16,12.45-24.45,10.11-46,26.07-64.09,47.43A158.57,158.57,0,0,0,309.41,401c-3.78,9.5-6.32,19.54-8.49,29-2.79,13.65-3.6,28.83-2.47,46.23a208.38,208.38,0,0,0,4.19,24.91C306.5,517.32,313.32,533.47,323.46,550.49Zm139.66,30.15h0a118.56,118.56,0,0,1-90.49-42,115.72,115.72,0,0,1-28-72.06A100.39,100.39,0,0,1,349.07,430c4.3-17.48,13.29-33.78,26.71-48.43a115.22,115.22,0,0,1,56.67-34.37,122.43,122.43,0,0,1,31-4c59.59,0,108.82,42.87,117.08,101.93,3,21.34,1.29,39.41-5.18,55.23-5.18,16.42-14.19,31.1-27.55,44.88a12.4,12.4,0,0,1-3.4,2.79,24.17,24.17,0,0,1-3.84,4A119.91,119.91,0,0,1,463.12,580.64Zm.36-224a109.35,109.35,0,0,0-27.62,3.59,102.08,102.08,0,0,0-50.15,30.44c-12.1,13.22-19.83,27.21-23.63,42.78l-.14.5A87.23,87.23,0,0,0,358.09,466a102.67,102.67,0,0,0,24.8,63.95,105.13,105.13,0,0,0,80.23,37.28,106.4,106.4,0,0,0,68.75-25.48,8.78,8.78,0,0,0,2.27-2.58l2.13-4.14,2.41.27c11.65-12.15,19.48-25,23.94-39.27l.2-.57c5.62-13.6,7.07-29.47,4.41-48.5C559.91,394.58,516.28,356.59,463.48,356.59Z"/><path class="cls-16" d="M731.25,172.74c6,5.82,12.23,11.34,17.84,17.55C772,215.65,784.66,245.88,791.28,279c4.21,21.06,5,42.47,5.92,63.85,0,1.17.21,2.33.32,3.5q.9,48.57.83,97.16c-.05,15.83.07,31.66.12,47.49-.3,33.48-.2,67-1.82,100.43-.74,15.22-1.59,30.41-4,45.45-4.49,28.3-13.8,54.86-29.63,78.94a191.79,191.79,0,0,1-38.77,40.72c-15.79,11.91-33.31,20.41-52,26.66-13.5,4.51-27.42,7.13-41.4,9.49-20,2.11-40,2.81-60.1,3.68l-78.46.8q-38.12-.07-76.22-.15c-32.58,0-65.17-.43-97.72-1.87a239.83,239.83,0,0,1-87.64-21C219,768.7,208.79,761,198.28,753.72c-5.87-4-10.32-9.45-15.28-14.38-2.88-2.87-5.81-5.71-8.48-8.83-8.77-10.26-15.71-21.71-22.49-33.29a34.45,34.45,0,0,0-1.37-4.13c-12.49-26.48-18.25-54.58-19.95-83.61-.93-16-1.47-32-2.19-47.93q-.3-37-.61-74.07V476.87l0-65.29q.18-22.5.38-45,.3-7.25.59-14.48c.93-22.84,1.36-45.72,5.26-68.34,2.78-16.09,7.57-31.58,13.36-46.79,5.5-11.52,11.27-22.87,18.87-33.21C193.91,166.42,231,144.32,276,134.66c25.41-5.45,51.24-6.24,77.05-7,24.37-.7,48.76-.74,73.15-1.07q46.5.07,93,.17c31.45,0,62.9.55,94.28,2.72,31.64,2.19,62.06,9.21,90.2,24.52A186.56,186.56,0,0,1,731.25,172.74ZM188.18,441.61q0,22.9,0,45.81c-.23,26.45-.41,52.91.78,79.35-.74,10.12.56,20.19,1,30.27.68,16.51,2.41,32.91,6.92,48.9,5.94,21.12,15.64,40,32.32,54.77,1,1,2,2.09,3.12,3.07,18,16.11,39.74,23.84,63,27.93,21.32,3.73,42.92,3.89,64.47,4.53,38.87,1.15,77.76.82,116.64.66,35.63.24,71.25.31,106.86-1.12,6.43-.26,12.85-.74,19.28-1.11a195.7,195.7,0,0,0,51.73-8.81c21.28-6.84,38.88-18.59,53-35.81a7.26,7.26,0,0,1,.84-1.5c7.73-8,12.41-17.83,16.26-28.12,3.87-8.13,6.08-16.81,7.75-25.58,2.35-12.4,3.3-24.93,4-37.57.53-10,.76-20,1.25-30,1.82-37.29.9-74.65,1-112,0-16.9-.13-33.81-.2-50.71.43-21.12-.3-42.23-1.11-63.33-.54-13.91-.79-27.85-3.22-41.62-.55-3.62-1-7.27-1.69-10.86-7.4-36.07-25.21-65.08-58.36-82.73-29.12-15.5-61-18-93.28-17.43-4-.36-8.1-.91-12.16-1.06-28.92-1.08-57.87-1-86.81-.77-56,.4-112.14-1.6-168.12,3.31-14.58,1.28-28.85,3.49-42.73,8.11-27.06,9-48,25.86-62,50.54-14.13,24.87-17.9,52.51-18.7,80.66-.61,11.54-1.43,23.07-1.11,34.64-1,15.24-.75,30.51-.66,45.77Z"/><path class="cls-17" d="M492.33,803.86l-24.21-.05q-26-.06-52-.1c-39.18,0-69.41-.61-98-1.87a238,238,0,0,1-37.35-4.59c-19.79-4.08-37.07-9.63-52.84-17-10.4-4.86-19.62-11.32-28.53-17.58l-4.89-3.42C189.59,756,185.72,751.9,182,748c-1.23-1.29-2.46-2.59-3.73-3.85l-1-1c-2.6-2.58-5.29-5.25-7.83-8.22-9.14-10.69-16.18-22.31-23.18-34.26l-.59-1.31c-.16-.51-.31-1-.46-1.54a12.26,12.26,0,0,0-.6-1.8c-11.93-25.3-18.66-53.46-20.58-86.1-.64-11-1.1-22.1-1.56-33.15q-.3-7.44-.63-14.87l-.62-85,.64-115.51.71-18c.76-19.89,1.53-40.45,5-60.7,2.59-15,6.94-30.28,13.69-48l.22-.51c5.11-10.7,11.26-23.06,19.53-34.3,27.44-37.3,65.64-61.43,113.54-71.71,26.29-5.64,52.71-6.39,78.27-7.12,16.95-.48,34.17-.66,50.83-.83,7.47-.07,14.94-.14,22.42-.25l29.79.06,63.32.12c27.85,0,60.88.39,94.74,2.74,35.79,2.47,66.19,10.76,93,25.32a192.9,192.9,0,0,1,28.61,19.37l.49.43c1.8,1.76,3.64,3.5,5.47,5.23,4.22,4,8.59,8.13,12.65,12.62,22,24.31,36.3,54.36,43.8,91.87,4.11,20.53,5,41.45,5.91,61.69l.13,3.18c0,.65.11,1.31.18,2l.15,1.71c.65,34.79.92,66.63.83,97.31,0,10.92,0,21.83.06,32.75l.06,14.7-.14,18.71c-.18,26.88-.36,54.67-1.69,82.07-.75,15.64-1.63,30.94-4,46.18-4.85,30.57-15.17,58-30.66,81.58a199.31,199.31,0,0,1-40.23,42.31c-15.56,11.74-33.2,20.79-54,27.75C660,794.35,645,797.1,632,799.29c-18.41,2-36.67,2.73-54.33,3.48l-6.6.29ZM158.25,694.51c6.54,11.16,13.13,22,21.39,31.62,2.18,2.55,4.56,4.91,7.08,7.42l1,1c1.35,1.35,2.67,2.73,4,4.12,3.39,3.57,6.6,6.95,10.31,9.45l5,3.52c8.82,6.19,17.15,12,26.49,16.4,14.79,6.9,31.1,12.14,49.85,16a224.51,224.51,0,0,0,35.24,4.33c28.4,1.25,58.45,1.83,97.43,1.86q26,0,52.06.09l24.13.06,84.8-1.08c17.45-.74,35.5-1.51,53.07-3.37,12.05-2.05,26.49-4.67,40-9.18,19.43-6.49,35.81-14.88,50.08-25.65a184.71,184.71,0,0,0,37.31-39.21c14.53-22.09,23.89-47,28.5-76.13,2.32-14.56,3.17-29.46,3.91-44.71,1.31-27.12,1.49-54.77,1.67-81.51l.14-18.66-.06-14.6c0-10.95-.1-21.9-.06-32.85.08-30.5-.19-62.15-.82-96.73l-.08-.78c-.11-.94-.21-1.88-.25-2.83l-.14-3.19c-.86-19.73-1.75-40.13-5.65-59.64-7-35.07-20.29-63-40.59-85.48-3.71-4.11-7.7-7.88-11.91-11.87q-2.71-2.55-5.39-5.14a180.25,180.25,0,0,0-26.37-17.85c-25-13.61-53.62-21.37-87.44-23.71-33.46-2.32-66.21-2.67-93.83-2.71l-63.32-.11-29.7-.06c-7.38.1-14.87.17-22.36.25-16.59.17-33.75.34-50.58.82-24.95.71-50.74,1.44-75.82,6.83-45.22,9.7-79.73,31.46-105.52,66.52-7.51,10.21-13.29,21.78-18.11,31.87-6.38,16.81-10.48,31.21-12.91,45.28-3.35,19.37-4.11,39.47-4.84,58.92l-.92,23-.38,44.76-.05,65.24v10.61l.61,74c.21,4.72.42,9.69.62,14.67.46,11,.91,22,1.55,32.91,1.81,30.89,8.13,57.43,19.32,81.14a25.57,25.57,0,0,1,1.36,3.82ZM426,743.8c-26.09,0-47.17-.26-66.34-.83l-7.67-.21c-18.92-.52-38.49-1-57.76-4.42-28.31-5-49.4-14.35-66.36-29.55-.85-.76-1.66-1.57-2.46-2.38l-.91-.92c-15.87-14-27.1-33-34.07-57.72-4.06-14.43-6.33-30.46-7.15-50.45-.12-3-.33-6-.53-9a160.31,160.31,0,0,1-.46-21.67c-1.13-25.42-1-49.94-.77-79.32l-.06-82.23c-.1-13.49-.19-27.43.68-41.25-.26-9.89.29-19.77.82-29.32l.31-5.56c.68-24,3.53-55.41,19.56-83.63,14.73-25.94,36.87-44,65.78-53.6,12.63-4.2,26.69-6.88,44.26-8.42,34.21-3,68.13-3.42,99.68-3.42q12.86,0,25.72.07c14.41.05,28.84.1,43.27,0q15.15-.1,30.31-.13c22.06,0,40.1.29,56.79.91,2.92.11,5.83.41,8.74.71,1.14.12,2.28.24,3.42.34,2.58,0,5.16-.07,7.73-.07,25.19,0,58,2.08,88.46,18.3,32.69,17.41,53.48,46.78,61.8,87.32.53,2.59.9,5.21,1.26,7.83.16,1.12.31,2.24.49,3.36,2.2,12.49,2.66,25.25,3.11,37.59l.18,4.79c.83,21.56,1.54,42.66,1.11,63.73l.09,15.6c.07,11.66.15,23.32.11,35,0,10.16,0,20.32.07,30.48.12,26.8.24,54.51-1.09,81.81-.22,4.62-.39,9.25-.56,13.88-.2,5.41-.4,10.81-.69,16.2-.64,12.19-1.58,25.29-4.08,38.46-1.43,7.53-3.64,17.38-8.16,27-3.35,8.93-8.32,20.25-17.08,29.61-.11.23-.21.43-.31.61l-.7,1a117.72,117.72,0,0,1-56.11,38c-16.46,5.29-34,8.27-53.5,9.12l-6,.38c-4.44.28-8.88.56-13.32.74-21.36.86-44.6,1.26-73.14,1.26-11.35,0-22.69-.07-34-.14l-11.57,0Q445.4,743.77,426,743.8ZM412.5,193.39c-31.25,0-64.81.41-98.5,3.37-16.5,1.45-29.58,3.92-41.19,7.79-25.66,8.54-45.28,24.51-58.32,47.47-14.56,25.64-17.17,54.9-17.82,77.53l-.31,5.75c-.52,9.38-1.06,19.09-.8,28.52v.3l0,.31c-.87,13.45-.77,27.25-.68,40.6l0,36.58,0,45.8c-.26,29.39-.37,53.82.77,79.06v.39l0,.4a144.42,144.42,0,0,0,.43,20.18c.21,3.11.42,6.22.55,9.33.78,18.91,2.9,34,6.66,47.35,6.25,22.16,16.16,39,30.31,51.54L235,697c.6.62,1.2,1.23,1.84,1.8,15,13.44,34,21.8,59.7,26.31,18.3,3.21,37.37,3.73,55.81,4.23l7.7.21c19,.57,40,.83,65.94.83q19.43,0,38.83-.12l11.64-.06c11.39.08,22.7.14,34,.14,28.36,0,51.43-.4,72.6-1.25,4.34-.17,8.67-.45,13-.72l6.16-.38c18.42-.8,34.76-3.58,50.06-8.5,20.08-6.45,36.22-17.27,49.32-33.06a9.5,9.5,0,0,1,1.7-2.52c7.41-7.71,11.64-17.37,14.79-25.79l.23-.54c3.07-6.46,5.3-13.85,7.21-23.95,2.35-12.38,3.25-24.94,3.87-36.66.28-5.32.47-10.65.67-16,.17-4.69.35-9.37.58-14,1.31-26.95,1.18-54.48,1.06-81.1-.05-10.19-.09-20.39-.06-30.58,0-11.63,0-23.25-.11-34.87l-.09-15.79c.42-20.86-.28-41.74-1.11-63.1l-.18-4.82c-.45-12.43-.87-24.17-2.94-35.89-.21-1.33-.37-2.51-.53-3.7-.33-2.33-.65-4.67-1.12-7C718,253.15,700,227.59,670.62,212c-27.83-14.82-58.52-16.72-82.14-16.72-2.61,0-5.24,0-7.86.07h-.36l-.36,0-4-.39c-2.62-.28-5.23-.55-7.84-.65-16.53-.62-34.41-.9-56.3-.9q-15.1,0-30.22.13c-14.47.1-28.95.05-43.42,0C429.61,193.43,421.05,193.39,412.5,193.39Z"/><path class="cls-17" d="M216.17,924.67h0c-15.65,0-96.64-3.07-154.95-63.75C17.44,815.37-3,749,.36,663.75L3.59,179.42a10.28,10.28,0,0,1,.12-1.57C20.36,65,123.77-1.75,212.44.32H707.71c2.36-.2,5-.31,8-.31C784.3,0,916.49,43.08,925.83,206.13c0,.22,0,.43,0,.64l.15,509.1c0,.32,0,.65,0,1C909.09,909.5,748.36,924.47,699.5,924.47ZM26,180.36,22.79,664.27C19.65,743.59,38,804.39,77.4,845.38c52,54.11,124.71,56.85,138.76,56.85l483.33-.2c44,0,188.65-13.46,204.06-186.65l-.14-508.28c-4-68.5-31.28-119.6-81.1-151.9C785,31,741.58,22.44,715.71,22.44c-2.44,0-4.65.09-6.39.26a9.83,9.83,0,0,1-1.09.05h-496c-1.42,0-2.58,0-3.75,0C130.4,22.71,41,81.66,26,180.36Z"/></svg>