<svg id="Capa_1" data-name="Capa 1" xmlns="http://www.w3.org/2000/svg" viewBox="0 0 818.48 839.26"><defs><style>.cls-1{fill:#a1cef0;stroke:#181c36;stroke-miterlimit:10;stroke-width:8px;}.cls-2{fill:#181c36;}.cls-3{opacity:0.9;}.cls-4{fill:#fff;}</style></defs><title>prto</title><circle class="cls-1" cx="409.24" cy="419.75" r="405.24"/><path class="cls-2" d="M412,838.46c-58.56,0-112.83-44.89-152.8-126.38-38.48-78.45-59.66-182.46-59.66-292.85s21.18-214.4,59.66-292.85C299.16,44.88,353.43,0,412,0S524.83,44.88,564.8,126.38c38.47,78.45,59.66,182.45,59.66,292.85s-21.19,214.4-59.66,292.85C524.83,793.57,470.56,838.46,412,838.46Zm0-811.53c-47.74,0-93.42,39.53-128.62,111.31-36.7,74.83-56.91,174.62-56.91,281s20.21,206.16,56.91,281C318.57,772,364.25,811.53,412,811.53S505.42,772,540.62,700.22c36.7-74.83,56.91-174.62,56.91-281s-20.21-206.16-56.91-281C505.42,66.46,459.74,26.93,412,26.93Z"/><path class="cls-2" d="M409.7,379.21c-101.78,0-197.58-7.62-269.77-21.44C18.3,334.48,18.3,303.54,18.3,293.37s0-41.1,121.63-64.39c72.19-13.82,168-21.43,269.77-21.43S607.28,215.16,679.47,229c121.62,23.29,121.62,54.23,121.62,64.39s0,41.11-121.62,64.4C607.28,371.59,511.47,379.21,409.7,379.21Zm0-144.74c-100.13,0-194.14,7.45-264.71,21-82.83,15.86-99.76,34-99.76,37.94S62.16,315.46,145,331.32c70.57,13.52,164.58,21,264.71,21s194.13-7.44,264.71-21c82.82-15.86,99.76-34,99.76-37.95s-16.94-22.08-99.76-37.94C603.83,241.92,509.82,234.47,409.7,234.47Z"/><path class="cls-2" d="M411.34,646.43c-103.26,0-200.46-7.61-273.7-21.43-83-15.65-123.3-36.72-123.3-64.4s40.33-48.74,123.3-64.4c73.24-13.82,170.44-21.43,273.7-21.43S611.79,482.38,685,496.2c83,15.66,123.3,36.72,123.3,64.4S768,609.35,685,625C611.79,638.82,514.59,646.43,411.34,646.43Zm0-144.73c-101.64,0-197.06,7.44-268.71,21-84.16,15.88-101.36,34-101.36,37.94s17.2,22.06,101.36,37.94c71.64,13.52,167.07,21,268.71,21s197.05-7.44,268.7-21c84.16-15.88,101.36-34,101.36-37.94S764.2,538.54,680,522.66C608.39,509.14,513,501.7,411.34,501.7Z"/><path class="cls-2" d="M404.84,838.46C221.85,838.46,73,652.25,73,423.37S221.85,8.28,404.84,8.28,736.71,194.49,736.71,423.37,587.83,838.46,404.84,838.46Zm0-803.25C236.69,35.21,99.9,209.34,99.9,423.37S236.69,811.53,404.84,811.53,709.78,637.4,709.78,423.37,573,35.21,404.84,35.21Z"/><path class="cls-2" d="M413.89,839.26c-37.24,0-54.92-73.64-65-129C335,633.4,327.26,531.4,327.26,423S335,212.69,348.91,135.85c21-115.65,47.14-129,65-129,37.24,0,54.92,73.63,65,129,14,76.84,21.65,178.83,21.65,287.19s-7.69,210.36-21.65,287.2C457.86,825.89,431.72,839.26,413.89,839.26Zm0-805.5c-.19,0-20.21,6.28-38.49,106.9C361.72,216,354.19,316.24,354.19,423s7.53,207.08,21.21,282.38c18.28,100.63,38.3,106.91,38.49,106.91s20.21-6.28,38.49-106.91c13.68-75.3,21.21-175.58,21.21-282.38S466.06,216,452.38,140.66C434.1,40,414.08,33.76,413.89,33.76Z"/><g class="cls-3"><path class="cls-4" d="M59.25,301.74a20.21,20.21,0,0,1-19.32-26.07C42,269,91.92,112,286.46,57.92a20.2,20.2,0,0,1,10.81,38.93C225,116.92,166.28,155,122.77,209.92c-32.69,41.28-44.11,77.23-44.22,77.59A20.24,20.24,0,0,1,59.25,301.74Z"/></g></svg>