<svg id="Capa_1" data-name="Capa 1" xmlns="http://www.w3.org/2000/svg" viewBox="0 0 890.87 890.87"><defs><style>.cls-1{fill:#dc9b28;}.cls-2{fill:#181c36;}.cls-3{fill:#fbbe44;}.cls-4{fill:#fff;}</style></defs><title>prto</title><circle class="cls-1" cx="445.44" cy="445.44" r="428.01"/><path class="cls-2" d="M445.44,890.87A445.55,445.55,0,0,1,272.05,35,445.55,445.55,0,0,1,618.83,855.86,442.74,442.74,0,0,1,445.44,890.87Zm0-856a410.69,410.69,0,0,0-159.81,788.9A410.69,410.69,0,0,0,605.25,67.12,407.93,407.93,0,0,0,445.44,34.86Z"/><path class="cls-3" d="M581.27,744.07c-33.71-.43-64.16-9.58-93.64-22.8-32.94-14.78-62.44-35.28-91.95-55.66-47.74-33-90.92-71-127.63-116.14-20.14-24.75-37.94-51.1-54.76-78.19-14.21-22.9-27.83-46.06-37.41-71.37-11.55-30.46-18.46-61.61-14.68-94.46,5.11-44.4,23.82-81.26,60-108.42,15-11.27,32.13-14.44,50.46-12.43,3.67.4,7.31,1.08,11,1.49C299.93,188,310.1,198,315.45,214c6.53,19.5,13.33,38.91,20,58.35,5.55,16.13,11,32.29,16.73,48.34,4.91,13.71,2.81,26.39-6.63,37-10.84,12.22-22.58,23.68-34.29,35.1-10.52,10.26-11.79,16.94-5.21,30,34.16,67.7,84.86,119.9,149.12,159.41,9,5.52,18,11,27.2,16.22,10.7,6.12,18.86,4.67,27.5-4.16,10.59-10.81,21.2-21.61,32.06-32.14,12.46-12.08,26.57-15.63,43.54-9.53q50.84,18.28,102.21,35.11c18.15,5.95,28.72,17.08,31,36.38,2,17.22,2.56,34.1-6.1,49.89-7.29,13.28-17.36,24.3-28.89,33.95C653.76,733,618.6,743.21,581.27,744.07Z"/><path class="cls-2" d="M581.32,753.57h-.17c-31.41-.4-62.37-7.91-97.41-23.62-33.22-14.91-63.15-35.58-92.09-55.56l-1.38-1c-51.64-35.66-94-74.25-129.6-118-18.17-22.35-35.8-47.5-55.45-79.17-13.12-21.13-28-45.95-38.23-73-13.93-36.75-18.77-68.19-15.23-98.92,5.61-48.74,27.06-87.41,63.76-114.93,13.19-9.89,28.72-14.91,46.17-14.91a102.42,102.42,0,0,1,11,.62c2,.23,4,.52,5.88.8s3.46.52,5.1.7c20.15,2.22,33.87,13.78,40.76,34.36,4.71,14.09,9.66,28.38,14.44,42.21q2.77,8,5.55,16.07,2.31,6.72,4.61,13.45C353,294.16,357,306,361.15,317.51c6.17,17.24,3.25,33.33-8.47,46.52-11.23,12.66-23.19,24.32-34.76,35.6-7.59,7.4-8,9.7-3.36,18.89,32.08,63.56,81.07,115.91,145.61,155.59,10.51,6.46,19.07,11.57,26.94,16.07,2.86,1.64,5.31,2.47,7.26,2.47,1.64,0,4.32-.52,8.73-5,11.31-11.55,21.55-22,32.24-32.32,10.35-10,22-15.13,34.6-15.13a55.47,55.47,0,0,1,18.76,3.49c33.2,11.94,67.5,23.72,102,35,22.28,7.31,34.88,22.21,37.45,44.31,2,16.93,3.19,36.58-7.22,55.56-7.24,13.2-17.42,25.2-31.11,36.67-29.21,24.47-65.64,37.37-108.29,38.35Zm-319.63-560c-13.43,0-24.8,3.63-34.76,11.1-32.81,24.61-51.22,57.94-56.28,101.9-3.18,27.6,1.31,56.2,14.12,90,9.65,25.48,23.95,49.35,36.6,69.72,19.22,31,36.4,55.49,54.05,77.2,34.42,42.3,75.52,79.69,125.66,114.32l1.38,1c28.23,19.5,57.43,39.67,89.06,53.86,32.53,14.59,61,21.57,89.7,22,38.69-.92,70.21-12,96.35-33.92,11.85-9.92,20.57-20.14,26.65-31.24,7-12.7,7.08-26.33,5-44.22-1.73-14.87-9.05-23.37-24.48-28.43-34.63-11.36-69.11-23.2-102.47-35.2a36.77,36.77,0,0,0-12.33-2.37c-7.6,0-14.59,3.2-21.37,9.77-10.53,10.21-20.67,20.52-31.89,32-7.07,7.22-14.37,10.73-22.31,10.73-5.38,0-10.85-1.63-16.71-5-8-4.6-16.76-9.8-27.45-16.37-67.58-41.55-118.94-96.47-152.63-163.22-8.42-16.7-6.51-27.83,7.07-41.07,11.33-11,23-22.47,33.82-34.61,7-7.9,8.57-16.89,4.78-27.49-4.18-11.66-8.24-23.55-12.17-35q-2.29-6.7-4.6-13.41-2.76-8-5.54-16c-4.79-13.87-9.76-28.22-14.5-42.4-4.51-13.47-12.17-20.1-24.81-21.49-2-.23-3.95-.51-5.82-.79s-3.49-.52-5.15-.7A82,82,0,0,0,261.69,193.54Z"/><path class="cls-2" d="M322.62,355.23a61.91,61.91,0,0,1-18.83-2.86c-18.86-6-34-21.06-45-44.78,0-.11-.09-.21-.13-.31-1.34-3.45-32.61-84.87-18.28-120.36a5.28,5.28,0,1,1,9.79,4c-12.52,31,16.77,108.46,18.28,112.42,9.68,20.79,22.61,33.9,38.44,39,23.1,7.4,45.13-4.88,45.35-5a5.28,5.28,0,0,1,5.25,9.17A76.34,76.34,0,0,1,322.62,355.23Z"/><path class="cls-2" d="M289.78,410.29c-15.79,0-41.68-6.05-53.5-42.76a5.28,5.28,0,0,1,10.06-3.23c14.37,44.64,52.09,34.8,53.68,34.35a5.28,5.28,0,0,1,2.86,10.17A53.78,53.78,0,0,1,289.78,410.29Z"/><path class="cls-2" d="M664,689.27a47.37,47.37,0,0,1-7.76-.66,5.78,5.78,0,0,1-.91-.23c-.28-.1-28.94-10.26-58.17-22.62C542.6,642.69,533,632.07,530.6,626.09a5.28,5.28,0,1,1,9.77-4c1,2.32,8.15,11.62,60.86,33.92,26.95,11.39,53.43,20.91,57.18,22.24,9.27,1.42,17.06-.56,23.79-6.07,22.17-18.14,24.17-66.86,24.18-67.35a5.28,5.28,0,1,1,10.56.38c-.08,2.2-2.23,54-28.05,75.14A38.27,38.27,0,0,1,664,689.27Z"/><path class="cls-2" d="M520.65,613.72a5.4,5.4,0,0,1-1.25-.15,5.3,5.3,0,0,1-3.89-6.38c.24-1,6.15-24.22,36.58-53.77a5.28,5.28,0,1,1,7.36,7.58c-28.26,27.45-33.62,48.47-33.67,48.68A5.29,5.29,0,0,1,520.65,613.72Z"/><path class="cls-2" d="M490.76,625a4.3,4.3,0,0,1-.62,0,5.28,5.28,0,0,1-4.63-5.86c.77-6.54,2.92-18,8.67-21.47a5.28,5.28,0,0,1,5.61,9c-1.29,1.42-3.12,8-3.79,13.75A5.29,5.29,0,0,1,490.76,625Z"/><ellipse class="cls-2" cx="307.74" cy="244.52" rx="6.86" ry="11.23" transform="translate(-58.92 102.9) rotate(-17.35)"/><ellipse class="cls-2" cx="317.85" cy="286.97" rx="6.86" ry="11.23" transform="translate(-71.12 107.84) rotate(-17.35)"/><ellipse class="cls-2" cx="285.31" cy="292.81" rx="8.99" ry="11.23" transform="translate(-74.34 98.41) rotate(-17.35)"/><ellipse class="cls-2" cx="274.39" cy="243.52" rx="8.99" ry="11.23" transform="translate(-60.13 92.91) rotate(-17.35)"/><ellipse class="cls-2" cx="614.99" cy="586.67" rx="6.86" ry="11.23" transform="translate(-162.72 929.53) rotate(-67.44)"/><ellipse class="cls-2" cx="654.04" cy="606.15" rx="6.86" ry="11.23" transform="translate(-156.65 977.6) rotate(-67.44)"/><ellipse class="cls-2" cx="635.6" cy="637.28" rx="8.99" ry="11.23" transform="translate(-196.76 979.76) rotate(-67.44)"/><ellipse class="cls-2" cx="588.08" cy="617.28" rx="8.99" ry="11.23" transform="translate(-207.58 923.54) rotate(-67.44)"/><path class="cls-4" d="M186.68,273.66a3.55,3.55,0,0,1-1.34-.26,3.69,3.69,0,0,1-2.1-4.78c16.08-41.24,44.93-60.83,46.15-61.65a3.7,3.7,0,0,1,5.73,3.46c0,.17-1.68,16.75,2,30.11a3.7,3.7,0,1,1-7.13,2c-2.35-8.52-2.75-17.93-2.65-24.49a137.64,137.64,0,0,0-37.21,53.29A3.71,3.71,0,0,1,186.68,273.66Z"/><path class="cls-4" d="M180.08,294.91l-.37,0a3.7,3.7,0,0,1-3.31-4.05c.56-5.63,3.56-13.8,3.69-14.14a3.7,3.7,0,0,1,6.94,2.56c0,.08-2.81,7.63-3.27,12.32A3.7,3.7,0,0,1,180.08,294.91Z"/><path class="cls-4" d="M549.2,589.77a4.22,4.22,0,0,1-3.37-6.76c4.48-6,12.4-16.16,15.93-18.37,1.12-.74,6.27-3.69,13.47-1l15.3,5a4.22,4.22,0,1,1-2.63,8l-15.38-5-.19-.07c-3.54-1.35-5.81,0-5.84,0l-.36.23c-1.73,1.21-8.38,9.33-13.54,16.21A4.21,4.21,0,0,1,549.2,589.77Z"/><path class="cls-4" d="M328.07,340.82a3.69,3.69,0,0,1-.7-7.32l5.38-1.05A20.69,20.69,0,0,0,330.12,322a3.7,3.7,0,0,1,6.36-3.78c4.94,8.34,3.48,17.55,3.42,17.94a3.69,3.69,0,0,1-2.94,3l-8.18,1.59A3.49,3.49,0,0,1,328.07,340.82Z"/><path class="cls-4" d="M430.85,602.87a7.54,7.54,0,0,1-2.77-.54c-31.59-12.77-65.86-42.19-101.87-87.45A604.9,604.9,0,0,1,281.72,451a7.4,7.4,0,0,1,12.76-7.48c.68,1.16,69.06,116.73,139.14,145.06a7.39,7.39,0,0,1-2.77,14.25Z"/><path class="cls-4" d="M110.53,308a20.42,20.42,0,0,1-5.94-.89A20.17,20.17,0,0,1,91.22,282c2-6.66,52-163.72,246.52-217.75a20.2,20.2,0,1,1,10.81,38.92c-72.28,20.08-131,58.12-174.5,113.07-32.68,41.29-44.11,77.24-44.22,77.6A20.24,20.24,0,0,1,110.53,308Z"/></svg>