<svg id="Capa_1" data-name="Capa 1" xmlns="http://www.w3.org/2000/svg" viewBox="0 0 995.25 910.1"><defs><style>.cls-1{fill:#001616;}.cls-1,.cls-16{opacity:0.3;}.cls-2{fill:#c9d1d3;}.cls-3{fill:#001c1c;}.cls-4{fill:#9cf2ff;}.cls-5{fill:#b3b3b3;}.cls-6{fill:#fbf7ec;}.cls-7{fill:#01123a;}.cls-8{opacity:0.1;}.cls-9{fill:#020202;}.cls-10{fill:#044959;}.cls-11{opacity:0.8;}.cls-12{fill:#fff;}.cls-13{fill:#ce3649;}.cls-14{fill:#4a44cc;}.cls-15{fill:#35c971;}.cls-17{fill:#fcfcfc;}</style></defs><title>prto</title><ellipse class="cls-1" cx="490.07" cy="840.69" rx="477.93" ry="69.41"/><rect class="cls-2" x="9.09" y="9.09" width="977.07" height="599.41" rx="6.93" ry="6.93"/><path class="cls-3" d="M979.23,617.59H16a16,16,0,0,1-16-16V16A16,16,0,0,1,16,0H979.23a16,16,0,0,1,16,16V601.57A16,16,0,0,1,979.23,617.59Zm-961-18.18H977.07V18.19H18.19Z"/><path class="cls-4" d="M79.26,58.77a6.66,6.66,0,0,1,6.92-6.37H910.8a6.66,6.66,0,0,1,6.93,6.37V517.25a6.66,6.66,0,0,1-6.93,6.37H86.18a6.66,6.66,0,0,1-6.92-6.37Z"/><path class="cls-5" d="M910.8,532.71H86.18c-8.83,0-16-6.94-16-15.46V58.77c0-8.53,7.19-15.46,16-15.46H910.8c8.84,0,16,6.93,16,15.46V517.25C926.82,525.77,919.64,532.71,910.8,532.71ZM88.35,514.52H908.64V61.5H88.35Z"/><path class="cls-2" d="M653.54,806a161.11,161.11,0,1,0-322.22,0c0,1.74,0,3.47.09,5.2h322C653.5,809.46,653.54,807.73,653.54,806Z"/><path class="cls-3" d="M653.45,820.28h-322a9.1,9.1,0,0,1-9.09-8.8c-.06-1.83-.1-3.65-.1-5.49,0-93.85,76.36-170.2,170.21-170.2S662.64,712.14,662.64,806c0,1.84,0,3.66-.1,5.49A9.1,9.1,0,0,1,653.45,820.28Zm-313-18.19H644.4C642.32,720.07,575,654,492.43,654S342.54,720.07,340.46,802.09Z"/><rect class="cls-2" x="121.7" y="792.13" width="748.39" height="50.24" rx="6.93" ry="6.93"/><path class="cls-3" d="M863.16,851.47H128.63a16,16,0,0,1-16-16V799.06a16,16,0,0,1,16-16H863.16a16,16,0,0,1,16,16v36.38A16,16,0,0,1,863.16,851.47ZM130.79,833.28H861v-32H130.79Z"/><rect class="cls-2" x="419.67" y="608.5" width="154.18" height="67.56" rx="6.93" ry="6.93"/><path class="cls-3" d="M566.92,685.16H426.6a16,16,0,0,1-16-16v-53.7a16,16,0,0,1,16-16H566.92a16,16,0,0,1,16,16v53.7A16,16,0,0,1,566.92,685.16ZM428.76,667h136V617.59h-136Z"/><path class="cls-6" d="M520,569.46a16.33,16.33,0,0,1-16.33,16.33h0a16.33,16.33,0,0,1-16.33-16.33h0a16.33,16.33,0,0,1,16.33-16.33h0A16.33,16.33,0,0,1,520,569.46Z"/><path class="cls-7" d="M503.67,591a21.53,21.53,0,1,1,21.53-21.52A21.55,21.55,0,0,1,503.67,591Zm0-32.66a11.14,11.14,0,1,0,11.13,11.14A11.16,11.16,0,0,0,503.67,558.32Z"/><g class="cls-8"><path class="cls-9" d="M426.6,615l224,177.6s-7.69-83.7-76.79-117L566.92,615Z"/></g><path class="cls-10" d="M307.41,142.74H146.32a10.4,10.4,0,0,1,0-20.79H307.41a10.4,10.4,0,1,1,0,20.79Z"/><path class="cls-10" d="M310.27,201.8H146.5a10.39,10.39,0,1,1,0-20.78H310.27a10.39,10.39,0,1,1,0,20.78Z"/><path class="cls-10" d="M372.19,260.87H144a10.4,10.4,0,0,1,0-20.79H372.19a10.4,10.4,0,1,1,0,20.79Z"/><g class="cls-11"><path class="cls-12" d="M37.61,182.13A9.09,9.09,0,0,1,28.52,173V31.36a9.09,9.09,0,0,1,9.09-9.09h64.24a9.1,9.1,0,0,1,0,18.19H46.7V173A9.09,9.09,0,0,1,37.61,182.13Z"/></g><g class="cls-11"><path class="cls-12" d="M36.55,246.36a9.09,9.09,0,0,1-9.09-9.09V196a9.1,9.1,0,1,1,18.19,0v41.29A9.1,9.1,0,0,1,36.55,246.36Z"/></g><g class="cls-11"><path class="cls-12" d="M148.84,583.05h-111a9.09,9.09,0,0,1-9.1-9.1V478.47a9.1,9.1,0,0,1,18.19,0v86.39H148.84a9.1,9.1,0,0,1,0,18.19Z"/></g><g class="cls-11"><path class="cls-12" d="M366.22,778.67a8.34,8.34,0,0,1-1.64-.15,9.09,9.09,0,0,1-7.31-10.58c11.14-60.83,52.51-77,54.26-77.65a9.09,9.09,0,0,1,6.44,17c-1.49.58-33.63,13.8-42.81,63.92A9.1,9.1,0,0,1,366.22,778.67Z"/></g><path class="cls-12" d="M461.91,664.3H439.62a9.1,9.1,0,1,1,0-18.19h22.29a9.1,9.1,0,0,1,0,18.19Z"/><path class="cls-13" d="M669.06,457.58,562.43,422.45V291.85c.83.25,1.62.46,2.39.72l91.95,30.29c3.73,1.23,7.45,2.51,11.19,3.69a1.36,1.36,0,0,1,1.12,1.56c0,7.32,0,14.64,0,22V457.58Z"/><path class="cls-7" d="M669.06,462.78a5.39,5.39,0,0,1-1.63-.26L560.8,427.39a5.21,5.21,0,0,1-3.57-4.94V291.85a5.19,5.19,0,0,1,6.69-5l.79.23,1.73.53,95.68,31.54c2.46.82,4.93,1.64,7.4,2.42a6.46,6.46,0,0,1,4.75,6.55q0,8.57,0,17.15V457.58a5.2,5.2,0,0,1-5.2,5.2ZM567.62,418.69l96.24,31.71V345.29q0-7.29,0-14.59c-1.68-.55-3.37-1.11-5-1.68l-3.68-1.22L567.62,299Z"/><path class="cls-14" d="M775.82,291.85v1.49q0,63.72,0,127.43a1.94,1.94,0,0,1-1.59,2.22q-34,11.61-68,23.32L674.52,457.2c-.26.09-.53.15-1,.27V356.13c0-9.26,0-18.52,0-27.77a1.72,1.72,0,0,1,1.4-1.95q19.83-6.75,39.64-13.58l59.67-20.48C774.68,292.19,775.16,292.05,775.82,291.85Z"/><path class="cls-7" d="M673.53,462.67a5.18,5.18,0,0,1-5.2-5.2V349.61c0-7.07,0-14.15,0-21.22a6.8,6.8,0,0,1,4.92-6.9q16.37-5.58,32.71-11.2l66.59-22.85c.38-.14.76-.25,1.21-.39l.56-.17a5.21,5.21,0,0,1,6.73,5v17.09q0,55.92,0,111.83a7,7,0,0,1-5.1,7.14q-27.08,9.24-54.1,18.55l-45.63,15.66c-.29.1-.59.18-1,.28l-.35.09A5.15,5.15,0,0,1,673.53,462.67ZM678.7,330.6q0,9.51,0,19V450.25l39.74-13.62q26.09-9,52.18-17.9,0-54.92,0-109.79v-9.87l-61.31,21.05Q694,325.37,678.7,330.6Z"/><path class="cls-15" d="M567.74,288.73l11.54-3.45,71.51-21.37c6.47-1.93,12.93-3.89,19.41-5.79a3.91,3.91,0,0,1,2.12,0q32.67,10.11,65.31,20.27l32,10c.25.08.49.19,1,.4-2.75.95-5.27,1.84-7.79,2.7q-32.14,11.06-64.3,22.08c-8.7,3-17.4,6-26.12,8.92a4,4,0,0,1-2.38,0q-30.86-10.1-61.67-20.27l-39.25-13C568.78,289.16,568.41,289,567.74,288.73Z"/><path class="cls-7" d="M671.27,327.89a9,9,0,0,1-2.81-.44q-29.79-9.75-59.54-19.57l-2.14-.71-36.41-12-2.84-.94c-.34-.11-.67-.24-1.11-.42l-.56-.22a5.2,5.2,0,0,1,.39-9.82l88.44-26.44q7-2.12,14.06-4.18a9.07,9.07,0,0,1,5.11,0q32.67,10.1,65.31,20.27l27.08,8.44,5,1.56c.31.1.6.21,1,.38l.38.16a5.19,5.19,0,0,1-.25,9.72l-2.68.94-5.13,1.78L697,319.61q-11.46,3.94-22.93,7.83A8.89,8.89,0,0,1,671.27,327.89ZM584.92,289,610,297.3l2.13.7q29.54,9.74,59.08,19.43,11.22-3.78,22.41-7.65L754.17,289l-18.08-5.63q-32.43-10.1-64.87-20.14c-4.52,1.32-9,2.68-13.55,4Z"/><g class="cls-16"><polygon class="cls-17" points="492.58 131.75 382.9 133.5 145.78 418.11 254.22 417.6 492.58 131.75"/></g><path class="cls-10" d="M657.84,228.64H616a7.8,7.8,0,0,1,0-15.59h34l-.08-18.83H620.6a7.8,7.8,0,1,1,0-15.59h29.3V160.71H614.61a7.8,7.8,0,0,1,0-15.59h43.08a7.8,7.8,0,0,1,7.8,7.8v33.49l.15,34.4a7.8,7.8,0,0,1-7.8,7.83Z"/><path class="cls-10" d="M715.49,228.16H679.12a7.85,7.85,0,0,1-7.85-7.85V152.93a7.85,7.85,0,0,1,7.81-7.85l38.72-.18a7.17,7.17,0,0,1,6.28,3.1l8.55,11.24a7.93,7.93,0,0,1,1.6,4.76v50.27a7.84,7.84,0,0,1-4.05,6.87l-10.89,6A7.78,7.78,0,0,1,715.49,228.16ZM687,212.46h26.49l5.07-2.81v-43l-4.58-6-27,.12Z"/><g class="cls-16"><polygon class="cls-17" points="799.52 97.52 627.51 98.73 335.78 431.55 514.44 423.68 799.52 97.52"/></g></svg>