<svg id="Capa_1" data-name="Capa 1" xmlns="http://www.w3.org/2000/svg" viewBox="0 0 440.86 683.04"><defs><style>.cls-1{fill:#131e18;}.cls-2{fill:#8bc37e;}.cls-3{fill:#0c1511;}.cls-4{fill:#567c5c;}.cls-5{fill:#5e5e5d;}.cls-6{fill:#a2cd93;}</style></defs><title>Sin título-1</title><path class="cls-1" d="M0,378.12q0-109.85,0-219.7c0-20.17,4.8-26.53,24.4-32.33,10.15-3,20.36-3.25,29.85,1.53,6.68,3.37,7.74.3,8.63-5.12A154.19,154.19,0,0,1,93,53C116.68,22,147.77,3.84,186.83.41,206.76-1.35,226,2.66,244.25,10.65a50.1,50.1,0,0,0,13.89,3.94c58.14,7.32,93.71,42,114.44,94.57a19.32,19.32,0,0,1,1.23,3.62c1.54,8.84,5.66,15.07,14.78,18.22,6.56,2.27,10.73,8.47,15.71,13.2,6.1,5.8,12.44,11.38,18.16,17.53,9.29,10,15.73,20.82,15.62,35.71-.44,57.91-.6,115.85.49,173.75,1.42,74.75.43,149.5,1.53,224.24.23,15.79.83,31.6.75,47.41-.11,25.09-15.06,39.88-40.1,39.88-107.17,0-214.35-.3-321.52.32-17,.09-29.46-6.17-40.29-17.89q-15.57-16.86-30.87-34c-7.14-8-8-17.93-8-28Q0,509,0,414.87ZM310.35,69.49l-1.69-.9.6,1.91c8,16.26,14.75,33,18,51,2,11.39,2.17,11.37,13.26,7.11a4.79,4.79,0,0,1,.73-.24c4.56-1.05,5.3-3.52,3.77-7.88a120,120,0,0,0-15.6-30.51C323.91,82.35,319,74.18,310.35,69.49Zm-3.42,102c7.59,7.57,15.78,14.34,26.83,15.79,7.17.94,14.16.17,18.66-6.79,1-.17,2.21,0,3-.54a95.83,95.83,0,0,1,42.06-15.06c5.09-.62,3.26-4.21,1.59-6.88-12.22-19.54-38.88-23.74-56.8-15.89-13.33,5.84-26.33,12.32-40.74,15.13-3,.58-5.94,1.75-8.95.15-9.66-5.12-20.26-8.65-28.17-16.68-4.16-4.22-9.09-5-14.77-4.24-9.52,1.25-18.06,5-26.61,9.1-19.87,9.52-40.46,12.31-59.86.2-14.88-9.29-29.27-8.07-44.44-3.1-8.48,2.78-17.13,5.34-25.13,9.18-9.5,4.57-17.84,3.76-26.71-1.46C55,143.41,42,141.87,28.52,145c-3.49.82-6.39,1.9-3.2,5.93q7.58,9.59,15.62,18.79c1.79,2,4.18,4.45,6.74.56a88.63,88.63,0,0,0,18.58-6.69l27.79,4.79c3.67,3,7.26,6.07,11.06,8.87,2.26,1.67,4.36,4.58,7.87,2.38,7.17,9.67,22.51,6.36,28.71-6.18,11.36-1.84,21.74-7,32.84-9.73L192,166.85c4.85,3.23,9.44,7,14.59,9.59,10.29,5.25,21.67,10.84,32.46,3.93a156.26,156.26,0,0,1,33.76-16.7C284.37,165.34,296.15,166.26,306.93,171.51ZM60,421.66V641.37c0,13.5,3.73,17.29,17.12,17.29H399.38c13.56,0,17.41-3.73,17.3-17.12-.42-51.77-1-103.55-1.36-155.32q-.74-106.38-1.23-212.75c-.14-25-.51-50-.29-75,.06-5.89-2.16-8.18-7.42-9.2-12.89-2.51-25,.64-34.36,8.76-23.41,20.26-53.42,16.19-72.44-1-11.19-10.13-23.3-14.23-39.76-.75-20.75,17-51.68,10.54-67.94-.35-12.47-8.34-25.23-9.09-37,1.17-20.94,18.31-48.32,13.33-66.2-2-2.9-2.48-5.85-4.92-9.59-6.15-10.88-3.59-19.14,2-19.14,13ZM239.49,44.3a14.74,14.74,0,0,0-2,0c-43.46,5.08-74.76,38.38-88,76.53-1.21,3.49.21,5.21,3.55,6.12,6,1.63,11,5,16.06,8.61,13.06,9.34,27.84,9.15,40.86.22,20.6-14.14,47.28-18.07,68.54,2.5a34.1,34.1,0,0,0,15.33,8.22c3.87,1,6.55.36,6.05-4.69-3.81-38.29-19-70.48-50.32-94C246.67,45.62,243.67,43.73,239.49,44.3ZM23.93,179.7c-.17,2.07-.31,3-.31,3.89q0,209.73,0,419.48a18.5,18.5,0,0,0,1.8,8.9c1.86,3.44,4.85,7.07,8.81,6.13,3.48-.83,1.64-5.26,1.64-8,.1-135.75-.06-271.5.37-407.24C36.23,192.39,31.06,186.76,23.93,179.7ZM179.45,32.11c-7.28-.17-13.82,2.45-20.16,5.3C123.6,53.47,103.67,82.27,94,119.11c-1.67,6.36-2.41,13-3.32,19.53-.45,3.17,1.24,6.87,4.44,4.56,8.42-6.07,19.83-8.42,23.1-21.1,9.08-35.25,28.32-64,58-85.42C177.54,35.71,179.54,35.15,179.45,32.11Z"/><path class="cls-2" d="M60,421.66V202c0-11,8.26-16.6,19.14-13,3.74,1.23,6.69,3.67,9.59,6.15,17.88,15.3,45.26,20.28,66.2,2,11.75-10.26,24.51-9.51,37-1.17,16.26,10.89,47.19,17.34,67.94.35,16.46-13.48,28.57-9.38,39.76.75,19,17.22,49,21.29,72.44,1,9.38-8.12,21.47-11.27,34.36-8.76,5.26,1,7.48,3.31,7.42,9.2-.22,25,.15,50,.29,75q.62,106.38,1.23,212.75c.36,51.77.94,103.55,1.36,155.32.11,13.39-3.74,17.12-17.3,17.12H77.09C63.7,658.66,60,654.87,60,641.37ZM162.16,538.74c3.65.27,6.31-1.67,8.54-4.26,6.65-7.71,13.37-15.38,19.82-23.26q50.58-61.79,101-123.67c13.86-17,27.8-33.87,41.59-50.88,4.56-5.63,4-12.32-1-16.29-4.46-3.53-12.07-2.83-15.82,1.74q-31.78,38.67-63.44,77.43-40,48.76-79.89,97.54c-6.62,8.08-13.24,16.17-19.58,24.47-2.54,3.33-3.73,7.32-1.25,11.43C154.39,536.75,157.48,539.11,162.16,538.74ZM283.49,318.81c.41-4.57-1.22-8.26-5.93-10.16-5.62-2.26-10.12,0-13.62,4.09-8.41,9.89-16.57,20-24.79,30q-39.92,48.71-79.81,97.45c-7.25,8.87-14.58,17.67-21.7,26.64-5.72,7.2-5.81,15.2-.54,19.09,5.49,4.06,11.85,2.34,17.81-4.8,2.6-3.13,5.23-6.25,7.8-9.4q54.89-67,109.62-134.23C276.8,332,283.81,327.63,283.49,318.81Zm46.72,91.06c-.44-3.84-2-7.18-5.86-9-3.66-1.71-7.44-2.2-10.84.37a37.24,37.24,0,0,0-5.94,5.9Q290.32,428,273.21,449c-10,12.2-20,24.33-29.7,36.76-4.26,5.47-3.5,12.15.87,15.84,4,3.4,11.38,2.65,16-1.66a34.17,34.17,0,0,0,3.15-3.33q30.63-37.47,61.22-75C327.44,418.22,330,414.69,330.21,409.87ZM229.71,320a9.07,9.07,0,0,0-2.17-6.25c-5.53-6.93-13.55-6.05-20.48,2.41q-17,20.67-33.79,41.45Q158.12,376.24,143.06,395c-4.09,5.09-4.37,10.2.38,15.08,5.12,5.27,12.26,4.23,18.32-3.1q31.86-38.58,63.47-77.37C227.67,326.64,229.46,323.25,229.71,320Z"/><path class="cls-3" d="M94.05,168.42l-27.79-4.79c-5.7-2.28-10.61-5.81-15.3-9.69-4.18-3.45-8.7-6.08-14.39-5.57-1.65.14-4.11-.71-4.57,1.45-.3,1.42.66,3.51,1.7,4.74,4.53,5.36,9.3,10.52,14,15.76-2.56,3.89-5,1.48-6.74-.56q-8-9.19-15.62-18.79c-3.19-4-.29-5.11,3.2-5.93C42,141.87,55,143.41,66.88,150.42c8.87,5.22,17.21,6,26.71,1.46,8-3.84,16.65-6.4,25.13-9.18,15.17-5,29.56-6.19,44.44,3.1,19.4,12.11,40,9.32,59.86-.2,8.55-4.1,17.09-7.85,26.61-9.1,5.68-.74,10.61,0,14.77,4.24,7.91,8,18.51,11.56,28.17,16.68,3,1.6,6,.43,8.95-.15,14.41-2.81,27.41-9.29,40.74-15.13,17.92-7.85,44.58-3.65,56.8,15.89,1.67,2.67,3.5,6.26-1.59,6.88A95.83,95.83,0,0,0,355.41,180c-.78.51-2,.37-3,.54q0-8.4,0-16.79c0-14.28-1.47-15.11-14.29-8.15a9.89,9.89,0,0,0-2,1,60.51,60.51,0,0,1-29.15,14.95c-10.78-5.25-22.56-6.17-34.16-7.84a43.86,43.86,0,0,1-15-11.5,8.75,8.75,0,0,0-6.31-3.56c-10.52-1.11-20.32.37-28.59,7.59A41.77,41.77,0,0,1,192,166.85l-17.43-3.09c-8.67-1.6-16-5.8-23-11-6.39-4.77-8.56-3.62-9.08,4.06-.38,5.56-.5,11.14-.74,16.71-6.2,12.54-21.54,15.85-28.71,6.18a96,96,0,0,1-.74-10.41c.15-4.81-.54-7.29-6-4.28A27.12,27.12,0,0,1,94.05,168.42Z"/><path class="cls-2" d="M23.93,179.7c7.13,7.06,12.3,12.69,12.27,23.16-.43,135.74-.27,271.49-.37,407.24,0,2.74,1.84,7.17-1.64,8-4,.94-6.95-2.69-8.81-6.13a18.5,18.5,0,0,1-1.8-8.9q0-209.75,0-419.48C23.62,182.68,23.76,181.77,23.93,179.7Z"/><path class="cls-4" d="M192,166.85A41.77,41.77,0,0,0,222.9,156.2c8.27-7.22,18.07-8.7,28.59-7.59a8.75,8.75,0,0,1,6.31,3.56,43.86,43.86,0,0,0,15,11.5A156.26,156.26,0,0,0,239,180.37c-10.79,6.91-22.17,1.32-32.46-3.93C201.4,173.81,196.81,170.08,192,166.85Z"/><path class="cls-4" d="M306.93,171.51a60.51,60.51,0,0,0,29.15-14.95,9.89,9.89,0,0,1,2-1c12.82-7,14.29-6.13,14.29,8.15q0,8.4,0,16.79c-4.5,7-11.49,7.73-18.66,6.79C322.71,185.85,314.52,179.08,306.93,171.51Z"/><path class="cls-4" d="M141.69,173.49c.24-5.57.36-11.15.74-16.71.52-7.68,2.69-8.83,9.08-4.06,7,5.24,14.35,9.44,23,11C163.43,166.48,153.05,171.65,141.69,173.49Z"/><path class="cls-4" d="M47.68,170.32c-4.68-5.24-9.45-10.4-14-15.76-1-1.23-2-3.32-1.7-4.74.46-2.16,2.92-1.31,4.57-1.45,5.69-.51,10.21,2.12,14.39,5.57,4.69,3.88,9.6,7.41,15.3,9.69A88.63,88.63,0,0,1,47.68,170.32Z"/><path class="cls-4" d="M94.05,168.42A27.12,27.12,0,0,0,106.21,165c5.49-3,6.18-.53,6,4.28a96,96,0,0,0,.74,10.41c-3.51,2.2-5.61-.71-7.87-2.38C101.31,174.49,97.72,171.39,94.05,168.42Z"/><path class="cls-5" d="M309.26,70.5l-.6-1.91,1.69.89A11.73,11.73,0,0,1,309.26,70.5Z"/><path class="cls-6" d="M162.16,538.74c-4.68.37-7.77-2-10-5.75-2.48-4.11-1.29-8.1,1.25-11.43,6.34-8.3,13-16.39,19.58-24.47q39.9-48.79,79.89-97.54,31.71-38.73,63.44-77.43c3.75-4.57,11.36-5.27,15.82-1.74,5,4,5.6,10.66,1,16.29-13.79,17-27.73,33.91-41.59,50.88q-50.51,61.83-101,123.67c-6.45,7.88-13.17,15.55-19.82,23.26C168.47,537.07,165.81,539,162.16,538.74Z"/><path class="cls-6" d="M283.49,318.81c.32,8.82-6.69,13.19-11.16,18.71q-54.54,67.35-109.62,134.23c-2.57,3.15-5.2,6.27-7.8,9.4-6,7.14-12.32,8.86-17.81,4.8-5.27-3.89-5.18-11.89.54-19.09,7.12-9,14.45-17.77,21.7-26.64q39.9-48.74,79.81-97.45c8.22-10,16.38-20.14,24.79-30,3.5-4.12,8-6.35,13.62-4.09C282.27,310.55,283.9,314.24,283.49,318.81Z"/><path class="cls-6" d="M330.21,409.87c-.18,4.82-2.77,8.35-5.5,11.7q-30.56,37.55-61.22,75a34.17,34.17,0,0,1-3.15,3.33c-4.58,4.31-11.95,5.06-16,1.66-4.37-3.69-5.13-10.37-.87-15.84,9.67-12.43,19.73-24.56,29.7-36.76q17.12-21,34.36-41.81a37.24,37.24,0,0,1,5.94-5.9c3.4-2.57,7.18-2.08,10.84-.37C328.22,402.69,329.77,406,330.21,409.87Z"/><path class="cls-6" d="M229.71,320c-.25,3.3-2,6.69-4.48,9.67Q193.57,368.37,161.76,407c-6.06,7.33-13.2,8.37-18.32,3.1-4.75-4.88-4.47-10-.38-15.08q15.06-18.76,30.21-37.45,16.85-20.78,33.79-41.45c6.93-8.46,14.95-9.34,20.48-2.41A9.07,9.07,0,0,1,229.71,320Z"/></svg>