<svg id="Capa_1" data-name="Capa 1" xmlns="http://www.w3.org/2000/svg" viewBox="0 0 1081 676"><defs><style>.cls-1{fill:#464646;}.cls-2{fill:#565656;}.cls-3{fill:#353535;}.cls-4{fill:#232323;}.cls-5{fill:#2b2b2b;}</style></defs><title>otras cosas</title><path class="cls-1" d="M0,40H1041a0,0,0,0,1,0,0V676a0,0,0,0,1,0,0H38.77A38.77,38.77,0,0,1,0,637.23V40A0,0,0,0,1,0,40Z"/><polygon class="cls-2" points="40 0 0 40 1041 40 1081 0 40 0"/><polygon class="cls-3" points="1041 676 1081 636 1081 0 1041 40 1041 676"/><rect class="cls-4" y="40" width="1041" height="60"/><polygon class="cls-5" points="1041 100 1081 60 1081 0 1041 40 1041 100"/></svg>