<?xml version="1.0" encoding="utf-8"?>
<!-- Generator: Adobe Illustrator 21.1.0, SVG Export Plug-In . SVG Version: 6.00 Build 0)  -->
<svg version="1.1" id="Capa_1" xmlns="http://www.w3.org/2000/svg" xmlns:xlink="http://www.w3.org/1999/xlink" x="0px" y="0px"
	 viewBox="0 0 1366 768" style="enable-background:new 0 0 1366 768;" xml:space="preserve">
<style type="text/css">
	.st0{fill:#7C7C7C;}
	.st1{fill:#040006;}
	.st2{fill:#CBD3D5;}
	.st3{opacity:0.3;}
	.st4{fill:#00090F;}
	.st5{fill:#001416;}
	.st6{fill:#BADAEB;}
	.st7{fill:#B3B3B3;}
	.st8{fill:#FCFAEF;}
	.st9{fill:#001634;}
	.st10{opacity:0.1;}
	.st11{opacity:0.8;}
	.st12{fill:#FFFFFF;}
	.st13{fill:#FEFEFE;}
	.st14{fill:none;stroke:#CBD3D5;stroke-width:5;stroke-miterlimit:10;}
	.st15{fill:#73AF97;}
	.st16{fill:none;stroke:#FFFFFF;stroke-width:5;stroke-linecap:round;stroke-miterlimit:10;}
	.st17{fill:#CBD3D5;stroke:#040006;stroke-width:11;stroke-miterlimit:10;}
	.st18{fill:#BADAEB;stroke:#B5B5B3;stroke-width:10;stroke-miterlimit:10;}
	.st19{opacity:0.4;fill:#FEFEFE;}
	.st20{opacity:0.4;}
	.st21{fill:#F2F2F2;stroke:#050006;stroke-width:5;stroke-miterlimit:10;}
	.st22{fill:none;stroke:#FFFFFF;stroke-width:10;stroke-linecap:round;stroke-miterlimit:10;}
</style>
<g>
	<rect x="233" y="741.5" class="st0" width="903.3" height="4.5"/>
	<polygon class="st1" points="1142.5,741.5 1136.3,741.5 1136.3,746 233,746 233,741.5 223,741.5 223,746 223,756 233,756 
		1136.3,756 1146.3,756 1146.3,746 1146.3,741.5 	"/>
	<polygon class="st1" points="223,731.5 223,731.6 223.1,731.5 	"/>
	<path class="st2" d="M1048.6,607.9H319.8c-8.5,0-16.4,4.6-20.7,11.9l-64.5,111.7h899.1l-64.5-111.7
		C1065.1,612.4,1057.1,607.9,1048.6,607.9z"/>
	<polygon class="st2" points="234.6,731.5 1133.8,731.5 1133.8,731.5 234.7,731.5 	"/>
	<path class="st1" d="M234.7,731.5l64.5-111.7c4.2-7.4,12.2-11.9,20.7-11.9h728.8c8.5,0,16.4,4.6,20.7,11.9l64.5,111.7h2.5h9
		L1078,614.8c-6-10.4-17.3-16.9-29.3-16.9H319.8c-12.1,0-23.3,6.5-29.3,16.9l-67.4,116.7h9.9H234.7z"/>
	<rect x="233" y="741.5" class="st1" width="903.3" height="0"/>
	<polygon class="st1" points="233,741.5 1136.3,741.5 1136.3,741.5 1142.5,741.5 1146.3,741.5 1146.3,741.5 1146.3,733.1 
		1145.3,731.5 1136.3,731.5 1133.8,731.5 1133.8,731.5 234.6,731.5 234.7,731.5 233,731.5 223.1,731.5 223,731.6 223,741.5 
		223,741.5 233,741.5 	"/>
</g>
<g>
	<g class="st3">
		<ellipse class="st4" cx="681.5" cy="548.8" rx="276" ry="40.1"/>
	</g>
	<g>
		<g>
			<path class="st2" d="M403.7,72.6c0-2.2,1.8-4,4-4H964c2.2,0,4,1.8,4,4v338.2c0,2.2-1.8,4-4,4H407.7c-2.2,0-4-1.8-4-4V72.6z"/>
		</g>
		<g>
			<path class="st5" d="M964,420H407.7c-5.1,0-9.3-4.2-9.3-9.3V72.6c0-5.1,4.2-9.3,9.3-9.3H964c5.1,0,9.3,4.2,9.3,9.3v338.2
				C973.2,415.8,969.1,420,964,420z M409,409.5h553.8V73.8H409V409.5z"/>
		</g>
	</g>
	<g>
		<g>
			<path class="st6" d="M444.2,97.3c0-2,1.8-3.7,4-3.7h476.2c2.2,0,4,1.6,4,3.7V362c0,2-1.8,3.7-4,3.7H448.2c-2.2,0-4-1.6-4-3.7
				V97.3z"/>
		</g>
		<g>
			<path class="st7" d="M924.5,371H448.2c-5.1,0-9.3-4-9.3-8.9V97.3c0-4.9,4.2-8.9,9.3-8.9h476.2c5.1,0,9.3,4,9.3,8.9V362
				C933.7,367,929.6,371,924.5,371z M449.5,360.5h473.7V98.8H449.5V360.5z"/>
		</g>
	</g>
	<g>
		<g>
			<path class="st2" d="M775.9,528.8c0-51.4-41.7-93-93-93c-51.4,0-93,41.7-93,93c0,1,0,2,0.1,3h186
				C775.9,530.8,775.9,529.8,775.9,528.8z"/>
		</g>
		<g>
			<path class="st5" d="M775.8,537h-186c-2.8,0-5.2-2.3-5.2-5.1c0-1.1-0.1-2.1-0.1-3.2c0-54.2,44.1-98.3,98.3-98.3
				s98.3,44.1,98.3,98.3c0,1.1,0,2.1-0.1,3.2C781,534.8,778.7,537,775.8,537z M595.1,526.5h175.5c-1.2-47.4-40.1-85.5-87.8-85.5
				C635.2,441,596.3,479.2,595.1,526.5z"/>
		</g>
	</g>
	<g>
		<g>
			<path class="st2" d="M901,545.8c0,2.2-1.8,4-4,4H472.8c-2.2,0-4-1.8-4-4v-21c0-2.2,1.8-4,4-4H897c2.2,0,4,1.8,4,4V545.8z"/>
		</g>
		<g>
			<path class="st5" d="M897,555H472.8c-5.1,0-9.3-4.2-9.3-9.3v-21c0-5.1,4.2-9.3,9.3-9.3H897c5.1,0,9.3,4.2,9.3,9.3v21
				C906.2,550.9,902.1,555,897,555z M474,544.5h421.7V526H474V544.5z"/>
		</g>
	</g>
	<g>
		<g>
			<path class="st2" d="M729.9,449.7c0,2.2-1.8,4-4,4h-81c-2.2,0-4-1.8-4-4v-31c0-2.2,1.8-4,4-4h81c2.2,0,4,1.8,4,4V449.7z"/>
		</g>
		<g>
			<path class="st5" d="M725.9,459h-81c-5.1,0-9.3-4.2-9.3-9.3v-31c0-5.1,4.2-9.3,9.3-9.3h81c5.1,0,9.3,4.2,9.3,9.3v31
				C735.1,454.9,731,459,725.9,459z M646.1,448.5h78.5V420h-78.5V448.5z"/>
		</g>
	</g>
	<g>
		<g>
			<path class="st8" d="M698.8,392.2c0,5.2-4.2,9.4-9.4,9.4l0,0c-5.2,0-9.4-4.2-9.4-9.4l0,0c0-5.2,4.2-9.4,9.4-9.4l0,0
				C694.5,382.8,698.8,387,698.8,392.2L698.8,392.2z"/>
		</g>
		<g>
			<path class="st9" d="M689.3,404.6c-6.9,0-12.4-5.6-12.4-12.4c0-6.9,5.6-12.4,12.4-12.4c6.9,0,12.4,5.6,12.4,12.4
				C701.8,399,696.2,404.6,689.3,404.6z M689.3,385.8c-3.5,0-6.4,2.9-6.4,6.4c0,3.5,2.9,6.4,6.4,6.4s6.4-2.9,6.4-6.4
				C695.8,388.6,692.9,385.8,689.3,385.8z"/>
		</g>
	</g>
	<g class="st10">
		<g>
			<path d="M644.8,418.5l129.4,102.6c0,0-4.4-48.3-44.3-67.6l-4-35H644.8z"/>
		</g>
	</g>
	<g class="st11">
		<g>
			<path class="st12" d="M420.2,168.5c-2.9,0-5.3-2.4-5.3-5.3V81.4c0-2.9,2.4-5.3,5.3-5.3h37.1c2.9,0,5.3,2.4,5.3,5.3
				s-2.4,5.3-5.3,5.3h-31.8v76.6C425.4,166.1,423.1,168.5,420.2,168.5z"/>
		</g>
	</g>
	<g class="st11">
		<g>
			<path class="st12" d="M419.6,205.6c-2.9,0-5.3-2.4-5.3-5.3v-23.8c0-2.9,2.4-5.3,5.3-5.3s5.3,2.4,5.3,5.3v23.8
				C424.8,203.2,422.5,205.6,419.6,205.6z"/>
		</g>
	</g>
	<g class="st11">
		<g>
			<path class="st12" d="M484.4,400h-64.1c-2.9,0-5.3-2.4-5.3-5.3v-55.1c0-2.9,2.4-5.3,5.3-5.3c2.9,0,5.3,2.4,5.3,5.3v49.9h58.8
				c2.9,0,5.3,2.4,5.3,5.3C489.7,397.7,487.3,400,484.4,400z"/>
		</g>
	</g>
	<g class="st11">
		<g>
			<path class="st12" d="M610,513c-0.3,0-0.6,0-1-0.1c-2.9-0.5-4.7-3.3-4.2-6.1c6.4-35.1,30.3-44.5,31.3-44.8c2.7-1,5.7,0.4,6.8,3.1
				c1,2.7-0.3,5.7-3,6.8c-0.9,0.3-19.4,8-24.7,36.9C614.7,511.2,612.5,513,610,513z"/>
		</g>
	</g>
	<g>
		<g>
			<path class="st12" d="M665.2,447h-12.9c-2.9,0-5.3-2.4-5.3-5.3s2.4-5.3,5.3-5.3h12.9c2.9,0,5.3,2.4,5.3,5.3S668.1,447,665.2,447z
				"/>
		</g>
	</g>
	<g class="st3">
		<g>
			<polygon class="st13" points="682.9,139.4 619.6,140.4 482.7,304.8 545.3,304.5 			"/>
		</g>
	</g>
</g>
<polygon class="st0" points="1074.8,715.3 309.7,714.5 350.8,633 1036.6,633 "/>
<line class="st14" x1="408.2" y1="631.3" x2="371.7" y2="722.6"/>
<line class="st14" x1="462.5" y1="625" x2="434.5" y2="721.4"/>
<line class="st14" x1="516.7" y1="629.1" x2="498.7" y2="723.2"/>
<line class="st14" x1="829.6" y1="629.8" x2="854.3" y2="723.9"/>
<line class="st14" x1="908.2" y1="629.8" x2="943.6" y2="721.8"/>
<line class="st14" x1="574.2" y1="628.3" x2="568.7" y2="683.6"/>
<line class="st14" x1="634.3" y1="628.3" x2="632.1" y2="682.4"/>
<line class="st14" x1="693.9" y1="628.8" x2="695.2" y2="685.5"/>
<line class="st14" x1="760.9" y1="628.3" x2="769.3" y2="684.2"/>
<line class="st14" x1="975.1" y1="624.3" x2="1021.7" y2="724.2"/>
<line class="st14" x1="320.7" y1="684.3" x2="1062.6" y2="684.3"/>
<line class="st14" x1="320.7" y1="658.9" x2="1062.6" y2="658.9"/>
<ellipse transform="matrix(0.8499 -0.527 0.527 0.8499 -271.0536 287.316)" class="st15" cx="368.8" cy="619.4" rx="6.3" ry="5.6"/>
<ellipse transform="matrix(0.8499 -0.527 0.527 0.8499 -263.1597 315.0259)" class="st0" cx="421.3" cy="619.4" rx="6.3" ry="5.6"/>
<ellipse transform="matrix(0.8499 -0.527 0.527 0.8499 -267.2195 300.7751)" class="st0" cx="394.3" cy="619.4" rx="6.3" ry="5.6"/>
<path class="st16" d="M292.3,650.3l12.2-19.9c5.5-9,15.3-14.5,25.9-14.5h23.9"/>
<line class="st16" x1="288.3" y1="658.6" x2="279.9" y2="672.9"/>
</svg>
